M48
INCH
T01C0.0191
T02C0.032
T03C0.0354
T04C0.0433
%
T01
X+018004Y+024642
X+021004Y+025892
X+022254Y+025392
X+023004Y+025892
X+023254Y+027392
X+021254Y+027392
X+027504Y+027392
X+027504Y+026142
X+029254Y+024642
X+029379Y+023632
X+029379Y+022881
X+028004Y+023142
X+028566Y+021027
X+026629Y+019142
X+026189Y+018398
X+025794Y+017634
X+025254Y+019517
X+024804Y+019978
X+024939Y+021027
X+025141Y+021632
X+023879Y+020570
X+021974Y+019188
X+021974Y+016632
X+023754Y+017142
X+024770Y+015931
X+026754Y+015142
X+027166Y+015931
X+028004Y+017392
X+028004Y+018142
X+032129Y+013892
X+032254Y+012142
X+028379Y+011142
X+026754Y+011237
X+026754Y+012142
X+023754Y+013142
X+028379Y+008892
X+028848Y+006458
X+030004Y+005408
X+032494Y+005014
X+022611Y+005803
X+022114Y+005408
X+014254Y+012642
X+015004Y+016892
X+011629Y+019142
X+007629Y+021017
X+008254Y+025892
X+012004Y+025892
X+014254Y+025892
X+012866Y+028665
X+017725Y+020570
X+020129Y+021142
X+010289Y+009754
X+009202Y+009754
X+007494Y+006457
X+004754Y+012017
T02
X+009504Y+022392
X+009504Y+020392
X+013754Y+020140
X+013754Y+022140
T03
X+009504Y+017642
X+009504Y+016642
X+009504Y+015642
X+009504Y+014642
X+008004Y+014142
X+007004Y+014142
X+007004Y+015142
X+007004Y+016142
X+006004Y+016142
X+006004Y+015142
X+006004Y+014142
X+006004Y+013142
X+006004Y+012142
X+006004Y+011142
X+006004Y+010142
X+006004Y+009142
X+006004Y+008142
X+006004Y+007142
X+007004Y+007142
X+007004Y+008142
X+007004Y+009142
X+007004Y+010142
X+008004Y+010142
X+007004Y+011142
X+007004Y+012142
X+007004Y+013142
X+009504Y+011892
X+009504Y+010892
X+010504Y+010892
X+010504Y+011892
X+011504Y+011892
X+011504Y+010892
X+015754Y+011142
X+016754Y+011142
X+016754Y+012142
X+015754Y+012142
X+015754Y+013142
X+016754Y+013142
X+016754Y+014142
X+016754Y+015142
X+016754Y+016142
X+015754Y+016142
X+015754Y+015142
X+016754Y+017142
X+016754Y+018142
X+016754Y+019142
X+016754Y+020142
X+008254Y+023642
X+008254Y+024642
X+007004Y+025142
X+007004Y+024142
X+007004Y+023142
X+007004Y+022142
X+007004Y+021142
X+007004Y+020142
X+007004Y+019142
X+007004Y+018142
X+007004Y+017142
X+006004Y+017142
X+006004Y+018142
X+006004Y+019142
X+006004Y+020142
X+006004Y+021142
X+006004Y+022142
X+006004Y+023142
X+006004Y+024142
X+006004Y+025142
X+005004Y+025142
X+005004Y+024142
X+008004Y+008142
X+008004Y+007142
X+027504Y+011142
X+027504Y+012142
X+027504Y+013142
X+027504Y+014142
X+030004Y+014142
X+030004Y+015142
X+030004Y+016142
X+031004Y+016142
X+031004Y+015142
X+031004Y+014142
X+031004Y+013142
X+031004Y+012142
X+031004Y+011142
X+031004Y+010142
X+031004Y+009142
X+031004Y+008142
X+031004Y+007142
X+030004Y+007142
X+030004Y+008142
X+030004Y+009142
X+030004Y+010142
X+030004Y+011142
X+030004Y+012142
X+030004Y+013142
X+032004Y+015142
X+031004Y+017142
X+031004Y+018142
X+031004Y+019142
X+031004Y+020142
X+031004Y+021142
X+031004Y+022142
X+031004Y+023142
X+031004Y+024142
X+031004Y+025142
X+030004Y+025142
X+030004Y+024142
X+030004Y+023142
X+030004Y+022142
X+030004Y+021142
X+030004Y+020142
X+030004Y+019142
X+030004Y+018142
X+030004Y+017142
X+032004Y+023142
X+032129Y+010142
T04
X+024504Y+007142
X+024504Y+008142
X+024504Y+009142
X+019254Y+009142
X+018254Y+009142
X+017254Y+009142
X+017254Y+008142
X+018254Y+008142
X+019254Y+008142
X+019254Y+007142
X+018254Y+007142
X+017254Y+007142
X+016254Y+007142
X+015254Y+007142
X+014254Y+007142
X+014254Y+008142
X+015254Y+008142
X+016254Y+008142
X+016254Y+009142
X+015254Y+009142
X+014254Y+009142
X+013254Y+009142
X+013254Y+008142
X+013254Y+007142
X+012254Y+007142
X+012254Y+008142
X+012254Y+009142
T00
M30
