G04 DipTrace 3.0.0.1*
G04 TopMask.gbr*
%MOIN*%
G04 #@! TF.FileFunction,Soldermask,Top*
G04 #@! TF.Part,Single*
%ADD23R,0.066929X0.066929*%
%ADD24C,0.066929*%
%ADD49C,0.055874*%
%ADD51R,0.025591X0.041339*%
%ADD53R,0.041339X0.025591*%
%ADD55R,0.070866X0.066929*%
%ADD57R,0.055118X0.055118*%
%ADD63R,0.090551X0.125984*%
%ADD65R,0.03937X0.059055*%
%ADD67R,0.125984X0.090551*%
%ADD69R,0.059055X0.03937*%
%ADD71C,0.074803*%
%ADD72R,0.074803X0.074803*%
%ADD73R,0.027559X0.070866*%
%ADD75R,0.070866X0.11811*%
%FSLAX26Y26*%
G04*
G70*
G90*
G75*
G01*
G04 TopMask*
%LPD*%
D75*
X2675394Y714174D3*
Y883466D3*
D73*
X2250394Y2739173D3*
X2214961D3*
X2179528D3*
Y2623031D3*
X2214961D3*
X2250394D3*
D72*
X2450394Y714173D3*
D71*
Y814173D3*
Y914173D3*
X1925394Y714173D3*
Y814173D3*
Y914173D3*
X1825394D3*
Y814173D3*
Y714173D3*
X1725394D3*
Y814173D3*
Y914173D3*
X1625394D3*
Y814173D3*
Y714173D3*
X1525394D3*
Y814173D3*
Y914173D3*
X1425394D3*
Y814173D3*
Y714173D3*
X1325394D3*
Y814173D3*
Y914173D3*
X1225394D3*
Y814173D3*
Y714173D3*
D69*
X2750394Y2314173D3*
Y2363386D3*
Y2412598D3*
Y2461811D3*
Y2511024D3*
Y2560236D3*
D67*
X2858663Y2213780D3*
Y2660630D3*
D65*
X1750394Y2614173D3*
X1701181D3*
X1651969D3*
X1602756D3*
X1553543D3*
X1504331D3*
D63*
X1850787Y2722442D3*
X1403937D3*
D23*
X950394Y1764173D3*
D24*
Y1664173D3*
Y1564173D3*
Y1464173D3*
D69*
X2700394Y1714173D3*
Y1763386D3*
Y1812598D3*
Y1861811D3*
D67*
X2808661Y1613780D3*
Y1962205D3*
D23*
X2750394Y1114173D3*
D24*
Y1214173D3*
Y1314173D3*
Y1414173D3*
D65*
X1125394Y2614173D3*
X1076181D3*
X1026969D3*
X977756D3*
X928543D3*
X879331D3*
D63*
X1225787Y2722442D3*
X778937D3*
D23*
X1150394Y1189173D3*
D24*
Y1089173D3*
X1050394Y1189173D3*
Y1089173D3*
X950394Y1189173D3*
Y1089173D3*
D23*
X3200394Y2314173D3*
Y1514173D3*
X3212894Y1014173D3*
X500394Y2414173D3*
X825394Y2464173D3*
Y2364173D3*
X800394Y1414173D3*
Y1014173D3*
Y814173D3*
Y714173D3*
D57*
X1350394Y1314173D3*
D55*
X1389764Y1442126D3*
D57*
X1429134Y1314173D3*
X1350394Y1689173D3*
D55*
X1389764Y1817126D3*
D57*
X1429134Y1689173D3*
D53*
X1050394Y614173D3*
Y645669D3*
Y677165D3*
Y708661D3*
X989370D3*
Y677165D3*
Y645669D3*
Y614173D3*
X2150394Y714173D3*
Y682677D3*
Y651181D3*
Y619685D3*
X2211417D3*
Y651181D3*
Y682677D3*
Y714173D3*
D51*
X1162894Y2426673D3*
X1131398D3*
X1099902D3*
X1068406D3*
Y2365650D3*
X1099902D3*
X1131398D3*
X1162894D3*
X2650394Y2139173D3*
X2618898D3*
X2587402D3*
X2555906D3*
Y2078150D3*
X2587402D3*
X2618898D3*
X2650394D3*
X1725394Y2339173D3*
X1693898D3*
X1662402D3*
X1630906D3*
Y2278150D3*
X1662402D3*
X1693898D3*
X1725394D3*
D49*
X950394Y2239173D3*
Y2039173D3*
X1375394Y2013976D3*
Y2213976D3*
D23*
X600394Y714173D3*
Y814173D3*
Y914173D3*
Y1014173D3*
Y1114173D3*
Y1214173D3*
Y1314173D3*
Y1414173D3*
Y1514173D3*
Y1614173D3*
Y1714173D3*
Y1814173D3*
Y1914173D3*
Y2014173D3*
Y2114173D3*
Y2214173D3*
Y2314173D3*
Y2414173D3*
Y2514173D3*
X700394Y714173D3*
Y814173D3*
Y914173D3*
Y1014173D3*
Y1114173D3*
Y1214173D3*
Y1314173D3*
Y1414173D3*
Y1514173D3*
Y1614173D3*
Y1714173D3*
Y1814173D3*
Y1914173D3*
Y2014173D3*
Y2114173D3*
Y2214173D3*
Y2314173D3*
Y2414173D3*
Y2514173D3*
X3000394Y714173D3*
Y814173D3*
Y914173D3*
Y1014173D3*
Y1114173D3*
Y1214173D3*
Y1314173D3*
Y1414173D3*
Y1514173D3*
Y1614173D3*
Y1714173D3*
Y1814173D3*
Y1914173D3*
Y2014173D3*
Y2114173D3*
Y2214173D3*
Y2314173D3*
Y2414173D3*
Y2514173D3*
X3100394Y714173D3*
Y814173D3*
Y914173D3*
Y1014173D3*
Y1114173D3*
Y1214173D3*
Y1314173D3*
Y1414173D3*
Y1514173D3*
Y1614173D3*
Y1714173D3*
Y1814173D3*
Y1914173D3*
Y2014173D3*
Y2114173D3*
Y2214173D3*
Y2314173D3*
Y2414173D3*
Y2514173D3*
X1675394Y1114173D3*
Y1214173D3*
Y1314173D3*
Y1414173D3*
Y1514175D3*
Y1614173D3*
Y1714173D3*
Y1814175D3*
Y1914175D3*
Y2014173D3*
X500394Y2514173D3*
M02*
