G04 DipTrace 3.2.0.1*
G04 BottomSilk.gbr*
%MOIN*%
G04 #@! TF.FileFunction,Legend,Bot*
G04 #@! TF.Part,Single*
%ADD77C,0.006176*%
%FSLAX26Y26*%
G04*
G70*
G90*
G75*
G01*
G04 BotSilk*
%LPD*%
X2587967Y480134D2*
D77*
Y439942D1*
X2574570D1*
X2568822Y441887D1*
X2564975Y445690D1*
X2563074Y449537D1*
X2561173Y455240D1*
Y464835D1*
X2563074Y470583D1*
X2564975Y474386D1*
X2568822Y478233D1*
X2574570Y480134D1*
X2587967D1*
X2548821Y455240D2*
X2525873D1*
Y459087D1*
X2527774Y462934D1*
X2529676Y464835D1*
X2533523Y466736D1*
X2539271D1*
X2543073Y464835D1*
X2546920Y460988D1*
X2548821Y455240D1*
Y451438D1*
X2546920Y445690D1*
X2543073Y441887D1*
X2539271Y439942D1*
X2533523D1*
X2529676Y441887D1*
X2525873Y445690D1*
X2492475Y460988D2*
X2494376Y464835D1*
X2500124Y466736D1*
X2505873D1*
X2511621Y464835D1*
X2513522Y460988D1*
X2511621Y457186D1*
X2507774Y455240D1*
X2498223Y453339D1*
X2494376Y451438D1*
X2492475Y447591D1*
Y445690D1*
X2494376Y441887D1*
X2500124Y439942D1*
X2505873D1*
X2511621Y441887D1*
X2513522Y445690D1*
X2480124Y480134D2*
X2478222Y478233D1*
X2476277Y480134D1*
X2478222Y482079D1*
X2480124Y480134D1*
X2478222Y466736D2*
Y439942D1*
X2440978Y464835D2*
Y434194D1*
X2442879Y428490D1*
X2444780Y426544D1*
X2448627Y424643D1*
X2454375D1*
X2458178Y426544D1*
X2440978Y459087D2*
X2444780Y462890D1*
X2448627Y464835D1*
X2454375D1*
X2458178Y462890D1*
X2462024Y459087D1*
X2463926Y453339D1*
Y449492D1*
X2462024Y443789D1*
X2458178Y439942D1*
X2454375Y438041D1*
X2448627D1*
X2444780Y439942D1*
X2440978Y443789D1*
X2428626Y466736D2*
Y439942D1*
Y459087D2*
X2422878Y464835D1*
X2419032Y466736D1*
X2413328D1*
X2409481Y464835D1*
X2407580Y459087D1*
Y439942D1*
X2395228Y455240D2*
X2372280D1*
Y459087D1*
X2374182Y462934D1*
X2376083Y464835D1*
X2379930Y466736D1*
X2385678D1*
X2389480Y464835D1*
X2393327Y460988D1*
X2395228Y455240D1*
Y451438D1*
X2393327Y445690D1*
X2389480Y441887D1*
X2385678Y439942D1*
X2379930D1*
X2376083Y441887D1*
X2372280Y445690D1*
X2336981Y480134D2*
Y439942D1*
Y460988D2*
X2340784Y464835D1*
X2344630Y466736D1*
X2350378D1*
X2354181Y464835D1*
X2358028Y460988D1*
X2359929Y455240D1*
Y451438D1*
X2358028Y445690D1*
X2354181Y441887D1*
X2350378Y439942D1*
X2344630D1*
X2340784Y441887D1*
X2336981Y445690D1*
X2285749Y480134D2*
Y439942D1*
Y460988D2*
X2281902Y464835D1*
X2278100Y466736D1*
X2272352D1*
X2268549Y464835D1*
X2264702Y460988D1*
X2262801Y455240D1*
Y451438D1*
X2264702Y445690D1*
X2268549Y441887D1*
X2272352Y439942D1*
X2278100D1*
X2281902Y441887D1*
X2285749Y445690D1*
X2248504Y466736D2*
X2237052Y439942D1*
X2240855Y432293D1*
X2244702Y428446D1*
X2248504Y426544D1*
X2250450D1*
X2225556Y466736D2*
X2237052Y439942D1*
X2143727D2*
Y480134D1*
X2159025Y439942D1*
X2174324Y480134D1*
Y439942D1*
X2108427Y466736D2*
Y439942D1*
Y460988D2*
X2112230Y464835D1*
X2116077Y466736D1*
X2121781D1*
X2125627Y464835D1*
X2129430Y460988D1*
X2131375Y455240D1*
Y451438D1*
X2129430Y445690D1*
X2125627Y441887D1*
X2121781Y439942D1*
X2116077D1*
X2112230Y441887D1*
X2108427Y445690D1*
X2096076Y466736D2*
Y439942D1*
Y459087D2*
X2090328Y464835D1*
X2086481Y466736D1*
X2080777D1*
X2076931Y464835D1*
X2075029Y459087D1*
Y439942D1*
X2053127Y466736D2*
X2056930Y464835D1*
X2060777Y460988D1*
X2062678Y455240D1*
Y451438D1*
X2060777Y445690D1*
X2056930Y441887D1*
X2053127Y439942D1*
X2047379D1*
X2043533Y441887D1*
X2039730Y445690D1*
X2037785Y451438D1*
Y455240D1*
X2039730Y460988D1*
X2043533Y464835D1*
X2047379Y466736D1*
X2053127D1*
X2017784Y480178D2*
X2015838Y478277D1*
X2013937Y480178D1*
X2015838Y482079D1*
X2017784Y480178D1*
X2015838Y466781D2*
Y434238D1*
X2017784Y428490D1*
X2021586Y426589D1*
X2025433D1*
X1999685Y443789D2*
X2001586Y441843D1*
X1999685Y439942D1*
X1997739Y441843D1*
X1999685Y443789D1*
X1985388Y480134D2*
X1970089Y439942D1*
X1954790Y480134D1*
X1901613Y470539D2*
Y472440D1*
X1899711Y476287D1*
X1897810Y478188D1*
X1893963Y480090D1*
X1886314D1*
X1882512Y478188D1*
X1880610Y476287D1*
X1878665Y472440D1*
Y468638D1*
X1880610Y464791D1*
X1884413Y459087D1*
X1903558Y439942D1*
X1876764D1*
X1852916Y480090D2*
X1858664Y478188D1*
X1862511Y472440D1*
X1864412Y462890D1*
Y457142D1*
X1862511Y447591D1*
X1858664Y441843D1*
X1852916Y439942D1*
X1849114D1*
X1843366Y441843D1*
X1839563Y447591D1*
X1837618Y457142D1*
Y462890D1*
X1839563Y472440D1*
X1843366Y478188D1*
X1849114Y480090D1*
X1852916D1*
X1839563Y472440D2*
X1862511Y447591D1*
X1825266Y472440D2*
X1821419Y474386D1*
X1815671Y480090D1*
Y439942D1*
X1793769Y480090D2*
X1799473Y478188D1*
X1801419Y474386D1*
Y470539D1*
X1799473Y466736D1*
X1795671Y464791D1*
X1788021Y462890D1*
X1782273Y460988D1*
X1778471Y457142D1*
X1776569Y453339D1*
Y447591D1*
X1778471Y443789D1*
X1780372Y441843D1*
X1786120Y439942D1*
X1793769D1*
X1799473Y441843D1*
X1801419Y443789D1*
X1803320Y447591D1*
Y453339D1*
X1801419Y457142D1*
X1797572Y460988D1*
X1791868Y462890D1*
X1784219Y464791D1*
X1780372Y466736D1*
X1778471Y470539D1*
Y474386D1*
X1780372Y478188D1*
X1786120Y480090D1*
X1793769D1*
M02*
