G04 DipTrace 3.2.0.1*
G04 Bottom.gbr*
%MOIN*%
G04 #@! TF.FileFunction,Copper,L2,Bot*
G04 #@! TF.Part,Single*
G04 #@! TA.AperFunction,CopperBalancing*
%ADD10C,0.009843*%
G04 #@! TA.AperFunction,Conductor*
%ADD14C,0.019685*%
%ADD15C,0.012992*%
%ADD18C,0.017717*%
G04 #@! TA.AperFunction,CopperBalancing*
%ADD19C,0.025*%
G04 #@! TA.AperFunction,ComponentPad*
%ADD23C,0.059055*%
%ADD24R,0.059055X0.059055*%
%ADD25C,0.059055*%
%ADD27R,0.059055X0.041339*%
%ADD28O,0.059055X0.041339*%
%ADD29C,0.06*%
%ADD30C,0.06*%
G04 #@! TA.AperFunction,ViaPad*
%ADD37C,0.04*%
%FSLAX26Y26*%
G04*
G70*
G90*
G75*
G01*
G04 Bottom*
%LPD*%
X1518701Y1168701D2*
D14*
X1581201D1*
X1631201Y1118701D1*
X918701Y1156201D2*
Y1168701D1*
X1518701D1*
X1618701Y1368701D2*
D15*
X831201D1*
X718701Y1256201D1*
X643701D1*
X606201Y1218701D1*
Y656201D1*
X593701Y643701D1*
X506201D1*
X2736024Y1062894D2*
Y724537D1*
X2735995Y724508D1*
X668701Y643701D2*
X656201D1*
Y581201D1*
X631201Y556201D1*
X668701Y1393701D2*
X643701D1*
X506201Y1256201D1*
Y1143701D1*
X1043701Y743701D2*
Y731201D1*
X1006201Y693701D1*
X856201D1*
D18*
X793701Y631201D1*
D15*
D3*
X1668701Y556201D2*
X1706201Y518701D1*
X2556201D1*
X2606201Y568701D1*
Y1218701D1*
X2475020Y1349882D1*
X1774224D1*
X1680543Y1256201D1*
X918701D1*
X654272Y1205142D2*
Y1133169D1*
X686949Y1100492D1*
X762992D1*
X818701Y1156201D1*
X1856201Y1218701D2*
Y1093701D1*
X1806201Y1043701D1*
X1481201D1*
X1468701Y1056201D1*
X1231201Y593701D2*
D10*
Y581201D1*
X768701D1*
X743701Y606201D1*
Y706201D1*
X768701Y731201D1*
X793701D1*
X818701Y543701D2*
D15*
Y531201D1*
X1256201D1*
X1331201Y606201D1*
Y718701D1*
X1431201Y818701D1*
X561909Y693701D2*
Y787992D1*
X506201Y843701D1*
X1493701Y681201D2*
Y756201D1*
X1568701Y831201D1*
Y906201D1*
X1518701Y956201D1*
X1368701D1*
X1318701Y1006201D1*
X1081201D1*
X1518701Y1081201D2*
Y1093701D1*
X1481201Y1131201D1*
X993701D1*
X968701Y1106201D1*
X881201D1*
X731201Y956201D1*
Y906201D1*
X668701Y843701D1*
X1518701Y856201D2*
Y831201D1*
X1381201Y693701D1*
Y606201D1*
X1256201Y481201D1*
X784134D1*
X718701Y546634D1*
Y681201D1*
X656201Y743701D1*
X668701D1*
X1968701Y931201D2*
X1768701D1*
Y943701D1*
X1718701Y993701D1*
X1543701D1*
X1531201Y1006201D1*
X1368701D1*
X1318701Y1056201D1*
X1056201D1*
X931201Y931201D1*
X793701D1*
X1768701D2*
D3*
X1218701Y956201D2*
Y918701D1*
X1156201Y856201D1*
X793701D1*
Y831201D1*
X1918701Y752146D2*
X1953937Y787382D1*
X2475020D1*
X2531201Y731201D1*
X1406201Y1068701D2*
X1393701D1*
X1368701Y1093701D1*
X1018701D1*
X993701Y1068701D1*
X943701D1*
Y1056201D1*
D37*
X1831201Y1406201D3*
X1518701Y1168701D3*
X1631201Y1118701D3*
X1406201Y1068701D3*
X943701Y1056201D3*
X1493701Y681201D3*
X1818701Y618701D3*
X1081201Y1006201D3*
X1768701Y831201D3*
X1231201D3*
X1468701Y1056201D3*
X668701Y1393701D3*
X1618701Y1368701D3*
X1668701Y556201D3*
X654272Y1205142D3*
X1856201Y1218701D3*
X1231201Y593701D3*
X1431201Y818701D3*
X818701Y543701D3*
X561909Y693701D3*
X1518701Y1081201D3*
Y856201D3*
X1768701Y931201D3*
X1968701D3*
X1218701Y956201D3*
X1011988Y1302382D3*
X1918701Y752146D3*
X1699799Y935020D3*
X2018701Y697661D3*
X1868701D3*
X1043701Y743701D3*
X557822Y1392848D2*
D19*
X802289D1*
X1664131D2*
X2679605D1*
X566900Y1367979D2*
X777421D1*
X1670446D2*
X1739260D1*
X2509957D2*
X2670491D1*
X566685Y1343110D2*
X752552D1*
X1663270D2*
X1714392D1*
X2534825D2*
X2670706D1*
X556996Y1318241D2*
X727685D1*
X833807D2*
X1689525D1*
X2559693D2*
X2680395D1*
X434703Y1293373D2*
X456688D1*
X530730D2*
X670665D1*
X966722D2*
X1664657D1*
X1770780D2*
X2081954D1*
X2205444D2*
X2333180D1*
X2429218D2*
X2478475D1*
X2584596D2*
X2706698D1*
X2780703D2*
X2802724D1*
X434703Y1268504D2*
X602951D1*
X1745911D2*
X2087588D1*
X2199810D2*
X2321230D1*
X2441167D2*
X2503343D1*
X2609465D2*
X2802724D1*
X434703Y1243635D2*
X578084D1*
X1721043D2*
X1811244D1*
X1901182D2*
X2109513D1*
X2177885D2*
X2321302D1*
X2441131D2*
X2528210D1*
X2634297D2*
X2802724D1*
X434703Y1218766D2*
X567965D1*
X966507D2*
X1804462D1*
X1907965D2*
X2333395D1*
X2429003D2*
X2553077D1*
X2644451D2*
X2802724D1*
X434703Y1193898D2*
X473123D1*
X539269D2*
X567965D1*
X1613786D2*
X1811172D1*
X1901253D2*
X2233601D1*
X2328778D2*
X2433619D1*
X2528797D2*
X2567970D1*
X2644451D2*
X2802724D1*
X434703Y1169029D2*
X450659D1*
X1638654D2*
X1817954D1*
X1894436D2*
X2221328D1*
X2341050D2*
X2421346D1*
X2541068D2*
X2567970D1*
X2644451D2*
X2802724D1*
X434703Y1144160D2*
X444938D1*
X1675865D2*
X1817954D1*
X1894436D2*
X2221185D1*
X2341230D2*
X2421168D1*
X2541213D2*
X2567970D1*
X2644451D2*
X2674761D1*
X434703Y1119291D2*
X450228D1*
X1552424D2*
X1572829D1*
X1682934D2*
X1817954D1*
X1894436D2*
X2232955D1*
X2329459D2*
X2432974D1*
X2529442D2*
X2567970D1*
X2644451D2*
X2674761D1*
X434703Y1094423D2*
X471652D1*
X540740D2*
X567965D1*
X1568643D2*
X1585856D1*
X1676547D2*
X1803888D1*
X1894436D2*
X2567970D1*
X2644451D2*
X2674761D1*
X434703Y1069554D2*
X450911D1*
X644446D2*
X666538D1*
X783390D2*
X791487D1*
X1885070D2*
X2567970D1*
X2644451D2*
X2674761D1*
X434703Y1044685D2*
X444938D1*
X644446D2*
X766619D1*
X872741D2*
X893327D1*
X1860238D2*
X2567970D1*
X2644451D2*
X2678171D1*
X2793873D2*
X2802724D1*
X434703Y1019816D2*
X450013D1*
X644446D2*
X741752D1*
X847874D2*
X908004D1*
X1835370D2*
X2567970D1*
X2644451D2*
X2699450D1*
X2772593D2*
X2802724D1*
X434703Y994948D2*
X470862D1*
X541530D2*
X567965D1*
X823005D2*
X941913D1*
X1770492D2*
X2567970D1*
X2644451D2*
X2802724D1*
X434703Y970079D2*
X451161D1*
X840266D2*
X917046D1*
X1023131D2*
X1045224D1*
X1117184D2*
X1168953D1*
X1801424D2*
X1935978D1*
X2001442D2*
X2567970D1*
X2644451D2*
X2802724D1*
X434703Y945210D2*
X444938D1*
X998264D2*
X1168199D1*
X1582745D2*
X1714142D1*
X2018416D2*
X2111917D1*
X2175480D2*
X2567970D1*
X2644451D2*
X2802724D1*
X434703Y920341D2*
X449762D1*
X973396D2*
X1167302D1*
X1342752D2*
X1501528D1*
X1604025D2*
X1718160D1*
X2019241D2*
X2088270D1*
X2199129D2*
X2567970D1*
X2644451D2*
X2802724D1*
X434703Y895472D2*
X470109D1*
X542283D2*
X567965D1*
X934749D2*
X1142434D1*
X1248377D2*
X1486492D1*
X1606932D2*
X1732299D1*
X2005102D2*
X2081991D1*
X2205408D2*
X2567970D1*
X2644451D2*
X2802724D1*
X434703Y870604D2*
X451449D1*
X1223652D2*
X1469088D1*
X1606932D2*
X2086655D1*
X2200780D2*
X2567970D1*
X2644451D2*
X2802724D1*
X434703Y845735D2*
X444938D1*
X1198785D2*
X1387524D1*
X1606932D2*
X2106428D1*
X2180971D2*
X2567970D1*
X2644451D2*
X2802724D1*
X434703Y820866D2*
X449547D1*
X725365D2*
X733354D1*
X1164085D2*
X1379486D1*
X1605425D2*
X1938920D1*
X2490042D2*
X2567970D1*
X2644451D2*
X2802724D1*
X434703Y795997D2*
X469356D1*
X705521D2*
X744121D1*
X843281D2*
X1355444D1*
X1586550D2*
X1893778D1*
X2519467D2*
X2567970D1*
X2644451D2*
X2802724D1*
X434703Y771129D2*
X451699D1*
X723176D2*
X748067D1*
X839333D2*
X1330576D1*
X1561681D2*
X1870776D1*
X2644451D2*
X2674726D1*
X434703Y746260D2*
X445010D1*
X853005D2*
X1305707D1*
X1536814D2*
X1867295D1*
X1970080D2*
X2071404D1*
X2191018D2*
X2463080D1*
X2644451D2*
X2674726D1*
X434703Y721391D2*
X449332D1*
X854154D2*
X1293041D1*
X1531934D2*
X1877738D1*
X1959673D2*
X2070256D1*
X2192131D2*
X2470257D1*
X2644451D2*
X2674726D1*
X434703Y696522D2*
X468638D1*
X843639D2*
X1292969D1*
X1543022D2*
X2080663D1*
X2181724D2*
X2480664D1*
X2644451D2*
X2674726D1*
X434703Y671654D2*
X451987D1*
X838831D2*
X1292969D1*
X1419437D2*
X1442892D1*
X1544529D2*
X2567970D1*
X2644451D2*
X2674726D1*
X434703Y646785D2*
X445010D1*
X852861D2*
X1292969D1*
X1419437D2*
X1455991D1*
X1531432D2*
X2102373D1*
X2160014D2*
X2502374D1*
X2560016D2*
X2567954D1*
X2644451D2*
X2679104D1*
X2792869D2*
X2802724D1*
X434703Y621916D2*
X449117D1*
X854224D2*
X1188331D1*
X1274070D2*
X1292969D1*
X1419437D2*
X2076608D1*
X2185815D2*
X2476609D1*
X2644451D2*
X2674761D1*
X434703Y597047D2*
X467955D1*
X544437D2*
X630440D1*
X1418253D2*
X1638677D1*
X1698723D2*
X2069538D1*
X2192849D2*
X2469539D1*
X2644451D2*
X2681543D1*
X2790465D2*
X2802724D1*
X434703Y572178D2*
X680462D1*
X1400239D2*
X1619622D1*
X1717778D2*
X2073486D1*
X2188902D2*
X2473487D1*
X2644451D2*
X2706734D1*
X2765238D2*
X2802724D1*
X434703Y547310D2*
X443576D1*
X543791D2*
X680462D1*
X1438205D2*
X1461697D1*
X1550701D2*
X1617757D1*
X2637346D2*
X2693601D1*
X2793801D2*
X2802724D1*
X561877Y522441D2*
X689899D1*
X1565198D2*
X1630352D1*
X2612980D2*
X2675514D1*
X567798Y497572D2*
X714696D1*
X1566849D2*
X1674274D1*
X2588113D2*
X2669630D1*
X564747Y472703D2*
X739598D1*
X1300768D2*
X1342920D1*
X1444484D2*
X1455416D1*
X1556980D2*
X2672644D1*
X551291Y447835D2*
X768808D1*
X1271522D2*
X1384259D1*
X1403109D2*
X1496791D1*
X1515608D2*
X2686101D1*
X2794589Y619898D2*
X2793146Y610789D1*
X2790295Y602017D1*
X2786109Y593799D1*
X2780688Y586337D1*
X2774165Y579816D1*
X2766705Y574395D1*
X2758487Y570207D1*
X2749715Y567357D1*
X2740606Y565915D1*
X2731383D1*
X2722273Y567357D1*
X2713501Y570207D1*
X2705283Y574395D1*
X2697823Y579816D1*
X2691301Y586337D1*
X2685879Y593799D1*
X2681693Y602017D1*
X2678843Y610789D1*
X2677400Y619898D1*
Y629121D1*
X2678843Y638230D1*
X2681693Y647001D1*
X2685879Y655219D1*
X2691301Y662681D1*
X2694127Y665739D1*
X2677219Y665732D1*
Y783283D1*
X2794770D1*
Y665732D1*
X2777883D1*
X2783545Y659056D1*
X2788364Y651193D1*
X2791894Y642672D1*
X2794046Y633703D1*
X2794770Y624509D1*
X2794589Y619898D1*
X565167Y1350576D2*
X563407Y1339466D1*
X559930Y1328768D1*
X554823Y1318745D1*
X548211Y1309644D1*
X540257Y1301690D1*
X531156Y1295079D1*
X521134Y1289971D1*
X510436Y1286495D1*
X499325Y1284735D1*
X488076D1*
X476966Y1286495D1*
X466268Y1289971D1*
X456245Y1295079D1*
X447144Y1301690D1*
X439190Y1309644D1*
X432579Y1318745D1*
X432181Y1319454D1*
X432185Y530492D1*
X435705Y535837D1*
X443010Y544391D1*
X451564Y551697D1*
X461156Y557573D1*
X471549Y561878D1*
X482487Y564504D1*
X493701Y565387D1*
X504915Y564504D1*
X515853Y561878D1*
X526245Y557573D1*
X535837Y551697D1*
X544391Y544391D1*
X551697Y535837D1*
X557573Y526245D1*
X561878Y515853D1*
X564504Y504915D1*
X565387Y493701D1*
X564504Y482487D1*
X561878Y471549D1*
X557573Y461156D1*
X551697Y451564D1*
X544391Y443010D1*
X535837Y435705D1*
X530448Y432181D1*
X2706907Y432185D1*
X2701564Y435705D1*
X2693010Y443010D1*
X2685705Y451564D1*
X2679828Y461156D1*
X2675524Y471549D1*
X2672898Y482487D1*
X2672014Y493701D1*
X2672898Y504915D1*
X2675524Y515853D1*
X2679828Y526245D1*
X2685705Y535837D1*
X2693010Y544391D1*
X2701564Y551697D1*
X2711156Y557573D1*
X2721549Y561878D1*
X2732487Y564504D1*
X2743701Y565387D1*
X2754915Y564504D1*
X2765853Y561878D1*
X2776245Y557573D1*
X2785837Y551697D1*
X2794391Y544391D1*
X2801697Y535837D1*
X2805220Y530448D1*
X2805217Y1319409D1*
X2801697Y1314064D1*
X2794391Y1305510D1*
X2785837Y1298205D1*
X2776245Y1292328D1*
X2765853Y1288024D1*
X2754915Y1285398D1*
X2743701Y1284514D1*
X2732487Y1285398D1*
X2721549Y1288024D1*
X2711156Y1292328D1*
X2701564Y1298205D1*
X2693010Y1305510D1*
X2685705Y1314064D1*
X2679828Y1323656D1*
X2675524Y1334049D1*
X2672898Y1344987D1*
X2672014Y1356201D1*
X2672898Y1367415D1*
X2675524Y1378353D1*
X2679828Y1388745D1*
X2685705Y1398337D1*
X2693010Y1406891D1*
X2701564Y1414197D1*
X2706954Y1417720D1*
X1623455Y1417717D1*
X1630198Y1416588D1*
X1637547Y1414199D1*
X1644433Y1410692D1*
X1650685Y1406150D1*
X1656150Y1400685D1*
X1660692Y1394433D1*
X1664199Y1387547D1*
X1666588Y1380198D1*
X1667797Y1372564D1*
Y1364837D1*
X1666588Y1357203D1*
X1664199Y1349854D1*
X1660692Y1342969D1*
X1656150Y1336717D1*
X1650685Y1331252D1*
X1644433Y1326710D1*
X1637547Y1323202D1*
X1630198Y1320814D1*
X1622564Y1319605D1*
X1614837D1*
X1607203Y1320814D1*
X1599854Y1323202D1*
X1592969Y1326710D1*
X1586717Y1331252D1*
X1584865Y1332965D1*
X846007Y1332957D1*
X827371Y1314322D1*
X832421Y1313353D1*
X841193Y1310503D1*
X849411Y1306315D1*
X856873Y1300894D1*
X863394Y1294373D1*
X868705Y1287076D1*
X874008Y1294373D1*
X880529Y1300894D1*
X887991Y1306315D1*
X896209Y1310503D1*
X904980Y1313353D1*
X914089Y1314795D1*
X923312D1*
X932421Y1313353D1*
X941193Y1310503D1*
X949411Y1306315D1*
X956873Y1300894D1*
X963394Y1294373D1*
X965303Y1291951D1*
X1665702Y1291945D1*
X1751010Y1377062D1*
X1755549Y1380358D1*
X1760546Y1382906D1*
X1765881Y1384638D1*
X1771420Y1385516D1*
X1820156Y1385626D1*
X2477824Y1385516D1*
X2483364Y1384639D1*
X2488698Y1382906D1*
X2493696Y1380358D1*
X2498234Y1377062D1*
X2539269Y1336182D1*
X2633381Y1241915D1*
X2636677Y1237377D1*
X2639224Y1232379D1*
X2640958Y1227045D1*
X2641835Y1221505D1*
X2641945Y1172769D1*
X2641835Y565896D1*
X2640958Y560357D1*
X2639224Y555022D1*
X2636677Y550025D1*
X2633381Y545487D1*
X2598997Y510948D1*
X2579415Y491521D1*
X2574877Y488224D1*
X2569879Y485677D1*
X2564545Y483944D1*
X2559005Y483067D1*
X2510269Y482957D1*
X1703396Y483067D1*
X1697857Y483944D1*
X1692522Y485677D1*
X1687525Y488224D1*
X1682987Y491521D1*
X1667402Y506950D1*
X1660996Y507559D1*
X1653483Y509364D1*
X1646343Y512320D1*
X1639753Y516358D1*
X1633877Y521377D1*
X1628858Y527253D1*
X1624820Y533843D1*
X1621864Y540983D1*
X1620059Y548496D1*
X1619453Y556201D1*
X1620059Y563906D1*
X1621864Y571419D1*
X1624820Y578559D1*
X1628858Y585148D1*
X1633877Y591025D1*
X1639753Y596043D1*
X1646343Y600081D1*
X1653483Y603038D1*
X1660996Y604843D1*
X1668701Y605449D1*
X1676406Y604843D1*
X1683919Y603038D1*
X1691059Y600081D1*
X1697648Y596043D1*
X1703525Y591025D1*
X1708543Y585148D1*
X1712581Y578559D1*
X1715538Y571419D1*
X1717343Y563906D1*
X1717896Y557545D1*
X1720999Y554453D1*
X2086824Y554445D1*
X2083268Y558875D1*
X2078411Y566803D1*
X2074853Y575392D1*
X2072682Y584432D1*
X2071953Y593701D1*
X2072682Y602970D1*
X2074853Y612009D1*
X2078411Y620598D1*
X2083268Y628526D1*
X2089306Y635596D1*
X2096375Y641634D1*
X2104303Y646491D1*
X2112892Y650049D1*
X2121932Y652219D1*
X2131201Y652949D1*
X2140470Y652219D1*
X2149509Y650049D1*
X2158098Y646491D1*
X2166026Y641634D1*
X2173096Y635596D1*
X2179134Y628526D1*
X2183991Y620598D1*
X2187549Y612009D1*
X2189719Y602970D1*
X2190449Y593701D1*
X2189719Y584432D1*
X2187549Y575392D1*
X2183991Y566803D1*
X2179134Y558875D1*
X2175525Y554434D1*
X2486790Y554445D1*
X2480684Y562744D1*
X2476463Y571028D1*
X2473589Y579870D1*
X2472135Y589052D1*
Y598349D1*
X2473589Y607531D1*
X2476463Y616374D1*
X2480684Y624657D1*
X2486148Y632180D1*
X2492722Y638753D1*
X2500244Y644218D1*
X2508528Y648438D1*
X2517370Y651312D1*
X2526552Y652766D1*
X2535849D1*
X2545031Y651312D1*
X2553874Y648438D1*
X2562157Y644218D1*
X2569680Y638753D1*
X2570467Y638025D1*
X2570457Y686795D1*
X2566026Y683268D1*
X2558098Y678411D1*
X2549509Y674853D1*
X2540470Y672682D1*
X2531201Y671953D1*
X2521932Y672682D1*
X2512892Y674853D1*
X2504303Y678411D1*
X2496375Y683268D1*
X2489306Y689306D1*
X2483268Y696375D1*
X2478411Y704303D1*
X2474853Y712892D1*
X2472682Y721932D1*
X2471953Y731201D1*
X2472543Y739297D1*
X2460227Y751625D1*
X2186833Y751638D1*
X2188812Y745031D1*
X2190266Y735849D1*
Y726552D1*
X2188812Y717370D1*
X2185938Y708528D1*
X2181718Y700244D1*
X2176253Y692722D1*
X2169680Y686148D1*
X2162157Y680684D1*
X2153874Y676463D1*
X2145031Y673589D1*
X2135849Y672135D1*
X2126552D1*
X2117370Y673589D1*
X2108528Y676463D1*
X2100244Y680684D1*
X2092722Y686148D1*
X2086148Y692722D1*
X2080684Y700244D1*
X2076463Y708528D1*
X2073589Y717370D1*
X2072135Y726552D1*
Y735849D1*
X2073589Y745031D1*
X2075639Y751640D1*
X1968730Y751638D1*
X1967797Y748282D1*
X1966588Y740648D1*
X1964199Y733299D1*
X1960692Y726413D1*
X1956150Y720161D1*
X1950685Y714697D1*
X1944433Y710155D1*
X1937547Y706647D1*
X1930198Y704259D1*
X1922564Y703050D1*
X1914837D1*
X1907203Y704259D1*
X1899854Y706647D1*
X1892969Y710155D1*
X1886717Y714697D1*
X1881252Y720161D1*
X1876710Y726413D1*
X1873202Y733299D1*
X1870814Y740648D1*
X1869605Y748282D1*
Y756009D1*
X1870814Y763643D1*
X1873202Y770992D1*
X1876710Y777878D1*
X1881252Y784130D1*
X1886717Y789594D1*
X1892969Y794136D1*
X1899854Y797644D1*
X1907203Y800033D1*
X1914837Y801241D1*
X1917357Y801341D1*
X1930723Y814562D1*
X1935261Y817858D1*
X1940259Y820406D1*
X1945593Y822139D1*
X1951133Y823016D1*
X2009055Y823126D1*
X2477824Y823016D1*
X2483364Y822138D1*
X2488698Y820406D1*
X2493696Y817858D1*
X2498234Y814562D1*
X2523055Y789896D1*
X2531201Y790449D1*
X2540470Y789719D1*
X2549509Y787549D1*
X2558098Y783991D1*
X2566026Y779134D1*
X2570467Y775525D1*
X2570457Y1203887D1*
X2460222Y1314130D1*
X2391087Y1314138D1*
X2399364Y1312100D1*
X2407885Y1308571D1*
X2415748Y1303751D1*
X2422761Y1297761D1*
X2428751Y1290748D1*
X2433571Y1282885D1*
X2437100Y1274364D1*
X2439253Y1265395D1*
X2439976Y1256201D1*
X2439253Y1247007D1*
X2437100Y1238038D1*
X2433571Y1229517D1*
X2428751Y1221654D1*
X2422761Y1214640D1*
X2415748Y1208651D1*
X2407885Y1203831D1*
X2399364Y1200302D1*
X2390395Y1198148D1*
X2381201Y1197425D1*
X2372007Y1198148D1*
X2363038Y1200302D1*
X2354517Y1203831D1*
X2346654Y1208651D1*
X2339640Y1214640D1*
X2333651Y1221654D1*
X2328831Y1229517D1*
X2325302Y1238038D1*
X2323148Y1247007D1*
X2322425Y1256201D1*
X2323148Y1265395D1*
X2325302Y1274364D1*
X2328831Y1282885D1*
X2333651Y1290748D1*
X2339640Y1297761D1*
X2346654Y1303751D1*
X2354517Y1308571D1*
X2363038Y1312100D1*
X2371423Y1314136D1*
X2199322Y1314138D1*
X2201303Y1307570D1*
X2202576Y1300336D1*
X2202949Y1293701D1*
X2202493Y1286370D1*
X2201135Y1279154D1*
X2198894Y1272159D1*
X2195804Y1265496D1*
X2191915Y1259266D1*
X2187283Y1253566D1*
X2181983Y1248482D1*
X2176094Y1244093D1*
X2169709Y1240466D1*
X2162923Y1237657D1*
X2155841Y1235710D1*
X2148573Y1234654D1*
X2141230Y1234504D1*
X2133925Y1235265D1*
X2126770Y1236923D1*
X2119875Y1239454D1*
X2113348Y1242819D1*
X2107286Y1246965D1*
X2101783Y1251829D1*
X2096925Y1257337D1*
X2092785Y1263404D1*
X2089428Y1269936D1*
X2086904Y1276833D1*
X2085255Y1283990D1*
X2084501Y1291295D1*
X2084659Y1298638D1*
X2085723Y1305904D1*
X2087678Y1312984D1*
X2088096Y1314138D1*
X1789022D1*
X1703757Y1229021D1*
X1699219Y1225724D1*
X1694222Y1223177D1*
X1688887Y1221445D1*
X1683348Y1220567D1*
X1625425Y1220457D1*
X965336D1*
X960261Y1214640D1*
X953248Y1208651D1*
X951974Y1207799D1*
X1488720Y1207791D1*
X1492969Y1210692D1*
X1499854Y1214199D1*
X1507203Y1216588D1*
X1514837Y1217797D1*
X1522564D1*
X1530198Y1216588D1*
X1537547Y1214199D1*
X1544433Y1210692D1*
X1548609Y1207786D1*
X1584268Y1207671D1*
X1590327Y1206711D1*
X1596160Y1204816D1*
X1601626Y1202031D1*
X1606588Y1198425D1*
X1637642Y1167542D1*
X1642698Y1166588D1*
X1650047Y1164199D1*
X1656933Y1160692D1*
X1663185Y1156150D1*
X1668650Y1150685D1*
X1673192Y1144433D1*
X1676699Y1137547D1*
X1679088Y1130198D1*
X1680297Y1122564D1*
Y1114837D1*
X1679088Y1107203D1*
X1676699Y1099854D1*
X1673192Y1092969D1*
X1668650Y1086717D1*
X1663185Y1081252D1*
X1660895Y1079448D1*
X1791420Y1079445D1*
X1820433Y1108483D1*
X1820457Y1184811D1*
X1816358Y1189753D1*
X1812320Y1196343D1*
X1809364Y1203483D1*
X1807559Y1210996D1*
X1806953Y1218701D1*
X1807559Y1226406D1*
X1809364Y1233919D1*
X1812320Y1241059D1*
X1816358Y1247648D1*
X1821377Y1253525D1*
X1827253Y1258543D1*
X1833843Y1262581D1*
X1840983Y1265538D1*
X1848496Y1267343D1*
X1856201Y1267949D1*
X1863906Y1267343D1*
X1871419Y1265538D1*
X1878559Y1262581D1*
X1885148Y1258543D1*
X1891025Y1253525D1*
X1896043Y1247648D1*
X1900081Y1241059D1*
X1903038Y1233919D1*
X1904843Y1226406D1*
X1905449Y1218701D1*
X1904843Y1210996D1*
X1903038Y1203483D1*
X1900081Y1196343D1*
X1896043Y1189753D1*
X1891937Y1184865D1*
X1891835Y1090896D1*
X1890957Y1085357D1*
X1889224Y1080022D1*
X1886677Y1075025D1*
X1883381Y1070487D1*
X1842501Y1029451D1*
X1829415Y1016521D1*
X1824877Y1013224D1*
X1819879Y1010677D1*
X1814545Y1008945D1*
X1809005Y1008067D1*
X1754993Y1007957D1*
X1785411Y977541D1*
X1791059Y975081D1*
X1797648Y971043D1*
X1802537Y966937D1*
X1934808Y966945D1*
X1939753Y971043D1*
X1946343Y975081D1*
X1953483Y978038D1*
X1960996Y979843D1*
X1968701Y980449D1*
X1976406Y979843D1*
X1983919Y978038D1*
X1991059Y975081D1*
X1997648Y971043D1*
X2003525Y966025D1*
X2008543Y960148D1*
X2012581Y953559D1*
X2015538Y946419D1*
X2017343Y938906D1*
X2017949Y931201D1*
X2017343Y923496D1*
X2015538Y915983D1*
X2012581Y908843D1*
X2008543Y902253D1*
X2003525Y896377D1*
X1997648Y891358D1*
X1991059Y887320D1*
X1983919Y884364D1*
X1976406Y882559D1*
X1968701Y881953D1*
X1960996Y882559D1*
X1953483Y884364D1*
X1946343Y887320D1*
X1939753Y891358D1*
X1934865Y895465D1*
X1802593Y895457D1*
X1797648Y891358D1*
X1791059Y887320D1*
X1783919Y884364D1*
X1776406Y882559D1*
X1768701Y881953D1*
X1760996Y882559D1*
X1753483Y884364D1*
X1746343Y887320D1*
X1739753Y891358D1*
X1733877Y896377D1*
X1728858Y902253D1*
X1724820Y908843D1*
X1721864Y915983D1*
X1720059Y923496D1*
X1719453Y931201D1*
X1720059Y938906D1*
X1720539Y941320D1*
X1703919Y957933D1*
X1567521Y957957D1*
X1595881Y929415D1*
X1599177Y924877D1*
X1601724Y919879D1*
X1603457Y914545D1*
X1604335Y909005D1*
X1604445Y860269D1*
X1604335Y828396D1*
X1603457Y822857D1*
X1601724Y817522D1*
X1599177Y812525D1*
X1595881Y807987D1*
X1561497Y773448D1*
X1529450Y741400D1*
X1529445Y715113D1*
X1533543Y710148D1*
X1537581Y703559D1*
X1540538Y696419D1*
X1542343Y688906D1*
X1542949Y681201D1*
X1542343Y673496D1*
X1540538Y665983D1*
X1537581Y658843D1*
X1533543Y652253D1*
X1528525Y646377D1*
X1522648Y641358D1*
X1516059Y637320D1*
X1508919Y634364D1*
X1501406Y632559D1*
X1493701Y631953D1*
X1485996Y632559D1*
X1478483Y634364D1*
X1471343Y637320D1*
X1464753Y641358D1*
X1458877Y646377D1*
X1453858Y652253D1*
X1449820Y658843D1*
X1446864Y665983D1*
X1445059Y673496D1*
X1444453Y681201D1*
X1445059Y688906D1*
X1446864Y696419D1*
X1449820Y703559D1*
X1453858Y710148D1*
X1457965Y715037D1*
X1457957Y719920D1*
X1416928Y678878D1*
X1416835Y603396D1*
X1415958Y597857D1*
X1414224Y592522D1*
X1411677Y587525D1*
X1408381Y582987D1*
X1390413Y564865D1*
X1398312Y564795D1*
X1407421Y563353D1*
X1416193Y560503D1*
X1424411Y556315D1*
X1431873Y550894D1*
X1438394Y544373D1*
X1443815Y536911D1*
X1448003Y528693D1*
X1449928Y523201D1*
X1451899Y528693D1*
X1456087Y536911D1*
X1461508Y544373D1*
X1468029Y550894D1*
X1475491Y556315D1*
X1483709Y560503D1*
X1492480Y563353D1*
X1501589Y564795D1*
X1510812D1*
X1519921Y563353D1*
X1528693Y560503D1*
X1536911Y556315D1*
X1544373Y550894D1*
X1550894Y544373D1*
X1556315Y536911D1*
X1560503Y528693D1*
X1563353Y519921D1*
X1564795Y510812D1*
Y501589D1*
X1563353Y492480D1*
X1560503Y483709D1*
X1556315Y475491D1*
X1550894Y468029D1*
X1544373Y461508D1*
X1536911Y456087D1*
X1528693Y451899D1*
X1519921Y449049D1*
X1510812Y447606D1*
X1501589D1*
X1492480Y449049D1*
X1483709Y451899D1*
X1475491Y456087D1*
X1468029Y461508D1*
X1461508Y468029D1*
X1456087Y475491D1*
X1451899Y483709D1*
X1449974Y489201D1*
X1448003Y483709D1*
X1443815Y475491D1*
X1438394Y468029D1*
X1431873Y461508D1*
X1424411Y456087D1*
X1416193Y451899D1*
X1407421Y449049D1*
X1398312Y447606D1*
X1389089D1*
X1379980Y449049D1*
X1371209Y451899D1*
X1362991Y456087D1*
X1355529Y461508D1*
X1349008Y468029D1*
X1343587Y475491D1*
X1339399Y483709D1*
X1336549Y492480D1*
X1335106Y501589D1*
X1335055Y509497D1*
X1279415Y454021D1*
X1274877Y450724D1*
X1269879Y448177D1*
X1264545Y446445D1*
X1259005Y445567D1*
X1201083Y445457D1*
X781329Y445567D1*
X775790Y446445D1*
X770455Y448177D1*
X765458Y450724D1*
X760920Y454021D1*
X719885Y494900D1*
X691521Y523420D1*
X688224Y527958D1*
X685677Y532955D1*
X683945Y538290D1*
X683067Y543829D1*
X682957Y586644D1*
X674663Y585228D1*
X667324Y584941D1*
X660008Y585572D1*
X652825Y587110D1*
X645892Y589531D1*
X639315Y592798D1*
X633197Y596861D1*
X627633Y601654D1*
X622709Y607104D1*
X618504Y613126D1*
X616689Y616328D1*
X612377Y613224D1*
X607379Y610677D1*
X602045Y608944D1*
X596505Y608067D1*
X552828Y607957D1*
X547761Y602140D1*
X540748Y596151D1*
X532885Y591331D1*
X524364Y587802D1*
X515395Y585648D1*
X506201Y584925D1*
X497007Y585648D1*
X488038Y587802D1*
X479517Y591331D1*
X471654Y596151D1*
X464640Y602140D1*
X458651Y609154D1*
X453831Y617017D1*
X450302Y625538D1*
X448148Y634507D1*
X447425Y643701D1*
X448148Y652895D1*
X450302Y661864D1*
X453831Y670385D1*
X458651Y678248D1*
X464640Y685261D1*
X471654Y691251D1*
X475325Y693705D1*
X468029Y699008D1*
X461508Y705529D1*
X456087Y712991D1*
X451899Y721209D1*
X449049Y729980D1*
X447606Y739089D1*
Y748312D1*
X449049Y757421D1*
X451899Y766193D1*
X456087Y774411D1*
X461508Y781873D1*
X468029Y788394D1*
X475325Y793705D1*
X468029Y799008D1*
X461508Y805529D1*
X456087Y812991D1*
X451899Y821209D1*
X449049Y829980D1*
X447606Y839089D1*
Y848312D1*
X449049Y857421D1*
X451899Y866193D1*
X456087Y874411D1*
X461508Y881873D1*
X468029Y888394D1*
X475325Y893705D1*
X468029Y899008D1*
X461508Y905529D1*
X456087Y912991D1*
X451899Y921209D1*
X449049Y929980D1*
X447606Y939089D1*
Y948312D1*
X449049Y957421D1*
X451899Y966193D1*
X456087Y974411D1*
X461508Y981873D1*
X468029Y988394D1*
X475325Y993705D1*
X469249Y997993D1*
X463837Y1002958D1*
X459088Y1008559D1*
X455073Y1014709D1*
X451857Y1021312D1*
X449488Y1028264D1*
X448007Y1035457D1*
X447433Y1042780D1*
X447777Y1050115D1*
X449033Y1057352D1*
X451181Y1064374D1*
X454189Y1071075D1*
X458008Y1077348D1*
X462581Y1083094D1*
X467835Y1088227D1*
X473686Y1092664D1*
X475239Y1093741D1*
X469249Y1097993D1*
X463837Y1102958D1*
X459088Y1108559D1*
X455073Y1114709D1*
X451857Y1121312D1*
X449488Y1128264D1*
X448007Y1135457D1*
X447433Y1142780D1*
X447777Y1150115D1*
X449033Y1157352D1*
X451181Y1164374D1*
X454189Y1171075D1*
X458008Y1177348D1*
X462581Y1183094D1*
X467835Y1188227D1*
X473686Y1192664D1*
X480047Y1196337D1*
X486815Y1199188D1*
X493886Y1201172D1*
X501150Y1202259D1*
X508492Y1202432D1*
X515798Y1201688D1*
X522955Y1200038D1*
X529850Y1197509D1*
X536375Y1194139D1*
X542430Y1189983D1*
X547920Y1185102D1*
X552757Y1179577D1*
X556867Y1173491D1*
X560188Y1166940D1*
X562664Y1160025D1*
X564259Y1152856D1*
X564948Y1145545D1*
X564718Y1138197D1*
X563575Y1130942D1*
X561535Y1123887D1*
X558633Y1117140D1*
X554911Y1110808D1*
X550429Y1104991D1*
X545256Y1099778D1*
X539474Y1095249D1*
X537094Y1093709D1*
X543860Y1088827D1*
X549193Y1083778D1*
X553856Y1078104D1*
X557774Y1071892D1*
X560887Y1065240D1*
X563147Y1058252D1*
X564517Y1051037D1*
X564976Y1043701D1*
X564517Y1036371D1*
X563148Y1029155D1*
X560890Y1022167D1*
X557777Y1015514D1*
X553860Y1009303D1*
X549198Y1003627D1*
X543865Y998579D1*
X537944Y994234D1*
X537094Y993709D1*
X544373Y988394D1*
X550894Y981873D1*
X556315Y974411D1*
X560503Y966193D1*
X563353Y957421D1*
X564795Y948312D1*
Y939089D1*
X563353Y929980D1*
X560503Y921209D1*
X556315Y912991D1*
X550894Y905529D1*
X544373Y899008D1*
X537076Y893697D1*
X544373Y888394D1*
X550894Y881873D1*
X556315Y874411D1*
X560503Y866193D1*
X563353Y857421D1*
X564795Y848312D1*
Y839089D1*
X564433Y836028D1*
X570475Y829976D1*
X570567Y1221505D1*
X571444Y1227045D1*
X573177Y1232379D1*
X575724Y1237377D1*
X579021Y1241915D1*
X618425Y1281476D1*
X622690Y1285118D1*
X627474Y1288049D1*
X632655Y1290196D1*
X638109Y1291505D1*
X643711Y1291945D1*
X672013D1*
X677140Y1297761D1*
X684154Y1303751D1*
X692017Y1308571D1*
X700538Y1312100D1*
X709507Y1314253D1*
X718701Y1314976D1*
X726374Y1314433D1*
X807987Y1395881D1*
X812525Y1399177D1*
X817522Y1401724D1*
X822857Y1403457D1*
X828396Y1404335D1*
X877133Y1404445D1*
X1584804D1*
X1589753Y1408543D1*
X1596343Y1412581D1*
X1603483Y1415538D1*
X1610996Y1417343D1*
X1614161Y1417717D1*
X530495D1*
X535837Y1414197D1*
X544391Y1406891D1*
X551697Y1398337D1*
X557573Y1388745D1*
X561878Y1378353D1*
X564504Y1367415D1*
X565387Y1356201D1*
X565167Y1350576D1*
X768705Y1225325D2*
X763394Y1218029D1*
X756873Y1211508D1*
X749576Y1206197D1*
X754930Y1202483D1*
X760420Y1197602D1*
X765257Y1192077D1*
X768699Y1187088D1*
X774008Y1194373D1*
X780529Y1200894D1*
X787825Y1206205D1*
X780529Y1211508D1*
X774008Y1218029D1*
X768697Y1225325D1*
X821997Y1097555D2*
X814089Y1097606D1*
X811028Y1097969D1*
X786206Y1073312D1*
X781668Y1070016D1*
X776671Y1067469D1*
X771336Y1065736D1*
X765797Y1064858D1*
X717060Y1064748D1*
X684144Y1064858D1*
X678605Y1065736D1*
X673270Y1067469D1*
X668273Y1070016D1*
X663735Y1073312D1*
X641958Y1094933D1*
X641945Y1002499D1*
X726933Y1002476D1*
X821961Y1097510D1*
X849576Y1206205D2*
X856873Y1200894D1*
X863394Y1194373D1*
X868705Y1187076D1*
X874008Y1194373D1*
X880529Y1200894D1*
X887825Y1206205D1*
X880529Y1211508D1*
X874008Y1218029D1*
X868697Y1225325D1*
X863394Y1218029D1*
X856873Y1211508D1*
X849576Y1206197D1*
X727295Y839089D2*
X725853Y829980D1*
X723003Y821209D1*
X718815Y812991D1*
X713394Y805529D1*
X706873Y799008D1*
X699576Y793697D1*
X706873Y788394D1*
X713394Y781873D1*
X718815Y774411D1*
X723003Y766193D1*
X725853Y757421D1*
X727295Y748312D1*
Y739089D1*
X727165Y737997D1*
X737479Y748302D1*
X739399Y753693D1*
X743587Y761911D1*
X749008Y769373D1*
X755529Y775894D1*
X762825Y781205D1*
X755529Y786508D1*
X749008Y793029D1*
X743587Y800491D1*
X739399Y808709D1*
X736549Y817480D1*
X735106Y826589D1*
Y835812D1*
X736549Y844921D1*
X739399Y853693D1*
X743587Y861911D1*
X749008Y869373D1*
X755529Y875894D1*
X762825Y881205D1*
X759026Y883751D1*
X749980Y874430D1*
X726966Y851416D1*
X727476Y843701D1*
X727295Y839089D1*
X852448Y629364D2*
X851760Y622051D1*
X850299Y615374D1*
X1187003Y615370D1*
X1189210Y619433D1*
X1193752Y625685D1*
X1199217Y631150D1*
X1205469Y635692D1*
X1212354Y639199D1*
X1219703Y641588D1*
X1227337Y642797D1*
X1235064D1*
X1242698Y641588D1*
X1250047Y639199D1*
X1256933Y635692D1*
X1263185Y631150D1*
X1268650Y625685D1*
X1273192Y619433D1*
X1276699Y612547D1*
X1279180Y604739D1*
X1295451Y621001D1*
X1295567Y721505D1*
X1296444Y727045D1*
X1298177Y732379D1*
X1300724Y737377D1*
X1304021Y741915D1*
X1344900Y782950D1*
X1381971Y820021D1*
X1382559Y826406D1*
X1384364Y833919D1*
X1387320Y841059D1*
X1391358Y847648D1*
X1396377Y853525D1*
X1402253Y858543D1*
X1408843Y862581D1*
X1415983Y865538D1*
X1423496Y867343D1*
X1431201Y867949D1*
X1438906Y867343D1*
X1446419Y865538D1*
X1453559Y862581D1*
X1460148Y858543D1*
X1466025Y853525D1*
X1469987Y848988D1*
X1469453Y856201D1*
X1470059Y863906D1*
X1471864Y871419D1*
X1474820Y878559D1*
X1478858Y885148D1*
X1483877Y891025D1*
X1489753Y896043D1*
X1496343Y900081D1*
X1503483Y903038D1*
X1510996Y904843D1*
X1518898Y905441D1*
X1503919Y920433D1*
X1365896Y920567D1*
X1360357Y921445D1*
X1355022Y923177D1*
X1350025Y925724D1*
X1347682Y927290D1*
X1343815Y925491D1*
X1338394Y918029D1*
X1331873Y911508D1*
X1324411Y906087D1*
X1316193Y901899D1*
X1307421Y899049D1*
X1298312Y897606D1*
X1289089D1*
X1279980Y899049D1*
X1271209Y901899D1*
X1262991Y906087D1*
X1255529Y911508D1*
X1253980Y912940D1*
X1252696Y907655D1*
X1250549Y902474D1*
X1247618Y897690D1*
X1243976Y893425D1*
X1179415Y829021D1*
X1174877Y825724D1*
X1169879Y823177D1*
X1164545Y821444D1*
X1159005Y820567D1*
X1101083Y820457D1*
X851508D1*
X849600Y813038D1*
X846071Y804517D1*
X841251Y796654D1*
X835261Y789640D1*
X828248Y783651D1*
X824576Y781197D1*
X831873Y775894D1*
X838394Y769373D1*
X843815Y761911D1*
X848003Y753693D1*
X850853Y744921D1*
X852295Y735812D1*
Y726589D1*
X850853Y717480D1*
X848003Y708709D1*
X843815Y700491D1*
X838394Y693029D1*
X831873Y686508D1*
X824576Y681197D1*
X829930Y677483D1*
X835420Y672602D1*
X840257Y667077D1*
X844367Y660991D1*
X847688Y654440D1*
X850164Y647525D1*
X851759Y640356D1*
X852448Y633045D1*
Y629364D1*
X840303Y895450D2*
X837403Y891957D1*
X1141383Y891945D1*
X1177944Y928493D1*
X1174820Y933843D1*
X1171864Y940983D1*
X1170059Y948496D1*
X1169453Y956201D1*
X1170059Y963906D1*
X1171588Y970445D1*
X1115058Y970457D1*
X1110148Y966358D1*
X1103559Y962320D1*
X1096419Y959364D1*
X1088906Y957559D1*
X1081201Y956953D1*
X1073496Y957559D1*
X1065983Y959364D1*
X1058843Y962320D1*
X1052253Y966358D1*
X1046377Y971377D1*
X1041358Y977253D1*
X1037320Y983843D1*
X1036391Y985860D1*
X954415Y904021D1*
X949877Y900724D1*
X944879Y898177D1*
X939545Y896444D1*
X934005Y895567D1*
X876083Y895457D1*
X840378D1*
X812421Y986894D2*
X820385Y983571D1*
X828248Y978751D1*
X835261Y972761D1*
X840303Y966951D1*
X916388Y966945D1*
X958780Y1009329D1*
X951406Y1007559D1*
X943701Y1006953D1*
X935996Y1007559D1*
X928483Y1009364D1*
X921343Y1012320D1*
X914753Y1016358D1*
X908877Y1021377D1*
X903858Y1027253D1*
X899820Y1033843D1*
X896864Y1040983D1*
X895059Y1048496D1*
X894453Y1056201D1*
X895059Y1063906D1*
X896588Y1070445D1*
X893484Y1067934D1*
X812466Y986915D1*
X2686434Y1162811D2*
X2794799D1*
X2794664Y1059223D1*
X2793587Y1051959D1*
X2791457Y1044933D1*
X2788318Y1038295D1*
X2784239Y1032189D1*
X2779310Y1026748D1*
X2773635Y1022089D1*
X2767337Y1018312D1*
X2760555Y1015501D1*
X2753433Y1013714D1*
X2746126Y1012992D1*
X2722903Y1013159D1*
X2715654Y1014322D1*
X2708654Y1016535D1*
X2702052Y1019753D1*
X2695996Y1023904D1*
X2690614Y1028898D1*
X2686022Y1034627D1*
X2682320Y1040969D1*
X2679589Y1047785D1*
X2677888Y1054927D1*
X2677252Y1062241D1*
X2677248Y1162811D1*
X2686434D1*
X2339795Y1151589D2*
X2338353Y1142480D1*
X2335503Y1133709D1*
X2331315Y1125491D1*
X2325894Y1118029D1*
X2319373Y1111508D1*
X2311911Y1106087D1*
X2303693Y1101899D1*
X2294921Y1099049D1*
X2285812Y1097606D1*
X2276589D1*
X2267480Y1099049D1*
X2258709Y1101899D1*
X2250491Y1106087D1*
X2243029Y1111508D1*
X2236508Y1118029D1*
X2231087Y1125491D1*
X2226899Y1133709D1*
X2224049Y1142480D1*
X2222606Y1151589D1*
Y1160812D1*
X2224049Y1169921D1*
X2226899Y1178693D1*
X2231087Y1186911D1*
X2236508Y1194373D1*
X2243029Y1200894D1*
X2250491Y1206315D1*
X2258709Y1210503D1*
X2267480Y1213353D1*
X2276589Y1214795D1*
X2285812D1*
X2294921Y1213353D1*
X2303693Y1210503D1*
X2311911Y1206315D1*
X2319373Y1200894D1*
X2325894Y1194373D1*
X2331315Y1186911D1*
X2335503Y1178693D1*
X2338353Y1169921D1*
X2339795Y1160812D1*
Y1151589D1*
X2539795D2*
X2538353Y1142480D1*
X2535503Y1133709D1*
X2531315Y1125491D1*
X2525894Y1118029D1*
X2519373Y1111508D1*
X2511911Y1106087D1*
X2503693Y1101899D1*
X2494921Y1099049D1*
X2485812Y1097606D1*
X2476589D1*
X2467480Y1099049D1*
X2458709Y1101899D1*
X2450491Y1106087D1*
X2443029Y1111508D1*
X2436508Y1118029D1*
X2431087Y1125491D1*
X2426899Y1133709D1*
X2424049Y1142480D1*
X2422606Y1151589D1*
Y1160812D1*
X2424049Y1169921D1*
X2426899Y1178693D1*
X2431087Y1186911D1*
X2436508Y1194373D1*
X2443029Y1200894D1*
X2450491Y1206315D1*
X2458709Y1210503D1*
X2467480Y1213353D1*
X2476589Y1214795D1*
X2485812D1*
X2494921Y1213353D1*
X2503693Y1210503D1*
X2511911Y1206315D1*
X2519373Y1200894D1*
X2525894Y1194373D1*
X2531315Y1186911D1*
X2535503Y1178693D1*
X2538353Y1169921D1*
X2539795Y1160812D1*
Y1151589D1*
X2202766Y889052D2*
X2201312Y879870D1*
X2198438Y871028D1*
X2194218Y862744D1*
X2188753Y855222D1*
X2182180Y848648D1*
X2174657Y843184D1*
X2166374Y838963D1*
X2157531Y836089D1*
X2148349Y834635D1*
X2139052D1*
X2129870Y836089D1*
X2121028Y838963D1*
X2112744Y843184D1*
X2105222Y848648D1*
X2098648Y855222D1*
X2093184Y862744D1*
X2088963Y871028D1*
X2086089Y879870D1*
X2084635Y889052D1*
Y898349D1*
X2086089Y907531D1*
X2088963Y916374D1*
X2093184Y924657D1*
X2098648Y932180D1*
X2105222Y938753D1*
X2112744Y944218D1*
X2121028Y948438D1*
X2129870Y951312D1*
X2139052Y952766D1*
X2148349D1*
X2157531Y951312D1*
X2166374Y948438D1*
X2174657Y944218D1*
X2182180Y938753D1*
X2188753Y932180D1*
X2194218Y924657D1*
X2198438Y916374D1*
X2201312Y907531D1*
X2202766Y898349D1*
Y889052D1*
X1548609Y1129615D2*
X1544433Y1126710D1*
X1541310Y1124961D1*
X1547648Y1121043D1*
X1553525Y1116025D1*
X1558543Y1110148D1*
X1562581Y1103559D1*
X1565538Y1096419D1*
X1567343Y1088906D1*
X1567949Y1081201D1*
X1567879Y1079434D1*
X1601449Y1079445D1*
X1596377Y1083877D1*
X1591358Y1089753D1*
X1587320Y1096343D1*
X1584364Y1103483D1*
X1582559Y1110996D1*
X1582415Y1112211D1*
X1565017Y1129602D1*
X1548654Y1129610D1*
X2735995Y783248D2*
D10*
Y724508D1*
X2677255D2*
X2794734D1*
X447461Y1043701D2*
X564941D1*
X506201Y1202441D2*
Y1143701D1*
X447461D2*
X564941D1*
X668701Y643701D2*
Y584961D1*
X793701Y631201D2*
X852441D1*
X2736024Y1062894D2*
Y1013012D1*
X2677283Y1062894D2*
X2794764D1*
X2143701Y1293701D2*
Y1234488D1*
X2084488Y1293701D2*
X2202913D1*
D23*
X2735993Y624509D3*
D24*
Y724508D3*
D23*
X506201Y643701D3*
Y743701D3*
Y843701D3*
Y943701D3*
Y1043701D3*
Y1143701D3*
X718701Y1256201D3*
Y1156201D3*
X818701D3*
Y1256201D3*
X918701D3*
Y1156201D3*
D24*
X668701Y943701D3*
D23*
Y843701D3*
Y743701D3*
Y643701D3*
X793701Y631201D3*
Y731201D3*
Y831201D3*
Y931201D3*
D25*
X1393701Y506201D3*
X1506201D3*
X1293701Y956201D3*
D27*
X2736024Y1112894D3*
D28*
Y1062894D3*
D23*
X2281201Y1156201D3*
X2481201D3*
X2381201Y1256201D3*
D29*
X2531201Y593701D3*
D30*
X2131201D3*
D29*
X2143701Y893701D3*
D30*
Y1293701D3*
D29*
X2131201Y731201D3*
D30*
X2531201D3*
M02*
