G04 DipTrace 3.2.0.1*
G04 BottomMask.gbr*
%MOIN*%
G04 #@! TF.FileFunction,Soldermask,Bot*
G04 #@! TF.Part,Single*
%ADD39C,0.07874*%
%ADD56C,0.067874*%
%ADD58C,0.067874*%
%ADD60O,0.066929X0.049213*%
%ADD62R,0.066929X0.049213*%
%ADD66C,0.066929*%
%ADD68R,0.066929X0.066929*%
%ADD70C,0.066929*%
%FSLAX26Y26*%
G04*
G70*
G90*
G75*
G01*
G04 BotMask*
%LPD*%
D70*
X2735993Y624509D3*
D68*
Y724508D3*
D39*
X493701Y1356201D3*
X2743701D3*
Y493701D3*
X493701D3*
D70*
X506201Y643701D3*
Y743701D3*
Y843701D3*
Y943701D3*
Y1043701D3*
Y1143701D3*
X718701Y1256201D3*
Y1156201D3*
X818701D3*
Y1256201D3*
X918701D3*
Y1156201D3*
D68*
X668701Y943701D3*
D70*
Y843701D3*
Y743701D3*
Y643701D3*
X793701Y631201D3*
Y731201D3*
Y831201D3*
Y931201D3*
D66*
X1393701Y506201D3*
X1506201D3*
X1293701Y956201D3*
D62*
X2736024Y1112894D3*
D60*
Y1062894D3*
D70*
X2281201Y1156201D3*
X2481201D3*
X2381201Y1256201D3*
D58*
X2531201Y593701D3*
D56*
X2131201D3*
D58*
X2143701Y893701D3*
D56*
Y1293701D3*
D58*
X2131201Y731201D3*
D56*
X2531201D3*
M02*
