M48
INCH
T01C0.0191
T02C0.035
T03C0.0354
T04C0.038
T05C0.0787
%
T01
X+018312Y+014062
X+018562Y+012187
X+016312Y+011187
X+015187Y+010812
X+014687Y+010562
X+014062Y+010687
X+015187Y+011687
X+016187Y+013687
X+016998Y+009350
X+017687Y+009312
X+017687Y+008312
X+018687Y+006977
X+019187Y+007521
X+020187Y+006977
X+018187Y+006187
X+016687Y+005562
X+014937Y+006812
X+014312Y+008187
X+015187Y+008562
X+012312Y+008312
X+012187Y+009562
X+010812Y+010062
X+009437Y+010562
X+010120Y+013024
X+006687Y+013937
X+006543Y+012051
X+005619Y+006937
X+008187Y+005437
X+010437Y+007437
X+012312Y+005937
X+019687Y+009312
T02
X+027360Y+006245
X+027360Y+007245
T03
X+005062Y+006437
X+005062Y+007437
X+005062Y+008437
X+005062Y+009437
X+005062Y+010437
X+005062Y+011437
X+007187Y+011562
X+007187Y+012562
X+008187Y+012562
X+008187Y+011562
X+009187Y+011562
X+009187Y+012562
X+007937Y+009312
X+007937Y+008312
X+007937Y+007312
X+007937Y+006312
X+006687Y+006437
X+006687Y+007437
X+006687Y+008437
X+006687Y+009437
X+012937Y+009562
X+013937Y+005062
X+015062Y+005062
X+022812Y+011562
X+023812Y+012562
X+024812Y+011562
X+027360Y+011129
X+027360Y+010629
T04
X+025312Y+005937
X+025312Y+007312
X+021312Y+007312
X+021312Y+005937
X+021437Y+008937
X+021437Y+012937
T05
X+004937Y+013562
X+004937Y+004937
X+027437Y+004937
X+027437Y+013562
T00
M30
