G04 DipTrace 3.2.0.1*
G04 Top.gbr*
%MOIN*%
G04 #@! TF.FileFunction,Copper,L1,Top*
G04 #@! TF.Part,Single*
G04 #@! TA.AperFunction,Conductor*
%ADD14C,0.019685*%
%ADD15C,0.012992*%
%ADD16C,0.014173*%
%ADD17C,0.029528*%
%ADD21R,0.059055X0.051181*%
%ADD22R,0.051181X0.059055*%
G04 #@! TA.AperFunction,ComponentPad*
%ADD23C,0.059055*%
%ADD24R,0.059055X0.059055*%
%ADD25C,0.059055*%
%ADD26R,0.11811X0.059055*%
G04 #@! TA.AperFunction,ComponentPad*
%ADD27R,0.059055X0.041339*%
%ADD28O,0.059055X0.041339*%
%ADD29C,0.06*%
%ADD30C,0.06*%
%ADD31R,0.055118X0.03937*%
%ADD33R,0.07874X0.019685*%
%ADD34R,0.019685X0.07874*%
%ADD35R,0.023622X0.07874*%
%ADD36R,0.047244X0.137795*%
G04 #@! TA.AperFunction,ViaPad*
%ADD37C,0.04*%
%FSLAX26Y26*%
G04*
G70*
G90*
G75*
G01*
G04 Top*
%LPD*%
X2531201Y593701D2*
D14*
X2318701D1*
Y806201D1*
X2393701D1*
X2418701Y831201D1*
Y893701D1*
X2431398D1*
X2256398D2*
D15*
Y831004D1*
X2281201Y806201D1*
X2318701D1*
X668701Y943701D2*
D3*
D14*
X506201D1*
X668701D2*
Y981201D1*
X731201Y1043701D1*
X806201D1*
X918701Y1156201D1*
X1556201Y1218701D2*
X1518701D1*
X1468701Y1268701D1*
X1431201D1*
X1673031Y755217D2*
D15*
X1706201D1*
X1673031D2*
X1756201D1*
D14*
X1792717D1*
X1831201Y793701D1*
Y831201D1*
X1868701D1*
X1318701Y786713D2*
D15*
Y793701D1*
X2318701Y593701D2*
D14*
X2193701Y468701D1*
X1831201D1*
X1756201Y543701D1*
Y692224D1*
Y755217D1*
X1831201Y831201D2*
Y956201D1*
X1793701Y993701D1*
Y1006201D1*
Y1056201D1*
X1743701Y1106201D1*
Y1131201D1*
X1431201Y1268701D2*
Y1281201D1*
X1393701Y1318701D1*
X1081201D1*
Y1306201D1*
X1743701Y1131201D2*
D15*
Y1093701D1*
D14*
X1656201D1*
X1631201Y1118701D1*
X1518701Y1168701D2*
D15*
Y1181201D1*
X1556201Y1218701D1*
X1318701Y718701D2*
Y723720D1*
Y786713D2*
D16*
X1256201D1*
Y723720D1*
X1318701D1*
X1323720Y718701D2*
D15*
X1318701Y723720D1*
X1436220D1*
X1443701Y731201D1*
X1543701D1*
X1581201Y693701D1*
X1671555D1*
X1673031Y692224D1*
X1756201D1*
X1618701Y1368701D2*
Y1381201D1*
X1668898Y1331004D1*
X1681201D1*
X1011988Y1302382D2*
Y1275413D1*
X1056004Y1231398D1*
X1081201D1*
X1793701Y1331004D2*
Y1318701D1*
X1918701D1*
X1956201Y1281201D1*
X2143701D1*
Y1293701D1*
X2018701Y697661D2*
Y618602D1*
X1868701Y697661D2*
Y618602D1*
X1043701Y743701D2*
Y731201D1*
Y743701D2*
X1006004Y781398D1*
X993701D1*
X1081201Y1231398D2*
Y1218504D1*
X1193701D1*
X2143701Y1293701D2*
Y1268701D1*
X1699799Y935020D2*
X1685020D1*
X1718898Y968898D1*
Y1006201D1*
X1318701Y755217D2*
X1367717D1*
X1381201Y768701D1*
Y806201D1*
X1368701Y818701D1*
X1319193D1*
X1318701Y818209D1*
X1868701Y618602D2*
X1818799D1*
X1818701Y618701D1*
X1673031Y786713D2*
X1499213D1*
X1481201Y768701D1*
X1381201D1*
X1673031Y786713D2*
X1724213D1*
X1768701Y831201D1*
X1318701Y818209D2*
X1244193D1*
X1231201Y831201D1*
X993701Y693504D2*
X1043701Y731201D1*
X668701Y643701D2*
D17*
X781201D1*
D15*
X793701Y631201D1*
X718701Y1156201D2*
D14*
Y1168701D1*
X681201Y1131201D1*
X518701D1*
Y1156201D1*
X506201Y1143701D1*
X1831201Y1406201D2*
Y1368504D1*
X1793701Y1331004D1*
X668701Y1393701D2*
D15*
X656201D1*
X1956201Y1268701D2*
Y1281201D1*
X1668701Y556201D2*
X1643701D1*
X1606102Y593799D1*
X654272Y1205142D2*
Y1220630D1*
X631201Y1243701D1*
X481201D1*
X443701Y1206201D1*
Y606201D1*
X468701Y581201D1*
X581201D1*
X668701Y493701D1*
X1256201D1*
X1306201Y443701D1*
X1543701D1*
X1574606Y474606D1*
Y593799D1*
X1318701Y692224D2*
Y693701D1*
X1243701D1*
X1206201Y731201D1*
Y756201D1*
X1168701Y793701D1*
Y835236D1*
X1156201Y847736D1*
X1002165D1*
X993701Y856201D1*
X1156201Y631201D2*
Y606201D1*
X1006201D1*
X993701Y618701D1*
X1156201Y631201D2*
Y618701D1*
X1168701D1*
Y656201D1*
X1318701D1*
Y660728D1*
X1556201Y1293504D2*
X1593898D1*
X1631201Y1256201D1*
X1681201D1*
X1793701D1*
X1831201D1*
X1956201Y1131201D1*
Y993110D1*
X1856201Y1218701D2*
X1818701Y1256201D1*
X1793701D1*
X1480118Y948130D2*
Y1044783D1*
X1468701Y1056201D1*
X1193701Y1143701D2*
X1093701D1*
X1081201Y1131201D1*
X2018701Y831201D2*
X1968701D1*
X2736001Y624509D2*
X2687892D1*
X2618701Y693701D1*
Y806201D1*
X2531201Y893701D1*
X2506201D1*
X2331201D2*
Y1006201D1*
X2481201Y1156201D1*
X2143701Y893701D2*
Y743701D1*
X2131201Y731201D1*
Y593701D1*
X1918701Y618602D2*
Y543701D1*
X1956201Y506201D1*
X2106201D1*
X2131201Y531201D1*
Y593701D1*
X1431201Y1193898D2*
Y1206201D1*
X1343504D1*
X1331201Y1218504D1*
X1318701Y881201D2*
X1331201D1*
Y931201D1*
X1306201Y956201D1*
X1293701D1*
X1511614Y593799D2*
Y511614D1*
X1506201Y506201D1*
X1448622Y593799D2*
Y536122D1*
X1431201Y518701D1*
X1406201D1*
X1393701Y506201D1*
X1231201Y593701D2*
X1231299Y593799D1*
X1385630D1*
X561909Y693701D2*
Y662992D1*
X656201Y568701D1*
X793701D1*
X818701Y543701D1*
X1431201Y818701D2*
X1448622Y836122D1*
Y948130D1*
X1673031Y660728D2*
X1514173D1*
X1493701Y681201D1*
X1081201Y1056398D2*
X1043504D1*
X1006201Y1093701D1*
Y1181201D1*
X981201Y1206201D1*
X868701D1*
X818701Y1256201D1*
X1081201Y1056398D2*
Y1006201D1*
X1518701Y1081201D2*
X1511614Y1074114D1*
Y948130D1*
X1518701Y856201D2*
X1543110Y880610D1*
Y948130D1*
X2736024Y1112894D2*
X2592717Y1256201D1*
X2381201D1*
X1968701Y618602D2*
Y568701D1*
X1993701Y543701D1*
X2056201D1*
X2068701Y556201D1*
Y931201D1*
X2181201Y1043701D1*
X2281201D1*
X2381201Y1143701D1*
Y1256201D1*
X1768701Y931201D2*
Y893701D1*
X1724705Y849705D1*
X1673031D1*
X1968701Y931201D2*
X2068701D1*
X1818504Y1131201D2*
Y1118898D1*
X1868701Y1068701D1*
Y956201D1*
X1918701Y906201D1*
Y831201D1*
X1331201Y1143701D2*
Y1131201D1*
Y1031201D1*
X1385630Y976772D1*
Y948130D1*
X1818504Y1131201D2*
Y1168898D1*
X1793701Y1193701D1*
X1631201D1*
X1568701Y1131201D1*
X1331201D1*
Y1031201D2*
X1256201D1*
X1218701Y993701D1*
Y956201D1*
X1918701Y831201D2*
Y752146D1*
X1417126Y948130D2*
Y1057776D1*
X1406201Y1068701D1*
X506201Y743701D2*
X531201D1*
X581201Y793701D1*
X706201D1*
X731201Y818701D1*
Y868701D1*
X743701Y881201D1*
X856201D1*
X943701Y968701D1*
Y1056201D1*
D37*
X1831201Y1406201D3*
X1518701Y1168701D3*
X1631201Y1118701D3*
X1406201Y1068701D3*
X943701Y1056201D3*
X1493701Y681201D3*
X1818701Y618701D3*
X1081201Y1006201D3*
X1768701Y831201D3*
X1231201D3*
X1468701Y1056201D3*
X668701Y1393701D3*
X1618701Y1368701D3*
X1668701Y556201D3*
X654272Y1205142D3*
X1856201Y1218701D3*
X1231201Y593701D3*
X1431201Y818701D3*
X818701Y543701D3*
X561909Y693701D3*
X1518701Y1081201D3*
Y856201D3*
X1768701Y931201D3*
X1968701D3*
X1218701Y956201D3*
X1011988Y1302382D3*
X1918701Y752146D3*
X1699799Y935020D3*
X2018701Y697661D3*
X1868701D3*
X1043701Y743701D3*
D21*
X993701Y618701D3*
Y693504D3*
Y856201D3*
Y781398D3*
X1793701Y1256201D3*
Y1331004D3*
X1681201Y1256201D3*
Y1331004D3*
X1081201Y1306201D3*
Y1231398D3*
D22*
X1793701Y1006201D3*
X1718898D3*
D21*
X1081201Y1131201D3*
Y1056398D3*
D23*
X2735993Y624509D3*
D24*
Y724508D3*
D21*
X1331201Y1143701D3*
Y1218504D3*
D23*
X506201Y643701D3*
Y743701D3*
Y843701D3*
Y943701D3*
Y1043701D3*
Y1143701D3*
X718701Y1256201D3*
Y1156201D3*
X818701D3*
Y1256201D3*
X918701D3*
Y1156201D3*
D24*
X668701Y943701D3*
D23*
Y843701D3*
Y743701D3*
Y643701D3*
X793701Y631201D3*
Y731201D3*
Y831201D3*
Y931201D3*
D25*
X1393701Y506201D3*
X1506201D3*
X1293701Y956201D3*
D26*
X656201Y1393701D3*
D27*
X2736024Y1112894D3*
D28*
Y1062894D3*
D21*
X1556201Y1218701D3*
Y1293504D3*
X1193701Y1143701D3*
Y1218504D3*
D22*
X2506201Y893701D3*
X2431398D3*
D23*
X2281201Y1156201D3*
X2481201D3*
X2381201Y1256201D3*
D22*
X2331201Y893701D3*
X2256398D3*
D29*
X2531201Y593701D3*
D30*
X2131201D3*
D29*
X2143701Y893701D3*
D30*
Y1293701D3*
D29*
X2131201Y731201D3*
D30*
X2531201D3*
D22*
X1743701Y1131201D3*
X1818504D3*
D21*
X1431201Y1268701D3*
Y1193898D3*
D31*
X1956201Y1268701D3*
Y993110D3*
D33*
X1318701Y881201D3*
Y849705D3*
Y818209D3*
Y786713D3*
Y755217D3*
Y723720D3*
Y692224D3*
Y660728D3*
D34*
X1385630Y593799D3*
X1417126D3*
X1448622D3*
X1480118D3*
X1511614D3*
X1543110D3*
X1574606D3*
X1606102D3*
D33*
X1673031Y660728D3*
Y692224D3*
Y723720D3*
Y755217D3*
Y786713D3*
Y818209D3*
Y849705D3*
Y881201D3*
D34*
X1606102Y948130D3*
X1574606D3*
X1543110D3*
X1511614D3*
X1480118D3*
X1448622D3*
X1417126D3*
X1385630D3*
D35*
X1868701Y618602D3*
X1918701D3*
X1968701D3*
X2018701D3*
Y831201D3*
X1968701D3*
X1918701D3*
X1868701D3*
D36*
X1156201Y631201D3*
Y847736D3*
M02*
