G04 DipTrace 3.2.0.1*
G04 TopDimension.gbr*
%MOIN*%
G04 #@! TF.FileFunction,Drawing,Top*
G04 #@! TF.Part,Single*
%ADD13C,0.001378*%
%ADD77C,0.006176*%
%FSLAX26Y26*%
G04*
G70*
G90*
G75*
G01*
G04 TopDimension*
%LPD*%
X2736024Y1092224D2*
D13*
X3038386D1*
X2735999Y694980D2*
X3038386D1*
X3018701Y893602D2*
Y1052854D1*
G36*
Y1092224D2*
X3026575Y1052854D1*
X3010827D1*
X3018701Y1092224D1*
G37*
Y893602D2*
D13*
Y734350D1*
G36*
Y694980D2*
X3010827Y734350D1*
X3026575D1*
X3018701Y694980D1*
G37*
X393701Y393701D2*
D13*
Y286516D1*
X2843701Y393701D2*
Y286516D1*
X1618701Y306201D2*
X433071D1*
G36*
X393701D2*
X433071Y314075D1*
Y298327D1*
X393701Y306201D1*
G37*
X1618701D2*
D13*
X2804331D1*
G36*
X2843701D2*
X2804331Y298327D1*
Y314075D1*
X2843701Y306201D1*
G37*
X393701Y1456201D2*
D13*
X224016D1*
X393701Y393701D2*
X224016D1*
X243701Y924951D2*
Y1416831D1*
G36*
Y1456201D2*
X251575Y1416831D1*
X235827D1*
X243701Y1456201D1*
G37*
Y924951D2*
D13*
Y433071D1*
G36*
Y393701D2*
X235827Y433071D1*
X251575D1*
X243701Y393701D1*
G37*
X3063410Y961179D2*
D77*
X3065356Y957333D1*
X3071059Y951585D1*
X3030912D1*
X3071059Y927737D2*
X3069158Y933485D1*
X3063410Y937332D1*
X3053859Y939233D1*
X3048111D1*
X3038561Y937332D1*
X3032813Y933485D1*
X3030912Y927737D1*
Y923935D1*
X3032813Y918187D1*
X3038561Y914384D1*
X3048111Y912439D1*
X3053859D1*
X3063410Y914384D1*
X3069158Y918187D1*
X3071059Y923935D1*
Y927737D1*
X3063410Y914384D2*
X3038561Y937332D1*
X3034758Y898186D2*
X3032813Y900087D1*
X3030912Y898186D1*
X3032813Y896240D1*
X3034758Y898186D1*
X3071059Y872393D2*
X3069158Y878141D1*
X3063410Y881988D1*
X3053859Y883889D1*
X3048111D1*
X3038561Y881988D1*
X3032813Y878141D1*
X3030912Y872393D1*
Y868590D1*
X3032813Y862842D1*
X3038561Y859040D1*
X3048111Y857094D1*
X3053859D1*
X3063410Y859040D1*
X3069158Y862842D1*
X3071059Y868590D1*
Y872393D1*
X3063410Y859040D2*
X3038561Y881988D1*
X3057706Y819850D2*
X3051958Y821795D1*
X3048111Y825598D1*
X3046210Y831346D1*
Y833247D1*
X3048111Y838995D1*
X3051958Y842797D1*
X3057706Y844743D1*
X3059607D1*
X3065356Y842797D1*
X3069158Y838995D1*
X3071059Y833247D1*
Y831346D1*
X3069158Y825598D1*
X3065356Y821795D1*
X3057706Y819850D1*
X3048111D1*
X3038561Y821795D1*
X3032813Y825598D1*
X3030912Y831346D1*
Y835148D1*
X3032813Y840896D1*
X3036660Y842797D1*
X1565494Y352856D2*
X1563593Y356658D1*
X1557844Y358559D1*
X1554042D1*
X1548294Y356658D1*
X1544447Y350910D1*
X1542546Y341359D1*
Y331809D1*
X1544447Y324160D1*
X1548294Y320313D1*
X1554042Y318412D1*
X1555943D1*
X1561647Y320313D1*
X1565494Y324160D1*
X1567395Y329908D1*
Y331809D1*
X1565494Y337557D1*
X1561647Y341359D1*
X1555943Y343261D1*
X1554042D1*
X1548294Y341359D1*
X1544447Y337557D1*
X1542546Y331809D1*
X1581692Y349009D2*
Y350910D1*
X1583593Y354757D1*
X1585494Y356658D1*
X1589341Y358559D1*
X1596991D1*
X1600793Y356658D1*
X1602694Y354757D1*
X1604640Y350910D1*
Y347107D1*
X1602694Y343261D1*
X1598892Y337557D1*
X1579746Y318412D1*
X1606541D1*
X1620794Y322258D2*
X1618893Y320313D1*
X1620794Y318412D1*
X1622739Y320313D1*
X1620794Y322258D1*
X1637036Y349009D2*
Y350910D1*
X1638937Y354757D1*
X1640839Y356658D1*
X1644685Y358559D1*
X1652335D1*
X1656137Y356658D1*
X1658039Y354757D1*
X1659984Y350910D1*
Y347107D1*
X1658039Y343261D1*
X1654236Y337557D1*
X1635091Y318412D1*
X1661885D1*
X1678083Y358559D2*
X1699086D1*
X1687634Y343261D1*
X1693382D1*
X1697185Y341359D1*
X1699086Y339458D1*
X1701031Y333710D1*
Y329908D1*
X1699086Y324160D1*
X1695283Y320313D1*
X1689535Y318412D1*
X1683787D1*
X1678083Y320313D1*
X1676182Y322258D1*
X1674237Y326061D1*
X200893Y852643D2*
X198992D1*
X195145Y854544D1*
X193244Y856445D1*
X191342Y860292D1*
Y867941D1*
X193244Y871744D1*
X195145Y873645D1*
X198992Y875591D1*
X202794D1*
X206641Y873645D1*
X212345Y869843D1*
X231490Y850697D1*
Y877492D1*
X197046Y912791D2*
X193244Y910890D1*
X191342Y905142D1*
Y901339D1*
X193244Y895591D1*
X198992Y891744D1*
X208542Y889843D1*
X218093D1*
X225742Y891744D1*
X229589Y895591D1*
X231490Y901339D1*
Y903241D1*
X229589Y908944D1*
X225742Y912791D1*
X219994Y914692D1*
X218093D1*
X212345Y912791D1*
X208542Y908944D1*
X206641Y903241D1*
Y901339D1*
X208542Y895591D1*
X212345Y891744D1*
X218093Y889843D1*
X227643Y928945D2*
X229589Y927044D1*
X231490Y928945D1*
X229589Y930891D1*
X227643Y928945D1*
X204695Y968135D2*
X210443Y966190D1*
X214290Y962387D1*
X216191Y956639D1*
Y954738D1*
X214290Y948990D1*
X210443Y945187D1*
X204695Y943242D1*
X202794D1*
X197046Y945187D1*
X193244Y948990D1*
X191342Y954738D1*
Y956639D1*
X193244Y962387D1*
X197046Y966190D1*
X204695Y968135D1*
X214290D1*
X223841Y966190D1*
X229589Y962387D1*
X231490Y956639D1*
Y952837D1*
X229589Y947089D1*
X225742Y945187D1*
X204695Y1005380D2*
X210443Y1003435D1*
X214290Y999632D1*
X216191Y993884D1*
Y991983D1*
X214290Y986235D1*
X210443Y982432D1*
X204695Y980487D1*
X202794D1*
X197046Y982432D1*
X193244Y986235D1*
X191342Y991983D1*
Y993884D1*
X193244Y999632D1*
X197046Y1003435D1*
X204695Y1005380D1*
X214290D1*
X223841Y1003435D1*
X229589Y999632D1*
X231490Y993884D1*
Y990082D1*
X229589Y984333D1*
X225742Y982432D1*
M02*
