G04 DipTrace 3.2.0.1*
G04 TopPaste.gbr*
%MOIN*%
G04 #@! TF.FileFunction,Paste,Top*
G04 #@! TF.Part,Single*
%ADD47R,0.03937X0.129921*%
%ADD49R,0.015748X0.070866*%
%ADD51R,0.011811X0.070866*%
%ADD53R,0.070866X0.011811*%
%ADD55R,0.047244X0.031496*%
%ADD65R,0.110236X0.051181*%
%ADD73R,0.043307X0.051181*%
%ADD75R,0.051181X0.043307*%
%FSLAX26Y26*%
G04*
G70*
G90*
G75*
G01*
G04 TopPaste*
%LPD*%
D75*
X993701Y618701D3*
Y693504D3*
Y856201D3*
Y781398D3*
X1793701Y1256201D3*
Y1331004D3*
X1681201Y1256201D3*
Y1331004D3*
X1081201Y1306201D3*
Y1231398D3*
D73*
X1793701Y1006201D3*
X1718898D3*
D75*
X1081201Y1131201D3*
Y1056398D3*
X1331201Y1143701D3*
Y1218504D3*
D65*
X656201Y1393701D3*
D75*
X1556201Y1218701D3*
Y1293504D3*
X1193701Y1143701D3*
Y1218504D3*
D73*
X2506201Y893701D3*
X2431398D3*
X2331201D3*
X2256398D3*
X1743701Y1131201D3*
X1818504D3*
D75*
X1431201Y1268701D3*
Y1193898D3*
D55*
X1956201Y1268701D3*
Y993110D3*
D53*
X1318701Y881201D3*
Y849705D3*
Y818209D3*
Y786713D3*
Y755217D3*
Y723720D3*
Y692224D3*
Y660728D3*
D51*
X1385630Y593799D3*
X1417126D3*
X1448622D3*
X1480118D3*
X1511614D3*
X1543110D3*
X1574606D3*
X1606102D3*
D53*
X1673031Y660728D3*
Y692224D3*
Y723720D3*
Y755217D3*
Y786713D3*
Y818209D3*
Y849705D3*
Y881201D3*
D51*
X1606102Y948130D3*
X1574606D3*
X1543110D3*
X1511614D3*
X1480118D3*
X1448622D3*
X1417126D3*
X1385630D3*
D49*
X1868701Y618602D3*
X1918701D3*
X1968701D3*
X2018701D3*
Y831201D3*
X1968701D3*
X1918701D3*
X1868701D3*
D47*
X1156201Y631201D3*
Y847736D3*
M02*
