G04 DipTrace 3.2.0.1*
G04 TopSilk.gbr*
%MOIN*%
G04 #@! TF.FileFunction,Legend,Top*
G04 #@! TF.Part,Single*
%ADD10C,0.009843*%
%ADD20C,0.007874*%
%ADD32C,0.017453*%
%ADD76C,0.00772*%
%ADD77C,0.006176*%
%ADD78C,0.004632*%
%FSLAX26Y26*%
G04*
G70*
G90*
G75*
G01*
G04 TopSilk*
%LPD*%
X1019272Y577341D2*
D10*
X968130D1*
Y897560D2*
X1019272D1*
X1819272Y1214841D2*
X1768130D1*
X1706772D2*
X1655630D1*
X1055630Y1347560D2*
X1106772D1*
X1835060Y1031772D2*
Y980630D1*
X1055630Y1168581D2*
X1106772D1*
X2773545Y762008D2*
G02X2782911Y632830I-79739J-70710D01*
G01*
X2698504Y762008D2*
G03X2692247Y630759I75084J-69353D01*
G01*
X2773545Y762008D2*
X2698504D1*
X1356772Y1106320D2*
X1305630D1*
X456200Y1193701D2*
X556199D1*
Y587451D1*
X456200D1*
Y1193701D1*
X959465Y1306221D2*
X677955D1*
Y1112440D1*
X959465D1*
Y1306221D1*
X618701Y593701D2*
X718701D1*
X618701Y993701D2*
Y593701D1*
X718701Y993701D2*
Y593701D1*
X618701Y993701D2*
X718701D1*
X756201Y974951D2*
X874951D1*
Y587451D1*
X756201D1*
Y974951D1*
X2775399Y1146949D2*
X2786418D1*
X2696649D2*
X2685629D1*
G03X2786418Y1146949I50395J-59012D01*
G01*
X2241339Y1299951D2*
X2518701D1*
Y1017224D1*
X2241339D1*
Y1299951D1*
X2231381Y643701D2*
X2431021D1*
Y543701D2*
Y643701D1*
X2231381Y543701D2*
X2431021D1*
X2231381D2*
Y643701D1*
X2193701Y1193521D2*
Y993881D1*
X2093701D2*
X2193701D1*
X2093701Y1193521D2*
Y993881D1*
Y1193521D2*
X2193701D1*
X2431021Y681201D2*
X2231381D1*
Y781201D2*
Y681201D1*
X2431021Y781201D2*
X2231381D1*
X2431021D2*
Y681201D1*
X2024757Y1241142D2*
X1875148D1*
Y1020669D1*
X2024757D1*
Y1241142D1*
X1924958Y1174654D2*
G02X1924958Y1174654I18748J0D01*
G01*
Y1087157D2*
G02X1924958Y1087157I18748J0D01*
G01*
X1974947Y1180921D2*
Y1080890D1*
X2024951Y1130906D2*
X1974947D1*
X1943698Y1068417D2*
Y1024669D1*
Y1193394D2*
Y1237142D1*
X1375299Y889453D2*
X1616433D1*
Y648319D1*
X1375299D1*
Y889453D1*
D32*
X1320754Y922344D3*
G36*
X1375299Y889453D2*
Y856193D1*
X1408559Y889453D1*
X1375299D1*
G37*
X1845274Y673713D2*
D10*
X2042128D1*
X1845274Y776090D2*
X2042128D1*
Y673713D2*
Y776090D1*
X1845274Y705207D2*
Y673713D1*
Y744596D2*
Y776090D1*
Y705207D2*
G03X1845274Y744596I-9J19694D01*
G01*
X1074951Y601953D2*
X1106200D1*
X1074951D2*
Y633205D1*
X1234331Y842579D2*
Y873831D1*
X1203082D2*
X1234331D1*
X1074951Y876984D2*
X1106200D1*
X1074951D2*
Y845732D1*
X1212458Y601953D2*
X1237451D1*
Y633205D2*
Y601953D1*
X2687450Y849951D2*
D20*
X2637450Y887451D1*
X2662450Y899951D1*
X2612450Y937451D1*
X2649950D2*
X2699950Y899951D1*
X2674950Y887451D1*
X2724950Y849950D1*
X902888Y641687D2*
D76*
X898135Y639310D1*
X893327Y634502D1*
X890950Y629748D1*
Y620187D1*
X893327Y615378D1*
X898135Y610625D1*
X902888Y608193D1*
X910073Y605817D1*
X922067D1*
X929197Y608193D1*
X934005Y610625D1*
X938758Y615378D1*
X941190Y620187D1*
Y629748D1*
X938758Y634502D1*
X934005Y639310D1*
X929197Y641687D1*
X902944Y659558D2*
X900567D1*
X895759Y661934D1*
X893382Y664311D1*
X891005Y669119D1*
Y678681D1*
X893382Y683434D1*
X895759Y685811D1*
X900567Y688243D1*
X905320D1*
X910129Y685811D1*
X917259Y681058D1*
X941190Y657126D1*
Y690619D1*
X902888Y820152D2*
X898135Y817776D1*
X893327Y812967D1*
X890950Y808214D1*
Y798653D1*
X893327Y793844D1*
X898135Y789091D1*
X902888Y786659D1*
X910073Y784283D1*
X922067D1*
X929197Y786659D1*
X934005Y789091D1*
X938758Y793844D1*
X941190Y798653D1*
Y808214D1*
X938758Y812967D1*
X934005Y817776D1*
X929197Y820152D1*
X891005Y840400D2*
Y866653D1*
X910129Y852338D1*
Y859523D1*
X912505Y864277D1*
X914882Y866653D1*
X922067Y869085D1*
X926820D1*
X934005Y866653D1*
X938814Y861900D1*
X941190Y854715D1*
Y847530D1*
X938814Y840400D1*
X936382Y838024D1*
X931629Y835592D1*
X1785981Y1417879D2*
X1783605Y1422633D1*
X1778796Y1427441D1*
X1774043Y1429818D1*
X1764481D1*
X1759673Y1427441D1*
X1754920Y1422633D1*
X1752488Y1417879D1*
X1750111Y1410694D1*
Y1398701D1*
X1752488Y1391571D1*
X1754920Y1386763D1*
X1759673Y1382009D1*
X1764481Y1379578D1*
X1774043D1*
X1778796Y1382009D1*
X1783605Y1386763D1*
X1785981Y1391571D1*
X1825352Y1379578D2*
Y1429762D1*
X1801420Y1396324D1*
X1837290D1*
X1674669Y1417879D2*
X1672293Y1422633D1*
X1667484Y1427441D1*
X1662731Y1429818D1*
X1653170D1*
X1648361Y1427441D1*
X1643608Y1422633D1*
X1641176Y1417879D1*
X1638800Y1410694D1*
Y1398701D1*
X1641176Y1391571D1*
X1643608Y1386763D1*
X1648361Y1382009D1*
X1653170Y1379578D1*
X1662731D1*
X1667484Y1382009D1*
X1672293Y1386763D1*
X1674669Y1391571D1*
X1718794Y1429762D2*
X1694917D1*
X1692541Y1408262D1*
X1694917Y1410639D1*
X1702102Y1413071D1*
X1709232D1*
X1716417Y1410639D1*
X1721225Y1405886D1*
X1723602Y1398701D1*
Y1393948D1*
X1721225Y1386763D1*
X1716417Y1381954D1*
X1709232Y1379578D1*
X1702102D1*
X1694917Y1381954D1*
X1692541Y1384386D1*
X1690109Y1389139D1*
X990388Y1271368D2*
X985635Y1268992D1*
X980827Y1264183D1*
X978450Y1259430D1*
Y1249869D1*
X980827Y1245060D1*
X985635Y1240307D1*
X990388Y1237875D1*
X997573Y1235499D1*
X1009567D1*
X1016697Y1237875D1*
X1021505Y1240307D1*
X1026258Y1245060D1*
X1028690Y1249869D1*
Y1259430D1*
X1026258Y1264183D1*
X1021505Y1268992D1*
X1016697Y1271368D1*
X985635Y1315493D2*
X980882Y1313116D1*
X978505Y1305931D1*
Y1301178D1*
X980882Y1293993D1*
X988067Y1289184D1*
X1000005Y1286808D1*
X1011944D1*
X1021505Y1289184D1*
X1026314Y1293993D1*
X1028690Y1301178D1*
Y1303554D1*
X1026314Y1310684D1*
X1021505Y1315492D1*
X1014320Y1317869D1*
X1011944D1*
X1004759Y1315492D1*
X1000005Y1310684D1*
X997629Y1303554D1*
Y1301178D1*
X1000005Y1293993D1*
X1004759Y1289184D1*
X1011944Y1286808D1*
X1632022Y999670D2*
X1627269Y997293D1*
X1622461Y992485D1*
X1620084Y987731D1*
Y978170D1*
X1622461Y973361D1*
X1627269Y968608D1*
X1632022Y966176D1*
X1639207Y963800D1*
X1651201D1*
X1658331Y966176D1*
X1663139Y968608D1*
X1667892Y973361D1*
X1670324Y978170D1*
Y987731D1*
X1667892Y992484D1*
X1663139Y997293D1*
X1658331Y999670D1*
X1670324Y1024670D2*
X1620139Y1048602D1*
Y1015109D1*
X978450Y1069231D2*
X1028690D1*
Y1085978D1*
X1026258Y1093163D1*
X1021505Y1097971D1*
X1016697Y1100348D1*
X1009567Y1102725D1*
X997573D1*
X990388Y1100348D1*
X985635Y1097971D1*
X980827Y1093163D1*
X978450Y1085978D1*
Y1069231D1*
X988067Y1118164D2*
X985635Y1122972D1*
X978505Y1130157D1*
X1028690D1*
X2694665Y835231D2*
Y784991D1*
X2711412D1*
X2718597Y787423D1*
X2723405Y792176D1*
X2725782Y796984D1*
X2728158Y804114D1*
Y816108D1*
X2725782Y823293D1*
X2723405Y828046D1*
X2718597Y832854D1*
X2711412Y835231D1*
X2694665D1*
X2746029Y823237D2*
Y825614D1*
X2748406Y830423D1*
X2750783Y832799D1*
X2755591Y835176D1*
X2765153D1*
X2769906Y832799D1*
X2772282Y830423D1*
X2774714Y825614D1*
Y820861D1*
X2772282Y816052D1*
X2767529Y808923D1*
X2743598Y784991D1*
X2777091D1*
X1289988Y1317318D2*
Y1267078D1*
X1306734D1*
X1313920Y1269509D1*
X1318728Y1274263D1*
X1321105Y1279071D1*
X1323481Y1286201D1*
Y1298194D1*
X1321105Y1305379D1*
X1318728Y1310133D1*
X1313920Y1314941D1*
X1306734Y1317318D1*
X1289988D1*
X1343729Y1317262D2*
X1369982D1*
X1355667Y1298139D1*
X1362852D1*
X1367605Y1295762D1*
X1369982Y1293386D1*
X1372414Y1286201D1*
Y1281448D1*
X1369982Y1274263D1*
X1365229Y1269454D1*
X1358044Y1267078D1*
X1350859D1*
X1343729Y1269454D1*
X1341352Y1271886D1*
X1338920Y1276639D1*
X531395Y1266925D2*
Y1228678D1*
X529019Y1221493D1*
X526587Y1219116D1*
X521834Y1216685D1*
X517025D1*
X512272Y1219116D1*
X509895Y1221493D1*
X507463Y1228678D1*
Y1233431D1*
X546834Y1257308D2*
X551643Y1259739D1*
X558828Y1266869D1*
Y1216685D1*
X604732Y1203399D2*
X642979D1*
X650164Y1201022D1*
X652541Y1198590D1*
X654972Y1193837D1*
Y1189029D1*
X652540Y1184275D1*
X650164Y1181899D1*
X642979Y1179467D1*
X638226D1*
X616726Y1221270D2*
X614349D1*
X609541Y1223646D1*
X607164Y1226023D1*
X604788Y1230831D1*
Y1240393D1*
X607164Y1245146D1*
X609541Y1247523D1*
X614349Y1249955D1*
X619102D1*
X623911Y1247523D1*
X631041Y1242770D1*
X654972Y1218838D1*
Y1252331D1*
X656200Y1066924D2*
Y1028677D1*
X653824Y1021492D1*
X651392Y1019116D1*
X646639Y1016684D1*
X641830D1*
X637077Y1019116D1*
X634701Y1021492D1*
X632269Y1028677D1*
Y1033431D1*
X676448Y1066869D2*
X702701D1*
X688386Y1047745D1*
X695571D1*
X700324Y1045369D1*
X702701Y1042992D1*
X705133Y1035807D1*
Y1031054D1*
X702701Y1023869D1*
X697948Y1019060D1*
X690763Y1016684D1*
X683578D1*
X676448Y1019060D1*
X674071Y1021492D1*
X671640Y1026245D1*
X801887Y1048174D2*
Y1009927D1*
X799511Y1002742D1*
X797079Y1000366D1*
X792326Y997934D1*
X787517D1*
X782764Y1000366D1*
X780388Y1002742D1*
X777956Y1009927D1*
Y1014681D1*
X841258Y997934D2*
Y1048119D1*
X817327Y1014681D1*
X853197D1*
X2681094Y1193864D2*
X2702649D1*
X2709779Y1196240D1*
X2712211Y1198672D1*
X2714588Y1203425D1*
Y1210610D1*
X2712211Y1215363D1*
X2709779Y1217795D1*
X2702649Y1220172D1*
X2681094D1*
Y1169932D1*
X2730027Y1220172D2*
Y1169932D1*
X2763520Y1220172D2*
Y1169932D1*
X2730027Y1196240D2*
X2763520D1*
X2778959Y1210555D2*
X2783768Y1212987D1*
X2790953Y1220117D1*
Y1169932D1*
X1525738Y1368386D2*
X1547238D1*
X1554423Y1370818D1*
X1556854Y1373194D1*
X1559231Y1377947D1*
Y1382756D1*
X1556854Y1387509D1*
X1554423Y1389941D1*
X1547238Y1392318D1*
X1525738D1*
Y1342078D1*
X1542484Y1368386D2*
X1559231Y1342078D1*
X1574670Y1382701D2*
X1579479Y1385133D1*
X1586664Y1392262D1*
Y1342078D1*
X1152488Y1293386D2*
X1173988D1*
X1181173Y1295818D1*
X1183605Y1298194D1*
X1185981Y1302947D1*
Y1307756D1*
X1183605Y1312509D1*
X1181173Y1314941D1*
X1173988Y1317318D1*
X1152488D1*
Y1267078D1*
X1169234Y1293386D2*
X1185981Y1267078D1*
X1203852Y1305324D2*
Y1307701D1*
X1206229Y1312509D1*
X1208605Y1314886D1*
X1213414Y1317262D1*
X1222976D1*
X1227729Y1314886D1*
X1230105Y1312509D1*
X1232537Y1307701D1*
Y1302947D1*
X1230105Y1298139D1*
X1225352Y1291009D1*
X1201420Y1267078D1*
X1234914D1*
X2427586Y972520D2*
X2449086D1*
X2456271Y974952D1*
X2458703Y977328D1*
X2461080Y982081D1*
Y986890D1*
X2458703Y991643D1*
X2456271Y994075D1*
X2449086Y996451D1*
X2427586D1*
Y946211D1*
X2444333Y972520D2*
X2461080Y946211D1*
X2481327Y996396D2*
X2507580D1*
X2493266Y977273D1*
X2500451D1*
X2505204Y974896D1*
X2507580Y972520D1*
X2510012Y965335D1*
Y960581D1*
X2507580Y953396D1*
X2502827Y948588D1*
X2495642Y946211D1*
X2488457D1*
X2481327Y948588D1*
X2478951Y951020D1*
X2476519Y955773D1*
X2337618Y1349243D2*
X2359118D1*
X2366303Y1351675D1*
X2368735Y1354051D1*
X2371112Y1358804D1*
Y1363613D1*
X2368735Y1368366D1*
X2366303Y1370798D1*
X2359118Y1373175D1*
X2337618D1*
Y1322935D1*
X2354365Y1349243D2*
X2371112Y1322935D1*
X2410483D2*
Y1373119D1*
X2386551Y1339681D1*
X2422421D1*
X2252586Y972520D2*
X2274086D1*
X2281271Y974952D1*
X2283703Y977328D1*
X2286080Y982081D1*
Y986890D1*
X2283703Y991643D1*
X2281271Y994075D1*
X2274086Y996451D1*
X2252586D1*
Y946211D1*
X2269333Y972520D2*
X2286080Y946211D1*
X2330204Y996396D2*
X2306327D1*
X2303951Y974896D1*
X2306327Y977273D1*
X2313512Y979705D1*
X2320642D1*
X2327827Y977273D1*
X2332636Y972520D1*
X2335012Y965335D1*
Y960581D1*
X2332636Y953396D1*
X2327827Y948588D1*
X2320642Y946211D1*
X2313512D1*
X2306327Y948588D1*
X2303951Y951020D1*
X2301519Y955773D1*
X2291204Y502810D2*
X2312704D1*
X2319889Y505242D1*
X2322321Y507619D1*
X2324697Y512372D1*
Y517180D1*
X2322321Y521934D1*
X2319889Y524366D1*
X2312704Y526742D1*
X2291204D1*
Y476502D1*
X2307950Y502810D2*
X2324697Y476502D1*
X2368821Y519557D2*
X2366445Y524310D1*
X2359260Y526687D1*
X2354506D1*
X2347321Y524310D1*
X2342513Y517125D1*
X2340136Y505187D1*
Y493249D1*
X2342513Y483687D1*
X2347321Y478879D1*
X2354506Y476502D1*
X2356883D1*
X2364013Y478879D1*
X2368821Y483687D1*
X2371198Y490872D1*
Y493249D1*
X2368821Y500434D1*
X2364013Y505187D1*
X2356883Y507564D1*
X2354506D1*
X2347321Y505187D1*
X2342513Y500434D1*
X2340136Y493249D1*
X2044409Y1052488D2*
Y1073988D1*
X2041978Y1081173D1*
X2039601Y1083605D1*
X2034848Y1085981D1*
X2030039D1*
X2025286Y1083605D1*
X2022854Y1081173D1*
X2020478Y1073988D1*
Y1052488D1*
X2070718D1*
X2044409Y1069235D2*
X2070718Y1085981D1*
Y1110982D2*
X2020533Y1134914D1*
Y1101420D1*
X2290015Y830492D2*
X2311515D1*
X2318700Y832924D1*
X2321132Y835301D1*
X2323509Y840054D1*
Y844862D1*
X2321132Y849615D1*
X2318700Y852047D1*
X2311515Y854424D1*
X2290015D1*
Y804184D1*
X2306762Y830492D2*
X2323509Y804184D1*
X2350886Y854369D2*
X2343756Y851992D1*
X2341325Y847239D1*
Y842430D1*
X2343756Y837677D1*
X2348510Y835245D1*
X2358071Y832869D1*
X2365256Y830492D1*
X2370010Y825684D1*
X2372386Y820931D1*
Y813745D1*
X2370010Y808992D1*
X2367633Y806560D1*
X2360448Y804184D1*
X2350886D1*
X2343756Y806560D1*
X2341325Y808992D1*
X2338948Y813745D1*
Y820931D1*
X2341325Y825684D1*
X2346133Y830492D1*
X2353263Y832869D1*
X2362824Y835245D1*
X2367633Y837677D1*
X2370010Y842430D1*
Y847239D1*
X2367633Y851992D1*
X2360448Y854369D1*
X2350886D1*
X1668819Y1091176D2*
Y1112676D1*
X1666387Y1119861D1*
X1664010Y1122293D1*
X1659257Y1124670D1*
X1654449D1*
X1649696Y1122293D1*
X1647264Y1119861D1*
X1644887Y1112676D1*
Y1091176D1*
X1695127D1*
X1668819Y1107923D2*
X1695127Y1124669D1*
X1661634Y1171225D2*
X1668819Y1168794D1*
X1673627Y1164040D1*
X1676004Y1156855D1*
Y1154479D1*
X1673627Y1147294D1*
X1668819Y1142541D1*
X1661634Y1140109D1*
X1659257D1*
X1652072Y1142541D1*
X1647319Y1147294D1*
X1644942Y1154479D1*
Y1156855D1*
X1647319Y1164040D1*
X1652072Y1168794D1*
X1661634Y1171225D1*
X1673627D1*
X1685566Y1168794D1*
X1692751Y1164040D1*
X1695127Y1156855D1*
Y1152102D1*
X1692751Y1144917D1*
X1687942Y1142541D1*
X1376271Y1343583D2*
X1397771D1*
X1404956Y1346015D1*
X1407388Y1348391D1*
X1409765Y1353144D1*
Y1357953D1*
X1407388Y1362706D1*
X1404956Y1365138D1*
X1397771Y1367514D1*
X1376271D1*
Y1317274D1*
X1393018Y1343583D2*
X1409765Y1317274D1*
X1425204Y1357898D2*
X1430012Y1360329D1*
X1437198Y1367459D1*
Y1317274D1*
X1467007Y1367459D2*
X1459822Y1365083D1*
X1455013Y1357898D1*
X1452637Y1345959D1*
Y1338774D1*
X1455013Y1326836D1*
X1459822Y1319651D1*
X1467007Y1317274D1*
X1471760D1*
X1478945Y1319651D1*
X1483698Y1326836D1*
X1486130Y1338774D1*
Y1345959D1*
X1483698Y1357898D1*
X1478945Y1365083D1*
X1471760Y1367459D1*
X1467007D1*
X1483698Y1357898D2*
X1455013Y1326836D1*
X1953080Y1354424D2*
X1948327Y1359232D1*
X1941142Y1361609D1*
X1931580D1*
X1924395Y1359232D1*
X1919587Y1354424D1*
Y1349671D1*
X1922019Y1344862D1*
X1924395Y1342486D1*
X1929148Y1340109D1*
X1943519Y1335301D1*
X1948327Y1332924D1*
X1950704Y1330492D1*
X1953080Y1325739D1*
Y1318554D1*
X1948327Y1313801D1*
X1941142Y1311369D1*
X1931580D1*
X1924395Y1313801D1*
X1919587Y1318554D1*
X1968519Y1351992D2*
X1973328Y1354424D1*
X1980513Y1361554D1*
Y1311369D1*
X1465403Y1060723D2*
Y1024853D1*
X1467780Y1017668D1*
X1472588Y1012915D1*
X1479773Y1010483D1*
X1484526D1*
X1491711Y1012915D1*
X1496520Y1017668D1*
X1498896Y1024853D1*
Y1060723D1*
X1514336Y1051106D2*
X1519144Y1053538D1*
X1526329Y1060668D1*
Y1010483D1*
X1902488Y943794D2*
Y907924D1*
X1904864Y900739D1*
X1909673Y895986D1*
X1916858Y893554D1*
X1921611D1*
X1928796Y895986D1*
X1933605Y900739D1*
X1935981Y907924D1*
Y943794D1*
X1953852Y931800D2*
Y934177D1*
X1956229Y938985D1*
X1958605Y941362D1*
X1963414Y943739D1*
X1972976D1*
X1977729Y941362D1*
X1980105Y938985D1*
X1982537Y934177D1*
Y929424D1*
X1980105Y924615D1*
X1975352Y917486D1*
X1951420Y893554D1*
X1984914D1*
X1123361Y989857D2*
X1142484Y965925D1*
Y939617D1*
X1161608Y989857D2*
X1142484Y965925D1*
X1177047Y980240D2*
X1181855Y982672D1*
X1189040Y989802D1*
Y939617D1*
X601569Y448488D2*
D77*
X618769D1*
X624517Y450434D1*
X626463Y452335D1*
X628364Y456138D1*
Y459985D1*
X626463Y463787D1*
X624517Y465733D1*
X618769Y467634D1*
X601569D1*
Y427442D1*
X614967Y448488D2*
X628364Y427442D1*
X640716Y446587D2*
X657960D1*
X663663Y448488D1*
X665609Y450434D1*
X667510Y454236D1*
Y459985D1*
X665609Y463787D1*
X663663Y465733D1*
X657960Y467634D1*
X640716D1*
Y427442D1*
X710459D2*
Y467634D1*
X695160Y427442D1*
X679862Y467634D1*
Y427442D1*
X788486Y461886D2*
X784683Y465733D1*
X778935Y467634D1*
X771286D1*
X765538Y465733D1*
X761691Y461886D1*
Y458083D1*
X763636Y454236D1*
X765538Y452335D1*
X769340Y450434D1*
X780836Y446587D1*
X784683Y444686D1*
X786584Y442740D1*
X788486Y438938D1*
Y433190D1*
X784683Y429387D1*
X778935Y427442D1*
X771286D1*
X765538Y429387D1*
X761691Y433190D1*
X800837Y442740D2*
X823785D1*
Y446587D1*
X821884Y450434D1*
X819982Y452335D1*
X816136Y454236D1*
X810388D1*
X806585Y452335D1*
X802738Y448488D1*
X800837Y442740D1*
Y438938D1*
X802738Y433190D1*
X806585Y429387D1*
X810388Y427442D1*
X816136D1*
X819982Y429387D1*
X823785Y433190D1*
X836136Y454236D2*
Y427442D1*
Y446587D2*
X841884Y452335D1*
X845731Y454236D1*
X851435D1*
X855282Y452335D1*
X857183Y446587D1*
Y427442D1*
X890581Y448488D2*
X888680Y452335D1*
X882932Y454236D1*
X877184D1*
X871436Y452335D1*
X869534Y448488D1*
X871436Y444686D1*
X875282Y442740D1*
X884833Y440839D1*
X888680Y438938D1*
X890581Y435091D1*
Y433190D1*
X888680Y429387D1*
X882932Y427442D1*
X877184D1*
X871436Y429387D1*
X869534Y433190D1*
X912483Y454236D2*
X908680Y452335D1*
X904834Y448488D1*
X902932Y442740D1*
Y438938D1*
X904834Y433190D1*
X908680Y429387D1*
X912483Y427442D1*
X918231D1*
X922078Y429387D1*
X925880Y433190D1*
X927826Y438938D1*
Y442740D1*
X925880Y448488D1*
X922078Y452335D1*
X918231Y454236D1*
X912483D1*
X940177D2*
Y427442D1*
Y442740D2*
X942123Y448488D1*
X945925Y452335D1*
X949772Y454236D1*
X955520D1*
X1006752Y448488D2*
X1023952D1*
X1029700Y450434D1*
X1031646Y452335D1*
X1033547Y456138D1*
Y459985D1*
X1031646Y463787D1*
X1029700Y465733D1*
X1023952Y467634D1*
X1006752D1*
Y427442D1*
X1020150Y448488D2*
X1033547Y427442D1*
X1055449Y454236D2*
X1051646Y452335D1*
X1047800Y448488D1*
X1045898Y442740D1*
Y438938D1*
X1047800Y433190D1*
X1051646Y429387D1*
X1055449Y427442D1*
X1061197D1*
X1065044Y429387D1*
X1068846Y433190D1*
X1070792Y438938D1*
Y442740D1*
X1068846Y448488D1*
X1065044Y452335D1*
X1061197Y454236D1*
X1055449D1*
X1088891Y467634D2*
Y435091D1*
X1090792Y429387D1*
X1094639Y427442D1*
X1098442D1*
X1083143Y454236D2*
X1096540D1*
X1120344D2*
X1116541Y452335D1*
X1112694Y448488D1*
X1110793Y442740D1*
Y438938D1*
X1112694Y433190D1*
X1116541Y429387D1*
X1120344Y427442D1*
X1126092D1*
X1129938Y429387D1*
X1133741Y433190D1*
X1135686Y438938D1*
Y442740D1*
X1133741Y448488D1*
X1129938Y452335D1*
X1126092Y454236D1*
X1120344D1*
X1148038D2*
Y427442D1*
Y442740D2*
X1149983Y448488D1*
X1153786Y452335D1*
X1157633Y454236D1*
X1163381D1*
X1198724Y448488D2*
X1194877Y452335D1*
X1191031Y454236D1*
X1185327D1*
X1181480Y452335D1*
X1177678Y448488D1*
X1175732Y442740D1*
Y438938D1*
X1177678Y433190D1*
X1181480Y429387D1*
X1185327Y427442D1*
X1191031D1*
X1194877Y429387D1*
X1198724Y433190D1*
X1211076Y454236D2*
Y427442D1*
Y442740D2*
X1213021Y448488D1*
X1216824Y452335D1*
X1220670Y454236D1*
X1226418D1*
X1261718D2*
Y427442D1*
Y448488D2*
X1257915Y452335D1*
X1254068Y454236D1*
X1248365D1*
X1244518Y452335D1*
X1240715Y448488D1*
X1238770Y442740D1*
Y438938D1*
X1240715Y433190D1*
X1244518Y429387D1*
X1248365Y427442D1*
X1254068D1*
X1257915Y429387D1*
X1261718Y433190D1*
X1289368Y467634D2*
X1285565D1*
X1281718Y465733D1*
X1279817Y459985D1*
Y427442D1*
X1274069Y454236D2*
X1287466D1*
X1307467Y467634D2*
Y435091D1*
X1309368Y429387D1*
X1313215Y427442D1*
X1317018D1*
X1301719Y454236D2*
X1315117D1*
X1368250Y467634D2*
Y427442D1*
X1391198D1*
X1426497Y454236D2*
Y427442D1*
Y448488D2*
X1422695Y452335D1*
X1418848Y454236D1*
X1413144D1*
X1409297Y452335D1*
X1405495Y448488D1*
X1403549Y442740D1*
Y438938D1*
X1405495Y433190D1*
X1409297Y429387D1*
X1413144Y427442D1*
X1418848D1*
X1422695Y429387D1*
X1426497Y433190D1*
X1438849Y467634D2*
Y427442D1*
Y448488D2*
X1442695Y452335D1*
X1446498Y454236D1*
X1452246D1*
X1456048Y452335D1*
X1459895Y448488D1*
X1461796Y442740D1*
Y438938D1*
X1459895Y433190D1*
X1456048Y429387D1*
X1452246Y427442D1*
X1446498D1*
X1442695Y429387D1*
X1438849Y433190D1*
X1474148Y447516D2*
X1496256D1*
X1508607Y467634D2*
Y427442D1*
X1520958Y467634D2*
Y427442D1*
X1546707Y467634D2*
Y427442D1*
X1533310Y467634D2*
X1560105D1*
X1603053Y427442D2*
Y467634D1*
X1587755Y427442D1*
X1572456Y467634D1*
Y427442D1*
X571275Y1145881D2*
D78*
Y1162461D1*
X575023Y1033629D2*
X572138Y1030744D1*
X570712Y1027859D1*
Y1023581D1*
X572138Y1020696D1*
X575023Y1017845D1*
X579334Y1016385D1*
X582186D1*
X586497Y1017845D1*
X589349Y1020696D1*
X590808Y1023581D1*
Y1027859D1*
X589349Y1030744D1*
X586497Y1033629D1*
X560664Y1047204D2*
X585071D1*
X589349Y1048630D1*
X590808Y1051515D1*
Y1054367D1*
X570712Y1042893D2*
Y1052941D1*
X575023Y1079415D2*
X572138Y1077989D1*
X570712Y1073678D1*
Y1069367D1*
X572138Y1065056D1*
X575023Y1063630D1*
X577875Y1065056D1*
X579335Y1067941D1*
X580760Y1075104D1*
X582186Y1077989D1*
X585071Y1079415D1*
X586497D1*
X589349Y1077989D1*
X590808Y1073678D1*
Y1069367D1*
X589349Y1065056D1*
X586497Y1063630D1*
X564960Y935566D2*
Y921240D1*
X577860Y919814D1*
X576434Y921240D1*
X574975Y925551D1*
Y929829D1*
X576434Y934140D1*
X579286Y937025D1*
X583597Y938451D1*
X586449D1*
X590760Y937025D1*
X593645Y934140D1*
X595071Y929829D1*
Y925551D1*
X593645Y921240D1*
X592186Y919814D1*
X589334Y918355D1*
X574975Y947714D2*
X595071Y956336D1*
X574975Y964925D1*
X566158Y821422D2*
X590565D1*
X594843Y822848D1*
X596302Y825733D1*
Y828585D1*
X576206Y817111D2*
Y827159D1*
Y837848D2*
X596302Y853633D1*
X576206D2*
X596302Y837848D1*
X569958Y723384D2*
X590054D1*
X578580D2*
X574269Y724844D1*
X571384Y727695D1*
X569958Y730581D1*
Y734892D1*
Y744155D2*
X590054Y759940D1*
X569958D2*
X590054Y744155D1*
X560634Y621103D2*
X590778D1*
X574993D2*
X572108Y618251D1*
X570682Y615366D1*
Y611055D1*
X572108Y608203D1*
X574993Y605318D1*
X579304Y603892D1*
X582156D1*
X586467Y605318D1*
X589319Y608203D1*
X590778Y611055D1*
Y615366D1*
X589319Y618251D1*
X586467Y621103D1*
X560634Y634678D2*
X585041D1*
X589319Y636104D1*
X590778Y638989D1*
Y641841D1*
X570682Y630367D2*
Y640415D1*
Y651104D2*
X590778D1*
X579304D2*
X574993Y652563D1*
X572108Y655415D1*
X570682Y658300D1*
Y662611D1*
X771621Y1100826D2*
Y1080730D1*
Y1095089D2*
X775932Y1099400D1*
X778817Y1100826D1*
X783095D1*
X785980Y1099400D1*
X787406Y1095089D1*
Y1080730D1*
Y1095089D2*
X791717Y1099400D1*
X794602Y1100826D1*
X798880D1*
X801765Y1099400D1*
X803224Y1095089D1*
Y1080730D1*
X819651Y1100826D2*
X816799Y1099400D1*
X813914Y1096515D1*
X812488Y1092204D1*
Y1089352D1*
X813914Y1085041D1*
X816799Y1082189D1*
X819651Y1080730D1*
X823962D1*
X826847Y1082189D1*
X829699Y1085041D1*
X831158Y1089352D1*
Y1092204D1*
X829699Y1096515D1*
X826847Y1099400D1*
X823962Y1100826D1*
X819651D1*
X856206Y1096515D2*
X854780Y1099400D1*
X850469Y1100826D1*
X846158D1*
X841847Y1099400D1*
X840421Y1096515D1*
X841847Y1093663D1*
X844732Y1092204D1*
X851895Y1090778D1*
X854780Y1089352D1*
X856206Y1086467D1*
Y1085041D1*
X854780Y1082189D1*
X850469Y1080730D1*
X846158D1*
X841847Y1082189D1*
X840421Y1085041D1*
X865470Y1110874D2*
X866896Y1109448D1*
X868355Y1110874D1*
X866896Y1112333D1*
X865470Y1110874D1*
X866896Y1100826D2*
Y1080730D1*
X865223Y1344623D2*
Y1324527D1*
Y1338886D2*
X869534Y1343197D1*
X872419Y1344623D1*
X876697D1*
X879582Y1343197D1*
X881008Y1338886D1*
Y1324527D1*
Y1338886D2*
X885319Y1343197D1*
X888204Y1344623D1*
X892482D1*
X895367Y1343197D1*
X896826Y1338886D1*
Y1324527D1*
X906089Y1354671D2*
X907515Y1353245D1*
X908975Y1354671D1*
X907515Y1356130D1*
X906089Y1354671D1*
X907515Y1344623D2*
Y1324527D1*
X934023Y1340312D2*
X932597Y1343197D1*
X928286Y1344623D1*
X923975D1*
X919664Y1343197D1*
X918238Y1340312D1*
X919664Y1337460D1*
X922549Y1336001D1*
X929712Y1334575D1*
X932597Y1333149D1*
X934023Y1330264D1*
Y1328838D1*
X932597Y1325986D1*
X928286Y1324527D1*
X923975D1*
X919664Y1325986D1*
X918238Y1328838D1*
X950450Y1344623D2*
X947598Y1343197D1*
X944713Y1340312D1*
X943287Y1336001D1*
Y1333149D1*
X944713Y1328838D1*
X947598Y1325986D1*
X950450Y1324527D1*
X954761D1*
X957646Y1325986D1*
X960498Y1328838D1*
X961957Y1333149D1*
Y1336001D1*
X960498Y1340312D1*
X957646Y1343197D1*
X954761Y1344623D1*
X950450D1*
X796527Y1337929D2*
X795101Y1340814D1*
X790790Y1342240D1*
X786479D1*
X782168Y1340814D1*
X780742Y1337929D1*
X782168Y1335077D1*
X785053Y1333618D1*
X792216Y1332192D1*
X795101Y1330766D1*
X796527Y1327881D1*
Y1326455D1*
X795101Y1323603D1*
X790790Y1322144D1*
X786479D1*
X782168Y1323603D1*
X780742Y1326455D1*
X823035Y1337929D2*
X820149Y1340814D1*
X817264Y1342240D1*
X812987D1*
X810101Y1340814D1*
X807250Y1337929D1*
X805790Y1333618D1*
Y1330766D1*
X807250Y1326455D1*
X810101Y1323603D1*
X812987Y1322144D1*
X817264D1*
X820149Y1323603D1*
X823035Y1326455D1*
X832298Y1352288D2*
Y1322144D1*
X846657Y1342240D2*
X832298Y1327881D1*
X838035Y1333618D2*
X848083Y1322144D1*
X706969Y1352288D2*
Y1322144D1*
Y1337929D2*
X704117Y1340814D1*
X701232Y1342240D1*
X696921D1*
X694069Y1340814D1*
X691184Y1337929D1*
X689758Y1333618D1*
Y1330766D1*
X691184Y1326455D1*
X694069Y1323603D1*
X696921Y1322144D1*
X701232D1*
X704117Y1323603D1*
X706969Y1326455D1*
X720544Y1352288D2*
Y1327881D1*
X721970Y1323603D1*
X724855Y1322144D1*
X727707D1*
X716233Y1342240D2*
X726281D1*
X736970D2*
Y1322144D1*
Y1333618D2*
X738429Y1337929D1*
X741281Y1340814D1*
X744166Y1342240D1*
X748477D1*
X940139Y1073893D2*
D77*
Y1092994D1*
X922939Y1094895D1*
X924840Y1092994D1*
X926786Y1087246D1*
Y1081542D1*
X924840Y1075794D1*
X921038Y1071947D1*
X915290Y1070046D1*
X911487D1*
X905739Y1071947D1*
X901892Y1075794D1*
X899991Y1081542D1*
Y1087246D1*
X901892Y1092994D1*
X903838Y1094895D1*
X907640Y1096840D1*
X735029D2*
Y1074733D1*
X864933Y921192D2*
X849590Y961384D1*
X834292Y921192D1*
X840040Y934589D2*
X859185D1*
X834292Y855131D2*
Y814939D1*
X847689D1*
X853437Y816885D1*
X857284Y820687D1*
X859185Y824534D1*
X861086Y830238D1*
Y839833D1*
X859185Y845581D1*
X857284Y849383D1*
X853437Y853230D1*
X847689Y855131D1*
X834292D1*
X845788Y755118D2*
X841941Y753216D1*
X838138Y749370D1*
X836193Y745567D1*
X834292Y739819D1*
Y730224D1*
X836193Y724520D1*
X838138Y720674D1*
X841941Y716871D1*
X845788Y714926D1*
X853437D1*
X857239Y716871D1*
X861086Y720674D1*
X862987Y724520D1*
X864889Y730224D1*
Y739819D1*
X862987Y745567D1*
X861086Y749370D1*
X857239Y753216D1*
X853437Y755118D1*
X845788D1*
X834292Y641263D2*
X856399D1*
M02*
