ISO-10303-21;
HEADER;
FILE_DESCRIPTION (( 'STEP AP203' ),
    '1' );
FILE_NAME ('frame_Default_sldprt.STEP',
    '2016-07-31T01:44:17',
    ( '' ),
    ( '' ),
    'SwSTEP 2.0',
    'SolidWorks 2016',
    '' );
FILE_SCHEMA (( 'CONFIG_CONTROL_DESIGN' ));
ENDSEC;

DATA;
#1 = EDGE_LOOP ( 'NONE', ( #576, #489, #1142, #943 ) ) ;
#2 = FACE_OUTER_BOUND ( 'NONE', #29, .T. ) ;
#3 = CARTESIAN_POINT ( 'NONE',  ( -390.4159255998957300, -1.032233383327252300, 35.00000000000000000 ) ) ;
#4 = EDGE_CURVE ( 'NONE', #531, #1017, #189, .T. ) ;
#5 = DATE_AND_TIME ( #1197, #522 ) ;
#6 = FACE_OUTER_BOUND ( 'NONE', #669, .T. ) ;
#7 = PRODUCT_DEFINITION ( 'UNKNOWN', '', #30, #1082 ) ;
#8 = FACE_OUTER_BOUND ( 'NONE', #145, .T. ) ;
#9 = DIRECTION ( 'NONE',  ( 0.0000000000000000000, 0.0000000000000000000, 1.000000000000000000 ) ) ;
#10 = EDGE_CURVE ( 'NONE', #196, #1021, #208, .T. ) ;
#11 = ORIENTED_EDGE ( 'NONE', *, *, #22, .T. ) ;
#12 = VECTOR ( 'NONE', #314, 1000.000000000000000 ) ;
#13 = AXIS2_PLACEMENT_3D ( 'NONE', #1065, #274, #545 ) ;
#14 = PLANE ( 'NONE',  #1277 ) ;
#15 = VERTEX_POINT ( 'NONE', #1064 ) ;
#16 = ORIENTED_EDGE ( 'NONE', *, *, #976, .F. ) ;
#17 = EDGE_LOOP ( 'NONE', ( #787, #476, #400, #164 ) ) ;
#18 = DIRECTION ( 'NONE',  ( 1.000000000000000000, 0.0000000000000000000, -0.0000000000000000000 ) ) ;
#19 = APPROVAL_PERSON_ORGANIZATION ( #167, #1117, #885 ) ;
#20 = CARTESIAN_POINT ( 'NONE',  ( -30.00000000000000000, 120.8817190364526700, -15.00000000000000000 ) ) ;
#21 = LINE ( 'NONE', #653, #421 ) ;
#22 = EDGE_CURVE ( 'NONE', #941, #575, #23, .T. ) ;
#23 = CIRCLE ( 'NONE', #419, 2.500000000000002200 ) ;
#24 = LINE ( 'NONE', #910, #255 ) ;
#25 = PLANE ( 'NONE',  #949 ) ;
#26 = LINE ( 'NONE', #921, #359 ) ;
#27 = CARTESIAN_POINT ( 'NONE',  ( -0.7240794916128247000, 389.6918461082842700, 35.00000000000000000 ) ) ;
#28 = EDGE_CURVE ( 'NONE', #794, #232, #238, .T. ) ;
#29 = EDGE_LOOP ( 'NONE', ( #506, #728, #36, #849 ) ) ;
#30 = PRODUCT_DEFINITION_FORMATION_WITH_SPECIFIED_SOURCE ( 'ANY', '', #677, .NOT_KNOWN. ) ;
#31 = ORIENTED_EDGE ( 'NONE', *, *, #773, .T. ) ;
#32 = CARTESIAN_POINT ( 'NONE',  ( 0.0000000000000000000, -30.00000000000000000, -15.00000000000000000 ) ) ;
#33 = EDGE_LOOP ( 'NONE', ( #355, #457, #768, #934 ) ) ;
#34 = ORIENTED_EDGE ( 'NONE', *, *, #1206, .F. ) ;
#35 = DIRECTION ( 'NONE',  ( 0.0000000000000000000, 0.0000000000000000000, 1.000000000000000000 ) ) ;
#36 = ORIENTED_EDGE ( 'NONE', *, *, #751, .F. ) ;
#37 = LINE ( 'NONE', #303, #115 ) ;
#38 = CYLINDRICAL_SURFACE ( 'NONE', #1167, 25.00000000000000700 ) ;
#39 = AXIS2_PLACEMENT_3D ( 'NONE', #351, #752, #1183 ) ;
#40 = VERTEX_POINT ( 'NONE', #1159 ) ;
#41 = CARTESIAN_POINT ( 'NONE',  ( 0.0000000000000000000, -30.00000000000000000, 15.00000000000000000 ) ) ;
#42 = CIRCLE ( 'NONE', #696, 25.00000000000002100 ) ;
#43 = ORIENTED_EDGE ( 'NONE', *, *, #464, .F. ) ;
#44 = FACE_OUTER_BOUND ( 'NONE', #854, .T. ) ;
#45 = EDGE_LOOP ( 'NONE', ( #87, #34, #686, #203, #852, #1195, #215, #1247, #584, #59, #549, #217, #1116, #734, #202, #749 ) ) ;
#46 = EDGE_CURVE ( 'NONE', #1161, #560, #393, .T. ) ;
#47 = VERTEX_POINT ( 'NONE', #1057 ) ;
#48 = VECTOR ( 'NONE', #1267, 1000.000000000000000 ) ;
#49 = DIRECTION ( 'NONE',  ( 0.0000000000000000000, 1.000000000000000000, -0.0000000000000000000 ) ) ;
#50 = LINE ( 'NONE', #171, #240 ) ;
#51 = CARTESIAN_POINT ( 'NONE',  ( -30.00000000000000000, 120.8817190364526700, 15.00000000000000000 ) ) ;
#52 = VECTOR ( 'NONE', #592, 1000.000000000000000 ) ;
#53 = DIRECTION ( 'NONE',  ( 1.000000000000000000, 0.0000000000000000000, 0.0000000000000000000 ) ) ;
#54 = EDGE_CURVE ( 'NONE', #1156, #445, #679, .T. ) ;
#55 = AXIS2_PLACEMENT_3D ( 'NONE', #1095, #684, #786 ) ;
#56 = DIRECTION ( 'NONE',  ( 0.0000000000000000000, 0.0000000000000000000, 1.000000000000000000 ) ) ;
#57 = DIRECTION ( 'NONE',  ( -0.0000000000000000000, -0.0000000000000000000, -1.000000000000000000 ) ) ;
#58 = VERTEX_POINT ( 'NONE', #270 ) ;
#59 = ORIENTED_EDGE ( 'NONE', *, *, #127, .F. ) ;
#60 = DIRECTION ( 'NONE',  ( -0.0000000000000000000, -0.0000000000000000000, -1.000000000000000000 ) ) ;
#61 = CARTESIAN_POINT ( 'NONE',  ( 0.3081538917198772300, -390.7240794916115200, 50.00000000000000000 ) ) ;
#62 = ADVANCED_FACE ( 'NONE', ( #612 ), #1121, .T. ) ;
#63 = AXIS2_PLACEMENT_3D ( 'NONE', #1193, #996, #916 ) ;
#64 = ORIENTED_EDGE ( 'NONE', *, *, #172, .T. ) ;
#65 = CIRCLE ( 'NONE', #753, 2.500000000000002200 ) ;
#66 = CARTESIAN_POINT ( 'NONE',  ( 121.2650820497652400, -30.00000000000000000, -15.00000000000000000 ) ) ;
#67 = VECTOR ( 'NONE', #721, 1000.000000000000000 ) ;
#68 = DIRECTION ( 'NONE',  ( -3.512815038853031200E-015, 1.000000000000000000, 0.0000000000000000000 ) ) ;
#69 = EDGE_CURVE ( 'NONE', #15, #771, #307, .T. ) ;
#70 = CARTESIAN_POINT ( 'NONE',  ( -390.4159255998957300, -1.032233383327252300, 35.00000000000000000 ) ) ;
#71 = APPROVAL ( #895, 'UNSPECIFIED' ) ;
#72 = CARTESIAN_POINT ( 'NONE',  ( -430.0000000000000600, 30.00000000000000000, 15.00000000000000000 ) ) ;
#73 = CARTESIAN_POINT ( 'NONE',  ( 430.0000000000000600, 30.00000000000000000, 15.00000000000000000 ) ) ;
#74 = ADVANCED_FACE ( 'NONE', ( #1225 ), #640, .T. ) ;
#75 = EDGE_CURVE ( 'NONE', #458, #546, #513, .T. ) ;
#76 = VERTEX_POINT ( 'NONE', #1050 ) ;
#77 = AXIS2_PLACEMENT_3D ( 'NONE', #1256, #1152, #744 ) ;
#78 = CARTESIAN_POINT ( 'NONE',  ( -30.00000000000000000, -121.9139524197799200, -15.00000000000000000 ) ) ;
#79 = DIRECTION ( 'NONE',  ( -0.0000000000000000000, -0.0000000000000000000, -1.000000000000000000 ) ) ;
#80 = CARTESIAN_POINT ( 'NONE',  ( 390.0000000000000600, 0.0000000000000000000, 15.00000000000000000 ) ) ;
#81 = VECTOR ( 'NONE', #645, 1000.000000000000000 ) ;
#82 = LINE ( 'NONE', #705, #859 ) ;
#83 = EDGE_CURVE ( 'NONE', #834, #1230, #608, .T. ) ;
#84 = ADVANCED_FACE ( 'NONE', ( #482 ), #550, .F. ) ;
#85 = ORIENTED_EDGE ( 'NONE', *, *, #1049, .T. ) ;
#86 = DIRECTION ( 'NONE',  ( 0.0000000000000000000, -1.000000000000000000, 0.0000000000000000000 ) ) ;
#87 = ORIENTED_EDGE ( 'NONE', *, *, #761, .T. ) ;
#88 = APPROVAL_STATUS ( 'not_yet_approved' ) ;
#89 = DIRECTION ( 'NONE',  ( -1.000000000000000000, 0.0000000000000000000, 0.0000000000000000000 ) ) ;
#90 = ORIENTED_EDGE ( 'NONE', *, *, #966, .F. ) ;
#91 = VERTEX_POINT ( 'NONE', #154 ) ;
#92 = EDGE_CURVE ( 'NONE', #445, #1156, #271, .T. ) ;
#93 = ORIENTED_EDGE ( 'NONE', *, *, #487, .T. ) ;
#94 = CARTESIAN_POINT ( 'NONE',  ( -0.2079627999478361700, -0.5161166916636261700, -15.00000000000000000 ) ) ;
#95 = CC_DESIGN_PERSON_AND_ORGANIZATION_ASSIGNMENT ( #236, #294, ( #30 ) ) ;
#96 = LOCAL_TIME ( 7, 14, 17.00000000000000000, #340 ) ;
#97 = PLANE ( 'NONE',  #527 ) ;
#98 = LINE ( 'NONE', #324, #1119 ) ;
#99 = VECTOR ( 'NONE', #344, 1000.000000000000000 ) ;
#100 = DIRECTION ( 'NONE',  ( 0.0000000000000000000, 0.0000000000000000000, -1.000000000000000000 ) ) ;
#101 = ADVANCED_FACE ( 'NONE', ( #719 ), #874, .T. ) ;
#102 = ORIENTED_EDGE ( 'NONE', *, *, #46, .F. ) ;
#103 = PERSON_AND_ORGANIZATION_ROLE ( 'design_owner' ) ;
#104 = DIRECTION ( 'NONE',  ( 1.047339298620996300E-014, -1.000000000000000000, 0.0000000000000000000 ) ) ;
#105 = ORIENTED_EDGE ( 'NONE', *, *, #281, .T. ) ;
#106 = EDGE_LOOP ( 'NONE', ( #508, #133, #702, #769 ) ) ;
#107 = VERTEX_POINT ( 'NONE', #876 ) ;
#108 = DIRECTION ( 'NONE',  ( -1.000000000000000000, 0.0000000000000000000, 0.0000000000000000000 ) ) ;
#109 = ORIENTED_EDGE ( 'NONE', *, *, #183, .F. ) ;
#110 = FACE_OUTER_BOUND ( 'NONE', #106, .T. ) ;
#111 = CARTESIAN_POINT ( 'NONE',  ( -0.7240794916128247000, 389.6918461082842700, 35.00000000000000000 ) ) ;
#112 = EDGE_CURVE ( 'NONE', #429, #40, #777, .T. ) ;
#113 = DIRECTION ( 'NONE',  ( 0.0000000000000000000, 0.0000000000000000000, 1.000000000000000000 ) ) ;
#114 = CALENDAR_DATE ( 2016, 31, 7 ) ;
#115 = VECTOR ( 'NONE', #1190, 1000.000000000000000 ) ;
#116 = PLANE ( 'NONE',  #690 ) ;
#117 = DIRECTION ( 'NONE',  ( -0.0000000000000000000, -0.0000000000000000000, -1.000000000000000000 ) ) ;
#118 = AXIS2_PLACEMENT_3D ( 'NONE', #350, #632, #53 ) ;
#119 = VERTEX_POINT ( 'NONE', #1084 ) ;
#120 = ORIENTED_EDGE ( 'NONE', *, *, #842, .F. ) ;
#121 = DIRECTION ( 'NONE',  ( -1.000000000000000000, 0.0000000000000000000, 0.0000000000000000000 ) ) ;
#122 = CYLINDRICAL_SURFACE ( 'NONE', #386, 25.00000000000002100 ) ;
#123 = AXIS2_PLACEMENT_3D ( 'NONE', #930, #336, #450 ) ;
#124 = FACE_BOUND ( 'NONE', #310, .T. ) ;
#125 = FACE_BOUND ( 'NONE', #1233, .T. ) ;
#126 = FACE_BOUND ( 'NONE', #1091, .T. ) ;
#127 = EDGE_CURVE ( 'NONE', #1221, #618, #184, .T. ) ;
#128 = ORIENTED_EDGE ( 'NONE', *, *, #424, .T. ) ;
#129 = VERTEX_POINT ( 'NONE', #177 ) ;
#130 = CC_DESIGN_APPROVAL ( #71, ( #7 ) ) ;
#131 = ORIENTED_EDGE ( 'NONE', *, *, #871, .T. ) ;
#132 = CARTESIAN_POINT ( 'NONE',  ( -0.0000000000000000000, 430.0000000000000600, -15.00000000000000000 ) ) ;
#133 = ORIENTED_EDGE ( 'NONE', *, *, #761, .F. ) ;
#134 = VECTOR ( 'NONE', #698, 1000.000000000000000 ) ;
#135 = DIRECTION ( 'NONE',  ( 1.000000000000000000, -0.0000000000000000000, 0.0000000000000000000 ) ) ;
#136 = EDGE_CURVE ( 'NONE', #1112, #603, #694, .T. ) ;
#137 = LINE ( 'NONE', #870, #814 ) ;
#138 = CIRCLE ( 'NONE', #922, 125.0000000000000000 ) ;
#139 = AXIS2_PLACEMENT_3D ( 'NONE', #1278, #384, #892 ) ;
#140 = DIRECTION ( 'NONE',  ( 1.000000000000000000, 0.0000000000000000000, 0.0000000000000000000 ) ) ;
#141 = DIRECTION ( 'NONE',  ( 0.0000000000000000000, 0.0000000000000000000, 1.000000000000000000 ) ) ;
#142 = CARTESIAN_POINT ( 'NONE',  ( 30.00000000000000000, 430.0000000000000600, -15.00000000000000000 ) ) ;
#143 = ADVANCED_FACE ( 'NONE', ( #1133 ), #433, .T. ) ;
#144 = AXIS2_PLACEMENT_3D ( 'NONE', #1275, #1089, #567 ) ;
#145 = EDGE_LOOP ( 'NONE', ( #724, #160, #774, #298 ) ) ;
#146 = CARTESIAN_POINT ( 'NONE',  ( 30.00000000000000000, 120.7788913815335500, 15.00000000000000000 ) ) ;
#147 = VECTOR ( 'NONE', #767, 1000.000000000000000 ) ;
#148 = CARTESIAN_POINT ( 'NONE',  ( -0.2079627999478361700, -0.5161166916636261700, -15.00000000000000000 ) ) ;
#149 = CARTESIAN_POINT ( 'NONE',  ( -430.0000000000000600, 30.00000000000000000, -15.00000000000000000 ) ) ;
#150 = ADVANCED_FACE ( 'NONE', ( #1179 ), #372, .T. ) ;
#151 = CARTESIAN_POINT ( 'NONE',  ( 390.0000000000000600, 0.0000000000000000000, 35.00000000000000000 ) ) ;
#152 = LINE ( 'NONE', #1174, #843 ) ;
#153 = EDGE_CURVE ( 'NONE', #330, #618, #446, .T. ) ;
#154 = CARTESIAN_POINT ( 'NONE',  ( -30.00000000000000000, 430.0000000000000600, 15.00000000000000000 ) ) ;
#155 = VECTOR ( 'NONE', #141, 1000.000000000000000 ) ;
#156 = AXIS2_PLACEMENT_3D ( 'NONE', #757, #265, #280 ) ;
#157 = DIRECTION ( 'NONE',  ( -0.0000000000000000000, 0.0000000000000000000, 1.000000000000000000 ) ) ;
#158 = PLANE ( 'NONE',  #449 ) ;
#159 = ADVANCED_FACE ( 'NONE', ( #110 ), #1200, .T. ) ;
#160 = ORIENTED_EDGE ( 'NONE', *, *, #92, .F. ) ;
#161 = DIRECTION ( 'NONE',  ( 0.0000000000000000000, 0.0000000000000000000, 1.000000000000000000 ) ) ;
#162 = ORIENTED_EDGE ( 'NONE', *, *, #1261, .T. ) ;
#163 = DIRECTION ( 'NONE',  ( 0.0000000000000000000, 0.0000000000000000000, 1.000000000000000000 ) ) ;
#164 = ORIENTED_EDGE ( 'NONE', *, *, #1140, .F. ) ;
#165 = DIRECTION ( 'NONE',  ( 0.0000000000000000000, 0.0000000000000000000, 1.000000000000000000 ) ) ;
#166 = CARTESIAN_POINT ( 'NONE',  ( -390.4159255998957300, -1.032233383327252300, 35.00000000000000000 ) ) ;
#167 = PERSON_AND_ORGANIZATION ( #387, #935 ) ;
#168 = SHAPE_DEFINITION_REPRESENTATION ( #732, #729 ) ;
#169 = CARTESIAN_POINT ( 'NONE',  ( -0.7240794916128247000, 389.6918461082842700, 35.00000000000000000 ) ) ;
#170 = VECTOR ( 'NONE', #140, 1000.000000000000000 ) ;
#171 = CARTESIAN_POINT ( 'NONE',  ( -2.191846108280144400, -390.7240794916115200, 50.00000000000000000 ) ) ;
#172 = EDGE_CURVE ( 'NONE', #771, #129, #897, .T. ) ;
#173 = DIRECTION ( 'NONE',  ( -1.000000000000000000, 0.0000000000000000000, 0.0000000000000000000 ) ) ;
#174 = ADVANCED_FACE ( 'NONE', ( #313 ), #1150, .T. ) ;
#175 = PRODUCT_RELATED_PRODUCT_CATEGORY ( 'detail', '', ( #677 ) ) ;
#176 = DIRECTION ( 'NONE',  ( -0.0000000000000000000, 0.0000000000000000000, 1.000000000000000000 ) ) ;
#177 = CARTESIAN_POINT ( 'NONE',  ( -121.4258105867352700, 30.00000000000000000, 15.00000000000000000 ) ) ;
#178 = LINE ( 'NONE', #583, #134 ) ;
#179 = EDGE_LOOP ( 'NONE', ( #472, #218, #326, #1090 ) ) ;
#180 = ORIENTED_EDGE ( 'NONE', *, *, #487, .F. ) ;
#181 = CARTESIAN_POINT ( 'NONE',  ( 1.775920508387196900, 389.6918461082842700, 35.00000000000000000 ) ) ;
#182 = ORIENTED_EDGE ( 'NONE', *, *, #213, .F. ) ;
#183 = EDGE_CURVE ( 'NONE', #1114, #40, #277, .T. ) ;
#184 = LINE ( 'NONE', #662, #147 ) ;
#185 = AXIS2_PLACEMENT_3D ( 'NONE', #27, #1005, #410 ) ;
#186 = DIRECTION ( 'NONE',  ( -1.000000000000000000, 0.0000000000000000000, 0.0000000000000000000 ) ) ;
#187 = DIRECTION ( 'NONE',  ( 0.0000000000000000000, 0.0000000000000000000, 1.000000000000000000 ) ) ;
#188 = ADVANCED_FACE ( 'NONE', ( #125, #44 ), #990, .T. ) ;
#189 = CIRCLE ( 'NONE', #1059, 2.500000000000002200 ) ;
#190 = CIRCLE ( 'NONE', #551, 25.00000000000002100 ) ;
#191 = FACE_BOUND ( 'NONE', #346, .T. ) ;
#192 = DIRECTION ( 'NONE',  ( 1.000000000000000000, 0.0000000000000000000, 0.0000000000000000000 ) ) ;
#193 = PERSON_AND_ORGANIZATION_ROLE ( 'creator' ) ;
#194 = EDGE_CURVE ( 'NONE', #279, #200, #473, .T. ) ;
#195 = DIRECTION ( 'NONE',  ( -3.491481338843133400E-015, 1.000000000000000000, 0.0000000000000000000 ) ) ;
#196 = VERTEX_POINT ( 'NONE', #485 ) ;
#197 = ADVANCED_FACE ( 'NONE', ( #1006 ), #779, .T. ) ;
#198 = ORIENTED_EDGE ( 'NONE', *, *, #907, .F. ) ;
#199 = PLANE ( 'NONE',  #571 ) ;
#200 = VERTEX_POINT ( 'NONE', #301 ) ;
#201 = DIRECTION ( 'NONE',  ( 1.047444401652940000E-014, -1.000000000000000000, 0.0000000000000000000 ) ) ;
#202 = ORIENTED_EDGE ( 'NONE', *, *, #932, .F. ) ;
#203 = ORIENTED_EDGE ( 'NONE', *, *, #1020, .F. ) ;
#204 = DIRECTION ( 'NONE',  ( -0.0000000000000000000, -0.0000000000000000000, -1.000000000000000000 ) ) ;
#205 = EDGE_CURVE ( 'NONE', #233, #806, #239, .T. ) ;
#206 = CARTESIAN_POINT ( 'NONE',  ( 430.0000000000000600, 30.00000000000000000, -15.00000000000000000 ) ) ;
#207 = CC_DESIGN_PERSON_AND_ORGANIZATION_ASSIGNMENT ( #593, #574, ( #7 ) ) ;
#208 = CIRCLE ( 'NONE', #481, 2.500000000000002200 ) ;
#209 = CARTESIAN_POINT ( 'NONE',  ( 430.0000000000000600, -30.00000000000000000, -15.00000000000000000 ) ) ;
#210 = VECTOR ( 'NONE', #1066, 1000.000000000000000 ) ;
#211 = FACE_OUTER_BOUND ( 'NONE', #17, .T. ) ;
#212 = DIRECTION ( 'NONE',  ( 0.0000000000000000000, 0.0000000000000000000, 1.000000000000000000 ) ) ;
#213 = EDGE_CURVE ( 'NONE', #1017, #531, #590, .T. ) ;
#214 = AXIS2_PLACEMENT_3D ( 'NONE', #378, #488, #1073 ) ;
#215 = ORIENTED_EDGE ( 'NONE', *, *, #699, .F. ) ;
#216 = CARTESIAN_POINT ( 'NONE',  ( -387.9159255998957300, -1.032233383327252100, 35.00000000000000000 ) ) ;
#217 = ORIENTED_EDGE ( 'NONE', *, *, #1075, .F. ) ;
#218 = ORIENTED_EDGE ( 'NONE', *, *, #611, .T. ) ;
#219 = ORIENTED_EDGE ( 'NONE', *, *, #83, .T. ) ;
#220 = DIRECTION ( 'NONE',  ( 1.000000000000000000, 0.0000000000000000000, 0.0000000000000000000 ) ) ;
#221 = ORIENTED_EDGE ( 'NONE', *, *, #22, .F. ) ;
#222 = CARTESIAN_POINT ( 'NONE',  ( 392.5000000000000600, 3.061616997868409300E-016, 50.00000000000000000 ) ) ;
#223 = AXIS2_PLACEMENT_3D ( 'NONE', #688, #412, #201 ) ;
#224 = CARTESIAN_POINT ( 'NONE',  ( -30.00000000000000000, -430.0000000000000600, -15.00000000000000000 ) ) ;
#225 = CYLINDRICAL_SURFACE ( 'NONE', #1100, 25.00000000000000700 ) ;
#226 = LINE ( 'NONE', #936, #99 ) ;
#227 = CARTESIAN_POINT ( 'NONE',  ( 390.0000000000000600, 0.0000000000000000000, 50.00000000000000000 ) ) ;
#228 = EDGE_CURVE ( 'NONE', #1088, #1045, #495, .T. ) ;
#229 = ORIENTED_EDGE ( 'NONE', *, *, #424, .F. ) ;
#230 = SECURITY_CLASSIFICATION ( '', '', #670 ) ;
#231 = DIRECTION ( 'NONE',  ( 0.0000000000000000000, 0.0000000000000000000, 1.000000000000000000 ) ) ;
#232 = VERTEX_POINT ( 'NONE', #901 ) ;
#233 = VERTEX_POINT ( 'NONE', #1203 ) ;
#234 = ORIENTED_EDGE ( 'NONE', *, *, #507, .T. ) ;
#235 = ORIENTED_EDGE ( 'NONE', *, *, #871, .F. ) ;
#236 = PERSON_AND_ORGANIZATION ( #387, #935 ) ;
#237 = AXIS2_PLACEMENT_3D ( 'NONE', #32, #333, #824 ) ;
#238 = CIRCLE ( 'NONE', #396, 25.00000000000002100 ) ;
#239 = LINE ( 'NONE', #504, #594 ) ;
#240 = VECTOR ( 'NONE', #875, 1000.000000000000000 ) ;
#241 = CARTESIAN_POINT ( 'NONE',  ( -3.224079491612846100, 389.6918461082842700, 35.00000000000000000 ) ) ;
#242 = LINE ( 'NONE', #1061, #437 ) ;
#243 = DIRECTION ( 'NONE',  ( -1.000000000000000000, 0.0000000000000000000, 0.0000000000000000000 ) ) ;
#244 = UNCERTAINTY_MEASURE_WITH_UNIT (LENGTH_MEASURE( 1.000000000000000100E-005 ), #469, 'distance_accuracy_value', 'NONE');
#245 = EDGE_CURVE ( 'NONE', #834, #1205, #178, .T. ) ;
#246 = ORIENTED_EDGE ( 'NONE', *, *, #377, .T. ) ;
#247 = CARTESIAN_POINT ( 'NONE',  ( 30.00000000000000000, -121.8111247648608100, -15.00000000000000000 ) ) ;
#248 = ORIENTED_EDGE ( 'NONE', *, *, #725, .T. ) ;
#249 = ORIENTED_EDGE ( 'NONE', *, *, #802, .F. ) ;
#250 = CARTESIAN_POINT ( 'NONE',  ( -365.4159255998957300, -1.032233383327249200, 15.00000000000000000 ) ) ;
#251 = ADVANCED_FACE ( 'NONE', ( #2 ), #304, .F. ) ;
#252 = DIRECTION ( 'NONE',  ( -1.000000000000000000, 0.0000000000000000000, 0.0000000000000000000 ) ) ;
#253 = CIRCLE ( 'NONE', #293, 125.0000000000000000 ) ;
#254 = FACE_OUTER_BOUND ( 'NONE', #1126, .T. ) ;
#255 = VECTOR ( 'NONE', #57, 1000.000000000000000 ) ;
#256 = AXIS2_PLACEMENT_3D ( 'NONE', #148, #1237, #533 ) ;
#257 = VECTOR ( 'NONE', #851, 1000.000000000000000 ) ;
#258 = VECTOR ( 'NONE', #1196, 1000.000000000000000 ) ;
#259 = CARTESIAN_POINT ( 'NONE',  ( 30.00000000000000000, -430.0000000000000600, -15.00000000000000000 ) ) ;
#260 = CARTESIAN_POINT ( 'NONE',  ( 0.3081538917198772300, -390.7240794916115200, 35.00000000000000000 ) ) ;
#261 = ORIENTED_EDGE ( 'NONE', *, *, #624, .T. ) ;
#262 = DIRECTION ( 'NONE',  ( -0.0000000000000000000, -0.0000000000000000000, -1.000000000000000000 ) ) ;
#263 = DIRECTION ( 'NONE',  ( 1.000000000000000000, 0.0000000000000000000, 0.0000000000000000000 ) ) ;
#264 = ORIENTED_EDGE ( 'NONE', *, *, #361, .F. ) ;
#265 = DIRECTION ( 'NONE',  ( 0.0000000000000000000, 0.0000000000000000000, 1.000000000000000000 ) ) ;
#266 = DIRECTION ( 'NONE',  ( 1.047339298620996300E-014, -1.000000000000000000, 0.0000000000000000000 ) ) ;
#267 = PLANE ( 'NONE',  #1229 ) ;
#268 = CIRCLE ( 'NONE', #883, 2.500000000000002200 ) ;
#269 = EDGE_CURVE ( 'NONE', #838, #1144, #1015, .T. ) ;
#270 = CARTESIAN_POINT ( 'NONE',  ( -30.00000000000000000, 430.0000000000000600, -15.00000000000000000 ) ) ;
#271 = CIRCLE ( 'NONE', #144, 25.00000000000002100 ) ;
#272 = LINE ( 'NONE', #1029, #1026 ) ;
#273 = AXIS2_PLACEMENT_3D ( 'NONE', #1207, #817, #510 ) ;
#274 = DIRECTION ( 'NONE',  ( 0.0000000000000000000, 0.0000000000000000000, 1.000000000000000000 ) ) ;
#275 = DIRECTION ( 'NONE',  ( -0.0000000000000000000, -0.0000000000000000000, -1.000000000000000000 ) ) ;
#276 = ORIENTED_EDGE ( 'NONE', *, *, #382, .T. ) ;
#277 = CIRCLE ( 'NONE', #578, 25.00000000000002100 ) ;
#278 = CARTESIAN_POINT ( 'NONE',  ( -0.7240794916128247000, 389.6918461082842700, 50.00000000000000000 ) ) ;
#279 = VERTEX_POINT ( 'NONE', #398 ) ;
#280 = DIRECTION ( 'NONE',  ( -3.491130995403321100E-015, 1.000000000000000000, 0.0000000000000000000 ) ) ;
#281 = EDGE_CURVE ( 'NONE', #58, #91, #499, .T. ) ;
#282 = ORIENTED_EDGE ( 'NONE', *, *, #411, .F. ) ;
#283 = VERTEX_POINT ( 'NONE', #597 ) ;
#284 = ORIENTED_EDGE ( 'NONE', *, *, #112, .T. ) ;
#285 = CARTESIAN_POINT ( 'NONE',  ( -0.7240794916128247000, 389.6918461082842700, 50.00000000000000000 ) ) ;
#286 = CARTESIAN_POINT ( 'NONE',  ( 30.00000000000000000, 120.7788913815335500, -15.00000000000000000 ) ) ;
#287 = ADVANCED_FACE ( 'NONE', ( #815 ), #14, .T. ) ;
#288 = LINE ( 'NONE', #1027, #638 ) ;
#289 = CARTESIAN_POINT ( 'NONE',  ( 390.0000000000000600, 0.0000000000000000000, 50.00000000000000000 ) ) ;
#290 = LINE ( 'NONE', #793, #950 ) ;
#291 = LINE ( 'NONE', #942, #308 ) ;
#292 = DIRECTION ( 'NONE',  ( 1.000000000000000000, 0.0000000000000000000, 0.0000000000000000000 ) ) ;
#293 = AXIS2_PLACEMENT_3D ( 'NONE', #497, #1111, #905 ) ;
#294 = PERSON_AND_ORGANIZATION_ROLE ( 'design_supplier' ) ;
#295 = DIRECTION ( 'NONE',  ( 0.0000000000000000000, 0.0000000000000000000, 1.000000000000000000 ) ) ;
#296 = ORIENTED_EDGE ( 'NONE', *, *, #245, .T. ) ;
#297 = CARTESIAN_POINT ( 'NONE',  ( -0.0000000000000000000, -30.00000000000000000, -15.00000000000000000 ) ) ;
#298 = ORIENTED_EDGE ( 'NONE', *, *, #136, .T. ) ;
#299 = EDGE_CURVE ( 'NONE', #1230, #618, #253, .T. ) ;
#300 = PERSON_AND_ORGANIZATION_ROLE ( 'classification_officer' ) ;
#301 = CARTESIAN_POINT ( 'NONE',  ( -25.72407949161283400, 389.6918461082842700, 35.00000000000000000 ) ) ;
#302 = AXIS2_PLACEMENT_3D ( 'NONE', #765, #564, #972 ) ;
#303 = CARTESIAN_POINT ( 'NONE',  ( -121.6810076496609100, -30.00000000000000000, -15.00000000000000000 ) ) ;
#304 = PLANE ( 'NONE',  #309 ) ;
#305 = ORIENTED_EDGE ( 'NONE', *, *, #548, .T. ) ;
#306 = FACE_OUTER_BOUND ( 'NONE', #316, .T. ) ;
#307 = LINE ( 'NONE', #149, #829 ) ;
#308 = VECTOR ( 'NONE', #1042, 1000.000000000000000 ) ;
#309 = AXIS2_PLACEMENT_3D ( 'NONE', #909, #813, #100 ) ;
#310 = EDGE_LOOP ( 'NONE', ( #428, #221 ) ) ;
#311 = CARTESIAN_POINT ( 'NONE',  ( -2.191846108280144400, -390.7240794916115200, 35.00000000000000000 ) ) ;
#312 = EDGE_LOOP ( 'NONE', ( #731, #530 ) ) ;
#313 = FACE_OUTER_BOUND ( 'NONE', #416, .T. ) ;
#314 = DIRECTION ( 'NONE',  ( -1.000000000000000000, 0.0000000000000000000, 0.0000000000000000000 ) ) ;
#315 = ORIENTED_EDGE ( 'NONE', *, *, #1110, .F. ) ;
#316 = EDGE_LOOP ( 'NONE', ( #1093, #352 ) ) ;
#317 = CARTESIAN_POINT ( 'NONE',  ( 430.0000000000000600, -30.00000000000000000, 15.00000000000000000 ) ) ;
#318 = EDGE_CURVE ( 'NONE', #1205, #1249, #920, .T. ) ;
#319 = CARTESIAN_POINT ( 'NONE',  ( 0.3081538917198772300, -390.7240794916115200, 35.00000000000000000 ) ) ;
#320 = EDGE_LOOP ( 'NONE', ( #182, #402 ) ) ;
#321 = CIRCLE ( 'NONE', #988, 2.500000000000002200 ) ;
#322 = CIRCLE ( 'NONE', #273, 125.0000000000000000 ) ;
#323 = CARTESIAN_POINT ( 'NONE',  ( -24.69184610828013100, -390.7240794916115200, 35.00000000000000000 ) ) ;
#324 = CARTESIAN_POINT ( 'NONE',  ( -0.0000000000000000000, -30.00000000000000000, -15.00000000000000000 ) ) ;
#325 = CARTESIAN_POINT ( 'NONE',  ( -24.69184610828013100, -390.7240794916115200, 15.00000000000000000 ) ) ;
#326 = ORIENTED_EDGE ( 'NONE', *, *, #28, .T. ) ;
#327 = VERTEX_POINT ( 'NONE', #323 ) ;
#328 = ORIENTED_EDGE ( 'NONE', *, *, #1049, .F. ) ;
#329 = DIRECTION ( 'NONE',  ( 1.047339298620996300E-014, -1.000000000000000000, 0.0000000000000000000 ) ) ;
#330 = VERTEX_POINT ( 'NONE', #797 ) ;
#331 = CARTESIAN_POINT ( 'NONE',  ( -387.9159255998957300, -1.032233383327252100, 50.00000000000000000 ) ) ;
#332 = FACE_OUTER_BOUND ( 'NONE', #887, .T. ) ;
#333 = DIRECTION ( 'NONE',  ( 0.0000000000000000000, 1.000000000000000000, -0.0000000000000000000 ) ) ;
#334 = EDGE_CURVE ( 'NONE', #200, #279, #42, .T. ) ;
#335 = AXIS2_PLACEMENT_3D ( 'NONE', #860, #1255, #292 ) ;
#336 = DIRECTION ( 'NONE',  ( 0.0000000000000000000, 0.0000000000000000000, 1.000000000000000000 ) ) ;
#337 = ORIENTED_EDGE ( 'NONE', *, *, #136, .F. ) ;
#338 = CARTESIAN_POINT ( 'NONE',  ( 415.0000000000001100, 3.061616997868382300E-015, 35.00000000000000000 ) ) ;
#339 = EDGE_CURVE ( 'NONE', #1145, #330, #1122, .T. ) ;
#340 = COORDINATED_UNIVERSAL_TIME_OFFSET ( 5, 30, .AHEAD. ) ;
#341 = DIRECTION ( 'NONE',  ( 0.0000000000000000000, 0.0000000000000000000, 1.000000000000000000 ) ) ;
#342 = CIRCLE ( 'NONE', #614, 25.00000000000002100 ) ;
#343 = DIRECTION ( 'NONE',  ( 1.000000000000000000, 0.0000000000000000000, 0.0000000000000000000 ) ) ;
#344 = DIRECTION ( 'NONE',  ( 0.0000000000000000000, 0.0000000000000000000, 1.000000000000000000 ) ) ;
#345 = AXIS2_PLACEMENT_3D ( 'NONE', #606, #715, #605 ) ;
#346 = EDGE_LOOP ( 'NONE', ( #180, #109 ) ) ;
#347 = CARTESIAN_POINT ( 'NONE',  ( 0.3081538917198772300, -390.7240794916115200, 50.00000000000000000 ) ) ;
#348 = EDGE_LOOP ( 'NONE', ( #479, #1191, #11, #366 ) ) ;
#349 = ORIENTED_EDGE ( 'NONE', *, *, #685, .T. ) ;
#350 = CARTESIAN_POINT ( 'NONE',  ( 390.0000000000000600, 0.0000000000000000000, 35.00000000000000000 ) ) ;
#351 = CARTESIAN_POINT ( 'NONE',  ( 0.0000000000000000000, 30.00000000000000000, -15.00000000000000000 ) ) ;
#352 = ORIENTED_EDGE ( 'NONE', *, *, #832, .T. ) ;
#353 = DIRECTION ( 'NONE',  ( -0.0000000000000000000, 0.0000000000000000000, 1.000000000000000000 ) ) ;
#354 = EDGE_CURVE ( 'NONE', #91, #1221, #1257, .T. ) ;
#355 = ORIENTED_EDGE ( 'NONE', *, *, #1180, .T. ) ;
#356 = FACE_BOUND ( 'NONE', #1279, .T. ) ;
#357 = AXIS2_PLACEMENT_3D ( 'NONE', #1242, #740, #840 ) ;
#358 = DIRECTION ( 'NONE',  ( 1.000000000000000000, 0.0000000000000000000, 0.0000000000000000000 ) ) ;
#359 = VECTOR ( 'NONE', #1019, 1000.000000000000000 ) ;
#360 = DIRECTION ( 'NONE',  ( 0.0000000000000000000, 0.0000000000000000000, 1.000000000000000000 ) ) ;
#361 = EDGE_CURVE ( 'NONE', #927, #444, #937, .T. ) ;
#362 = DIRECTION ( 'NONE',  ( -1.000000000000000000, 0.0000000000000000000, 0.0000000000000000000 ) ) ;
#363 = DIRECTION ( 'NONE',  ( 0.0000000000000000000, 0.0000000000000000000, 1.000000000000000000 ) ) ;
#364 = EDGE_LOOP ( 'NONE', ( #219, #494, #1245, #1103 ) ) ;
#365 = AXIS2_PLACEMENT_3D ( 'NONE', #516, #35, #615 ) ;
#366 = ORIENTED_EDGE ( 'NONE', *, *, #1243, .F. ) ;
#367 = EDGE_LOOP ( 'NONE', ( #261, #1105, #90, #440 ) ) ;
#368 = CARTESIAN_POINT ( 'NONE',  ( 387.5000000000000600, 0.0000000000000000000, 50.00000000000000000 ) ) ;
#369 = DIRECTION ( 'NONE',  ( 0.0000000000000000000, 0.0000000000000000000, 1.000000000000000000 ) ) ;
#370 = DIRECTION ( 'NONE',  ( 0.0000000000000000000, 0.0000000000000000000, 1.000000000000000000 ) ) ;
#371 = ADVANCED_FACE ( 'NONE', ( #1217 ), #1220, .T. ) ;
#372 = CYLINDRICAL_SURFACE ( 'NONE', #214, 2.500000000000002200 ) ;
#373 = PERSON_AND_ORGANIZATION ( #387, #935 ) ;
#374 = CARTESIAN_POINT ( 'NONE',  ( 30.00000000000000000, 0.0000000000000000000, -15.00000000000000000 ) ) ;
#375 = LOCAL_TIME ( 7, 14, 17.00000000000000000, #621 ) ;
#376 = DIRECTION ( 'NONE',  ( 1.000000000000000000, 0.0000000000000000000, 0.0000000000000000000 ) ) ;
#377 = EDGE_CURVE ( 'NONE', #15, #890, #26, .T. ) ;
#378 = CARTESIAN_POINT ( 'NONE',  ( -390.4159255998957300, -1.032233383327252300, 50.00000000000000000 ) ) ;
#379 = CIRCLE ( 'NONE', #727, 2.500000000000002200 ) ;
#380 = ADVANCED_FACE ( 'NONE', ( #781 ), #25, .F. ) ;
#381 = CARTESIAN_POINT ( 'NONE',  ( -390.4159255998957300, -1.032233383327252300, 50.00000000000000000 ) ) ;
#382 = EDGE_CURVE ( 'NONE', #429, #119, #468, .T. ) ;
#383 = VERTEX_POINT ( 'NONE', #325 ) ;
#384 = DIRECTION ( 'NONE',  ( -0.0000000000000000000, -0.0000000000000000000, -1.000000000000000000 ) ) ;
#385 = ORIENTED_EDGE ( 'NONE', *, *, #112, .F. ) ;
#386 = AXIS2_PLACEMENT_3D ( 'NONE', #166, #547, #661 ) ;
#387 = PERSON ( 'UNSPECIFIED', 'UNSPECIFIED', 'UNSPECIFIED', ('UNSPECIFIED'), ('UNSPECIFIED'), ('UNSPECIFIED') ) ;
#388 = CARTESIAN_POINT ( 'NONE',  ( 25.30815389171988600, -390.7240794916115200, 35.00000000000000000 ) ) ;
#389 = CARTESIAN_POINT ( 'NONE',  ( -0.7240794916128247000, 389.6918461082842700, 35.00000000000000000 ) ) ;
#390 = FACE_OUTER_BOUND ( 'NONE', #1194, .T. ) ;
#391 = CARTESIAN_POINT ( 'NONE',  ( -390.4159255998957300, -1.032233383327252300, 50.00000000000000000 ) ) ;
#392 = LINE ( 'NONE', #1092, #595 ) ;
#393 = LINE ( 'NONE', #865, #257 ) ;
#394 = LINE ( 'NONE', #368, #1153 ) ;
#395 = APPROVAL_ROLE ( '' ) ;
#396 = AXIS2_PLACEMENT_3D ( 'NONE', #1164, #163, #957 ) ;
#397 = DIRECTION ( 'NONE',  ( 1.000000000000000000, 0.0000000000000000000, -0.0000000000000000000 ) ) ;
#398 = CARTESIAN_POINT ( 'NONE',  ( 24.27592050838718400, 389.6918461082842700, 35.00000000000000000 ) ) ;
#399 = ORIENTED_EDGE ( 'NONE', *, *, #205, .F. ) ;
#400 = ORIENTED_EDGE ( 'NONE', *, *, #281, .F. ) ;
#401 = ORIENTED_EDGE ( 'NONE', *, *, #882, .F. ) ;
#402 = ORIENTED_EDGE ( 'NONE', *, *, #4, .F. ) ;
#403 = EDGE_CURVE ( 'NONE', #560, #979, #409, .T. ) ;
#404 = DIRECTION ( 'NONE',  ( 0.0000000000000000000, 0.0000000000000000000, 1.000000000000000000 ) ) ;
#405 = CC_DESIGN_APPROVAL ( #1117, ( #30 ) ) ;
#406 = CARTESIAN_POINT ( 'NONE',  ( 2.808153891719899200, -390.7240794916115200, 50.00000000000000000 ) ) ;
#407 = LOCAL_TIME ( 7, 14, 17.00000000000000000, #1166 ) ;
#408 = PERSON_AND_ORGANIZATION ( #387, #935 ) ;
#409 = LINE ( 'NONE', #224, #1001 ) ;
#410 = DIRECTION ( 'NONE',  ( -3.512815038853031200E-015, 1.000000000000000000, 0.0000000000000000000 ) ) ;
#411 = EDGE_CURVE ( 'NONE', #546, #458, #1202, .T. ) ;
#412 = DIRECTION ( 'NONE',  ( 0.0000000000000000000, 0.0000000000000000000, 1.000000000000000000 ) ) ;
#413 = VECTOR ( 'NONE', #913, 1000.000000000000000 ) ;
#414 = ORIENTED_EDGE ( 'NONE', *, *, #69, .F. ) ;
#415 = ORIENTED_EDGE ( 'NONE', *, *, #633, .T. ) ;
#416 = EDGE_LOOP ( 'NONE', ( #967, #790, #1280, #385 ) ) ;
#417 = EDGE_LOOP ( 'NONE', ( #543, #1231, #959, #102 ) ) ;
#418 = DIRECTION ( 'NONE',  ( 0.0000000000000000000, -1.000000000000000000, 0.0000000000000000000 ) ) ;
#419 = AXIS2_PLACEMENT_3D ( 'NONE', #70, #948, #1068 ) ;
#420 = DIRECTION ( 'NONE',  ( 0.0000000000000000000, 0.0000000000000000000, 1.000000000000000000 ) ) ;
#421 = VECTOR ( 'NONE', #864, 1000.000000000000000 ) ;
#422 = LINE ( 'NONE', #707, #925 ) ;
#423 = LINE ( 'NONE', #730, #155 ) ;
#424 = EDGE_CURVE ( 'NONE', #58, #1145, #720, .T. ) ;
#425 = AXIS2_PLACEMENT_3D ( 'NONE', #659, #970, #965 ) ;
#426 = CARTESIAN_POINT ( 'NONE',  ( 392.5000000000000600, 3.061616997868432900E-016, 50.00000000000000000 ) ) ;
#427 = VERTEX_POINT ( 'NONE', #331 ) ;
#428 = ORIENTED_EDGE ( 'NONE', *, *, #809, .F. ) ;
#429 = VERTEX_POINT ( 'NONE', #599 ) ;
#430 = DIRECTION ( 'NONE',  ( -0.0000000000000000000, -0.0000000000000000000, -1.000000000000000000 ) ) ;
#431 = ORIENTED_EDGE ( 'NONE', *, *, #842, .T. ) ;
#432 = EDGE_CURVE ( 'NONE', #47, #383, #985, .T. ) ;
#433 = CYLINDRICAL_SURFACE ( 'NONE', #602, 2.500000000000021300 ) ;
#434 = AXIS2_PLACEMENT_3D ( 'NONE', #151, #848, #539 ) ;
#435 = CARTESIAN_POINT ( 'NONE',  ( 0.0000000000000000000, -430.0000000000000600, -15.00000000000000000 ) ) ;
#436 = DIRECTION ( 'NONE',  ( 1.000000000000000000, 0.0000000000000000000, 0.0000000000000000000 ) ) ;
#437 = VECTOR ( 'NONE', #1157, 1000.000000000000000 ) ;
#438 = DIRECTION ( 'NONE',  ( 0.0000000000000000000, 1.000000000000000000, -0.0000000000000000000 ) ) ;
#439 = EDGE_CURVE ( 'NONE', #1021, #531, #1046, .T. ) ;
#440 = ORIENTED_EDGE ( 'NONE', *, *, #802, .T. ) ;
#441 = DIRECTION ( 'NONE',  ( 1.047339298620996300E-014, -1.000000000000000000, 0.0000000000000000000 ) ) ;
#442 = ORIENTED_EDGE ( 'NONE', *, *, #809, .T. ) ;
#443 = VERTEX_POINT ( 'NONE', #1124 ) ;
#444 = VERTEX_POINT ( 'NONE', #241 ) ;
#445 = VERTEX_POINT ( 'NONE', #524 ) ;
#446 = LINE ( 'NONE', #286, #619 ) ;
#447 = CARTESIAN_POINT ( 'NONE',  ( 365.0000000000000600, 0.0000000000000000000, 35.00000000000000000 ) ) ;
#448 = ADVANCED_FACE ( 'NONE', ( #1274 ), #517, .F. ) ;
#449 = AXIS2_PLACEMENT_3D ( 'NONE', #766, #1260, #554 ) ;
#450 = DIRECTION ( 'NONE',  ( -1.000000000000000000, 0.0000000000000000000, 0.0000000000000000000 ) ) ;
#451 = CIRCLE ( 'NONE', #185, 2.500000000000002200 ) ;
#452 = CARTESIAN_POINT ( 'NONE',  ( -30.00000000000000000, 0.0000000000000000000, 15.00000000000000000 ) ) ;
#453 = CIRCLE ( 'NONE', #713, 125.0000000000000000 ) ;
#454 = PLANE ( 'NONE',  #796 ) ;
#455 = DIRECTION ( 'NONE',  ( 0.0000000000000000000, 0.0000000000000000000, 1.000000000000000000 ) ) ;
#456 = AXIS2_PLACEMENT_3D ( 'NONE', #260, #536, #946 ) ;
#457 = ORIENTED_EDGE ( 'NONE', *, *, #1201, .F. ) ;
#458 = VERTEX_POINT ( 'NONE', #426 ) ;
#459 = EDGE_LOOP ( 'NONE', ( #735, #745 ) ) ;
#460 = EDGE_LOOP ( 'NONE', ( #978, #992, #888, #1128 ) ) ;
#461 = EDGE_LOOP ( 'NONE', ( #649, #1070, #974, #944 ) ) ;
#462 = CARTESIAN_POINT ( 'NONE',  ( 30.00000000000000000, 430.0000000000000600, 15.00000000000000000 ) ) ;
#463 = CARTESIAN_POINT ( 'NONE',  ( 30.00000000000000000, 430.0000000000000600, -15.00000000000000000 ) ) ;
#464 = EDGE_CURVE ( 'NONE', #806, #444, #1012, .T. ) ;
#465 = LINE ( 'NONE', #648, #708 ) ;
#466 = CC_DESIGN_PERSON_AND_ORGANIZATION_ASSIGNMENT ( #1038, #300, ( #230 ) ) ;
#467 = PLANE ( 'NONE',  #425 ) ;
#468 = CIRCLE ( 'NONE', #891, 25.00000000000002100 ) ;
#469 =( LENGTH_UNIT ( ) NAMED_UNIT ( * ) SI_UNIT ( .MILLI., .METRE. ) );
#470 = CARTESIAN_POINT ( 'NONE',  ( -392.9159255998957300, -1.032233383327252300, 50.00000000000000000 ) ) ;
#471 = DIRECTION ( 'NONE',  ( -1.000000000000000000, 0.0000000000000000000, 0.0000000000000000000 ) ) ;
#472 = ORIENTED_EDGE ( 'NONE', *, *, #194, .F. ) ;
#473 = CIRCLE ( 'NONE', #1192, 25.00000000000002100 ) ;
#474 = AXIS2_PLACEMENT_3D ( 'NONE', #557, #656, #637 ) ;
#475 = ORIENTED_EDGE ( 'NONE', *, *, #213, .T. ) ;
#476 = ORIENTED_EDGE ( 'NONE', *, *, #1075, .T. ) ;
#477 = CARTESIAN_POINT ( 'NONE',  ( 0.3081538917198772300, -390.7240794916115200, 35.00000000000000000 ) ) ;
#478 = DIRECTION ( 'NONE',  ( 0.0000000000000000000, 0.0000000000000000000, 1.000000000000000000 ) ) ;
#479 = ORIENTED_EDGE ( 'NONE', *, *, #1235, .F. ) ;
#480 = FACE_OUTER_BOUND ( 'NONE', #1014, .T. ) ;
#481 = AXIS2_PLACEMENT_3D ( 'NONE', #61, #455, #1250 ) ;
#482 = FACE_OUTER_BOUND ( 'NONE', #364, .T. ) ;
#483 = FACE_OUTER_BOUND ( 'NONE', #33, .T. ) ;
#484 = CIRCLE ( 'NONE', #123, 25.00000000000002100 ) ;
#485 = CARTESIAN_POINT ( 'NONE',  ( -2.191846108280144400, -390.7240794916115200, 50.00000000000000000 ) ) ;
#486 = DIRECTION ( 'NONE',  ( -1.000000000000000000, 0.0000000000000000000, 0.0000000000000000000 ) ) ;
#487 = EDGE_CURVE ( 'NONE', #40, #1114, #484, .T. ) ;
#488 = DIRECTION ( 'NONE',  ( -0.0000000000000000000, -0.0000000000000000000, -1.000000000000000000 ) ) ;
#489 = ORIENTED_EDGE ( 'NONE', *, *, #299, .F. ) ;
#490 = AXIS2_PLACEMENT_3D ( 'NONE', #1048, #60, #1036 ) ;
#491 = ORIENTED_EDGE ( 'NONE', *, *, #611, .F. ) ;
#492 = ADVANCED_FACE ( 'NONE', ( #697 ), #831, .F. ) ;
#493 = DIRECTION ( 'NONE',  ( 0.0000000000000000000, 0.0000000000000000000, 1.000000000000000000 ) ) ;
#494 = ORIENTED_EDGE ( 'NONE', *, *, #591, .T. ) ;
#495 = CIRCLE ( 'NONE', #63, 125.0000000000000000 ) ;
#496 = APPROVAL_STATUS ( 'not_yet_approved' ) ;
#497 = CARTESIAN_POINT ( 'NONE',  ( -0.2079627999478361700, -0.5161166916636261700, 15.00000000000000000 ) ) ;
#498 = EDGE_CURVE ( 'NONE', #327, #283, #663, .T. ) ;
#499 = LINE ( 'NONE', #1106, #738 ) ;
#500 = VECTOR ( 'NONE', #262, 1000.000000000000000 ) ;
#501 = VECTOR ( 'NONE', #821, 1000.000000000000000 ) ;
#502 = DIRECTION ( 'NONE',  ( -3.491130995403321100E-015, 1.000000000000000000, 0.0000000000000000000 ) ) ;
#503 = DIRECTION ( 'NONE',  ( 0.0000000000000000000, 0.0000000000000000000, 1.000000000000000000 ) ) ;
#504 = CARTESIAN_POINT ( 'NONE',  ( 1.775920508387196900, 389.6918461082842700, 50.00000000000000000 ) ) ;
#505 = ORIENTED_EDGE ( 'NONE', *, *, #826, .F. ) ;
#506 = ORIENTED_EDGE ( 'NONE', *, *, #403, .T. ) ;
#507 = EDGE_CURVE ( 'NONE', #107, #1144, #952, .T. ) ;
#508 = ORIENTED_EDGE ( 'NONE', *, *, #751, .T. ) ;
#509 = EDGE_LOOP ( 'NONE', ( #31, #162 ) ) ;
#510 = DIRECTION ( 'NONE',  ( 1.000000000000000000, 0.0000000000000000000, 0.0000000000000000000 ) ) ;
#511 = LINE ( 'NONE', #1139, #1041 ) ;
#512 = VECTOR ( 'NONE', #503, 1000.000000000000000 ) ;
#513 = CIRCLE ( 'NONE', #995, 2.500000000000002200 ) ;
#514 = VECTOR ( 'NONE', #430, 1000.000000000000000 ) ;
#515 = CC_DESIGN_PERSON_AND_ORGANIZATION_ASSIGNMENT ( #660, #103, ( #677 ) ) ;
#516 = CARTESIAN_POINT ( 'NONE',  ( -0.7240794916128247000, 389.6918461082842700, 35.00000000000000000 ) ) ;
#517 = PLANE ( 'NONE',  #237 ) ;
#518 = ORIENTED_EDGE ( 'NONE', *, *, #1097, .T. ) ;
#519 = AXIS2_PLACEMENT_3D ( 'NONE', #435, #1236, #844 ) ;
#520 = DIRECTION ( 'NONE',  ( -1.000000000000000000, 0.0000000000000000000, 0.0000000000000000000 ) ) ;
#521 = ORIENTED_EDGE ( 'NONE', *, *, #54, .T. ) ;
#522 = LOCAL_TIME ( 7, 14, 17.00000000000000000, #839 ) ;
#523 = LINE ( 'NONE', #78, #1080 ) ;
#524 = CARTESIAN_POINT ( 'NONE',  ( 365.0000000000000600, 0.0000000000000000000, 35.00000000000000000 ) ) ;
#525 = FACE_OUTER_BOUND ( 'NONE', #647, .T. ) ;
#526 = EDGE_CURVE ( 'NONE', #1021, #196, #898, .T. ) ;
#527 = AXIS2_PLACEMENT_3D ( 'NONE', #1276, #889, #397 ) ;
#528 = CARTESIAN_POINT ( 'NONE',  ( -392.9159255998957300, -1.032233383327252300, 35.00000000000000000 ) ) ;
#529 = DIRECTION ( 'NONE',  ( 0.0000000000000000000, -0.0000000000000000000, -1.000000000000000000 ) ) ;
#530 = ORIENTED_EDGE ( 'NONE', *, *, #526, .T. ) ;
#531 = VERTEX_POINT ( 'NONE', #737 ) ;
#532 = ORIENTED_EDGE ( 'NONE', *, *, #939, .T. ) ;
#533 = DIRECTION ( 'NONE',  ( 1.000000000000000000, 0.0000000000000000000, 0.0000000000000000000 ) ) ;
#534 = EDGE_CURVE ( 'NONE', #617, #129, #453, .T. ) ;
#535 = ORIENTED_EDGE ( 'NONE', *, *, #1067, .F. ) ;
#536 = DIRECTION ( 'NONE',  ( 0.0000000000000000000, 0.0000000000000000000, 1.000000000000000000 ) ) ;
#537 = CYLINDRICAL_SURFACE ( 'NONE', #903, 2.500000000000021300 ) ;
#538 = ADVANCED_FACE ( 'NONE', ( #8 ), #582, .T. ) ;
#539 = DIRECTION ( 'NONE',  ( -1.000000000000000000, 0.0000000000000000000, 0.0000000000000000000 ) ) ;
#540 = CARTESIAN_POINT ( 'NONE',  ( 392.5000000000000600, 3.061616997868432900E-016, 35.00000000000000000 ) ) ;
#541 = CARTESIAN_POINT ( 'NONE',  ( -30.00000000000000000, 0.0000000000000000000, -15.00000000000000000 ) ) ;
#542 = CARTESIAN_POINT ( 'NONE',  ( 0.0000000000000000000, 430.0000000000000600, -15.00000000000000000 ) ) ;
#543 = ORIENTED_EDGE ( 'NONE', *, *, #586, .T. ) ;
#544 = EDGE_LOOP ( 'NONE', ( #589, #604, #1030, #235 ) ) ;
#545 = DIRECTION ( 'NONE',  ( 1.000000000000000000, 0.0000000000000000000, 0.0000000000000000000 ) ) ;
#546 = VERTEX_POINT ( 'NONE', #1047 ) ;
#547 = DIRECTION ( 'NONE',  ( -0.0000000000000000000, -0.0000000000000000000, -1.000000000000000000 ) ) ;
#548 = EDGE_CURVE ( 'NONE', #917, #919, #926, .T. ) ;
#549 = ORIENTED_EDGE ( 'NONE', *, *, #354, .F. ) ;
#550 = PLANE ( 'NONE',  #39 ) ;
#551 = AXIS2_PLACEMENT_3D ( 'NONE', #477, #493, #1269 ) ;
#552 = ADVANCED_FACE ( 'NONE', ( #211 ), #938, .F. ) ;
#553 = CIRCLE ( 'NONE', #785, 125.0000000000000000 ) ;
#554 = DIRECTION ( 'NONE',  ( 0.0000000000000000000, 0.0000000000000000000, -1.000000000000000000 ) ) ;
#555 = LINE ( 'NONE', #463, #1062 ) ;
#556 = CARTESIAN_POINT ( 'NONE',  ( -30.00000000000000000, 120.8817190364526700, -15.00000000000000000 ) ) ;
#557 = CARTESIAN_POINT ( 'NONE',  ( -0.2079627999478361700, -0.5161166916636261700, -15.00000000000000000 ) ) ;
#558 = VERTEX_POINT ( 'NONE', #247 ) ;
#559 = CARTESIAN_POINT ( 'NONE',  ( 430.0000000000000600, -30.00000000000000000, -15.00000000000000000 ) ) ;
#560 = VERTEX_POINT ( 'NONE', #836 ) ;
#561 = CARTESIAN_POINT ( 'NONE',  ( 121.0098849868395900, 30.00000000000000000, -15.00000000000000000 ) ) ;
#562 = ORIENTED_EDGE ( 'NONE', *, *, #725, .F. ) ;
#563 = ADVANCED_FACE ( 'NONE', ( #741, #191, #126, #680, #1186 ), #1240, .T. ) ;
#564 = DIRECTION ( 'NONE',  ( 0.0000000000000000000, 0.0000000000000000000, 1.000000000000000000 ) ) ;
#565 = DIRECTION ( 'NONE',  ( -0.0000000000000000000, -0.0000000000000000000, -1.000000000000000000 ) ) ;
#566 = EDGE_CURVE ( 'NONE', #558, #443, #272, .T. ) ;
#567 = DIRECTION ( 'NONE',  ( 1.000000000000000000, 0.0000000000000000000, 0.0000000000000000000 ) ) ;
#568 = CIRCLE ( 'NONE', #156, 25.00000000000002100 ) ;
#569 = CC_DESIGN_APPROVAL ( #1263, ( #230 ) ) ;
#570 = VECTOR ( 'NONE', #1007, 1000.000000000000000 ) ;
#571 = AXIS2_PLACEMENT_3D ( 'NONE', #1083, #782, #186 ) ;
#572 = DIRECTION ( 'NONE',  ( 0.0000000000000000000, -1.000000000000000000, 0.0000000000000000000 ) ) ;
#573 = EDGE_LOOP ( 'NONE', ( #835, #929, #248, #666 ) ) ;
#574 = PERSON_AND_ORGANIZATION_ROLE ( 'creator' ) ;
#575 = VERTEX_POINT ( 'NONE', #528 ) ;
#576 = ORIENTED_EDGE ( 'NONE', *, *, #153, .T. ) ;
#577 = DIRECTION ( 'NONE',  ( 0.0000000000000000000, 0.0000000000000000000, 1.000000000000000000 ) ) ;
#578 = AXIS2_PLACEMENT_3D ( 'NONE', #682, #789, #471 ) ;
#579 = CARTESIAN_POINT ( 'NONE',  ( -0.7240794916128247000, 389.6918461082842700, 35.00000000000000000 ) ) ;
#580 = ADVANCED_FACE ( 'NONE', ( #760 ), #454, .F. ) ;
#581 = CIRCLE ( 'NONE', #665, 25.00000000000002100 ) ;
#582 = CYLINDRICAL_SURFACE ( 'NONE', #434, 25.00000000000002100 ) ;
#583 = CARTESIAN_POINT ( 'NONE',  ( -0.0000000000000000000, 30.00000000000000000, -15.00000000000000000 ) ) ;
#584 = ORIENTED_EDGE ( 'NONE', *, *, #299, .T. ) ;
#585 = DIRECTION ( 'NONE',  ( -1.000000000000000000, 0.0000000000000000000, 0.0000000000000000000 ) ) ;
#586 = EDGE_CURVE ( 'NONE', #1161, #76, #226, .T. ) ;
#587 = ORIENTED_EDGE ( 'NONE', *, *, #1132, .F. ) ;
#588 = CARTESIAN_POINT ( 'NONE',  ( -3.224079491612846100, 389.6918461082842700, 50.00000000000000000 ) ) ;
#589 = ORIENTED_EDGE ( 'NONE', *, *, #318, .T. ) ;
#590 = CIRCLE ( 'NONE', #1252, 2.500000000000002200 ) ;
#591 = EDGE_CURVE ( 'NONE', #1230, #1249, #830, .T. ) ;
#592 = DIRECTION ( 'NONE',  ( -0.0000000000000000000, -0.0000000000000000000, -1.000000000000000000 ) ) ;
#593 = PERSON_AND_ORGANIZATION ( #387, #935 ) ;
#594 = VECTOR ( 'NONE', #117, 1000.000000000000000 ) ;
#595 = VECTOR ( 'NONE', #86, 1000.000000000000000 ) ;
#596 = AXIS2_PLACEMENT_3D ( 'NONE', #111, #1198, #121 ) ;
#597 = CARTESIAN_POINT ( 'NONE',  ( 25.30815389171988600, -390.7240794916115200, 35.00000000000000000 ) ) ;
#598 = DIRECTION ( 'NONE',  ( 0.0000000000000000000, 0.0000000000000000000, 1.000000000000000000 ) ) ;
#599 = CARTESIAN_POINT ( 'NONE',  ( -415.4159255998957900, -1.032233383327252300, 35.00000000000000000 ) ) ;
#600 = DIRECTION ( 'NONE',  ( -1.000000000000000000, 0.0000000000000000000, 0.0000000000000000000 ) ) ;
#601 = EDGE_LOOP ( 'NONE', ( #1018, #655 ) ) ;
#602 = AXIS2_PLACEMENT_3D ( 'NONE', #775, #977, #89 ) ;
#603 = VERTEX_POINT ( 'NONE', #1224 ) ;
#604 = ORIENTED_EDGE ( 'NONE', *, *, #699, .T. ) ;
#605 = DIRECTION ( 'NONE',  ( -1.000000000000000000, 0.0000000000000000000, 0.0000000000000000000 ) ) ;
#606 = CARTESIAN_POINT ( 'NONE',  ( -390.4159255998957300, -1.032233383327252300, 50.00000000000000000 ) ) ;
#607 = CALENDAR_DATE ( 2016, 31, 7 ) ;
#608 = LINE ( 'NONE', #561, #81 ) ;
#609 = FACE_OUTER_BOUND ( 'NONE', #1168, .T. ) ;
#610 = VECTOR ( 'NONE', #1189, 1000.000000000000000 ) ;
#611 = EDGE_CURVE ( 'NONE', #279, #794, #291, .T. ) ;
#612 = FACE_OUTER_BOUND ( 'NONE', #1, .T. ) ;
#613 = LINE ( 'NONE', #559, #862 ) ;
#614 = AXIS2_PLACEMENT_3D ( 'NONE', #811, #598, #1104 ) ;
#615 = DIRECTION ( 'NONE',  ( -3.512815038853031200E-015, 1.000000000000000000, 0.0000000000000000000 ) ) ;
#616 = ORIENTED_EDGE ( 'NONE', *, *, #1115, .F. ) ;
#617 = VERTEX_POINT ( 'NONE', #51 ) ;
#618 = VERTEX_POINT ( 'NONE', #146 ) ;
#619 = VECTOR ( 'NONE', #187, 1000.000000000000000 ) ;
#620 = CARTESIAN_POINT ( 'NONE',  ( -0.7240794916128247000, 389.6918461082842700, 50.00000000000000000 ) ) ;
#621 = COORDINATED_UNIVERSAL_TIME_OFFSET ( 5, 30, .AHEAD. ) ;
#622 = CARTESIAN_POINT ( 'NONE',  ( 0.0000000000000000000, 30.00000000000000000, 15.00000000000000000 ) ) ;
#623 = FACE_OUTER_BOUND ( 'NONE', #808, .T. ) ;
#624 = EDGE_CURVE ( 'NONE', #890, #129, #423, .T. ) ;
#625 = DIRECTION ( 'NONE',  ( 0.0000000000000000000, 1.000000000000000000, -0.0000000000000000000 ) ) ;
#626 = ADVANCED_FACE ( 'NONE', ( #643 ), #38, .T. ) ;
#627 = ORIENTED_EDGE ( 'NONE', *, *, #1243, .T. ) ;
#628 = ORIENTED_EDGE ( 'NONE', *, *, #566, .T. ) ;
#629 = CARTESIAN_POINT ( 'NONE',  ( 0.0000000000000000000, -30.00000000000000000, -15.00000000000000000 ) ) ;
#630 = ORIENTED_EDGE ( 'NONE', *, *, #1028, .T. ) ;
#631 = ORIENTED_EDGE ( 'NONE', *, *, #28, .F. ) ;
#632 = DIRECTION ( 'NONE',  ( 0.0000000000000000000, 0.0000000000000000000, 1.000000000000000000 ) ) ;
#633 = EDGE_CURVE ( 'NONE', #546, #703, #394, .T. ) ;
#634 = AXIS2_PLACEMENT_3D ( 'NONE', #961, #176, #755 ) ;
#635 = DIRECTION ( 'NONE',  ( -0.0000000000000000000, 0.0000000000000000000, 1.000000000000000000 ) ) ;
#636 = DIRECTION ( 'NONE',  ( 0.0000000000000000000, -1.000000000000000000, 0.0000000000000000000 ) ) ;
#637 = DIRECTION ( 'NONE',  ( 1.000000000000000000, 0.0000000000000000000, 0.0000000000000000000 ) ) ;
#638 = VECTOR ( 'NONE', #733, 1000.000000000000000 ) ;
#639 = ORIENTED_EDGE ( 'NONE', *, *, #1223, .T. ) ;
#640 = CYLINDRICAL_SURFACE ( 'NONE', #77, 25.00000000000000700 ) ;
#641 = CYLINDRICAL_SURFACE ( 'NONE', #596, 25.00000000000000700 ) ;
#642 = DIRECTION ( 'NONE',  ( -1.000000000000000000, 0.0000000000000000000, 0.0000000000000000000 ) ) ;
#643 = FACE_OUTER_BOUND ( 'NONE', #1039, .T. ) ;
#644 = DIRECTION ( 'NONE',  ( -1.000000000000000000, 0.0000000000000000000, 0.0000000000000000000 ) ) ;
#645 = DIRECTION ( 'NONE',  ( 0.0000000000000000000, 0.0000000000000000000, 1.000000000000000000 ) ) ;
#646 = AXIS2_PLACEMENT_3D ( 'NONE', #347, #951, #441 ) ;
#647 = EDGE_LOOP ( 'NONE', ( #1219, #630, #671, #246, #249, #704, #128, #823, #587, #296, #131, #431, #931, #1072, #746, #1264 ) ) ;
#648 = CARTESIAN_POINT ( 'NONE',  ( -365.4159255998957300, -1.032233383327249200, 35.00000000000000000 ) ) ;
#649 = ORIENTED_EDGE ( 'NONE', *, *, #900, .T. ) ;
#650 = ORIENTED_EDGE ( 'NONE', *, *, #10, .F. ) ;
#651 = ORIENTED_EDGE ( 'NONE', *, *, #153, .F. ) ;
#652 = CARTESIAN_POINT ( 'NONE',  ( -0.2079627999478361700, -0.5161166916636261700, 15.00000000000000000 ) ) ;
#653 = CARTESIAN_POINT ( 'NONE',  ( -392.9159255998957300, -1.032233383327252300, 50.00000000000000000 ) ) ;
#654 = EDGE_CURVE ( 'NONE', #1016, #917, #613, .T. ) ;
#655 = ORIENTED_EDGE ( 'NONE', *, *, #432, .F. ) ;
#656 = DIRECTION ( 'NONE',  ( 0.0000000000000000000, 0.0000000000000000000, 1.000000000000000000 ) ) ;
#657 = CC_DESIGN_DATE_AND_TIME_ASSIGNMENT ( #1024, #783, ( #230 ) ) ;
#658 = APPROVAL_DATE_TIME ( #5, #1117 ) ;
#659 = CARTESIAN_POINT ( 'NONE',  ( -0.7240794916128247000, 389.6918461082842700, 50.00000000000000000 ) ) ;
#660 = PERSON_AND_ORGANIZATION ( #387, #935 ) ;
#661 = DIRECTION ( 'NONE',  ( -1.000000000000000000, 0.0000000000000000000, 0.0000000000000000000 ) ) ;
#662 = CARTESIAN_POINT ( 'NONE',  ( 30.00000000000000000, 0.0000000000000000000, 15.00000000000000000 ) ) ;
#663 = CIRCLE ( 'NONE', #456, 25.00000000000002100 ) ;
#664 = DIRECTION ( 'NONE',  ( -0.0000000000000000000, -0.0000000000000000000, -1.000000000000000000 ) ) ;
#665 = AXIS2_PLACEMENT_3D ( 'NONE', #1234, #1227, #436 ) ;
#666 = ORIENTED_EDGE ( 'NONE', *, *, #633, .F. ) ;
#667 = ORIENTED_EDGE ( 'NONE', *, *, #1228, .T. ) ;
#668 = ORIENTED_EDGE ( 'NONE', *, *, #127, .T. ) ;
#669 = EDGE_LOOP ( 'NONE', ( #693, #532, #689, #505 ) ) ;
#670 = SECURITY_CLASSIFICATION_LEVEL ( 'unclassified' ) ;
#671 = ORIENTED_EDGE ( 'NONE', *, *, #718, .T. ) ;
#672 = VERTEX_POINT ( 'NONE', #470 ) ;
#673 = DIRECTION ( 'NONE',  ( -0.0000000000000000000, -0.0000000000000000000, -1.000000000000000000 ) ) ;
#674 = AXIS2_PLACEMENT_3D ( 'NONE', #389, #478, #195 ) ;
#675 = CARTESIAN_POINT ( 'NONE',  ( -415.4159255998957900, -1.032233383327252300, 35.00000000000000000 ) ) ;
#676 = ADVANCED_FACE ( 'NONE', ( #1226 ), #267, .F. ) ;
#677 = PRODUCT ( 'frame_Default_sldprt', 'frame_Default_sldprt', '', ( #986 ) ) ;
#678 = FACE_BOUND ( 'NONE', #320, .T. ) ;
#679 = CIRCLE ( 'NONE', #1147, 25.00000000000002100 ) ;
#680 = FACE_BOUND ( 'NONE', #906, .T. ) ;
#681 = APPLICATION_CONTEXT ( 'configuration controlled 3d designs of mechanical parts and assemblies' ) ;
#682 = CARTESIAN_POINT ( 'NONE',  ( -390.4159255998957300, -1.032233383327252300, 15.00000000000000000 ) ) ;
#683 = ADVANCED_FACE ( 'NONE', ( #525 ), #868, .F. ) ;
#684 = DIRECTION ( 'NONE',  ( -0.0000000000000000000, -0.0000000000000000000, -1.000000000000000000 ) ) ;
#685 = EDGE_CURVE ( 'NONE', #1145, #1221, #555, .T. ) ;
#686 = ORIENTED_EDGE ( 'NONE', *, *, #956, .F. ) ;
#687 = DATE_TIME_ROLE ( 'creation_date' ) ;
#688 = CARTESIAN_POINT ( 'NONE',  ( 0.3081538917198772300, -390.7240794916115200, 50.00000000000000000 ) ) ;
#689 = ORIENTED_EDGE ( 'NONE', *, *, #432, .T. ) ;
#690 = AXIS2_PLACEMENT_3D ( 'NONE', #1101, #418, #908 ) ;
#691 = CARTESIAN_POINT ( 'NONE',  ( 121.0098849868395900, 30.00000000000000000, -15.00000000000000000 ) ) ;
#692 = APPLICATION_CONTEXT ( 'configuration controlled 3d designs of mechanical parts and assemblies' ) ;
#693 = ORIENTED_EDGE ( 'NONE', *, *, #832, .F. ) ;
#694 = CIRCLE ( 'NONE', #742, 25.00000000000002100 ) ;
#695 = CARTESIAN_POINT ( 'NONE',  ( 121.2650820497652400, -30.00000000000000000, 15.00000000000000000 ) ) ;
#696 = AXIS2_PLACEMENT_3D ( 'NONE', #579, #1102, #502 ) ;
#697 = FACE_OUTER_BOUND ( 'NONE', #417, .T. ) ;
#698 = DIRECTION ( 'NONE',  ( 1.000000000000000000, 0.0000000000000000000, 0.0000000000000000000 ) ) ;
#699 = EDGE_CURVE ( 'NONE', #1249, #917, #242, .T. ) ;
#700 = CARTESIAN_POINT ( 'NONE',  ( 30.00000000000000000, 0.0000000000000000000, -15.00000000000000000 ) ) ;
#701 = ORIENTED_EDGE ( 'NONE', *, *, #4, .T. ) ;
#702 = ORIENTED_EDGE ( 'NONE', *, *, #900, .F. ) ;
#703 = VERTEX_POINT ( 'NONE', #1074 ) ;
#704 = ORIENTED_EDGE ( 'NONE', *, *, #1140, .T. ) ;
#705 = CARTESIAN_POINT ( 'NONE',  ( 0.0000000000000000000, -430.0000000000000600, 15.00000000000000000 ) ) ;
#706 = CARTESIAN_POINT ( 'NONE',  ( -390.4159255998957300, -1.032233383327252300, 35.00000000000000000 ) ) ;
#707 = CARTESIAN_POINT ( 'NONE',  ( 30.00000000000000000, 0.0000000000000000000, 15.00000000000000000 ) ) ;
#708 = VECTOR ( 'NONE', #275, 1000.000000000000000 ) ;
#709 = FACE_OUTER_BOUND ( 'NONE', #1087, .T. ) ;
#710 = AXIS2_PLACEMENT_3D ( 'NONE', #801, #585, #9 ) ;
#711 = DIRECTION ( 'NONE',  ( 1.000000000000000000, 0.0000000000000000000, 0.0000000000000000000 ) ) ;
#712 = CARTESIAN_POINT ( 'NONE',  ( -430.0000000000000600, -30.00000000000000000, -15.00000000000000000 ) ) ;
#713 = AXIS2_PLACEMENT_3D ( 'NONE', #723, #1034, #1138 ) ;
#714 = ORIENTED_EDGE ( 'NONE', *, *, #1175, .F. ) ;
#715 = DIRECTION ( 'NONE',  ( 0.0000000000000000000, 0.0000000000000000000, 1.000000000000000000 ) ) ;
#716 = LOCAL_TIME ( 7, 14, 17.00000000000000000, #933 ) ;
#717 = LINE ( 'NONE', #1031, #841 ) ;
#718 = EDGE_CURVE ( 'NONE', #107, #15, #799, .T. ) ;
#719 = FACE_OUTER_BOUND ( 'NONE', #971, .T. ) ;
#720 = LINE ( 'NONE', #132, #1098 ) ;
#721 = DIRECTION ( 'NONE',  ( -1.000000000000000000, 0.0000000000000000000, 0.0000000000000000000 ) ) ;
#722 = CARTESIAN_POINT ( 'NONE',  ( -430.0000000000000600, -30.00000000000000000, 15.00000000000000000 ) ) ;
#723 = CARTESIAN_POINT ( 'NONE',  ( -0.2079627999478361700, -0.5161166916636261700, 15.00000000000000000 ) ) ;
#724 = ORIENTED_EDGE ( 'NONE', *, *, #1223, .F. ) ;
#725 = EDGE_CURVE ( 'NONE', #1127, #703, #1216, .T. ) ;
#726 = ORIENTED_EDGE ( 'NONE', *, *, #932, .T. ) ;
#727 = AXIS2_PLACEMENT_3D ( 'NONE', #381, #577, #1281 ) ;
#728 = ORIENTED_EDGE ( 'NONE', *, *, #1206, .T. ) ;
#729 = ADVANCED_BREP_SHAPE_REPRESENTATION ( 'frame_Default_sldprt', ( #975, #335 ), #940 ) ;
#730 = CARTESIAN_POINT ( 'NONE',  ( -121.4258105867352700, 30.00000000000000000, -15.00000000000000000 ) ) ;
#731 = ORIENTED_EDGE ( 'NONE', *, *, #10, .T. ) ;
#732 = PRODUCT_DEFINITION_SHAPE ( 'NONE', 'NONE',  #7 ) ;
#733 = DIRECTION ( 'NONE',  ( 0.0000000000000000000, 1.000000000000000000, -0.0000000000000000000 ) ) ;
#734 = ORIENTED_EDGE ( 'NONE', *, *, #172, .F. ) ;
#735 = ORIENTED_EDGE ( 'NONE', *, *, #411, .T. ) ;
#736 = CYLINDRICAL_SURFACE ( 'NONE', #357, 125.0000000000000000 ) ;
#737 = CARTESIAN_POINT ( 'NONE',  ( 2.808153891719899200, -390.7240794916115200, 35.00000000000000000 ) ) ;
#738 = VECTOR ( 'NONE', #404, 1000.000000000000000 ) ;
#739 = FACE_OUTER_BOUND ( 'NONE', #877, .T. ) ;
#740 = DIRECTION ( 'NONE',  ( 0.0000000000000000000, 0.0000000000000000000, 1.000000000000000000 ) ) ;
#741 = FACE_BOUND ( 'NONE', #601, .T. ) ;
#742 = AXIS2_PLACEMENT_3D ( 'NONE', #80, #980, #1078 ) ;
#743 = CARTESIAN_POINT ( 'NONE',  ( -121.6810076496609100, -30.00000000000000000, -15.00000000000000000 ) ) ;
#744 = DIRECTION ( 'NONE',  ( -1.000000000000000000, 0.0000000000000000000, 0.0000000000000000000 ) ) ;
#745 = ORIENTED_EDGE ( 'NONE', *, *, #75, .T. ) ;
#746 = ORIENTED_EDGE ( 'NONE', *, *, #46, .T. ) ;
#747 = DIRECTION ( 'NONE',  ( 0.0000000000000000000, 0.0000000000000000000, 1.000000000000000000 ) ) ;
#748 = ORIENTED_EDGE ( 'NONE', *, *, #354, .T. ) ;
#749 = ORIENTED_EDGE ( 'NONE', *, *, #269, .F. ) ;
#750 = DIRECTION ( 'NONE',  ( -0.0000000000000000000, -0.0000000000000000000, -1.000000000000000000 ) ) ;
#751 = EDGE_CURVE ( 'NONE', #1045, #756, #523, .T. ) ;
#752 = DIRECTION ( 'NONE',  ( 0.0000000000000000000, -1.000000000000000000, 0.0000000000000000000 ) ) ;
#753 = AXIS2_PLACEMENT_3D ( 'NONE', #3, #1188, #486 ) ;
#754 = VERTEX_POINT ( 'NONE', #66 ) ;
#755 = DIRECTION ( 'NONE',  ( 1.000000000000000000, 0.0000000000000000000, 0.0000000000000000000 ) ) ;
#756 = VERTEX_POINT ( 'NONE', #1056 ) ;
#757 = CARTESIAN_POINT ( 'NONE',  ( -0.7240794916128247000, 389.6918461082842700, 15.00000000000000000 ) ) ;
#758 = CIRCLE ( 'NONE', #1022, 2.500000000000002200 ) ;
#759 = DIRECTION ( 'NONE',  ( -0.0000000000000000000, -0.0000000000000000000, -1.000000000000000000 ) ) ;
#760 = FACE_OUTER_BOUND ( 'NONE', #461, .T. ) ;
#761 = EDGE_CURVE ( 'NONE', #838, #756, #553, .T. ) ;
#762 = CARTESIAN_POINT ( 'NONE',  ( -0.2079627999478361700, -0.5161166916636261700, 15.00000000000000000 ) ) ;
#763 = AXIS2_PLACEMENT_3D ( 'NONE', #227, #231, #711 ) ;
#764 = ADVANCED_FACE ( 'NONE', ( #1184 ), #467, .T. ) ;
#765 = CARTESIAN_POINT ( 'NONE',  ( 0.3081538917198772300, -390.7240794916115200, 35.00000000000000000 ) ) ;
#766 = CARTESIAN_POINT ( 'NONE',  ( -430.0000000000000600, 0.0000000000000000000, -15.00000000000000000 ) ) ;
#767 = DIRECTION ( 'NONE',  ( 0.0000000000000000000, -1.000000000000000000, 0.0000000000000000000 ) ) ;
#768 = ORIENTED_EDGE ( 'NONE', *, *, #566, .F. ) ;
#769 = ORIENTED_EDGE ( 'NONE', *, *, #228, .T. ) ;
#770 = DIRECTION ( 'NONE',  ( 0.0000000000000000000, 1.000000000000000000, -0.0000000000000000000 ) ) ;
#771 = VERTEX_POINT ( 'NONE', #72 ) ;
#772 = CARTESIAN_POINT ( 'NONE',  ( 0.3081538917198772300, -390.7240794916115200, 35.00000000000000000 ) ) ;
#773 = EDGE_CURVE ( 'NONE', #927, #233, #268, .T. ) ;
#774 = ORIENTED_EDGE ( 'NONE', *, *, #1110, .T. ) ;
#775 = CARTESIAN_POINT ( 'NONE',  ( 0.3081538917198772300, -390.7240794916115200, 50.00000000000000000 ) ) ;
#776 = ADVANCED_FACE ( 'NONE', ( #678, #306 ), #1265, .T. ) ;
#777 = LINE ( 'NONE', #675, #48 ) ;
#778 = CARTESIAN_POINT ( 'NONE',  ( -0.2079627999478361700, -0.5161166916636261700, -15.00000000000000000 ) ) ;
#779 = PLANE ( 'NONE',  #223 ) ;
#780 = LINE ( 'NONE', #20, #512 ) ;
#781 = FACE_OUTER_BOUND ( 'NONE', #544, .T. ) ;
#782 = DIRECTION ( 'NONE',  ( 0.0000000000000000000, 0.0000000000000000000, 1.000000000000000000 ) ) ;
#783 = DATE_TIME_ROLE ( 'classification_date' ) ;
#784 = CARTESIAN_POINT ( 'NONE',  ( 390.0000000000000600, 0.0000000000000000000, 50.00000000000000000 ) ) ;
#785 = AXIS2_PLACEMENT_3D ( 'NONE', #652, #157, #358 ) ;
#786 = DIRECTION ( 'NONE',  ( -1.000000000000000000, 0.0000000000000000000, 0.0000000000000000000 ) ) ;
#787 = ORIENTED_EDGE ( 'NONE', *, *, #966, .T. ) ;
#788 =( NAMED_UNIT ( * ) SI_UNIT ( $, .STERADIAN. ) SOLID_ANGLE_UNIT ( ) );
#789 = DIRECTION ( 'NONE',  ( 0.0000000000000000000, 0.0000000000000000000, 1.000000000000000000 ) ) ;
#790 = ORIENTED_EDGE ( 'NONE', *, *, #1218, .T. ) ;
#791 = ADVANCED_FACE ( 'NONE', ( #356, #609 ), #97, .T. ) ;
#792 = ORIENTED_EDGE ( 'NONE', *, *, #976, .T. ) ;
#793 = CARTESIAN_POINT ( 'NONE',  ( 30.00000000000000000, 0.0000000000000000000, -15.00000000000000000 ) ) ;
#794 = VERTEX_POINT ( 'NONE', #1253 ) ;
#795 = APPLICATION_PROTOCOL_DEFINITION ( 'international standard', 'config_control_design', 1994, #692 ) ;
#796 = AXIS2_PLACEMENT_3D ( 'NONE', #629, #625, #56 ) ;
#797 = CARTESIAN_POINT ( 'NONE',  ( 30.00000000000000000, 120.7788913815335500, -15.00000000000000000 ) ) ;
#798 = VECTOR ( 'NONE', #770, 1000.000000000000000 ) ;
#799 = LINE ( 'NONE', #1259, #798 ) ;
#800 = APPROVAL_ROLE ( '' ) ;
#801 = CARTESIAN_POINT ( 'NONE',  ( 30.00000000000000000, 0.0000000000000000000, -15.00000000000000000 ) ) ;
#802 = EDGE_CURVE ( 'NONE', #1209, #890, #138, .T. ) ;
#803 = AXIS2_PLACEMENT_3D ( 'NONE', #289, #673, #989 ) ;
#804 = ORIENTED_EDGE ( 'NONE', *, *, #205, .T. ) ;
#805 = CARTESIAN_POINT ( 'NONE',  ( -30.00000000000000000, -121.9139524197799200, -15.00000000000000000 ) ) ;
#806 = VERTEX_POINT ( 'NONE', #181 ) ;
#807 = CARTESIAN_POINT ( 'NONE',  ( 0.0000000000000000000, 430.0000000000000600, 15.00000000000000000 ) ) ;
#808 = EDGE_LOOP ( 'NONE', ( #1212, #64, #1032, #981 ) ) ;
#809 = EDGE_CURVE ( 'NONE', #575, #941, #65, .T. ) ;
#810 = EDGE_LOOP ( 'NONE', ( #1143, #1208 ) ) ;
#811 = CARTESIAN_POINT ( 'NONE',  ( 0.3081538917198772300, -390.7240794916115200, 15.00000000000000000 ) ) ;
#812 = AXIS2_PLACEMENT_3D ( 'NONE', #391, #884, #997 ) ;
#813 = DIRECTION ( 'NONE',  ( 1.000000000000000000, -0.0000000000000000000, 0.0000000000000000000 ) ) ;
#814 = VECTOR ( 'NONE', #565, 1000.000000000000000 ) ;
#815 = FACE_OUTER_BOUND ( 'NONE', #459, .T. ) ;
#816 = FACE_OUTER_BOUND ( 'NONE', #179, .T. ) ;
#817 = DIRECTION ( 'NONE',  ( -0.0000000000000000000, 0.0000000000000000000, 1.000000000000000000 ) ) ;
#818 = DIRECTION ( 'NONE',  ( -1.000000000000000000, 0.0000000000000000000, 0.0000000000000000000 ) ) ;
#819 = DIRECTION ( 'NONE',  ( 0.0000000000000000000, -1.000000000000000000, 0.0000000000000000000 ) ) ;
#820 = AXIS2_PLACEMENT_3D ( 'NONE', #784, #664, #173 ) ;
#821 = DIRECTION ( 'NONE',  ( -0.0000000000000000000, -0.0000000000000000000, -1.000000000000000000 ) ) ;
#822 = ORIENTED_EDGE ( 'NONE', *, *, #334, .F. ) ;
#823 = ORIENTED_EDGE ( 'NONE', *, *, #339, .T. ) ;
#824 = DIRECTION ( 'NONE',  ( 0.0000000000000000000, 0.0000000000000000000, 1.000000000000000000 ) ) ;
#825 = ORIENTED_EDGE ( 'NONE', *, *, #685, .F. ) ;
#826 = EDGE_CURVE ( 'NONE', #327, #383, #152, .T. ) ;
#827 = CYLINDRICAL_SURFACE ( 'NONE', #812, 2.500000000000002200 ) ;
#828 = CARTESIAN_POINT ( 'NONE',  ( 2.808153891719899200, -390.7240794916115200, 50.00000000000000000 ) ) ;
#829 = VECTOR ( 'NONE', #370, 1000.000000000000000 ) ;
#830 = LINE ( 'NONE', #622, #170 ) ;
#831 = PLANE ( 'NONE',  #519 ) ;
#832 = EDGE_CURVE ( 'NONE', #283, #327, #190, .T. ) ;
#833 = AXIS2_PLACEMENT_3D ( 'NONE', #541, #135, #837 ) ;
#834 = VERTEX_POINT ( 'NONE', #691 ) ;
#835 = ORIENTED_EDGE ( 'NONE', *, *, #75, .F. ) ;
#836 = CARTESIAN_POINT ( 'NONE',  ( -30.00000000000000000, -430.0000000000000600, -15.00000000000000000 ) ) ;
#837 = DIRECTION ( 'NONE',  ( 0.0000000000000000000, 0.0000000000000000000, -1.000000000000000000 ) ) ;
#838 = VERTEX_POINT ( 'NONE', #1178 ) ;
#839 = COORDINATED_UNIVERSAL_TIME_OFFSET ( 5, 30, .AHEAD. ) ;
#840 = DIRECTION ( 'NONE',  ( 1.000000000000000000, 0.0000000000000000000, 0.0000000000000000000 ) ) ;
#841 = VECTOR ( 'NONE', #438, 1000.000000000000000 ) ;
#842 = EDGE_CURVE ( 'NONE', #1016, #754, #1149, .T. ) ;
#843 = VECTOR ( 'NONE', #204, 1000.000000000000000 ) ;
#844 = DIRECTION ( 'NONE',  ( 0.0000000000000000000, 0.0000000000000000000, 1.000000000000000000 ) ) ;
#845 = DIRECTION ( 'NONE',  ( 0.0000000000000000000, 0.0000000000000000000, 1.000000000000000000 ) ) ;
#846 = ADVANCED_FACE ( 'NONE', ( #881 ), #1239, .T. ) ;
#847 = ORIENTED_EDGE ( 'NONE', *, *, #654, .T. ) ;
#848 = DIRECTION ( 'NONE',  ( -0.0000000000000000000, -0.0000000000000000000, -1.000000000000000000 ) ) ;
#849 = ORIENTED_EDGE ( 'NONE', *, *, #1154, .F. ) ;
#850 = CARTESIAN_POINT ( 'NONE',  ( -0.2079627999478361700, -0.5161166916636261700, -15.00000000000000000 ) ) ;
#851 = DIRECTION ( 'NONE',  ( -1.000000000000000000, 0.0000000000000000000, 0.0000000000000000000 ) ) ;
#852 = ORIENTED_EDGE ( 'NONE', *, *, #1201, .T. ) ;
#853 = AXIS2_PLACEMENT_3D ( 'NONE', #850, #947, #343 ) ;
#854 = EDGE_LOOP ( 'NONE', ( #973, #1155 ) ) ;
#855 = DIRECTION ( 'NONE',  ( 0.0000000000000000000, 0.0000000000000000000, 1.000000000000000000 ) ) ;
#856 = DIRECTION ( 'NONE',  ( -0.0000000000000000000, -0.0000000000000000000, -1.000000000000000000 ) ) ;
#857 = ADVANCED_FACE ( 'NONE', ( #984 ), #1137, .T. ) ;
#858 = APPROVAL_DATE_TIME ( #1134, #1263 ) ;
#859 = VECTOR ( 'NONE', #108, 1000.000000000000000 ) ;
#860 = CARTESIAN_POINT ( 'NONE',  ( 0.0000000000000000000, 0.0000000000000000000, 0.0000000000000000000 ) ) ;
#861 = CARTESIAN_POINT ( 'NONE',  ( 390.0000000000000600, 0.0000000000000000000, 35.00000000000000000 ) ) ;
#862 = VECTOR ( 'NONE', #165, 1000.000000000000000 ) ;
#863 = AXIS2_PLACEMENT_3D ( 'NONE', #1232, #635, #1053 ) ;
#864 = DIRECTION ( 'NONE',  ( -0.0000000000000000000, -0.0000000000000000000, -1.000000000000000000 ) ) ;
#865 = CARTESIAN_POINT ( 'NONE',  ( -0.0000000000000000000, -430.0000000000000600, -15.00000000000000000 ) ) ;
#866 = ORIENTED_EDGE ( 'NONE', *, *, #718, .F. ) ;
#867 = EDGE_LOOP ( 'NONE', ( #399, #1113, #1069, #792 ) ) ;
#868 = PLANE ( 'NONE',  #634 ) ;
#869 = ORIENTED_EDGE ( 'NONE', *, *, #1270, .T. ) ;
#870 = CARTESIAN_POINT ( 'NONE',  ( 415.0000000000001100, 3.061616997868383800E-015, 35.00000000000000000 ) ) ;
#871 = EDGE_CURVE ( 'NONE', #1205, #1016, #392, .T. ) ;
#872 = CARTESIAN_POINT ( 'NONE',  ( 390.0000000000000600, 0.0000000000000000000, 50.00000000000000000 ) ) ;
#873 = ADVANCED_FACE ( 'NONE', ( #709 ), #827, .T. ) ;
#874 = CYLINDRICAL_SURFACE ( 'NONE', #820, 2.500000000000002200 ) ;
#875 = DIRECTION ( 'NONE',  ( -0.0000000000000000000, -0.0000000000000000000, -1.000000000000000000 ) ) ;
#876 = CARTESIAN_POINT ( 'NONE',  ( -430.0000000000000600, -30.00000000000000000, -15.00000000000000000 ) ) ;
#877 = EDGE_LOOP ( 'NONE', ( #1033, #804, #1238, #264 ) ) ;
#878 = PERSON_AND_ORGANIZATION ( #387, #935 ) ;
#879 = APPROVAL_DATE_TIME ( #1136, #71 ) ;
#880 = DIRECTION ( 'NONE',  ( -1.000000000000000000, 0.0000000000000000000, 0.0000000000000000000 ) ) ;
#881 = FACE_OUTER_BOUND ( 'NONE', #894, .T. ) ;
#882 = EDGE_CURVE ( 'NONE', #672, #427, #379, .T. ) ;
#883 = AXIS2_PLACEMENT_3D ( 'NONE', #278, #1071, #1170 ) ;
#884 = DIRECTION ( 'NONE',  ( -0.0000000000000000000, -0.0000000000000000000, -1.000000000000000000 ) ) ;
#885 = APPROVAL_ROLE ( '' ) ;
#886 = CARTESIAN_POINT ( 'NONE',  ( 0.0000000000000000000, 30.00000000000000000, 15.00000000000000000 ) ) ;
#887 = EDGE_LOOP ( 'NONE', ( #349, #668, #651, #958 ) ) ;
#888 = ORIENTED_EDGE ( 'NONE', *, *, #826, .T. ) ;
#889 = DIRECTION ( 'NONE',  ( 0.0000000000000000000, 0.0000000000000000000, 1.000000000000000000 ) ) ;
#890 = VERTEX_POINT ( 'NONE', #899 ) ;
#891 = AXIS2_PLACEMENT_3D ( 'NONE', #706, #1120, #520 ) ;
#892 = DIRECTION ( 'NONE',  ( -1.000000000000000000, 0.0000000000000000000, 0.0000000000000000000 ) ) ;
#893 = CC_DESIGN_SECURITY_CLASSIFICATION ( #230, ( #30 ) ) ;
#894 = EDGE_LOOP ( 'NONE', ( #1086, #1052, #701, #1008 ) ) ;
#895 = APPROVAL_STATUS ( 'not_yet_approved' ) ;
#896 = LINE ( 'NONE', #222, #52 ) ;
#897 = LINE ( 'NONE', #886, #610 ) ;
#898 = CIRCLE ( 'NONE', #646, 2.500000000000002200 ) ;
#899 = CARTESIAN_POINT ( 'NONE',  ( -121.4258105867352700, 30.00000000000000000, -15.00000000000000000 ) ) ;
#900 = EDGE_CURVE ( 'NONE', #1088, #838, #37, .T. ) ;
#901 = CARTESIAN_POINT ( 'NONE',  ( -25.72407949161283400, 389.6918461082842700, 15.00000000000000000 ) ) ;
#902 = ADVANCED_FACE ( 'NONE', ( #124, #1171 ), #199, .T. ) ;
#903 = AXIS2_PLACEMENT_3D ( 'NONE', #285, #750, #644 ) ;
#904 = DIRECTION ( 'NONE',  ( -1.000000000000000000, 0.0000000000000000000, 0.0000000000000000000 ) ) ;
#905 = DIRECTION ( 'NONE',  ( 1.000000000000000000, 0.0000000000000000000, 0.0000000000000000000 ) ) ;
#906 = EDGE_LOOP ( 'NONE', ( #337, #328 ) ) ;
#907 = EDGE_CURVE ( 'NONE', #558, #1161, #290, .T. ) ;
#908 = DIRECTION ( 'NONE',  ( 0.0000000000000000000, -0.0000000000000000000, -1.000000000000000000 ) ) ;
#909 = CARTESIAN_POINT ( 'NONE',  ( -30.00000000000000000, 0.0000000000000000000, -15.00000000000000000 ) ) ;
#910 = CARTESIAN_POINT ( 'NONE',  ( -387.9159255998957300, -1.032233383327252100, 50.00000000000000000 ) ) ;
#911 = CIRCLE ( 'NONE', #960, 125.0000000000000000 ) ;
#912 = VECTOR ( 'NONE', #904, 1000.000000000000000 ) ;
#913 = DIRECTION ( 'NONE',  ( 0.0000000000000000000, 0.0000000000000000000, 1.000000000000000000 ) ) ;
#914 = CARTESIAN_POINT ( 'NONE',  ( -430.0000000000000600, 0.0000000000000000000, 15.00000000000000000 ) ) ;
#915 = EDGE_CURVE ( 'NONE', #383, #47, #342, .T. ) ;
#916 = DIRECTION ( 'NONE',  ( 1.000000000000000000, 0.0000000000000000000, 0.0000000000000000000 ) ) ;
#917 = VERTEX_POINT ( 'NONE', #317 ) ;
#918 = PLANE ( 'NONE',  #710 ) ;
#919 = VERTEX_POINT ( 'NONE', #695 ) ;
#920 = LINE ( 'NONE', #206, #413 ) ;
#921 = CARTESIAN_POINT ( 'NONE',  ( -0.0000000000000000000, 30.00000000000000000, -15.00000000000000000 ) ) ;
#922 = AXIS2_PLACEMENT_3D ( 'NONE', #778, #1272, #192 ) ;
#923 = ORIENTED_EDGE ( 'NONE', *, *, #1020, .T. ) ;
#924 = FACE_OUTER_BOUND ( 'NONE', #1176, .T. ) ;
#925 = VECTOR ( 'NONE', #819, 1000.000000000000000 ) ;
#926 = LINE ( 'NONE', #41, #67 ) ;
#927 = VERTEX_POINT ( 'NONE', #983 ) ;
#928 = DIRECTION ( 'NONE',  ( 0.0000000000000000000, 0.0000000000000000000, 1.000000000000000000 ) ) ;
#929 = ORIENTED_EDGE ( 'NONE', *, *, #1037, .T. ) ;
#930 = CARTESIAN_POINT ( 'NONE',  ( -390.4159255998957300, -1.032233383327252300, 15.00000000000000000 ) ) ;
#931 = ORIENTED_EDGE ( 'NONE', *, *, #1003, .F. ) ;
#932 = EDGE_CURVE ( 'NONE', #1144, #771, #1109, .T. ) ;
#933 = COORDINATED_UNIVERSAL_TIME_OFFSET ( 5, 30, .AHEAD. ) ;
#934 = ORIENTED_EDGE ( 'NONE', *, *, #1003, .T. ) ;
#935 = ORGANIZATION ( 'UNSPECIFIED', 'UNSPECIFIED', '' ) ;
#936 = CARTESIAN_POINT ( 'NONE',  ( 30.00000000000000000, -430.0000000000000600, -15.00000000000000000 ) ) ;
#937 = LINE ( 'NONE', #588, #501 ) ;
#938 = PLANE ( 'NONE',  #833 ) ;
#939 = EDGE_CURVE ( 'NONE', #283, #47, #1060, .T. ) ;
#940 =( GEOMETRIC_REPRESENTATION_CONTEXT ( 3 ) GLOBAL_UNCERTAINTY_ASSIGNED_CONTEXT ( ( #244 ) ) GLOBAL_UNIT_ASSIGNED_CONTEXT ( ( #469, #994, #788 ) ) REPRESENTATION_CONTEXT ( 'NONE', 'WORKASPACE' ) );
#941 = VERTEX_POINT ( 'NONE', #216 ) ;
#942 = CARTESIAN_POINT ( 'NONE',  ( 24.27592050838718400, 389.6918461082842700, 35.00000000000000000 ) ) ;
#943 = ORIENTED_EDGE ( 'NONE', *, *, #1132, .T. ) ;
#944 = ORIENTED_EDGE ( 'NONE', *, *, #1028, .F. ) ;
#945 = CARTESIAN_POINT ( 'NONE',  ( -390.4159255998957300, -1.032233383327252300, 35.00000000000000000 ) ) ;
#946 = DIRECTION ( 'NONE',  ( 1.047339298620996300E-014, -1.000000000000000000, 0.0000000000000000000 ) ) ;
#947 = DIRECTION ( 'NONE',  ( -0.0000000000000000000, 0.0000000000000000000, 1.000000000000000000 ) ) ;
#948 = DIRECTION ( 'NONE',  ( 0.0000000000000000000, 0.0000000000000000000, 1.000000000000000000 ) ) ;
#949 = AXIS2_PLACEMENT_3D ( 'NONE', #1023, #818, #928 ) ;
#950 = VECTOR ( 'NONE', #572, 1000.000000000000000 ) ;
#951 = DIRECTION ( 'NONE',  ( 0.0000000000000000000, 0.0000000000000000000, 1.000000000000000000 ) ) ;
#952 = LINE ( 'NONE', #712, #969 ) ;
#953 = CARTESIAN_POINT ( 'NONE',  ( 0.3081538917198772300, -390.7240794916115200, 35.00000000000000000 ) ) ;
#954 = CLOSED_SHELL ( 'NONE', ( #846, #150, #1094, #1251, #174, #1040, #857, #1173, #159, #580, #1268, #993, #1085, #552, #1165, #963, #62, #84, #380, #448, #1079, #676, #492, #251, #683, #563, #538, #791, #101, #287, #626, #188, #1187, #902, #74, #776, #1258, #764, #873, #371, #143, #197 ) ) ;
#955 = DIRECTION ( 'NONE',  ( 0.0000000000000000000, 0.0000000000000000000, 1.000000000000000000 ) ) ;
#956 = EDGE_CURVE ( 'NONE', #76, #979, #82, .T. ) ;
#957 = DIRECTION ( 'NONE',  ( -3.491130995403321100E-015, 1.000000000000000000, 0.0000000000000000000 ) ) ;
#958 = ORIENTED_EDGE ( 'NONE', *, *, #339, .F. ) ;
#959 = ORIENTED_EDGE ( 'NONE', *, *, #403, .F. ) ;
#960 = AXIS2_PLACEMENT_3D ( 'NONE', #762, #353, #376 ) ;
#961 = CARTESIAN_POINT ( 'NONE',  ( 0.0000000000000000000, 0.0000000000000000000, -15.00000000000000000 ) ) ;
#962 = CARTESIAN_POINT ( 'NONE',  ( -0.7240794916128247000, 389.6918461082842700, 50.00000000000000000 ) ) ;
#963 = ADVANCED_FACE ( 'NONE', ( #332 ), #918, .F. ) ;
#964 = CALENDAR_DATE ( 2016, 31, 7 ) ;
#965 = DIRECTION ( 'NONE',  ( -3.491481338843133400E-015, 1.000000000000000000, 0.0000000000000000000 ) ) ;
#966 = EDGE_CURVE ( 'NONE', #1209, #617, #780, .T. ) ;
#967 = ORIENTED_EDGE ( 'NONE', *, *, #1097, .F. ) ;
#968 = CARTESIAN_POINT ( 'NONE',  ( 121.0098849868395900, 30.00000000000000000, 15.00000000000000000 ) ) ;
#969 = VECTOR ( 'NONE', #855, 1000.000000000000000 ) ;
#970 = DIRECTION ( 'NONE',  ( 0.0000000000000000000, 0.0000000000000000000, 1.000000000000000000 ) ) ;
#971 = EDGE_LOOP ( 'NONE', ( #1009, #282, #415, #1177 ) ) ;
#972 = DIRECTION ( 'NONE',  ( 1.047444401652940000E-014, -1.000000000000000000, 0.0000000000000000000 ) ) ;
#973 = ORIENTED_EDGE ( 'NONE', *, *, #334, .T. ) ;
#974 = ORIENTED_EDGE ( 'NONE', *, *, #507, .F. ) ;
#975 = MANIFOLD_SOLID_BREP ( 'CirPattern1', #954 ) ;
#976 = EDGE_CURVE ( 'NONE', #444, #806, #451, .T. ) ;
#977 = DIRECTION ( 'NONE',  ( -0.0000000000000000000, -0.0000000000000000000, -1.000000000000000000 ) ) ;
#978 = ORIENTED_EDGE ( 'NONE', *, *, #939, .F. ) ;
#979 = VERTEX_POINT ( 'NONE', #1213 ) ;
#980 = DIRECTION ( 'NONE',  ( 0.0000000000000000000, 0.0000000000000000000, 1.000000000000000000 ) ) ;
#981 = ORIENTED_EDGE ( 'NONE', *, *, #377, .F. ) ;
#982 = CYLINDRICAL_SURFACE ( 'NONE', #490, 25.00000000000002100 ) ;
#983 = CARTESIAN_POINT ( 'NONE',  ( -3.224079491612846100, 389.6918461082842700, 50.00000000000000000 ) ) ;
#984 = FACE_OUTER_BOUND ( 'NONE', #573, .T. ) ;
#985 = CIRCLE ( 'NONE', #1013, 25.00000000000002100 ) ;
#986 = MECHANICAL_CONTEXT ( 'NONE', #692, 'mechanical' ) ;
#987 = DIRECTION ( 'NONE',  ( 1.000000000000000000, 0.0000000000000000000, 0.0000000000000000000 ) ) ;
#988 = AXIS2_PLACEMENT_3D ( 'NONE', #962, #955, #68 ) ;
#989 = DIRECTION ( 'NONE',  ( -1.000000000000000000, 0.0000000000000000000, 0.0000000000000000000 ) ) ;
#990 = PLANE ( 'NONE',  #674 ) ;
#991 = EDGE_LOOP ( 'NONE', ( #1135, #650, #869, #475 ) ) ;
#992 = ORIENTED_EDGE ( 'NONE', *, *, #498, .F. ) ;
#993 = ADVANCED_FACE ( 'NONE', ( #623 ), #116, .F. ) ;
#994 =( NAMED_UNIT ( * ) PLANE_ANGLE_UNIT ( ) SI_UNIT ( $, .RADIAN. ) );
#995 = AXIS2_PLACEMENT_3D ( 'NONE', #872, #1146, #263 ) ;
#996 = DIRECTION ( 'NONE',  ( -0.0000000000000000000, 0.0000000000000000000, 1.000000000000000000 ) ) ;
#997 = DIRECTION ( 'NONE',  ( -1.000000000000000000, 0.0000000000000000000, 0.0000000000000000000 ) ) ;
#998 = DATE_AND_TIME ( #607, #96 ) ;
#999 = DIRECTION ( 'NONE',  ( 0.0000000000000000000, 0.0000000000000000000, 1.000000000000000000 ) ) ;
#1000 = CYLINDRICAL_SURFACE ( 'NONE', #256, 125.0000000000000000 ) ;
#1001 = VECTOR ( 'NONE', #420, 1000.000000000000000 ) ;
#1002 = DIRECTION ( 'NONE',  ( -0.0000000000000000000, -0.0000000000000000000, -1.000000000000000000 ) ) ;
#1003 = EDGE_CURVE ( 'NONE', #558, #754, #322, .T. ) ;
#1004 = DIRECTION ( 'NONE',  ( -3.491130995403321100E-015, 1.000000000000000000, 0.0000000000000000000 ) ) ;
#1005 = DIRECTION ( 'NONE',  ( 0.0000000000000000000, 0.0000000000000000000, 1.000000000000000000 ) ) ;
#1006 = FACE_OUTER_BOUND ( 'NONE', #312, .T. ) ;
#1007 = DIRECTION ( 'NONE',  ( 0.0000000000000000000, 1.000000000000000000, -0.0000000000000000000 ) ) ;
#1008 = ORIENTED_EDGE ( 'NONE', *, *, #1270, .F. ) ;
#1009 = ORIENTED_EDGE ( 'NONE', *, *, #1037, .F. ) ;
#1010 = LINE ( 'NONE', #447, #500 ) ;
#1011 = VECTOR ( 'NONE', #49, 1000.000000000000000 ) ;
#1012 = CIRCLE ( 'NONE', #365, 2.500000000000002200 ) ;
#1013 = AXIS2_PLACEMENT_3D ( 'NONE', #1214, #1211, #329 ) ;
#1014 = EDGE_LOOP ( 'NONE', ( #1125, #639, #85, #315 ) ) ;
#1015 = LINE ( 'NONE', #1107, #12 ) ;
#1016 = VERTEX_POINT ( 'NONE', #209 ) ;
#1017 = VERTEX_POINT ( 'NONE', #311 ) ;
#1018 = ORIENTED_EDGE ( 'NONE', *, *, #915, .F. ) ;
#1019 = DIRECTION ( 'NONE',  ( 1.000000000000000000, 0.0000000000000000000, 0.0000000000000000000 ) ) ;
#1020 = EDGE_CURVE ( 'NONE', #443, #76, #422, .T. ) ;
#1021 = VERTEX_POINT ( 'NONE', #406 ) ;
#1022 = AXIS2_PLACEMENT_3D ( 'NONE', #1151, #369, #1063 ) ;
#1023 = CARTESIAN_POINT ( 'NONE',  ( 430.0000000000000600, 0.0000000000000000000, -15.00000000000000000 ) ) ;
#1024 = DATE_AND_TIME ( #1058, #716 ) ;
#1025 = CIRCLE ( 'NONE', #1081, 25.00000000000002100 ) ;
#1026 = VECTOR ( 'NONE', #341, 1000.000000000000000 ) ;
#1027 = CARTESIAN_POINT ( 'NONE',  ( -30.00000000000000000, 0.0000000000000000000, -15.00000000000000000 ) ) ;
#1028 = EDGE_CURVE ( 'NONE', #1088, #107, #98, .T. ) ;
#1029 = CARTESIAN_POINT ( 'NONE',  ( 30.00000000000000000, -121.8111247648608100, -15.00000000000000000 ) ) ;
#1030 = ORIENTED_EDGE ( 'NONE', *, *, #654, .F. ) ;
#1031 = CARTESIAN_POINT ( 'NONE',  ( -30.00000000000000000, 0.0000000000000000000, -15.00000000000000000 ) ) ;
#1032 = ORIENTED_EDGE ( 'NONE', *, *, #624, .F. ) ;
#1033 = ORIENTED_EDGE ( 'NONE', *, *, #1261, .F. ) ;
#1034 = DIRECTION ( 'NONE',  ( -0.0000000000000000000, 0.0000000000000000000, 1.000000000000000000 ) ) ;
#1035 = EDGE_LOOP ( 'NONE', ( #628, #923, #1160, #198 ) ) ;
#1036 = DIRECTION ( 'NONE',  ( -1.000000000000000000, 0.0000000000000000000, 0.0000000000000000000 ) ) ;
#1037 = EDGE_CURVE ( 'NONE', #458, #1127, #896, .T. ) ;
#1038 = PERSON_AND_ORGANIZATION ( #387, #935 ) ;
#1039 = EDGE_LOOP ( 'NONE', ( #491, #822, #667, #1204 ) ) ;
#1040 = ADVANCED_FACE ( 'NONE', ( #816 ), #641, .T. ) ;
#1041 = VECTOR ( 'NONE', #1246, 1000.000000000000000 ) ;
#1042 = DIRECTION ( 'NONE',  ( -0.0000000000000000000, -0.0000000000000000000, -1.000000000000000000 ) ) ;
#1043 = VECTOR ( 'NONE', #1002, 1000.000000000000000 ) ;
#1044 = CARTESIAN_POINT ( 'NONE',  ( 365.0000000000000600, 0.0000000000000000000, 15.00000000000000000 ) ) ;
#1045 = VERTEX_POINT ( 'NONE', #805 ) ;
#1046 = LINE ( 'NONE', #828, #514 ) ;
#1047 = CARTESIAN_POINT ( 'NONE',  ( 387.5000000000000600, 0.0000000000000000000, 50.00000000000000000 ) ) ;
#1048 = CARTESIAN_POINT ( 'NONE',  ( 390.0000000000000600, 0.0000000000000000000, 35.00000000000000000 ) ) ;
#1049 = EDGE_CURVE ( 'NONE', #603, #1112, #581, .T. ) ;
#1050 = CARTESIAN_POINT ( 'NONE',  ( 30.00000000000000000, -430.0000000000000600, 15.00000000000000000 ) ) ;
#1051 = CC_DESIGN_DATE_AND_TIME_ASSIGNMENT ( #998, #687, ( #7 ) ) ;
#1052 = ORIENTED_EDGE ( 'NONE', *, *, #439, .T. ) ;
#1053 = DIRECTION ( 'NONE',  ( 1.000000000000000000, 0.0000000000000000000, 0.0000000000000000000 ) ) ;
#1054 = DIRECTION ( 'NONE',  ( 0.0000000000000000000, 1.000000000000000000, -0.0000000000000000000 ) ) ;
#1055 = DIRECTION ( 'NONE',  ( 0.0000000000000000000, 0.0000000000000000000, 1.000000000000000000 ) ) ;
#1056 = CARTESIAN_POINT ( 'NONE',  ( -30.00000000000000000, -121.9139524197799200, 15.00000000000000000 ) ) ;
#1057 = CARTESIAN_POINT ( 'NONE',  ( 25.30815389171988600, -390.7240794916115200, 15.00000000000000000 ) ) ;
#1058 = CALENDAR_DATE ( 2016, 31, 7 ) ;
#1059 = AXIS2_PLACEMENT_3D ( 'NONE', #953, #363, #266 ) ;
#1060 = LINE ( 'NONE', #388, #1043 ) ;
#1061 = CARTESIAN_POINT ( 'NONE',  ( 430.0000000000000600, 0.0000000000000000000, 15.00000000000000000 ) ) ;
#1062 = VECTOR ( 'NONE', #360, 1000.000000000000000 ) ;
#1063 = DIRECTION ( 'NONE',  ( -1.000000000000000000, 0.0000000000000000000, 0.0000000000000000000 ) ) ;
#1064 = CARTESIAN_POINT ( 'NONE',  ( -430.0000000000000600, 30.00000000000000000, -15.00000000000000000 ) ) ;
#1065 = CARTESIAN_POINT ( 'NONE',  ( 390.0000000000000600, 0.0000000000000000000, 35.00000000000000000 ) ) ;
#1066 = DIRECTION ( 'NONE',  ( -0.0000000000000000000, -0.0000000000000000000, -1.000000000000000000 ) ) ;
#1067 = EDGE_CURVE ( 'NONE', #427, #941, #24, .T. ) ;
#1068 = DIRECTION ( 'NONE',  ( -1.000000000000000000, 0.0000000000000000000, 0.0000000000000000000 ) ) ;
#1069 = ORIENTED_EDGE ( 'NONE', *, *, #361, .T. ) ;
#1070 = ORIENTED_EDGE ( 'NONE', *, *, #269, .T. ) ;
#1071 = DIRECTION ( 'NONE',  ( 0.0000000000000000000, 0.0000000000000000000, 1.000000000000000000 ) ) ;
#1072 = ORIENTED_EDGE ( 'NONE', *, *, #907, .T. ) ;
#1073 = DIRECTION ( 'NONE',  ( -1.000000000000000000, 0.0000000000000000000, 0.0000000000000000000 ) ) ;
#1074 = CARTESIAN_POINT ( 'NONE',  ( 387.5000000000000600, 0.0000000000000000000, 35.00000000000000000 ) ) ;
#1075 = EDGE_CURVE ( 'NONE', #617, #91, #1096, .T. ) ;
#1076 = CIRCLE ( 'NONE', #853, 125.0000000000000000 ) ;
#1077 = APPLICATION_PROTOCOL_DEFINITION ( 'international standard', 'config_control_design', 1994, #681 ) ;
#1078 = DIRECTION ( 'NONE',  ( 1.000000000000000000, 0.0000000000000000000, 0.0000000000000000000 ) ) ;
#1079 = ADVANCED_FACE ( 'NONE', ( #483 ), #736, .T. ) ;
#1080 = VECTOR ( 'NONE', #747, 1000.000000000000000 ) ;
#1081 = AXIS2_PLACEMENT_3D ( 'NONE', #945, #845, #252 ) ;
#1082 = DESIGN_CONTEXT ( 'detailed design', #681, 'design' ) ;
#1083 = CARTESIAN_POINT ( 'NONE',  ( -390.4159255998957300, -1.032233383327252300, 35.00000000000000000 ) ) ;
#1084 = CARTESIAN_POINT ( 'NONE',  ( -365.4159255998957300, -1.032233383327249200, 35.00000000000000000 ) ) ;
#1085 = ADVANCED_FACE ( 'NONE', ( #1273 ), #1000, .T. ) ;
#1086 = ORIENTED_EDGE ( 'NONE', *, *, #526, .F. ) ;
#1087 = EDGE_LOOP ( 'NONE', ( #535, #401, #627, #442 ) ) ;
#1088 = VERTEX_POINT ( 'NONE', #743 ) ;
#1089 = DIRECTION ( 'NONE',  ( 0.0000000000000000000, 0.0000000000000000000, 1.000000000000000000 ) ) ;
#1090 = ORIENTED_EDGE ( 'NONE', *, *, #1228, .F. ) ;
#1091 = EDGE_LOOP ( 'NONE', ( #714, #631 ) ) ;
#1092 = CARTESIAN_POINT ( 'NONE',  ( 430.0000000000000600, 0.0000000000000000000, -15.00000000000000000 ) ) ;
#1093 = ORIENTED_EDGE ( 'NONE', *, *, #498, .T. ) ;
#1094 = ADVANCED_FACE ( 'NONE', ( #739 ), #1182, .T. ) ;
#1095 = CARTESIAN_POINT ( 'NONE',  ( 0.3081538917198772300, -390.7240794916115200, 50.00000000000000000 ) ) ;
#1096 = LINE ( 'NONE', #452, #1011 ) ;
#1097 = EDGE_CURVE ( 'NONE', #119, #429, #1025, .T. ) ;
#1098 = VECTOR ( 'NONE', #1129, 1000.000000000000000 ) ;
#1099 = CARTESIAN_POINT ( 'NONE',  ( 390.0000000000000600, 0.0000000000000000000, 50.00000000000000000 ) ) ;
#1100 = AXIS2_PLACEMENT_3D ( 'NONE', #772, #79, #362 ) ;
#1101 = CARTESIAN_POINT ( 'NONE',  ( 0.0000000000000000000, 30.00000000000000000, -15.00000000000000000 ) ) ;
#1102 = DIRECTION ( 'NONE',  ( 0.0000000000000000000, 0.0000000000000000000, 1.000000000000000000 ) ) ;
#1103 = ORIENTED_EDGE ( 'NONE', *, *, #245, .F. ) ;
#1104 = DIRECTION ( 'NONE',  ( 1.047339298620996300E-014, -1.000000000000000000, 0.0000000000000000000 ) ) ;
#1105 = ORIENTED_EDGE ( 'NONE', *, *, #534, .F. ) ;
#1106 = CARTESIAN_POINT ( 'NONE',  ( -30.00000000000000000, 430.0000000000000600, -15.00000000000000000 ) ) ;
#1107 = CARTESIAN_POINT ( 'NONE',  ( 0.0000000000000000000, -30.00000000000000000, 15.00000000000000000 ) ) ;
#1108 = CIRCLE ( 'NONE', #118, 2.500000000000002200 ) ;
#1109 = LINE ( 'NONE', #914, #570 ) ;
#1110 = EDGE_CURVE ( 'NONE', #445, #1112, #1010, .T. ) ;
#1111 = DIRECTION ( 'NONE',  ( -0.0000000000000000000, 0.0000000000000000000, 1.000000000000000000 ) ) ;
#1112 = VERTEX_POINT ( 'NONE', #1044 ) ;
#1113 = ORIENTED_EDGE ( 'NONE', *, *, #773, .F. ) ;
#1114 = VERTEX_POINT ( 'NONE', #250 ) ;
#1115 = EDGE_CURVE ( 'NONE', #703, #1127, #1108, .T. ) ;
#1116 = ORIENTED_EDGE ( 'NONE', *, *, #534, .T. ) ;
#1117 = APPROVAL ( #88, 'UNSPECIFIED' ) ;
#1118 = APPROVAL_PERSON_ORGANIZATION ( #373, #1263, #395 ) ;
#1119 = VECTOR ( 'NONE', #600, 1000.000000000000000 ) ;
#1120 = DIRECTION ( 'NONE',  ( 0.0000000000000000000, 0.0000000000000000000, 1.000000000000000000 ) ) ;
#1121 = CYLINDRICAL_SURFACE ( 'NONE', #474, 125.0000000000000000 ) ;
#1122 = LINE ( 'NONE', #700, #258 ) ;
#1123 = AXIS2_PLACEMENT_3D ( 'NONE', #94, #295, #987 ) ;
#1124 = CARTESIAN_POINT ( 'NONE',  ( 30.00000000000000000, -121.8111247648608100, 15.00000000000000000 ) ) ;
#1125 = ORIENTED_EDGE ( 'NONE', *, *, #54, .F. ) ;
#1126 = EDGE_LOOP ( 'NONE', ( #234, #726, #414, #866 ) ) ;
#1127 = VERTEX_POINT ( 'NONE', #540 ) ;
#1128 = ORIENTED_EDGE ( 'NONE', *, *, #915, .T. ) ;
#1129 = DIRECTION ( 'NONE',  ( 1.000000000000000000, 0.0000000000000000000, 0.0000000000000000000 ) ) ;
#1130 = ORIENTED_EDGE ( 'NONE', *, *, #92, .T. ) ;
#1131 = PLANE ( 'NONE',  #1210 ) ;
#1132 = EDGE_CURVE ( 'NONE', #834, #330, #1076, .T. ) ;
#1133 = FACE_OUTER_BOUND ( 'NONE', #991, .T. ) ;
#1134 = DATE_AND_TIME ( #964, #407 ) ;
#1135 = ORIENTED_EDGE ( 'NONE', *, *, #439, .F. ) ;
#1136 = DATE_AND_TIME ( #114, #375 ) ;
#1137 = CYLINDRICAL_SURFACE ( 'NONE', #803, 2.500000000000002200 ) ;
#1138 = DIRECTION ( 'NONE',  ( 1.000000000000000000, 0.0000000000000000000, 0.0000000000000000000 ) ) ;
#1139 = CARTESIAN_POINT ( 'NONE',  ( 121.2650820497652400, -30.00000000000000000, -15.00000000000000000 ) ) ;
#1140 = EDGE_CURVE ( 'NONE', #1209, #58, #288, .T. ) ;
#1141 = AXIS2_PLACEMENT_3D ( 'NONE', #620, #856, #243 ) ;
#1142 = ORIENTED_EDGE ( 'NONE', *, *, #83, .F. ) ;
#1143 = ORIENTED_EDGE ( 'NONE', *, *, #882, .T. ) ;
#1144 = VERTEX_POINT ( 'NONE', #722 ) ;
#1145 = VERTEX_POINT ( 'NONE', #142 ) ;
#1146 = DIRECTION ( 'NONE',  ( 0.0000000000000000000, 0.0000000000000000000, 1.000000000000000000 ) ) ;
#1147 = AXIS2_PLACEMENT_3D ( 'NONE', #861, #1055, #1244 ) ;
#1148 = EDGE_LOOP ( 'NONE', ( #276, #518 ) ) ;
#1149 = LINE ( 'NONE', #297, #912 ) ;
#1150 = CYLINDRICAL_SURFACE ( 'NONE', #139, 25.00000000000002100 ) ;
#1151 = CARTESIAN_POINT ( 'NONE',  ( -390.4159255998957300, -1.032233383327252300, 50.00000000000000000 ) ) ;
#1152 = DIRECTION ( 'NONE',  ( -0.0000000000000000000, -0.0000000000000000000, -1.000000000000000000 ) ) ;
#1153 = VECTOR ( 'NONE', #1162, 1000.000000000000000 ) ;
#1154 = EDGE_CURVE ( 'NONE', #560, #1045, #717, .T. ) ;
#1155 = ORIENTED_EDGE ( 'NONE', *, *, #194, .T. ) ;
#1156 = VERTEX_POINT ( 'NONE', #338 ) ;
#1157 = DIRECTION ( 'NONE',  ( 0.0000000000000000000, -1.000000000000000000, 0.0000000000000000000 ) ) ;
#1158 = CARTESIAN_POINT ( 'NONE',  ( -30.00000000000000000, 0.0000000000000000000, 15.00000000000000000 ) ) ;
#1159 = CARTESIAN_POINT ( 'NONE',  ( -415.4159255998957900, -1.032233383327252300, 15.00000000000000000 ) ) ;
#1160 = ORIENTED_EDGE ( 'NONE', *, *, #586, .F. ) ;
#1161 = VERTEX_POINT ( 'NONE', #259 ) ;
#1162 = DIRECTION ( 'NONE',  ( -0.0000000000000000000, -0.0000000000000000000, -1.000000000000000000 ) ) ;
#1163 = CARTESIAN_POINT ( 'NONE',  ( -25.72407949161283400, 389.6918461082842700, 35.00000000000000000 ) ) ;
#1164 = CARTESIAN_POINT ( 'NONE',  ( -0.7240794916128247000, 389.6918461082842700, 15.00000000000000000 ) ) ;
#1165 = ADVANCED_FACE ( 'NONE', ( #924 ), #1131, .F. ) ;
#1166 = COORDINATED_UNIVERSAL_TIME_OFFSET ( 5, 30, .AHEAD. ) ;
#1167 = AXIS2_PLACEMENT_3D ( 'NONE', #169, #759, #880 ) ;
#1168 = EDGE_LOOP ( 'NONE', ( #1130, #521 ) ) ;
#1169 = APPROVAL_PERSON_ORGANIZATION ( #408, #71, #800 ) ;
#1170 = DIRECTION ( 'NONE',  ( -3.512815038853031200E-015, 1.000000000000000000, 0.0000000000000000000 ) ) ;
#1171 = FACE_OUTER_BOUND ( 'NONE', #1148, .T. ) ;
#1172 = CARTESIAN_POINT ( 'NONE',  ( 430.0000000000000600, 30.00000000000000000, -15.00000000000000000 ) ) ;
#1173 = ADVANCED_FACE ( 'NONE', ( #480 ), #982, .T. ) ;
#1174 = CARTESIAN_POINT ( 'NONE',  ( -24.69184610828013100, -390.7240794916115200, 35.00000000000000000 ) ) ;
#1175 = EDGE_CURVE ( 'NONE', #232, #794, #568, .T. ) ;
#1176 = EDGE_LOOP ( 'NONE', ( #105, #748, #825, #229 ) ) ;
#1177 = ORIENTED_EDGE ( 'NONE', *, *, #1115, .T. ) ;
#1178 = CARTESIAN_POINT ( 'NONE',  ( -121.6810076496609100, -30.00000000000000000, 15.00000000000000000 ) ) ;
#1179 = FACE_OUTER_BOUND ( 'NONE', #348, .T. ) ;
#1180 = EDGE_CURVE ( 'NONE', #754, #919, #511, .T. ) ;
#1181 = ORIENTED_EDGE ( 'NONE', *, *, #1218, .F. ) ;
#1182 = CYLINDRICAL_SURFACE ( 'NONE', #1141, 2.500000000000021300 ) ;
#1183 = DIRECTION ( 'NONE',  ( 0.0000000000000000000, -0.0000000000000000000, -1.000000000000000000 ) ) ;
#1184 = FACE_OUTER_BOUND ( 'NONE', #509, .T. ) ;
#1185 = CC_DESIGN_PERSON_AND_ORGANIZATION_ASSIGNMENT ( #878, #193, ( #30 ) ) ;
#1186 = FACE_OUTER_BOUND ( 'NONE', #45, .T. ) ;
#1187 = ADVANCED_FACE ( 'NONE', ( #390 ), #122, .T. ) ;
#1188 = DIRECTION ( 'NONE',  ( 0.0000000000000000000, 0.0000000000000000000, 1.000000000000000000 ) ) ;
#1189 = DIRECTION ( 'NONE',  ( 1.000000000000000000, 0.0000000000000000000, 0.0000000000000000000 ) ) ;
#1190 = DIRECTION ( 'NONE',  ( 0.0000000000000000000, 0.0000000000000000000, 1.000000000000000000 ) ) ;
#1191 = ORIENTED_EDGE ( 'NONE', *, *, #1067, .T. ) ;
#1192 = AXIS2_PLACEMENT_3D ( 'NONE', #1262, #999, #1004 ) ;
#1193 = CARTESIAN_POINT ( 'NONE',  ( -0.2079627999478361700, -0.5161166916636261700, -15.00000000000000000 ) ) ;
#1194 = EDGE_LOOP ( 'NONE', ( #1181, #1266, #284, #93 ) ) ;
#1195 = ORIENTED_EDGE ( 'NONE', *, *, #548, .F. ) ;
#1196 = DIRECTION ( 'NONE',  ( 0.0000000000000000000, -1.000000000000000000, 0.0000000000000000000 ) ) ;
#1197 = CALENDAR_DATE ( 2016, 31, 7 ) ;
#1198 = DIRECTION ( 'NONE',  ( -0.0000000000000000000, -0.0000000000000000000, -1.000000000000000000 ) ) ;
#1199 = LINE ( 'NONE', #1158, #1254 ) ;
#1200 = CYLINDRICAL_SURFACE ( 'NONE', #1123, 125.0000000000000000 ) ;
#1201 = EDGE_CURVE ( 'NONE', #443, #919, #911, .T. ) ;
#1202 = CIRCLE ( 'NONE', #763, 2.500000000000002200 ) ;
#1203 = CARTESIAN_POINT ( 'NONE',  ( 1.775920508387196900, 389.6918461082842700, 50.00000000000000000 ) ) ;
#1204 = ORIENTED_EDGE ( 'NONE', *, *, #1175, .T. ) ;
#1205 = VERTEX_POINT ( 'NONE', #1172 ) ;
#1206 = EDGE_CURVE ( 'NONE', #979, #756, #1199, .T. ) ;
#1207 = CARTESIAN_POINT ( 'NONE',  ( -0.2079627999478361700, -0.5161166916636261700, -15.00000000000000000 ) ) ;
#1208 = ORIENTED_EDGE ( 'NONE', *, *, #1235, .T. ) ;
#1209 = VERTEX_POINT ( 'NONE', #556 ) ;
#1210 = AXIS2_PLACEMENT_3D ( 'NONE', #542, #636, #529 ) ;
#1211 = DIRECTION ( 'NONE',  ( 0.0000000000000000000, 0.0000000000000000000, 1.000000000000000000 ) ) ;
#1212 = ORIENTED_EDGE ( 'NONE', *, *, #69, .T. ) ;
#1213 = CARTESIAN_POINT ( 'NONE',  ( -30.00000000000000000, -430.0000000000000600, 15.00000000000000000 ) ) ;
#1214 = CARTESIAN_POINT ( 'NONE',  ( 0.3081538917198772300, -390.7240794916115200, 15.00000000000000000 ) ) ;
#1215 = LINE ( 'NONE', #1163, #210 ) ;
#1216 = CIRCLE ( 'NONE', #13, 2.500000000000002200 ) ;
#1217 = FACE_OUTER_BOUND ( 'NONE', #810, .T. ) ;
#1218 = EDGE_CURVE ( 'NONE', #119, #1114, #465, .T. ) ;
#1219 = ORIENTED_EDGE ( 'NONE', *, *, #228, .F. ) ;
#1220 = PLANE ( 'NONE',  #345 ) ;
#1221 = VERTEX_POINT ( 'NONE', #462 ) ;
#1222 = ORIENTED_EDGE ( 'NONE', *, *, #1180, .F. ) ;
#1223 = EDGE_CURVE ( 'NONE', #1156, #603, #137, .T. ) ;
#1224 = CARTESIAN_POINT ( 'NONE',  ( 415.0000000000001100, 3.061616997868382300E-015, 15.00000000000000000 ) ) ;
#1225 = FACE_OUTER_BOUND ( 'NONE', #460, .T. ) ;
#1226 = FACE_OUTER_BOUND ( 'NONE', #1035, .T. ) ;
#1227 = DIRECTION ( 'NONE',  ( 0.0000000000000000000, 0.0000000000000000000, 1.000000000000000000 ) ) ;
#1228 = EDGE_CURVE ( 'NONE', #200, #232, #1215, .T. ) ;
#1229 = AXIS2_PLACEMENT_3D ( 'NONE', #374, #642, #161 ) ;
#1230 = VERTEX_POINT ( 'NONE', #968 ) ;
#1231 = ORIENTED_EDGE ( 'NONE', *, *, #956, .T. ) ;
#1232 = CARTESIAN_POINT ( 'NONE',  ( 0.0000000000000000000, 0.0000000000000000000, 15.00000000000000000 ) ) ;
#1233 = EDGE_LOOP ( 'NONE', ( #16, #43 ) ) ;
#1234 = CARTESIAN_POINT ( 'NONE',  ( 390.0000000000000600, 0.0000000000000000000, 15.00000000000000000 ) ) ;
#1235 = EDGE_CURVE ( 'NONE', #427, #672, #758, .T. ) ;
#1236 = DIRECTION ( 'NONE',  ( 0.0000000000000000000, 1.000000000000000000, -0.0000000000000000000 ) ) ;
#1237 = DIRECTION ( 'NONE',  ( 0.0000000000000000000, 0.0000000000000000000, 1.000000000000000000 ) ) ;
#1238 = ORIENTED_EDGE ( 'NONE', *, *, #464, .T. ) ;
#1239 = CYLINDRICAL_SURFACE ( 'NONE', #55, 2.500000000000021300 ) ;
#1240 = PLANE ( 'NONE',  #863 ) ;
#1241 = VECTOR ( 'NONE', #220, 1000.000000000000000 ) ;
#1242 = CARTESIAN_POINT ( 'NONE',  ( -0.2079627999478361700, -0.5161166916636261700, -15.00000000000000000 ) ) ;
#1243 = EDGE_CURVE ( 'NONE', #672, #575, #21, .T. ) ;
#1244 = DIRECTION ( 'NONE',  ( 1.000000000000000000, 0.0000000000000000000, 0.0000000000000000000 ) ) ;
#1245 = ORIENTED_EDGE ( 'NONE', *, *, #318, .F. ) ;
#1246 = DIRECTION ( 'NONE',  ( 0.0000000000000000000, 0.0000000000000000000, 1.000000000000000000 ) ) ;
#1247 = ORIENTED_EDGE ( 'NONE', *, *, #591, .F. ) ;
#1248 = EDGE_LOOP ( 'NONE', ( #847, #305, #1222, #120 ) ) ;
#1249 = VERTEX_POINT ( 'NONE', #73 ) ;
#1250 = DIRECTION ( 'NONE',  ( 1.047339298620996300E-014, -1.000000000000000000, 0.0000000000000000000 ) ) ;
#1251 = ADVANCED_FACE ( 'NONE', ( #6 ), #225, .T. ) ;
#1252 = AXIS2_PLACEMENT_3D ( 'NONE', #319, #212, #104 ) ;
#1253 = CARTESIAN_POINT ( 'NONE',  ( 24.27592050838718400, 389.6918461082842700, 15.00000000000000000 ) ) ;
#1254 = VECTOR ( 'NONE', #1054, 1000.000000000000000 ) ;
#1255 = DIRECTION ( 'NONE',  ( 0.0000000000000000000, 0.0000000000000000000, 1.000000000000000000 ) ) ;
#1256 = CARTESIAN_POINT ( 'NONE',  ( 0.3081538917198772300, -390.7240794916115200, 35.00000000000000000 ) ) ;
#1257 = LINE ( 'NONE', #807, #1241 ) ;
#1258 = ADVANCED_FACE ( 'NONE', ( #1271 ), #537, .T. ) ;
#1259 = CARTESIAN_POINT ( 'NONE',  ( -430.0000000000000600, 0.0000000000000000000, -15.00000000000000000 ) ) ;
#1260 = DIRECTION ( 'NONE',  ( 1.000000000000000000, -0.0000000000000000000, 0.0000000000000000000 ) ) ;
#1261 = EDGE_CURVE ( 'NONE', #233, #927, #321, .T. ) ;
#1262 = CARTESIAN_POINT ( 'NONE',  ( -0.7240794916128247000, 389.6918461082842700, 35.00000000000000000 ) ) ;
#1263 = APPROVAL ( #496, 'UNSPECIFIED' ) ;
#1264 = ORIENTED_EDGE ( 'NONE', *, *, #1154, .T. ) ;
#1265 = PLANE ( 'NONE',  #302 ) ;
#1266 = ORIENTED_EDGE ( 'NONE', *, *, #382, .F. ) ;
#1267 = DIRECTION ( 'NONE',  ( -0.0000000000000000000, -0.0000000000000000000, -1.000000000000000000 ) ) ;
#1268 = ADVANCED_FACE ( 'NONE', ( #254 ), #158, .F. ) ;
#1269 = DIRECTION ( 'NONE',  ( 1.047339298620996300E-014, -1.000000000000000000, 0.0000000000000000000 ) ) ;
#1270 = EDGE_CURVE ( 'NONE', #196, #1017, #50, .T. ) ;
#1271 = FACE_OUTER_BOUND ( 'NONE', #867, .T. ) ;
#1272 = DIRECTION ( 'NONE',  ( -0.0000000000000000000, 0.0000000000000000000, 1.000000000000000000 ) ) ;
#1273 = FACE_OUTER_BOUND ( 'NONE', #367, .T. ) ;
#1274 = FACE_OUTER_BOUND ( 'NONE', #1248, .T. ) ;
#1275 = CARTESIAN_POINT ( 'NONE',  ( 390.0000000000000600, 0.0000000000000000000, 35.00000000000000000 ) ) ;
#1276 = CARTESIAN_POINT ( 'NONE',  ( 390.0000000000000600, 0.0000000000000000000, 35.00000000000000000 ) ) ;
#1277 = AXIS2_PLACEMENT_3D ( 'NONE', #1099, #113, #18 ) ;
#1278 = CARTESIAN_POINT ( 'NONE',  ( -390.4159255998957300, -1.032233383327252300, 35.00000000000000000 ) ) ;
#1279 = EDGE_LOOP ( 'NONE', ( #616, #562 ) ) ;
#1280 = ORIENTED_EDGE ( 'NONE', *, *, #183, .T. ) ;
#1281 = DIRECTION ( 'NONE',  ( -1.000000000000000000, 0.0000000000000000000, 0.0000000000000000000 ) ) ;
ENDSEC;
END-ISO-10303-21;
