G04 DipTrace 3.0.0.1*
G04 Bottom.gbr*
%MOIN*%
G04 #@! TF.FileFunction,Copper,L2,Bot*
G04 #@! TF.Part,Single*
G04 #@! TA.AperFunction,CopperBalancing*
%ADD10C,0.009843*%
G04 #@! TA.AperFunction,Conductor*
%ADD14C,0.019685*%
%ADD15C,0.023622*%
G04 #@! TA.AperFunction,CopperBalancing*
%ADD16C,0.012992*%
%ADD17C,0.025*%
%ADD18R,0.070866X0.062992*%
%ADD19R,0.059055X0.051181*%
%ADD20R,0.062992X0.070866*%
G04 #@! TA.AperFunction,ComponentPad*
%ADD23R,0.066929X0.066929*%
%ADD24C,0.066929*%
%ADD29R,0.059055X0.059055*%
%ADD30C,0.059055*%
%ADD31R,0.051181X0.059055*%
G04 #@! TA.AperFunction,ComponentPad*
%ADD36C,0.048*%
G04 #@! TA.AperFunction,ViaPad*
%ADD38C,0.059055*%
%ADD40C,0.04*%
%FSLAX26Y26*%
G04*
G70*
G90*
G75*
G01*
G04 Bottom*
%LPD*%
X2300394Y839173D2*
D14*
X2450394D1*
Y814173D1*
X1800394Y2464173D2*
X1700394D1*
X2800394Y2314173D2*
X2775394Y2339173D1*
Y2389173D1*
X2300394Y839173D2*
X2750394D1*
Y1114173D1*
X1200394Y2589173D2*
X1525394Y2264173D1*
Y2257346D1*
Y2164173D1*
X1675394Y2014173D1*
X950394Y1764173D2*
X1012894D1*
X1162894Y1914173D1*
X1700394Y2464173D2*
Y2389173D1*
X1568567Y2257346D1*
X1525394D1*
X2375394Y1314173D2*
X2387894D1*
X2562894Y1139173D1*
Y839173D1*
X2425394D1*
X2450394Y814173D1*
X2800394Y2314173D2*
X2718228Y2232008D1*
X2365236D1*
X2332559Y2199331D1*
Y1757008D1*
X2375394Y1714173D1*
X1225394Y814173D2*
D15*
X1100394D1*
X925394D1*
X875394Y864173D1*
Y2189173D1*
X750394Y2314173D1*
X700394D1*
X1925394Y914173D2*
D14*
X1825394D1*
X1725394D1*
X1625394D1*
X1525394D1*
X1425394D1*
X1325394D1*
X1225394D1*
X1110630D1*
X1100394Y924409D1*
X2450394Y914173D2*
X2335630D1*
X2300394Y949409D1*
X2775394Y2499409D2*
Y2589173D1*
X2750394Y2614173D1*
X1300394Y2014370D2*
X1375000D1*
X1375394Y2013976D1*
X1513091D1*
X1612892Y1914175D1*
X1675394D1*
X950394Y2239173D2*
X1050394D1*
Y2163976D1*
X1425394Y2589173D2*
X1325394D1*
X1450394Y2464173D1*
X1590157D1*
X2300394Y949409D2*
Y951673D1*
X2025394D1*
X1987894Y914173D1*
X1925394D1*
X950394Y1464173D2*
Y1326673D1*
X1037894Y1239173D1*
Y1201673D1*
X1050394Y1189173D1*
X1425394Y1264173D2*
Y914173D1*
Y1264173D2*
Y1464173D1*
Y1614173D1*
X1500394Y1689173D1*
Y1801673D1*
X1612895Y1914175D1*
X950394Y1464173D2*
X1425394D1*
X600394Y1614173D2*
X700394D1*
Y1514173D1*
X787894D1*
X800394Y1526673D1*
Y1614173D1*
X787894Y1626673D1*
X712894D1*
X700394Y1614173D1*
X2837894Y889173D2*
D16*
Y1114173D1*
X3100394Y2314173D2*
X3149409D1*
X3200394D1*
X2100394Y2589173D2*
X2025394D1*
X2225394Y2539173D2*
X2375394D1*
X2425394Y2589173D1*
X2450394D1*
X2300394D2*
X2350394D1*
X2450394Y2689173D1*
X2025394Y2514370D2*
X2138898D1*
X2164882Y2540354D1*
Y2807677D1*
X2190866Y2833661D1*
X3230906D1*
X3301378Y2763189D1*
Y1140157D1*
X3275394Y1114173D1*
X3100394D1*
X3212894Y1389173D2*
X3249409Y1425689D1*
Y2627677D1*
X3223425Y2653661D1*
X2677902D1*
X2613413Y2589173D1*
X2525197D1*
X3225394Y1214173D2*
X3100394D1*
X2525197Y2689173D2*
X3249409D1*
X3275394Y2663189D1*
Y1340157D1*
X3249409Y1314173D1*
X3100394D1*
X2675197Y664173D2*
Y737205D1*
X2701181Y763189D1*
D10*
X3149409D1*
D16*
Y865157D1*
X3100394Y914173D1*
Y1014173D2*
X3212894D1*
X1028858Y975394D2*
X920197D1*
X749409Y645669D2*
Y865157D1*
X700394Y914173D1*
X3249409Y501350D2*
X3275394D1*
Y1063189D1*
D10*
X3049409D1*
Y1363189D1*
D16*
X3100394Y1414173D1*
X2211417Y540839D2*
X2858845D1*
X2884831Y566823D1*
Y645807D1*
X2261142Y580327D2*
X571740D1*
X525394Y626673D1*
Y1476673D1*
X562894Y1514173D1*
X600394D1*
X2937874Y2363189D2*
X2949409D1*
X3000394Y2414173D1*
X1375394Y2213976D2*
Y2139173D1*
X1325394Y2089173D1*
X1300394D1*
X1675394Y1414173D2*
X1865866Y1604646D1*
Y2628661D1*
X1792854Y2701673D1*
X787894D1*
X600394Y2514173D1*
X950394Y2039173D2*
X1000394D1*
X1050394Y2089173D1*
X2525394Y1951673D2*
Y2013618D1*
X2545831Y2034055D1*
X2923425D1*
X2949409Y2008071D1*
Y1865157D1*
X3000394Y1814173D1*
X2197374Y1663189D2*
Y1918843D1*
X2937874Y2288110D2*
X2962795Y2263189D1*
X3149409D1*
X3200394Y2212205D1*
Y1614173D1*
X3149409Y1563189D1*
D10*
X3049409D1*
D16*
X3000394Y1514173D1*
X2618898Y1839787D2*
Y1189173D1*
X2644882Y1163189D1*
X2899408D1*
X2925394Y1137205D1*
Y989173D1*
X3000394Y914173D1*
X2480354Y1997819D2*
Y2031634D1*
X2511909Y2063189D1*
X3051378D1*
X3100394Y2014173D1*
X2856575Y2102677D2*
X2493858D1*
X2925394Y2464173D2*
X3050394D1*
X3100394Y2414173D1*
X2514055Y2163189D2*
X3151378D1*
X3162894Y2151673D1*
Y1689173D1*
X3136909Y1663189D1*
D10*
X3049409D1*
D16*
X3000394Y1614173D1*
X2012894Y2114173D2*
Y2401673D1*
X2087894Y2476673D1*
X2662894D1*
X2700394Y2439173D1*
D10*
X2830315D1*
D16*
Y2537205D1*
X2856299Y2563189D1*
X3051378D1*
X3100394Y2514173D1*
X2800394Y1739173D2*
X2775394D1*
X2900394Y1289370D2*
X2825197Y1214173D1*
X2750394D1*
X2675398Y1123701D2*
X2618209D1*
X2592224Y1149685D1*
Y1750571D1*
X2579409Y1763386D1*
X2750394Y1214173D2*
X2675398D1*
X2800394Y1814173D2*
Y1914173D1*
X2675394Y1514173D2*
Y1714173D1*
X2775394Y1814173D1*
X2800394D1*
X1286614Y2866461D2*
X3260606D1*
X3327362Y2799705D1*
Y487846D1*
X3301378Y461862D1*
X3201378D1*
X3175394Y487846D1*
Y937205D1*
X3149409Y963189D1*
D10*
X3049409D1*
Y863189D1*
D16*
X3000394Y814173D1*
Y540843D2*
Y714173D1*
X475394Y1201673D2*
Y1514173D1*
X512894Y1551673D1*
Y2064173D1*
D10*
X737894D1*
D16*
X762894Y2089173D1*
Y2101673D1*
X3100394Y1514173D2*
X3200394D1*
X700394Y2514173D2*
X775394D1*
X825394Y2464173D1*
X600394Y2414173D2*
X549409D1*
X500394D1*
X700394D2*
X775394D1*
X825394Y2364173D1*
X2450394Y714173D2*
X2550394D1*
X2600394Y664173D1*
X2716614Y1593150D2*
X2900394Y1409370D1*
Y1364173D1*
X2477012Y1593150D2*
X2247051Y1363189D1*
X1624409D1*
Y1763190D1*
X1675394Y1814175D1*
X2900394Y1364173D2*
X2950394D1*
X3000394Y1414173D1*
X2800394Y1988976D2*
X2598819D1*
X2572835Y1962992D1*
Y1936614D1*
X2515575Y1879354D1*
X2413858D1*
X2387874Y1905339D1*
Y2057008D1*
X1675394Y1714173D2*
X1772453Y1811232D1*
Y2057008D1*
X2387874D2*
Y2176693D1*
X2413858Y2202677D1*
X2830315D1*
X2856299Y2228661D1*
Y2488189D1*
X2882283Y2514173D1*
X3000394D1*
D38*
X1575394Y1514173D3*
Y1214173D3*
Y1314173D3*
Y1114173D3*
Y1614173D3*
D40*
X1800394Y2464173D3*
X2750394Y2614173D3*
X2800394Y2314173D3*
X1500394Y1689173D3*
X1425394Y1264173D3*
X2100394Y2589173D3*
X2225394Y2539173D3*
X2300394Y2589173D3*
X2662894Y1914173D3*
X2125394Y2739173D3*
X825394Y2589173D3*
X1200394D3*
X2800394Y1814173D3*
Y1739173D3*
X2675394Y1514173D3*
X1425394Y2589173D3*
X1162894Y1914173D3*
X2375394Y1314173D3*
X475394Y1201673D3*
X2325394Y2739173D3*
X2837894Y1114173D3*
Y889173D3*
X2750394Y2739173D3*
X2375394Y1714173D3*
X3212894Y1389173D3*
X3225394Y1214173D3*
X920197Y975394D3*
X1028858D3*
X749409Y645669D3*
X3249409Y501350D3*
X2211417Y540839D3*
X2884831Y645807D3*
X2261142Y580327D3*
X2937874Y2363189D3*
X2197374Y1663189D3*
Y1918843D3*
X2525394Y1951673D3*
X2937874Y2288110D3*
X2618898Y1839787D3*
X2480354Y1997819D3*
X2493858Y2102677D3*
X2856575D3*
X2925394Y2464173D3*
X2514055Y2163189D3*
X2012894Y2114173D3*
X2579409Y1763386D3*
X2675398Y1123701D3*
Y1214173D3*
X1286614Y2866461D3*
X3000394Y540843D3*
X762894Y2101673D3*
X2716614Y1593150D3*
X2477012D3*
X1772453Y2057008D3*
X2387874D3*
X448096Y2876017D2*
D17*
X1231816D1*
X448096Y2851148D2*
X1233184D1*
X448096Y2826280D2*
X1249248D1*
X1323974D2*
X2127324D1*
X448096Y2801411D2*
X2122685D1*
X448096Y2776542D2*
X2122685D1*
X2207080D2*
X3229424D1*
X448096Y2751673D2*
X2122685D1*
X2207080D2*
X2389140D1*
X2586474D2*
X3254277D1*
X448096Y2726804D2*
X754424D1*
X1826318D2*
X2122685D1*
X2207080D2*
X2389140D1*
X448096Y2701936D2*
X729521D1*
X1851220D2*
X2122685D1*
X2207080D2*
X2389140D1*
X448096Y2677067D2*
X704668D1*
X1876073D2*
X2122685D1*
X2207080D2*
X2379668D1*
X448096Y2652198D2*
X679814D1*
X797021D2*
X1783720D1*
X1900293D2*
X2122685D1*
X2207080D2*
X2354814D1*
X448096Y2627329D2*
X654912D1*
X772168D2*
X1160820D1*
X1239941D2*
X1808573D1*
X1908056D2*
X1960185D1*
X2207080D2*
X2260820D1*
X448096Y2602461D2*
X630058D1*
X747314D2*
X1146416D1*
X1254394D2*
X1823661D1*
X1908056D2*
X1960185D1*
X2207080D2*
X2246416D1*
X2685302D2*
X2848125D1*
X3059570D2*
X3207206D1*
X448096Y2577592D2*
X605205D1*
X722412D2*
X1145976D1*
X1275341D2*
X1823661D1*
X1908056D2*
X1960185D1*
X2660449D2*
X2812089D1*
X3095605D2*
X3207206D1*
X448096Y2552723D2*
X535185D1*
X787304D2*
X1159160D1*
X1300196D2*
X1823661D1*
X1908056D2*
X1960185D1*
X2631592D2*
X2704277D1*
X3165625D2*
X3207206D1*
X448096Y2527854D2*
X535185D1*
X820312D2*
X1198369D1*
X1325049D2*
X1522978D1*
X1767577D2*
X1823661D1*
X1908056D2*
X1960185D1*
X2586474D2*
X2704277D1*
X3165625D2*
X3207206D1*
X448096Y2502986D2*
X535185D1*
X890625D2*
X1223222D1*
X1349950D2*
X1522978D1*
X1908056D2*
X1960185D1*
X2695214D2*
X2704281D1*
X3165625D2*
X3207206D1*
X448096Y2478117D2*
X535185D1*
X890625D2*
X1248076D1*
X1374804D2*
X1522978D1*
X1908056D2*
X1960185D1*
X3165625D2*
X3207206D1*
X890625Y2453248D2*
X1272978D1*
X1399657D2*
X1522978D1*
X1908056D2*
X2005840D1*
X3165625D2*
X3207206D1*
X890625Y2428379D2*
X1297832D1*
X1424560D2*
X1522978D1*
X1908056D2*
X1981034D1*
X2543505D2*
X2652568D1*
X3165625D2*
X3207206D1*
X890625Y2403510D2*
X1322685D1*
X1449413D2*
X1522978D1*
X1767577D2*
X1823661D1*
X1908056D2*
X1970732D1*
X2073340D2*
X2100566D1*
X2544970D2*
X2680497D1*
X3165625D2*
X3207206D1*
X890625Y2378642D2*
X1347588D1*
X1474268D2*
X1626493D1*
X1744629D2*
X1823661D1*
X1908056D2*
X1970732D1*
X2055077D2*
X2100566D1*
X2544970D2*
X2704277D1*
X3165625D2*
X3207206D1*
X890625Y2353773D2*
X1372441D1*
X1499121D2*
X1601640D1*
X1728320D2*
X1823661D1*
X1908056D2*
X1970732D1*
X2055077D2*
X2100566D1*
X2544970D2*
X2704277D1*
X448096Y2328904D2*
X535185D1*
X890625D2*
X1397294D1*
X1524024D2*
X1576786D1*
X1703466D2*
X1823661D1*
X1908056D2*
X1970732D1*
X2055077D2*
X2100566D1*
X2544970D2*
X2704277D1*
X448096Y2304035D2*
X535185D1*
X890625D2*
X1422197D1*
X1678613D2*
X1823661D1*
X1908056D2*
X1970732D1*
X2055077D2*
X2100664D1*
X2544824D2*
X2726885D1*
X448096Y2279167D2*
X535185D1*
X851513D2*
X907012D1*
X993749D2*
X1447050D1*
X1653760D2*
X1823661D1*
X1908056D2*
X1970732D1*
X2055077D2*
X2111064D1*
X2534424D2*
X2702030D1*
X448096Y2254298D2*
X535185D1*
X876416D2*
X892774D1*
X1008056D2*
X1332353D1*
X1418457D2*
X1471904D1*
X1628857D2*
X1823661D1*
X1908056D2*
X1970732D1*
X2055077D2*
X2324198D1*
X448096Y2229429D2*
X535185D1*
X1009228D2*
X1317852D1*
X1432958D2*
X1479862D1*
X1604004D2*
X1823661D1*
X1908056D2*
X1970732D1*
X2055077D2*
X2299297D1*
X448096Y2204560D2*
X535185D1*
X765625D2*
X793877D1*
X1115625D2*
X1316484D1*
X1434277D2*
X1479862D1*
X1570898D2*
X1823661D1*
X1908056D2*
X1970732D1*
X2055077D2*
X2287333D1*
X448096Y2179692D2*
X535185D1*
X765625D2*
X818730D1*
X922900D2*
X985185D1*
X1115625D2*
X1327129D1*
X1423681D2*
X1479862D1*
X1573241D2*
X1823661D1*
X1908056D2*
X1970732D1*
X2055077D2*
X2287041D1*
X448096Y2154823D2*
X535185D1*
X767333D2*
X827909D1*
X922900D2*
X985185D1*
X1115625D2*
X1332402D1*
X1417577D2*
X1480888D1*
X1598096D2*
X1823661D1*
X1908056D2*
X1970732D1*
X2055077D2*
X2287041D1*
X2430077D2*
X2459013D1*
X448096Y2129954D2*
X535185D1*
X810449D2*
X827909D1*
X922900D2*
X985185D1*
X1115625D2*
X1235185D1*
X1416504D2*
X1496269D1*
X1622949D2*
X1823661D1*
X1908056D2*
X1959600D1*
X2066161D2*
X2287041D1*
X2430077D2*
X2445684D1*
X448096Y2105085D2*
X535185D1*
X818457D2*
X827930D1*
X922900D2*
X985185D1*
X1115625D2*
X1235185D1*
X1399902D2*
X1521122D1*
X1647852D2*
X1747197D1*
X1797705D2*
X1823661D1*
X1908056D2*
X1957988D1*
X2067773D2*
X2287041D1*
X2430077D2*
X2438256D1*
X448096Y2080217D2*
X474101D1*
X814062D2*
X827924D1*
X1115625D2*
X1235185D1*
X1375049D2*
X1545976D1*
X1672705D2*
X1722100D1*
X1908056D2*
X1969462D1*
X2056348D2*
X2287041D1*
X448096Y2055348D2*
X470732D1*
X791504D2*
X827909D1*
X1115625D2*
X1235185D1*
X1417382D2*
X1570878D1*
X1908056D2*
X2287041D1*
X448096Y2030479D2*
X470732D1*
X765625D2*
X827909D1*
X1115625D2*
X1235185D1*
X1432665D2*
X1595732D1*
X1908056D2*
X2287041D1*
X448096Y2005610D2*
X470732D1*
X765625D2*
X827909D1*
X1024072D2*
X1235185D1*
X1434472D2*
X1610185D1*
X1814648D2*
X1823664D1*
X1908056D2*
X2287041D1*
X448096Y1980741D2*
X470732D1*
X765625D2*
X827909D1*
X922900D2*
X1235185D1*
X1424413D2*
X1610185D1*
X1814648D2*
X1823664D1*
X1908056D2*
X2287041D1*
X2865625D2*
X2907206D1*
X448096Y1955873D2*
X470732D1*
X765625D2*
X827909D1*
X922900D2*
X1127373D1*
X1198388D2*
X1235185D1*
X1365625D2*
X1610185D1*
X1814648D2*
X1823664D1*
X1908056D2*
X2156718D1*
X2238037D2*
X2287041D1*
X2430077D2*
X2445146D1*
X2865625D2*
X2907206D1*
X448096Y1931004D2*
X470732D1*
X765625D2*
X827909D1*
X922900D2*
X1109941D1*
X1215869D2*
X1610185D1*
X1814648D2*
X1823664D1*
X1908056D2*
X2143096D1*
X2251660D2*
X2287041D1*
X2430077D2*
X2473906D1*
X2614600D2*
X2735185D1*
X2865625D2*
X2907206D1*
X448096Y1906135D2*
X470732D1*
X765625D2*
X827909D1*
X922900D2*
X1091484D1*
X1217969D2*
X1610185D1*
X1814648D2*
X1823664D1*
X1908056D2*
X2143241D1*
X2251513D2*
X2287041D1*
X2600976D2*
X2735185D1*
X2865625D2*
X2907206D1*
X448096Y1881266D2*
X470732D1*
X765625D2*
X827909D1*
X922900D2*
X1066630D1*
X1207177D2*
X1610185D1*
X1814648D2*
X1823664D1*
X1908056D2*
X2155205D1*
X2239550D2*
X2287041D1*
X2654688D2*
X2735185D1*
X2865625D2*
X2907206D1*
X448096Y1856398D2*
X470732D1*
X765625D2*
X827909D1*
X922900D2*
X1041777D1*
X1168457D2*
X1610185D1*
X1814648D2*
X1823664D1*
X1908056D2*
X2155205D1*
X2239550D2*
X2287041D1*
X2551220D2*
X2565894D1*
X2671924D2*
X2735185D1*
X2865625D2*
X2908184D1*
X448096Y1831529D2*
X470732D1*
X765625D2*
X827909D1*
X922900D2*
X1016924D1*
X1143604D2*
X1610185D1*
X1814648D2*
X1823664D1*
X1908056D2*
X2155205D1*
X2239550D2*
X2287041D1*
X2378076D2*
X2563848D1*
X2673925D2*
X2734112D1*
X2853173D2*
X2924444D1*
X448096Y1806660D2*
X470732D1*
X765625D2*
X827909D1*
X1118749D2*
X1609257D1*
X1814356D2*
X1823651D1*
X1908056D2*
X2155205D1*
X2239550D2*
X2287041D1*
X2378076D2*
X2545976D1*
X2662988D2*
X2709257D1*
X2855566D2*
X2935185D1*
X448096Y1781791D2*
X470732D1*
X765625D2*
X827909D1*
X1093848D2*
X1586845D1*
X1801612D2*
X1823661D1*
X1908056D2*
X2155205D1*
X2239550D2*
X2287041D1*
X2378076D2*
X2527030D1*
X2661084D2*
X2684404D1*
X2845068D2*
X2935185D1*
X448096Y1756923D2*
X470732D1*
X765625D2*
X827909D1*
X1068993D2*
X1582206D1*
X1776757D2*
X1823661D1*
X1908056D2*
X2155205D1*
X2239550D2*
X2287041D1*
X2409521D2*
X2524101D1*
X2853028D2*
X2935185D1*
X448096Y1732054D2*
X470732D1*
X765625D2*
X827909D1*
X1044042D2*
X1582206D1*
X1751904D2*
X1823661D1*
X1908056D2*
X2155205D1*
X2239550D2*
X2295000D1*
X2427978D2*
X2533916D1*
X2855614D2*
X2935185D1*
X448096Y1707185D2*
X470732D1*
X765625D2*
X827909D1*
X1015625D2*
X1582206D1*
X1740625D2*
X1823661D1*
X1908056D2*
X2155205D1*
X2239550D2*
X2319024D1*
X2430614D2*
X2550029D1*
X2727001D2*
X2749394D1*
X2845361D2*
X2935185D1*
X448096Y1682316D2*
X470732D1*
X765625D2*
X827909D1*
X1012940D2*
X1582206D1*
X1740625D2*
X1823661D1*
X1908056D2*
X2145244D1*
X2249512D2*
X2330302D1*
X2420458D2*
X2550029D1*
X2717577D2*
X2935185D1*
X448096Y1657448D2*
X470732D1*
X765625D2*
X827909D1*
X1015234D2*
X1527520D1*
X1740625D2*
X1823661D1*
X1908056D2*
X2142021D1*
X2252734D2*
X2550029D1*
X2717577D2*
X2935185D1*
X448096Y1632579D2*
X470732D1*
X765625D2*
X827909D1*
X1007080D2*
X1512920D1*
X1740625D2*
X1823661D1*
X1908056D2*
X2151396D1*
X2243360D2*
X2438798D1*
X2515185D2*
X2550029D1*
X2754785D2*
X2935185D1*
X448096Y1607710D2*
X470732D1*
X765625D2*
X827909D1*
X998046D2*
X1510528D1*
X1740625D2*
X1810332D1*
X1908056D2*
X2423369D1*
X2530664D2*
X2550029D1*
X2770264D2*
X2935185D1*
X448096Y1582841D2*
X470732D1*
X765625D2*
X827909D1*
X1012744D2*
X1518584D1*
X1740625D2*
X1785429D1*
X1901513D2*
X2408085D1*
X2531689D2*
X2550029D1*
X2785546D2*
X2935185D1*
X448096Y1557972D2*
X460608D1*
X765625D2*
X827909D1*
X1015282D2*
X1528008D1*
X1740625D2*
X1760576D1*
X1877832D2*
X2383232D1*
X2519385D2*
X2550029D1*
X2810400D2*
X2935185D1*
X765625Y1533104D2*
X827909D1*
X1007373D2*
X1513114D1*
X1852929D2*
X2358329D1*
X2475585D2*
X2550029D1*
X2835253D2*
X2935185D1*
X765625Y1508235D2*
X827909D1*
X997509D2*
X1510478D1*
X1828076D2*
X2333476D1*
X2450732D2*
X2550029D1*
X2730761D2*
X2742902D1*
X2860156D2*
X2935185D1*
X765625Y1483366D2*
X827909D1*
X1012597D2*
X1518290D1*
X1803222D2*
X2308622D1*
X2425829D2*
X2550029D1*
X2721240D2*
X2767802D1*
X2885009D2*
X2935185D1*
X1015332Y1458497D2*
X1544024D1*
X1778320D2*
X2283720D1*
X2400976D2*
X2550029D1*
X2661084D2*
X2703545D1*
X2909862D2*
X2935185D1*
X1007665Y1433629D2*
X1582206D1*
X1753466D2*
X2258866D1*
X2376122D2*
X2550029D1*
X2661084D2*
X2688261D1*
X982276Y1408760D2*
X1582206D1*
X1740625D2*
X2234013D1*
X2351220D2*
X2550029D1*
X2661084D2*
X2685429D1*
X2815381D2*
X2835185D1*
X922900Y1383891D2*
X1582206D1*
X2326366D2*
X2550029D1*
X2661084D2*
X2692997D1*
X2807812D2*
X2835185D1*
X922900Y1359022D2*
X1529081D1*
X2301513D2*
X2344316D1*
X2406493D2*
X2550029D1*
X2661084D2*
X2704081D1*
X2796728D2*
X2835185D1*
X765625Y1334154D2*
X827909D1*
X922900D2*
X1513457D1*
X2276612D2*
X2323613D1*
X2431249D2*
X2550029D1*
X2661084D2*
X2688457D1*
X2812353D2*
X2835185D1*
X765625Y1309285D2*
X827909D1*
X922900D2*
X1510381D1*
X1740625D2*
X2319950D1*
X2456152D2*
X2550029D1*
X2661084D2*
X2685381D1*
X2815429D2*
X2835185D1*
X765625Y1284416D2*
X827909D1*
X922900D2*
X1517705D1*
X1740625D2*
X2328789D1*
X2481005D2*
X2550029D1*
X2661084D2*
X2692705D1*
X2808105D2*
X2835185D1*
X765625Y1259547D2*
X827909D1*
X922900D2*
X1529618D1*
X1740625D2*
X2379180D1*
X2505860D2*
X2550029D1*
X2796192D2*
X2811944D1*
X765625Y1234678D2*
X827909D1*
X996045D2*
X1004748D1*
X1215625D2*
X1513652D1*
X1740625D2*
X2404033D1*
X2530761D2*
X2550029D1*
X765625Y1209810D2*
X827909D1*
X1215625D2*
X1510332D1*
X1740625D2*
X2428886D1*
X765625Y1184941D2*
X827909D1*
X1215625D2*
X1517412D1*
X1740625D2*
X2453789D1*
X765625Y1160072D2*
X827909D1*
X1215625D2*
X1530156D1*
X1740625D2*
X2478642D1*
X448096Y1135203D2*
X483232D1*
X765625D2*
X827909D1*
X1215625D2*
X1513798D1*
X1740625D2*
X2503496D1*
X448096Y1110335D2*
X483232D1*
X765625D2*
X827909D1*
X1211913D2*
X1510282D1*
X1740625D2*
X2517362D1*
X2815625D2*
X2883232D1*
X448096Y1085466D2*
X483232D1*
X765625D2*
X827909D1*
X1215478D2*
X1517118D1*
X1740625D2*
X2517362D1*
X2815625D2*
X2883232D1*
X448096Y1060597D2*
X483232D1*
X1208740D2*
X1540312D1*
X1740625D2*
X2517362D1*
X2608398D2*
X2685185D1*
X2815625D2*
X2883232D1*
X448096Y1035728D2*
X483232D1*
X985693D2*
X1015068D1*
X1085693D2*
X1115068D1*
X1185693D2*
X2517362D1*
X2608398D2*
X2704862D1*
X2795898D2*
X2883232D1*
X448096Y1010860D2*
X483232D1*
X1070996D2*
X2229277D1*
X2371533D2*
X2517362D1*
X2608398D2*
X2704862D1*
X2795898D2*
X2883232D1*
X448096Y985991D2*
X483232D1*
X1171533D2*
X2229277D1*
X2371533D2*
X2517362D1*
X2608398D2*
X2704862D1*
X2795898D2*
X2883329D1*
X448096Y961122D2*
X483232D1*
X1975196D2*
X2229277D1*
X2371533D2*
X2400566D1*
X2500196D2*
X2517400D1*
X2608398D2*
X2704862D1*
X2795898D2*
X2894804D1*
X448096Y936253D2*
X483232D1*
X765625D2*
X827909D1*
X1990772D2*
X2229277D1*
X2371533D2*
X2384990D1*
X2608398D2*
X2704862D1*
X2795898D2*
X2919706D1*
X3217577D2*
X3233232D1*
X448096Y911385D2*
X483232D1*
X765625D2*
X827909D1*
X922900D2*
X1029277D1*
X1994482D2*
X2229277D1*
X2371533D2*
X2381280D1*
X2608398D2*
X2704862D1*
X2795898D2*
X2935185D1*
X3217577D2*
X3233232D1*
X448096Y886516D2*
X483232D1*
X785352D2*
X827909D1*
X922900D2*
X1029277D1*
X1988525D2*
X2229277D1*
X2371533D2*
X2387236D1*
X2608398D2*
X2704862D1*
X2795898D2*
X2935185D1*
X3217577D2*
X3233232D1*
X448096Y861647D2*
X483232D1*
X944042D2*
X1029277D1*
X1974657D2*
X2229277D1*
X2795898D2*
X2935185D1*
X3217577D2*
X3233232D1*
X448096Y836778D2*
X483232D1*
X1990576D2*
X2229277D1*
X2795849D2*
X2935185D1*
X3217577D2*
X3233232D1*
X448096Y811909D2*
X483232D1*
X1994482D2*
X2229277D1*
X2786181D2*
X2935185D1*
X3217577D2*
X3233232D1*
X448096Y787041D2*
X483232D1*
X865625D2*
X886406D1*
X1988769D2*
X2229277D1*
X2371533D2*
X2387041D1*
X2513769D2*
X2666436D1*
X3217577D2*
X3233232D1*
X448096Y762172D2*
X483232D1*
X865625D2*
X1029277D1*
X1974121D2*
X2381230D1*
X2519530D2*
X2641874D1*
X3217577D2*
X3233232D1*
X448096Y737303D2*
X483232D1*
X865625D2*
X1160381D1*
X1990381D2*
X2381230D1*
X2585888D2*
X2633037D1*
X3217577D2*
X3233232D1*
X448096Y712434D2*
X483232D1*
X865625D2*
X1156280D1*
X1994530D2*
X2381230D1*
X2736474D2*
X2935185D1*
X3217577D2*
X3233232D1*
X448096Y687566D2*
X483232D1*
X865625D2*
X1161797D1*
X1989013D2*
X2381230D1*
X2736474D2*
X2849394D1*
X2920264D2*
X2935185D1*
X3217577D2*
X3233232D1*
X448096Y662697D2*
X483232D1*
X865625D2*
X1180546D1*
X1270214D2*
X1280541D1*
X1370214D2*
X1380541D1*
X1470214D2*
X1480541D1*
X1570214D2*
X1580541D1*
X1670214D2*
X1680541D1*
X1770214D2*
X1780541D1*
X1870214D2*
X1880541D1*
X1970214D2*
X2381230D1*
X2519530D2*
X2539140D1*
X2736474D2*
X2831913D1*
X3217577D2*
X3233232D1*
X448096Y637828D2*
X483232D1*
X572852D2*
X694316D1*
X804492D2*
X2539140D1*
X2736474D2*
X2829765D1*
X2939892D2*
X2958232D1*
X3042577D2*
X3133232D1*
X3217577D2*
X3233232D1*
X448096Y612959D2*
X485673D1*
X2305614D2*
X2539140D1*
X2736474D2*
X2840508D1*
X2929150D2*
X2958232D1*
X3042577D2*
X3133232D1*
X3217577D2*
X3233232D1*
X448096Y588091D2*
X505352D1*
X2316260D2*
X2842656D1*
X2927001D2*
X2958232D1*
X3042577D2*
X3133232D1*
X3217577D2*
X3233232D1*
X448096Y563222D2*
X530205D1*
X2926856D2*
X2949638D1*
X3051122D2*
X3133232D1*
X3217577D2*
X3233232D1*
X448096Y538353D2*
X2155790D1*
X2914990D2*
X2944756D1*
X3056005D2*
X3133232D1*
X448096Y513484D2*
X2163310D1*
X2890088D2*
X2952276D1*
X3048486D2*
X3133232D1*
X448096Y488615D2*
X2198857D1*
X2223974D2*
X2987822D1*
X3012940D2*
X3133232D1*
X1031776Y859209D2*
Y922297D1*
X1024685Y922373D1*
X1016442Y923678D1*
X1008505Y926257D1*
X1001070Y930046D1*
X993491Y935715D1*
X955567Y935713D1*
X947986Y930046D1*
X940550Y926257D1*
X932613Y923678D1*
X924370Y922373D1*
X920377Y922215D1*
X920390Y882777D1*
X944051Y859151D1*
X1031790Y859169D1*
X1250181Y2147949D2*
X1328062D1*
X1335694Y2155591D1*
X1335713Y2172816D1*
X1329130Y2180364D1*
X1324441Y2188014D1*
X1321008Y2196306D1*
X1318912Y2205030D1*
X1318209Y2213976D1*
X1318912Y2222923D1*
X1321008Y2231647D1*
X1324441Y2239938D1*
X1329130Y2247589D1*
X1334958Y2254412D1*
X1341781Y2260240D1*
X1349432Y2264929D1*
X1357723Y2268362D1*
X1366448Y2270458D1*
X1375394Y2271161D1*
X1384340Y2270458D1*
X1393064Y2268362D1*
X1401356Y2264929D1*
X1409007Y2260240D1*
X1415829Y2254412D1*
X1421657Y2247589D1*
X1426346Y2239938D1*
X1429780Y2231647D1*
X1431875Y2222923D1*
X1432579Y2213976D1*
X1431875Y2205030D1*
X1429780Y2196306D1*
X1426346Y2188014D1*
X1421657Y2180364D1*
X1415070Y2172839D1*
X1414953Y2136060D1*
X1413979Y2129909D1*
X1412054Y2123988D1*
X1409227Y2118440D1*
X1405567Y2113403D1*
X1363091Y2070753D1*
X1363106Y2069835D1*
X1370920Y2070986D1*
X1378415Y2071081D1*
X1385856Y2070196D1*
X1393118Y2068345D1*
X1400076Y2065560D1*
X1406610Y2061888D1*
X1412609Y2057395D1*
X1417967Y2052155D1*
X1422594Y2046260D1*
X1426411Y2039810D1*
X1429352Y2032916D1*
X1431365Y2025697D1*
X1432417Y2018277D1*
X1432361Y2008983D1*
X1431218Y2001576D1*
X1429117Y1994382D1*
X1426093Y1987524D1*
X1422198Y1981121D1*
X1417500Y1975282D1*
X1412077Y1970108D1*
X1406025Y1965688D1*
X1399448Y1962096D1*
X1392455Y1959396D1*
X1385172Y1957634D1*
X1377719Y1956839D1*
X1370227Y1957025D1*
X1363101Y1958134D1*
X1363106Y1955594D1*
X1237681D1*
Y2147949D1*
X1250181D1*
X987681Y2082594D2*
Y2195816D1*
X981025Y2190885D1*
X974448Y2187293D1*
X967455Y2184593D1*
X960172Y2182831D1*
X952719Y2182035D1*
X945227Y2182222D1*
X937823Y2183387D1*
X930635Y2185510D1*
X923787Y2188555D1*
X920377Y2190516D1*
X920514Y2087932D1*
X928510Y2092005D1*
X937045Y2094778D1*
X945907Y2096182D1*
X954881D1*
X963743Y2094778D1*
X972277Y2092005D1*
X980273Y2087932D1*
X987648Y2082550D1*
X2734979Y2324492D2*
X2706776D1*
X2706601Y2399980D1*
X2700394Y2399492D1*
X2694186Y2399980D1*
X2688131Y2401434D1*
X2682379Y2403818D1*
X2677070Y2407071D1*
X2672335Y2411114D1*
X2646474Y2436975D1*
X2537650Y2436992D1*
X2540381Y2430539D1*
X2541937Y2424054D1*
X2542461Y2417392D1*
X2542329Y2303829D1*
X2541286Y2297243D1*
X2539226Y2290900D1*
X2536198Y2284958D1*
X2532278Y2279563D1*
X2530003Y2277104D1*
X2540236Y2275035D1*
X2700441D1*
X2740042Y2314672D1*
X2737056Y2319639D1*
X2735636Y2322719D1*
X2709276Y2564091D2*
X2801122D1*
X2830529Y2593362D1*
X2835566Y2597022D1*
X2841114Y2599849D1*
X2847035Y2601774D1*
X2853186Y2602748D1*
X2968799Y2602870D1*
X3054491Y2602748D1*
X3060642Y2601774D1*
X3066563Y2599849D1*
X3072112Y2597022D1*
X3077148Y2593362D1*
X3093765Y2576919D1*
X3163106Y2576886D1*
Y2376837D1*
X3209702Y2376886D1*
X3209728Y2611285D1*
X3198425Y2613980D1*
X2694373D1*
X2639184Y2559000D1*
X2634147Y2555340D1*
X2628598Y2552513D1*
X2622677Y2550588D1*
X2616526Y2549614D1*
X2583970Y2549492D1*
X2583972Y2526461D1*
X2418789D1*
X2408692Y2516353D1*
X2666007Y2516232D1*
X2672157Y2515259D1*
X2678079Y2513333D1*
X2683627Y2510507D1*
X2688664Y2506846D1*
X2706801Y2488885D1*
X2706776Y2564091D1*
X2709276D1*
X1765075Y2421121D2*
Y2395555D1*
X1743444D1*
X1743289Y2385798D1*
X1742232Y2379129D1*
X1740146Y2372707D1*
X1737081Y2366692D1*
X1733113Y2361228D1*
X1668948Y2296877D1*
X1596512Y2224627D1*
X1591049Y2220659D1*
X1585033Y2217594D1*
X1578612Y2215508D1*
X1571942Y2214451D1*
X1568421Y2214173D1*
Y2181996D1*
X1673521Y2076896D1*
X1723081Y2076886D1*
X1727105Y2084797D1*
X1732010Y2091549D1*
X1737912Y2097450D1*
X1744664Y2102356D1*
X1752100Y2106144D1*
X1760037Y2108723D1*
X1768280Y2110029D1*
X1776626D1*
X1784869Y2108723D1*
X1792806Y2106144D1*
X1800241Y2102356D1*
X1806993Y2097450D1*
X1812895Y2091549D1*
X1817801Y2084797D1*
X1821589Y2077361D1*
X1824168Y2069424D1*
X1825474Y2061181D1*
Y2052835D1*
X1824168Y2044592D1*
X1821589Y2036655D1*
X1817801Y2029219D1*
X1812131Y2021640D1*
X1812012Y1808119D1*
X1811038Y1801969D1*
X1809113Y1796047D1*
X1806286Y1790499D1*
X1802626Y1785462D1*
X1738122Y1720783D1*
X1738106Y1532991D1*
X1826218Y1621115D1*
X1826185Y2417682D1*
X1820747Y2415037D1*
X1812810Y2412458D1*
X1804567Y2411152D1*
X1796220D1*
X1787978Y2412458D1*
X1780041Y2415037D1*
X1772605Y2418825D1*
X1769119Y2421156D1*
X2508109Y780823D2*
X2517043D1*
Y753820D1*
X2553507Y753732D1*
X2559657Y752759D1*
X2565579Y750833D1*
X2571127Y748007D1*
X2576164Y744346D1*
X2593816Y726867D1*
X2635514Y726886D1*
X2635638Y740318D1*
X2636612Y746469D1*
X2638537Y752390D1*
X2641364Y757938D1*
X2645024Y762975D1*
X2675411Y793362D1*
X2679142Y796151D1*
X2514602Y796146D1*
X2511970Y788668D1*
X2508051Y780829D1*
X2813106Y1123517D2*
Y1051461D1*
X2793429D1*
X2793289Y835798D1*
X2792232Y829129D1*
X2790146Y822707D1*
X2787081Y816692D1*
X2783112Y811230D1*
X2778337Y806455D1*
X2772864Y802480D1*
X2776181Y801295D1*
X2937681Y801461D1*
Y920748D1*
X2895220Y963403D1*
X2891560Y968440D1*
X2888734Y973988D1*
X2886808Y979909D1*
X2885835Y986060D1*
X2885713Y1101673D1*
Y1120765D1*
X2874408Y1123508D1*
X2813129D1*
X2707394Y1051461D2*
X2687681D1*
Y1071920D1*
X2679571Y1070680D1*
X2671224D1*
X2662982Y1071986D1*
X2655045Y1074564D1*
X2647609Y1078353D1*
X2640030Y1084022D1*
X2615096Y1084142D1*
X2608945Y1085115D1*
X2605936Y1085966D1*
X2605921Y882190D1*
X2707377Y882201D1*
X2707366Y1051429D1*
X2705566Y1257995D2*
X2712580Y1264159D1*
X2706049Y1269828D1*
X2699659Y1277312D1*
X2694516Y1285702D1*
X2690751Y1294794D1*
X2688453Y1304362D1*
X2687681Y1314173D1*
X2688453Y1323984D1*
X2690751Y1333552D1*
X2694516Y1342644D1*
X2699659Y1351034D1*
X2706049Y1358518D1*
X2712580Y1364159D1*
X2706236Y1369643D1*
X2699726Y1377219D1*
X2694500Y1385734D1*
X2690694Y1394970D1*
X2688402Y1404693D1*
X2687682Y1414656D1*
X2688555Y1424608D1*
X2690996Y1434294D1*
X2694945Y1443470D1*
X2700301Y1451903D1*
X2706927Y1459378D1*
X2714655Y1465706D1*
X2723291Y1470727D1*
X2732614Y1474312D1*
X2742390Y1476373D1*
X2752367Y1476854D1*
X2762295Y1475747D1*
X2771921Y1473075D1*
X2781000Y1468909D1*
X2789303Y1463356D1*
X2796619Y1456554D1*
X2802761Y1448676D1*
X2807576Y1439924D1*
X2810940Y1430517D1*
X2812766Y1420697D1*
X2813056Y1411675D1*
X2811865Y1401756D1*
X2809113Y1392152D1*
X2804871Y1383109D1*
X2799248Y1374853D1*
X2792385Y1367594D1*
X2788235Y1364172D1*
X2794739Y1358518D1*
X2801129Y1351034D1*
X2806272Y1342644D1*
X2810037Y1333552D1*
X2812335Y1323984D1*
X2813106Y1314173D1*
X2812335Y1304362D1*
X2810037Y1294794D1*
X2806272Y1285702D1*
X2801129Y1277312D1*
X2794739Y1269828D1*
X2788207Y1264188D1*
X2794739Y1258518D1*
X2798903Y1253860D1*
X2808743Y1253854D1*
X2837707Y1282801D1*
X2837681Y1415993D1*
X2727151Y1526495D1*
X2728415Y1518346D1*
Y1510000D1*
X2727109Y1501757D1*
X2724530Y1493820D1*
X2720741Y1486385D1*
X2715836Y1479633D1*
X2709934Y1473731D1*
X2703182Y1468825D1*
X2695747Y1465037D1*
X2687810Y1462458D1*
X2679567Y1461152D1*
X2671220D1*
X2662978Y1462458D1*
X2658576Y1463732D1*
X2658579Y1264640D1*
X2667077Y1266703D1*
X2675398Y1267358D1*
X2683718Y1266703D1*
X2691833Y1264755D1*
X2699543Y1261562D1*
X2705507Y1257971D1*
X1036866Y1027972D2*
X1031014Y1029530D1*
X1021923Y1033295D1*
X1013533Y1038438D1*
X1006049Y1044828D1*
X1000408Y1051360D1*
X994739Y1044828D1*
X987255Y1038438D1*
X978865Y1033295D1*
X969773Y1029530D1*
X960205Y1027232D1*
X950394Y1026461D1*
X940583Y1027232D1*
X931014Y1029530D1*
X921923Y1033295D1*
X920395Y1034151D1*
X924370Y1028415D1*
X932613Y1027109D1*
X940550Y1024530D1*
X947986Y1020741D1*
X955564Y1015072D1*
X993488Y1015075D1*
X1001070Y1020741D1*
X1008505Y1024530D1*
X1016442Y1027109D1*
X1024685Y1028415D1*
X1033031D1*
X1036643Y1027987D1*
X2010714Y2455594D2*
X1962681D1*
Y2647949D1*
X2088106D1*
Y2640966D1*
X2096220Y2642194D1*
X2104567D1*
X2112810Y2640888D1*
X2120747Y2638310D1*
X2125209Y2636186D1*
X2125323Y2810790D1*
X2126297Y2816941D1*
X2128222Y2822862D1*
X2129531Y2825702D1*
X2123106Y2826780D1*
X1321983D1*
X1314403Y2821113D1*
X1306967Y2817324D1*
X1299030Y2814745D1*
X1290787Y2813440D1*
X1282441D1*
X1274198Y2814745D1*
X1266261Y2817324D1*
X1258825Y2821113D1*
X1252073Y2826018D1*
X1246172Y2831920D1*
X1241266Y2838672D1*
X1237478Y2846108D1*
X1234899Y2854045D1*
X1233593Y2862287D1*
Y2870634D1*
X1234899Y2878877D1*
X1237478Y2886814D1*
X1241266Y2894249D1*
X1246081Y2900886D1*
X445529D1*
X445571Y2476911D1*
X537730Y2476886D1*
X537681Y2576886D1*
X606969D1*
X762123Y2731846D1*
X767160Y2735507D1*
X772709Y2738333D1*
X778630Y2740259D1*
X784781Y2741232D1*
X900394Y2741354D1*
X1795967Y2741232D1*
X1802118Y2740259D1*
X1808039Y2738333D1*
X1813588Y2735507D1*
X1818625Y2731846D1*
X1893925Y2656720D1*
X1897969Y2651986D1*
X1901222Y2646676D1*
X1903605Y2640924D1*
X1905059Y2634869D1*
X1905547Y2628661D1*
X1905425Y1601533D1*
X1904451Y1595382D1*
X1902526Y1589461D1*
X1899699Y1583912D1*
X1896039Y1578875D1*
X1814375Y1497037D1*
X1738106Y1420768D1*
Y1402911D1*
X2230610Y1402870D1*
X2423908Y1596164D1*
X2425297Y1605566D1*
X2427875Y1613503D1*
X2431664Y1620938D1*
X2436570Y1627690D1*
X2442471Y1633592D1*
X2449223Y1638497D1*
X2456659Y1642286D1*
X2464596Y1644865D1*
X2472839Y1646171D1*
X2481185D1*
X2489428Y1644865D1*
X2497365Y1642286D1*
X2504801Y1638497D1*
X2511552Y1633592D1*
X2517454Y1627690D1*
X2522360Y1620938D1*
X2526148Y1613503D1*
X2528727Y1605566D1*
X2530033Y1597323D1*
Y1588976D1*
X2528727Y1580734D1*
X2526148Y1572797D1*
X2522360Y1565361D1*
X2517454Y1558609D1*
X2511552Y1552707D1*
X2504801Y1547802D1*
X2497365Y1544013D1*
X2489428Y1541434D1*
X2480060Y1540084D1*
X2272822Y1333016D1*
X2267785Y1329356D1*
X2262236Y1326529D1*
X2256315Y1324604D1*
X2250164Y1323630D1*
X2134551Y1323508D1*
X1738115D1*
X1738106Y1051461D1*
X1612681D1*
Y1063717D1*
X1603865Y1058295D1*
X1594773Y1054530D1*
X1585205Y1052232D1*
X1575394Y1051461D1*
X1565583Y1052232D1*
X1556014Y1054530D1*
X1546923Y1058295D1*
X1538533Y1063438D1*
X1531049Y1069828D1*
X1524659Y1077312D1*
X1519516Y1085702D1*
X1515751Y1094794D1*
X1513453Y1104362D1*
X1512681Y1114173D1*
X1513453Y1123984D1*
X1515751Y1133552D1*
X1519516Y1142644D1*
X1524659Y1151034D1*
X1531049Y1158518D1*
X1537580Y1164159D1*
X1531049Y1169828D1*
X1524659Y1177312D1*
X1519516Y1185702D1*
X1515751Y1194794D1*
X1513453Y1204362D1*
X1512681Y1214173D1*
X1513453Y1223984D1*
X1515751Y1233552D1*
X1519516Y1242644D1*
X1524659Y1251034D1*
X1531049Y1258518D1*
X1537580Y1264159D1*
X1531049Y1269828D1*
X1524659Y1277312D1*
X1519516Y1285702D1*
X1515751Y1294794D1*
X1513453Y1304362D1*
X1512681Y1314173D1*
X1513453Y1323984D1*
X1515751Y1333552D1*
X1519516Y1342644D1*
X1524659Y1351034D1*
X1531049Y1358518D1*
X1538533Y1364908D1*
X1546923Y1370051D1*
X1556014Y1373816D1*
X1565583Y1376114D1*
X1575394Y1376886D1*
X1584727Y1376171D1*
X1584728Y1452202D1*
X1575394Y1451461D1*
X1565583Y1452232D1*
X1556014Y1454530D1*
X1546923Y1458295D1*
X1538533Y1463438D1*
X1531049Y1469828D1*
X1524659Y1477312D1*
X1519516Y1485702D1*
X1515751Y1494794D1*
X1513453Y1504362D1*
X1512681Y1514173D1*
X1513453Y1523984D1*
X1515751Y1533552D1*
X1519516Y1542644D1*
X1524659Y1551034D1*
X1531049Y1558518D1*
X1537580Y1564159D1*
X1531049Y1569828D1*
X1524659Y1577312D1*
X1519516Y1585702D1*
X1515751Y1594794D1*
X1513453Y1604362D1*
X1512681Y1614173D1*
X1513453Y1623984D1*
X1515751Y1633552D1*
X1519516Y1642644D1*
X1524659Y1651034D1*
X1531049Y1658518D1*
X1538533Y1664908D1*
X1546923Y1670051D1*
X1556014Y1673816D1*
X1565583Y1676114D1*
X1575394Y1676886D1*
X1584727Y1676171D1*
X1584850Y1766303D1*
X1585824Y1772454D1*
X1587749Y1778375D1*
X1590576Y1783924D1*
X1594236Y1788961D1*
X1612681Y1807580D1*
Y2016060D1*
X1492676Y2136230D1*
X1488706Y2141692D1*
X1485642Y2147707D1*
X1483555Y2154129D1*
X1482499Y2160798D1*
X1482366Y2246350D1*
X1192066Y2536651D1*
X1183958Y2538592D1*
X1176248Y2541785D1*
X1169133Y2546146D1*
X1162786Y2551566D1*
X1157366Y2557912D1*
X1153005Y2565028D1*
X1149812Y2572738D1*
X1147864Y2580853D1*
X1147209Y2589173D1*
X1147864Y2597493D1*
X1149812Y2605609D1*
X1153005Y2613319D1*
X1157366Y2620434D1*
X1162786Y2626781D1*
X1169133Y2632201D1*
X1176248Y2636562D1*
X1183958Y2639755D1*
X1192073Y2641703D1*
X1200394Y2642358D1*
X1208714Y2641703D1*
X1216829Y2639755D1*
X1224539Y2636562D1*
X1231655Y2632201D1*
X1238001Y2626781D1*
X1243421Y2620434D1*
X1247782Y2613319D1*
X1250975Y2605609D1*
X1252921Y2597509D1*
X1550394Y2300374D1*
X1555819Y2305449D1*
X1645923Y2395555D1*
X1525476D1*
Y2532791D1*
X1765075D1*
Y2507156D1*
X1769133Y2507201D1*
X1776248Y2511562D1*
X1783958Y2514755D1*
X1792073Y2516703D1*
X1800394Y2517358D1*
X1808714Y2516703D1*
X1816829Y2514755D1*
X1824539Y2511562D1*
X1826176Y2510644D1*
X1826185Y2612214D1*
X1776385Y2662025D1*
X804329Y2661992D1*
X719243Y2576906D1*
X763106Y2576886D1*
Y2553887D1*
X778507Y2553732D1*
X784657Y2552759D1*
X790579Y2550833D1*
X796127Y2548007D1*
X801164Y2544346D1*
X818816Y2526867D1*
X888106Y2526886D1*
Y2301461D1*
X826730D1*
X893352Y2234849D1*
X893458Y2244513D1*
X894646Y2251913D1*
X896791Y2259094D1*
X899857Y2265933D1*
X903790Y2272312D1*
X908524Y2278123D1*
X913978Y2283264D1*
X920056Y2287648D1*
X926656Y2291198D1*
X933664Y2293857D1*
X940959Y2295575D1*
X948416Y2296324D1*
X955907Y2296092D1*
X963303Y2294882D1*
X970478Y2292715D1*
X977307Y2289629D1*
X983675Y2285676D1*
X989471Y2280924D1*
X994594Y2275455D1*
X998961Y2269364D1*
X1002491Y2262752D1*
X1005127Y2255736D1*
X1006824Y2248437D1*
X1007579Y2239173D1*
X1007088Y2231694D1*
X1005181Y2222752D1*
X1113106D1*
Y2030398D1*
X1047726D1*
X1026164Y2009000D1*
X1021127Y2005340D1*
X1015579Y2002513D1*
X1009657Y2000588D1*
X1003507Y1999614D1*
X991556Y1999492D1*
X984007Y1992909D1*
X976356Y1988220D1*
X968064Y1984787D1*
X959340Y1982692D1*
X950394Y1981988D1*
X941448Y1982692D1*
X932723Y1984787D1*
X924432Y1988220D1*
X920383Y1990503D1*
X920390Y1826917D1*
X1013106Y1826886D1*
Y1825274D1*
X1110390Y1922520D1*
X1112312Y1930609D1*
X1115505Y1938319D1*
X1119866Y1945434D1*
X1125286Y1951781D1*
X1131633Y1957201D1*
X1138748Y1961562D1*
X1146458Y1964755D1*
X1154573Y1966703D1*
X1162894Y1967358D1*
X1171214Y1966703D1*
X1179329Y1964755D1*
X1187039Y1961562D1*
X1194155Y1957201D1*
X1200501Y1951781D1*
X1205921Y1945434D1*
X1210282Y1938319D1*
X1213475Y1930609D1*
X1215424Y1922493D1*
X1216079Y1914173D1*
X1215424Y1905853D1*
X1213475Y1897738D1*
X1210282Y1890028D1*
X1205921Y1882912D1*
X1200501Y1876566D1*
X1194155Y1871146D1*
X1187039Y1866785D1*
X1179329Y1863592D1*
X1171230Y1861646D1*
X1040839Y1731455D1*
X1035375Y1727486D1*
X1029360Y1724421D1*
X1022938Y1722335D1*
X1016256Y1721278D1*
X1013106Y1714386D1*
Y1701461D1*
X1000850D1*
X1006272Y1692644D1*
X1010037Y1683552D1*
X1012335Y1673984D1*
X1013106Y1664173D1*
X1012335Y1654362D1*
X1010037Y1644794D1*
X1006272Y1635702D1*
X1001129Y1627312D1*
X994739Y1619828D1*
X988207Y1614188D1*
X994739Y1608518D1*
X1001129Y1601034D1*
X1006272Y1592644D1*
X1010037Y1583552D1*
X1012335Y1573984D1*
X1013106Y1564173D1*
X1012335Y1554362D1*
X1010037Y1544794D1*
X1006272Y1535702D1*
X1001129Y1527312D1*
X994739Y1519828D1*
X988207Y1514188D1*
X994894Y1508362D1*
X1001345Y1500736D1*
X1006504Y1492182D1*
X1010240Y1482917D1*
X1012457Y1473177D1*
X1013106Y1464173D1*
X1012311Y1454215D1*
X1009944Y1444510D1*
X1006067Y1435304D1*
X1000777Y1426831D1*
X994207Y1419304D1*
X986528Y1412917D1*
X977930Y1407829D1*
X968635Y1404172D1*
X958877Y1402037D1*
X948903Y1401479D1*
X938967Y1402510D1*
X929320Y1405108D1*
X920391Y1409108D1*
X920390Y1244202D1*
X926395Y1247112D1*
X935753Y1250154D1*
X945474Y1251693D1*
X955314D1*
X965034Y1250154D1*
X974392Y1247112D1*
X983161Y1242644D1*
X991122Y1236861D1*
X998081Y1229902D1*
X1000379Y1226987D1*
X1006927Y1234378D1*
X1014655Y1240706D1*
X1023291Y1245727D1*
X1032614Y1249312D1*
X1042390Y1251373D1*
X1052367Y1251854D1*
X1062295Y1250747D1*
X1071921Y1248075D1*
X1081000Y1243909D1*
X1087677Y1239589D1*
X1087681Y1251886D1*
X1213106D1*
Y1126461D1*
X1200850D1*
X1206272Y1117644D1*
X1210037Y1108552D1*
X1212335Y1098984D1*
X1213106Y1089173D1*
X1212335Y1079362D1*
X1210037Y1069794D1*
X1206272Y1060702D1*
X1201129Y1052312D1*
X1194739Y1044828D1*
X1187255Y1038438D1*
X1178865Y1033295D1*
X1169773Y1029530D1*
X1160205Y1027232D1*
X1150394Y1026461D1*
X1140583Y1027232D1*
X1131014Y1029530D1*
X1121923Y1033295D1*
X1113533Y1038438D1*
X1106049Y1044828D1*
X1100408Y1051360D1*
X1094739Y1044828D1*
X1087255Y1038438D1*
X1078865Y1033295D1*
X1069773Y1029530D1*
X1060205Y1027232D1*
X1050394Y1026461D1*
X1041274Y1027109D1*
X1049211Y1024530D1*
X1056647Y1020741D1*
X1063399Y1015836D1*
X1069301Y1009934D1*
X1074206Y1003182D1*
X1077995Y995747D1*
X1080243Y989091D1*
X1169012D1*
Y949726D1*
X1173753Y956308D1*
X1180631Y963555D1*
X1188516Y969690D1*
X1197228Y974579D1*
X1206575Y978110D1*
X1216343Y980206D1*
X1226315Y980816D1*
X1236266Y979930D1*
X1245972Y977566D1*
X1255218Y973778D1*
X1263791Y968651D1*
X1271504Y962299D1*
X1275383Y958241D1*
X1282514Y965198D1*
X1290623Y971034D1*
X1299513Y975593D1*
X1308986Y978772D1*
X1318825Y980499D1*
X1328814Y980735D1*
X1338724Y979476D1*
X1348336Y976749D1*
X1357432Y972618D1*
X1365808Y967172D1*
X1373276Y960535D1*
X1375383Y958241D1*
X1382514Y965198D1*
X1390623Y971034D1*
X1399513Y975593D1*
X1408986Y978772D1*
X1418825Y980499D1*
X1428814Y980735D1*
X1438724Y979476D1*
X1448336Y976749D1*
X1457432Y972618D1*
X1465808Y967172D1*
X1473276Y960535D1*
X1475383Y958241D1*
X1482514Y965198D1*
X1490623Y971034D1*
X1499513Y975593D1*
X1508986Y978772D1*
X1518825Y980499D1*
X1528814Y980735D1*
X1538724Y979476D1*
X1548336Y976749D1*
X1557432Y972618D1*
X1565808Y967172D1*
X1573276Y960535D1*
X1575383Y958241D1*
X1582514Y965198D1*
X1590623Y971034D1*
X1599513Y975593D1*
X1608986Y978772D1*
X1618825Y980499D1*
X1628814Y980735D1*
X1638724Y979476D1*
X1648336Y976749D1*
X1657432Y972618D1*
X1665808Y967172D1*
X1673276Y960535D1*
X1675383Y958241D1*
X1682514Y965198D1*
X1690623Y971034D1*
X1699513Y975593D1*
X1708986Y978772D1*
X1718825Y980499D1*
X1728814Y980735D1*
X1738724Y979476D1*
X1748336Y976749D1*
X1757432Y972618D1*
X1765808Y967172D1*
X1773276Y960535D1*
X1775383Y958241D1*
X1782514Y965198D1*
X1790623Y971034D1*
X1799513Y975593D1*
X1808986Y978772D1*
X1818825Y980499D1*
X1828814Y980735D1*
X1838724Y979476D1*
X1848336Y976749D1*
X1857432Y972618D1*
X1865808Y967172D1*
X1873276Y960535D1*
X1875383Y958241D1*
X1882514Y965198D1*
X1890623Y971034D1*
X1899513Y975593D1*
X1908986Y978772D1*
X1918825Y980499D1*
X1928814Y980735D1*
X1938724Y979476D1*
X1948336Y976749D1*
X1957432Y972618D1*
X1965808Y967172D1*
X1973276Y960535D1*
X1979668Y952857D1*
X1984841Y944310D1*
X1988677Y935085D1*
X1991092Y925391D1*
X1992031Y915445D1*
X1991622Y906689D1*
X1989759Y896874D1*
X1986450Y887448D1*
X1981769Y878621D1*
X1975822Y870593D1*
X1969449Y864175D1*
X1976075Y857459D1*
X1982222Y848997D1*
X1986970Y839678D1*
X1990202Y829732D1*
X1991837Y819403D1*
Y808944D1*
X1990202Y798614D1*
X1986970Y788668D1*
X1982222Y779349D1*
X1976075Y770887D1*
X1969445Y764201D1*
X1976075Y757459D1*
X1982222Y748997D1*
X1986970Y739678D1*
X1990202Y729732D1*
X1991837Y719403D1*
Y708944D1*
X1990202Y698614D1*
X1986970Y688668D1*
X1982222Y679349D1*
X1976075Y670887D1*
X1968680Y663492D1*
X1960218Y657345D1*
X1950899Y652597D1*
X1940953Y649365D1*
X1930623Y647730D1*
X1920164D1*
X1909835Y649365D1*
X1899888Y652597D1*
X1890570Y657345D1*
X1882108Y663492D1*
X1875421Y670122D1*
X1868680Y663492D1*
X1860218Y657345D1*
X1850899Y652597D1*
X1840953Y649365D1*
X1830623Y647730D1*
X1820164D1*
X1809835Y649365D1*
X1799888Y652597D1*
X1790570Y657345D1*
X1782108Y663492D1*
X1775421Y670122D1*
X1768680Y663492D1*
X1760218Y657345D1*
X1750899Y652597D1*
X1740953Y649365D1*
X1730623Y647730D1*
X1720164D1*
X1709835Y649365D1*
X1699888Y652597D1*
X1690570Y657345D1*
X1682108Y663492D1*
X1675421Y670122D1*
X1668680Y663492D1*
X1660218Y657345D1*
X1650899Y652597D1*
X1640953Y649365D1*
X1630623Y647730D1*
X1620164D1*
X1609835Y649365D1*
X1599888Y652597D1*
X1590570Y657345D1*
X1582108Y663492D1*
X1575421Y670122D1*
X1568680Y663492D1*
X1560218Y657345D1*
X1550899Y652597D1*
X1540953Y649365D1*
X1530623Y647730D1*
X1520164D1*
X1509835Y649365D1*
X1499888Y652597D1*
X1490570Y657345D1*
X1482108Y663492D1*
X1475421Y670122D1*
X1468680Y663492D1*
X1460218Y657345D1*
X1450899Y652597D1*
X1440953Y649365D1*
X1430623Y647730D1*
X1420164D1*
X1409835Y649365D1*
X1399888Y652597D1*
X1390570Y657345D1*
X1382108Y663492D1*
X1375421Y670122D1*
X1368680Y663492D1*
X1360218Y657345D1*
X1350899Y652597D1*
X1340953Y649365D1*
X1330623Y647730D1*
X1320164D1*
X1309835Y649365D1*
X1299888Y652597D1*
X1290570Y657345D1*
X1282108Y663492D1*
X1275421Y670122D1*
X1268680Y663492D1*
X1260218Y657345D1*
X1250899Y652597D1*
X1240953Y649365D1*
X1230623Y647730D1*
X1220164D1*
X1209835Y649365D1*
X1199888Y652597D1*
X1190570Y657345D1*
X1182108Y663492D1*
X1174713Y670887D1*
X1168566Y679349D1*
X1163818Y688668D1*
X1160585Y698614D1*
X1158950Y708944D1*
Y719403D1*
X1160585Y729732D1*
X1163818Y739678D1*
X1168865Y749492D1*
X1031776D1*
Y769169D1*
X921864Y769316D1*
X914890Y770420D1*
X908175Y772602D1*
X901883Y775807D1*
X896171Y779958D1*
X863089Y812844D1*
X863106Y651461D1*
X802315D1*
X802430Y641496D1*
X801125Y633253D1*
X798546Y625316D1*
X795945Y620001D1*
X2225696Y620008D1*
X2233353Y625675D1*
X2240789Y629463D1*
X2248726Y632042D1*
X2256969Y633348D1*
X2265315D1*
X2273558Y632042D1*
X2281495Y629463D1*
X2288930Y625675D1*
X2295682Y620769D1*
X2301584Y614867D1*
X2306490Y608115D1*
X2310278Y600680D1*
X2312857Y592743D1*
X2314163Y584500D1*
X2314320Y580507D1*
X2842423Y580520D1*
X2845150Y591823D1*
Y610427D1*
X2839483Y618018D1*
X2835694Y625454D1*
X2833115Y633391D1*
X2831810Y641634D1*
Y649980D1*
X2833115Y658223D1*
X2835694Y666160D1*
X2839483Y673596D1*
X2844388Y680348D1*
X2850290Y686249D1*
X2857042Y691155D1*
X2864478Y694944D1*
X2872415Y697522D1*
X2880657Y698828D1*
X2889004D1*
X2897247Y697522D1*
X2905184Y694944D1*
X2912619Y691155D1*
X2919371Y686249D1*
X2925273Y680348D1*
X2930178Y673596D1*
X2933967Y666160D1*
X2936546Y658223D1*
X2937852Y649980D1*
Y641634D1*
X2936546Y633391D1*
X2933967Y625454D1*
X2930178Y618018D1*
X2924509Y610440D1*
X2924390Y563710D1*
X2923416Y557559D1*
X2921491Y551638D1*
X2918664Y546089D1*
X2915004Y541052D1*
X2886903Y512780D1*
X2882168Y508735D1*
X2876860Y505482D1*
X2871106Y503100D1*
X2865051Y501646D1*
X2858845Y501157D1*
X2246785D1*
X2239206Y495491D1*
X2231770Y491702D1*
X2223833Y489123D1*
X2215591Y487818D1*
X2207244D1*
X2199001Y489123D1*
X2191064Y491702D1*
X2183629Y495491D1*
X2176877Y500396D1*
X2170975Y506298D1*
X2166070Y513050D1*
X2162281Y520486D1*
X2159702Y528423D1*
X2158396Y536665D1*
X2158239Y540659D1*
X568627Y540768D1*
X562476Y541741D1*
X556555Y543667D1*
X551007Y546493D1*
X545970Y550154D1*
X497335Y598614D1*
X493291Y603349D1*
X490038Y608659D1*
X487655Y614411D1*
X486201Y620466D1*
X485713Y626673D1*
Y1149476D1*
X475394Y1148488D1*
X467073Y1149143D1*
X458958Y1151092D1*
X451248Y1154285D1*
X445584Y1157676D1*
X445571Y484919D1*
X3135854Y484941D1*
X3135713Y562846D1*
Y651470D1*
X3040109Y651461D1*
X3040075Y576234D1*
X3045741Y568631D1*
X3049530Y561196D1*
X3052109Y553259D1*
X3053415Y545016D1*
Y536669D1*
X3052109Y528427D1*
X3049530Y520490D1*
X3045741Y513054D1*
X3040836Y506302D1*
X3034934Y500400D1*
X3028182Y495495D1*
X3020747Y491706D1*
X3012810Y489127D1*
X3004567Y487822D1*
X2996220D1*
X2987978Y489127D1*
X2980041Y491706D1*
X2972605Y495495D1*
X2965853Y500400D1*
X2959951Y506302D1*
X2955046Y513054D1*
X2951257Y520490D1*
X2948678Y528427D1*
X2947373Y536669D1*
Y545016D1*
X2948678Y553259D1*
X2951257Y561196D1*
X2955046Y568631D1*
X2960715Y576210D1*
X2960713Y651438D1*
X2937713Y651461D1*
X2937681Y725045D1*
X2733972Y725079D1*
Y601461D1*
X2541618D1*
Y666841D1*
X2533975Y674474D1*
X2517043Y674524D1*
Y647524D1*
X2383744D1*
Y780823D1*
X2392680D1*
X2388818Y788668D1*
X2386280Y796155D1*
X2369012Y796188D1*
Y774492D1*
X2231776D1*
Y1014091D1*
X2369012D1*
X2369003Y884728D1*
X2375394Y882201D1*
X2391946D1*
X2388156Y890328D1*
X2385290Y899899D1*
X2383888Y909790D1*
X2383980Y919781D1*
X2385564Y929644D1*
X2388606Y939161D1*
X2393035Y948117D1*
X2398753Y956308D1*
X2405631Y963555D1*
X2413516Y969690D1*
X2422228Y974579D1*
X2431575Y978110D1*
X2441343Y980206D1*
X2451315Y980816D1*
X2461266Y979930D1*
X2470972Y977566D1*
X2480218Y973778D1*
X2488791Y968651D1*
X2496504Y962299D1*
X2503178Y954866D1*
X2508668Y946518D1*
X2512849Y937445D1*
X2515626Y927848D1*
X2516937Y917944D1*
X2516856Y909178D1*
X2515362Y899299D1*
X2512409Y889756D1*
X2508864Y882203D1*
X2519877Y882201D1*
X2519866Y1121350D1*
X2380033Y1261184D1*
X2371220Y1261152D1*
X2362978Y1262458D1*
X2355041Y1265037D1*
X2347605Y1268825D1*
X2340853Y1273731D1*
X2334951Y1279633D1*
X2330046Y1286385D1*
X2326257Y1293820D1*
X2323678Y1301757D1*
X2322373Y1310000D1*
Y1318346D1*
X2323678Y1326589D1*
X2326257Y1334526D1*
X2330046Y1341962D1*
X2334951Y1348714D1*
X2340853Y1354615D1*
X2347605Y1359521D1*
X2355041Y1363310D1*
X2362978Y1365888D1*
X2371220Y1367194D1*
X2379567D1*
X2387810Y1365888D1*
X2395747Y1363310D1*
X2403182Y1359521D1*
X2409934Y1354615D1*
X2415836Y1348714D1*
X2420315Y1342600D1*
X2552524Y1210394D1*
X2552543Y1717508D1*
X2544869Y1722944D1*
X2538967Y1728845D1*
X2534062Y1735597D1*
X2530273Y1743033D1*
X2527694Y1750970D1*
X2526388Y1759213D1*
Y1767559D1*
X2527694Y1775802D1*
X2530273Y1783739D1*
X2534062Y1791175D1*
X2538967Y1797927D1*
X2544869Y1803828D1*
X2551621Y1808734D1*
X2559056Y1812522D1*
X2566993Y1815101D1*
X2571365Y1815949D1*
X2568316Y1823352D1*
X2566367Y1831467D1*
X2565713Y1839787D1*
X2566367Y1848108D1*
X2568316Y1856223D1*
X2571509Y1863933D1*
X2575870Y1871049D1*
X2581290Y1877395D1*
X2587636Y1882815D1*
X2594752Y1887176D1*
X2602462Y1890369D1*
X2610577Y1892318D1*
X2618898Y1892972D1*
X2627218Y1892318D1*
X2635333Y1890369D1*
X2643043Y1887176D1*
X2650159Y1882815D1*
X2656505Y1877395D1*
X2661925Y1871049D1*
X2666286Y1863933D1*
X2669479Y1856223D1*
X2671428Y1848108D1*
X2672083Y1839787D1*
X2671428Y1831467D1*
X2669479Y1823352D1*
X2666286Y1815642D1*
X2661925Y1808526D1*
X2658576Y1804420D1*
X2658579Y1753508D1*
X2749623Y1844346D1*
X2754660Y1848007D1*
X2760219Y1850839D1*
X2760713Y1851673D1*
Y1855433D1*
X2757379Y1849529D1*
X2760209Y1850833D1*
X2760714Y1855398D1*
X2737681D1*
Y1949294D1*
X2615286Y1949295D1*
X2612516Y1936614D1*
X2612028Y1930407D1*
X2610573Y1924352D1*
X2608190Y1918600D1*
X2604937Y1913290D1*
X2600894Y1908555D1*
X2541345Y1849181D1*
X2536308Y1845521D1*
X2530760Y1842694D1*
X2524839Y1840769D1*
X2518688Y1839795D1*
X2413858Y1839673D1*
X2407651Y1840161D1*
X2401596Y1841615D1*
X2395844Y1843999D1*
X2390534Y1847252D1*
X2385799Y1851295D1*
X2375614Y1861480D1*
X2375587Y1774867D1*
X2383735Y1766682D1*
X2391829Y1764755D1*
X2399539Y1761562D1*
X2406655Y1757201D1*
X2413001Y1751781D1*
X2418421Y1745434D1*
X2422782Y1738319D1*
X2425975Y1730609D1*
X2427924Y1722493D1*
X2428579Y1714173D1*
X2427924Y1705853D1*
X2425975Y1697738D1*
X2422782Y1690028D1*
X2418421Y1682912D1*
X2413001Y1676566D1*
X2406655Y1671146D1*
X2399539Y1666785D1*
X2391829Y1663592D1*
X2383714Y1661643D1*
X2375394Y1660988D1*
X2367073Y1661643D1*
X2358958Y1663592D1*
X2351248Y1666785D1*
X2344133Y1671146D1*
X2337786Y1676566D1*
X2332366Y1682912D1*
X2328005Y1690028D1*
X2324812Y1697738D1*
X2322866Y1705837D1*
X2299841Y1729064D1*
X2295871Y1734526D1*
X2292807Y1740542D1*
X2290720Y1746963D1*
X2289664Y1753633D1*
X2289531Y1844508D1*
X2289664Y2202706D1*
X2290720Y2209375D1*
X2292807Y2215797D1*
X2295871Y2221812D1*
X2299841Y2227274D1*
X2334820Y2262442D1*
X2324961Y2264664D1*
X2142217Y2264795D1*
X2135630Y2265839D1*
X2129287Y2267899D1*
X2123345Y2270927D1*
X2117950Y2274846D1*
X2113234Y2279563D1*
X2109314Y2284958D1*
X2106286Y2290900D1*
X2104226Y2297243D1*
X2103182Y2303829D1*
X2103051Y2394664D1*
X2103182Y2420740D1*
X2104226Y2427327D1*
X2106286Y2433669D1*
X2107690Y2436711D1*
X2098274Y2430937D1*
X2052596Y2385259D1*
X2052575Y2149573D1*
X2058241Y2141962D1*
X2062030Y2134526D1*
X2064609Y2126589D1*
X2065915Y2118346D1*
Y2110000D1*
X2064609Y2101757D1*
X2062030Y2093820D1*
X2058241Y2086385D1*
X2053336Y2079633D1*
X2047434Y2073731D1*
X2040682Y2068825D1*
X2033247Y2065037D1*
X2025310Y2062458D1*
X2017067Y2061152D1*
X2008720D1*
X2000478Y2062458D1*
X1992541Y2065037D1*
X1985105Y2068825D1*
X1978353Y2073731D1*
X1972451Y2079633D1*
X1967546Y2086385D1*
X1963757Y2093820D1*
X1961178Y2101757D1*
X1959873Y2110000D1*
Y2118346D1*
X1961178Y2126589D1*
X1963757Y2134526D1*
X1967546Y2141962D1*
X1973215Y2149541D1*
X1973335Y2404786D1*
X1974308Y2410937D1*
X1976234Y2416858D1*
X1979060Y2422407D1*
X1982720Y2427444D1*
X2010696Y2455593D1*
X2404118Y2751886D2*
X2583972D1*
Y2728887D1*
X3252522Y2728732D1*
X3258673Y2727759D1*
X3261682Y2726908D1*
X3261697Y2746749D1*
X3214451Y2793999D1*
X2207322Y2793980D1*
X2204563Y2782677D1*
Y2588097D1*
X2212978Y2590888D1*
X2221220Y2592194D1*
X2229567D1*
X2237810Y2590888D1*
X2245747Y2588310D1*
X2247243Y2587619D1*
X2247864Y2597493D1*
X2249812Y2605609D1*
X2253005Y2613319D1*
X2257366Y2620434D1*
X2262786Y2626781D1*
X2269133Y2632201D1*
X2276248Y2636562D1*
X2283958Y2639755D1*
X2292073Y2641703D1*
X2300394Y2642358D1*
X2308714Y2641703D1*
X2316829Y2639755D1*
X2324539Y2636562D1*
X2331655Y2632201D1*
X2334819Y2629706D1*
X2391630Y2686528D1*
X2391618Y2751886D1*
X2404118D1*
X2863106Y1930224D2*
Y1855398D1*
X2840109D1*
X2840075Y1849573D1*
X2845741Y1841962D1*
X2849530Y1834526D1*
X2852109Y1826589D1*
X2853415Y1818346D1*
Y1810000D1*
X2852109Y1801757D1*
X2849530Y1793820D1*
X2845741Y1786385D1*
X2840836Y1779633D1*
X2838101Y1776673D1*
X2843421Y1770434D1*
X2847782Y1763319D1*
X2850975Y1755609D1*
X2852924Y1747493D1*
X2853579Y1739173D1*
X2852924Y1730853D1*
X2850975Y1722738D1*
X2847782Y1715028D1*
X2843421Y1707912D1*
X2838001Y1701566D1*
X2831655Y1696146D1*
X2824539Y1691785D1*
X2816829Y1688592D1*
X2808714Y1686643D1*
X2800394Y1685988D1*
X2792073Y1686643D1*
X2783958Y1688592D1*
X2776248Y1691785D1*
X2769133Y1696146D1*
X2762822Y1701533D1*
X2757379Y1703818D1*
X2752070Y1707071D1*
X2747335Y1711114D1*
X2743291Y1715849D1*
X2739554Y1722209D1*
X2715098Y1697761D1*
X2715075Y1646350D1*
X2724934Y1645680D1*
X2733050Y1643731D1*
X2740760Y1640538D1*
X2747875Y1636177D1*
X2754222Y1630757D1*
X2759642Y1624411D1*
X2764003Y1617295D1*
X2767196Y1609585D1*
X2769144Y1601470D1*
X2769680Y1596198D1*
X2930568Y1435139D1*
X2934227Y1430102D1*
X2937730Y1422949D1*
Y1676886D1*
X2937681Y1820748D1*
X2919236Y1839387D1*
X2915576Y1844424D1*
X2912749Y1849972D1*
X2910824Y1855894D1*
X2909850Y1862045D1*
X2909728Y1977657D1*
Y1991671D1*
X2898425Y1994374D1*
X2863122D1*
X2863058Y1930201D1*
X787340Y876886D2*
X830406D1*
X830398Y951429D1*
X763058Y951461D1*
X763106Y907598D1*
X779583Y890928D1*
X783243Y885891D1*
X786070Y880343D1*
X787152Y877408D1*
X537667Y2351461D2*
X445577D1*
X445571Y1540387D1*
X473196Y1568093D1*
X473335Y2067286D1*
X474308Y2073437D1*
X476234Y2079358D1*
X479060Y2084907D1*
X482720Y2089944D1*
X487123Y2094346D1*
X492160Y2098007D1*
X497709Y2100833D1*
X503630Y2102759D1*
X509781Y2103732D1*
X516007D1*
X523856Y2102280D1*
X537650D1*
X537681Y2351509D1*
X3235714Y951461D2*
X3212471D1*
X3214587Y943412D1*
X3215075Y937205D1*
Y541941D1*
X3221621Y546698D1*
X3229056Y550487D1*
X3235722Y552707D1*
X3235713Y951497D1*
X763121Y1476886D2*
X830406D1*
X830398Y2170570D1*
X763094Y2237837D1*
X763106Y2154865D1*
X771214Y2154203D1*
X779329Y2152255D1*
X787039Y2149062D1*
X794155Y2144701D1*
X800501Y2139281D1*
X805921Y2132934D1*
X810282Y2125819D1*
X813475Y2118109D1*
X815424Y2109993D1*
X816079Y2101673D1*
X815424Y2093353D1*
X813475Y2085238D1*
X810282Y2077528D1*
X805921Y2070412D1*
X800501Y2064066D1*
X794155Y2058646D1*
X787039Y2054285D1*
X781854Y2052022D1*
X763101Y2033555D1*
X763106Y1651461D1*
Y1476877D1*
X830441Y1351461D2*
X763058D1*
X763106Y1076837D1*
X830406Y1076886D1*
X830398Y1351429D1*
X663106Y651462D2*
X565109Y651461D1*
X571130Y637054D1*
X588152Y620033D1*
X702844Y620008D1*
X700273Y625316D1*
X697694Y633253D1*
X696388Y641496D1*
Y649843D1*
X696579Y651446D1*
X663155Y651461D1*
X2250395Y1659016D2*
X2249089Y1650773D1*
X2246510Y1642836D1*
X2242722Y1635400D1*
X2237816Y1628648D1*
X2231915Y1622747D1*
X2225163Y1617841D1*
X2217727Y1614052D1*
X2209790Y1611474D1*
X2201547Y1610168D1*
X2193201D1*
X2184958Y1611474D1*
X2177021Y1614052D1*
X2169585Y1617841D1*
X2162833Y1622747D1*
X2156932Y1628648D1*
X2152026Y1635400D1*
X2148238Y1642836D1*
X2145659Y1650773D1*
X2144353Y1659016D1*
Y1667362D1*
X2145659Y1675605D1*
X2148238Y1683542D1*
X2152026Y1690978D1*
X2157696Y1698556D1*
X2157693Y1883453D1*
X2152026Y1891054D1*
X2148238Y1898490D1*
X2145659Y1906427D1*
X2144353Y1914669D1*
Y1923016D1*
X2145659Y1931259D1*
X2148238Y1939196D1*
X2152026Y1946631D1*
X2156932Y1953383D1*
X2162833Y1959285D1*
X2169585Y1964190D1*
X2177021Y1967979D1*
X2184958Y1970558D1*
X2193201Y1971864D1*
X2201547D1*
X2209790Y1970558D1*
X2217727Y1967979D1*
X2225163Y1964190D1*
X2231915Y1959285D1*
X2237816Y1953383D1*
X2242722Y1946631D1*
X2246510Y1939196D1*
X2249089Y1931259D1*
X2250395Y1923016D1*
Y1914669D1*
X2249089Y1906427D1*
X2246510Y1898490D1*
X2242722Y1891054D1*
X2237052Y1883475D1*
X2237055Y1698579D1*
X2242722Y1690978D1*
X2246510Y1683542D1*
X2249089Y1675605D1*
X2250395Y1667362D1*
Y1659016D1*
X2483446Y1919041D2*
X2480046Y1923885D1*
X2476257Y1931320D1*
X2473678Y1939257D1*
X2472647Y1945184D1*
X2463919Y1947238D1*
X2456209Y1950430D1*
X2449093Y1954791D1*
X2442747Y1960211D1*
X2437327Y1966558D1*
X2432966Y1973673D1*
X2429773Y1981383D1*
X2427824Y1989499D1*
X2427554Y1991783D1*
X2427555Y1921803D1*
X2438858Y1919035D1*
X2483438D1*
X2427554Y2003854D2*
X2428639Y2010235D1*
X2431218Y2018172D1*
X2435007Y2025608D1*
X2440698Y2033210D1*
X2441769Y2040898D1*
X2443694Y2046819D1*
X2446521Y2052367D1*
X2450181Y2057404D1*
X2456957Y2064354D1*
X2450831Y2071416D1*
X2446470Y2078531D1*
X2443277Y2086241D1*
X2441328Y2094357D1*
X2440673Y2102677D1*
X2441328Y2110997D1*
X2443277Y2119113D1*
X2446470Y2126823D1*
X2450831Y2133938D1*
X2456251Y2140285D1*
X2463587Y2146366D1*
X2461525Y2154869D1*
X2460877Y2163009D1*
X2430266Y2162996D1*
X2427555Y2151693D1*
Y2092465D1*
X2433222Y2084797D1*
X2437010Y2077361D1*
X2439589Y2069424D1*
X2440895Y2061181D1*
Y2052835D1*
X2439589Y2044592D1*
X2437010Y2036655D1*
X2433222Y2029219D1*
X2427552Y2021640D1*
X2427555Y2004224D1*
X2300394Y1014042D2*
D10*
Y949409D1*
X2231824D2*
X2368963D1*
X1100394Y989042D2*
Y924409D1*
X1031824D2*
X1100394D1*
X1300394Y2014370D2*
Y1955643D1*
X1237730Y2014370D2*
X1300394D1*
X1050394Y2222703D2*
Y2163976D1*
X987730D2*
X1113058D1*
X2775394Y2564042D2*
Y2499409D1*
X2706824D2*
X2775394D1*
X1590157Y2532743D2*
Y2395604D1*
X1525525Y2464173D2*
X1590157D1*
X2450394Y980774D2*
D16*
Y914173D1*
X2383793D2*
X2516995D1*
X1925394Y980774D2*
Y914173D1*
X1991995D1*
X1825394Y980774D2*
Y914173D1*
X1725394Y980774D2*
Y914173D1*
X1625394Y980774D2*
Y914173D1*
X1525394Y980774D2*
Y914173D1*
X1425394Y980774D2*
Y914173D1*
X1325394Y980774D2*
Y914173D1*
X1225394Y980774D2*
Y914173D1*
X950394Y1464173D2*
Y1401509D1*
Y1464173D2*
X1013058D1*
X2750394Y1476837D2*
Y1414173D1*
X2687730D2*
X2813058D1*
X1050394Y1251837D2*
Y1189173D1*
X950394Y2296310D2*
Y2182037D1*
X893257Y2239173D2*
X1007530D1*
X1375394Y2071113D2*
Y1956840D1*
Y2013976D2*
X1432530D1*
X700394Y1514173D2*
X763058D1*
X700394Y1614173D2*
X763058D1*
X700394Y2214173D2*
X763058D1*
X1612730Y1914175D2*
X1675394D1*
D18*
X2300394Y839173D3*
Y949409D3*
X1100394Y814173D3*
Y924409D3*
D19*
X1300394Y2089173D3*
Y2014370D3*
X1050394Y2089173D3*
Y2163976D3*
D18*
X2775394Y2389173D3*
Y2499409D3*
D20*
X1700394Y2464173D3*
X1590157D3*
D23*
X2450394Y714173D3*
D24*
Y814173D3*
Y914173D3*
X1925394Y714173D3*
Y814173D3*
Y914173D3*
X1825394D3*
Y814173D3*
Y714173D3*
X1725394D3*
Y814173D3*
Y914173D3*
X1625394D3*
Y814173D3*
Y714173D3*
X1525394D3*
Y814173D3*
Y914173D3*
X1425394D3*
Y814173D3*
Y714173D3*
X1325394D3*
Y814173D3*
Y914173D3*
X1225394D3*
Y814173D3*
Y714173D3*
D29*
X950394Y1764173D3*
D30*
Y1664173D3*
Y1564173D3*
Y1464173D3*
D29*
X2750394Y1114173D3*
D30*
Y1214173D3*
Y1314173D3*
Y1414173D3*
D29*
X1150394Y1189173D3*
D30*
Y1089173D3*
X1050394Y1189173D3*
Y1089173D3*
X950394Y1189173D3*
Y1089173D3*
D29*
X3200394Y2314173D3*
Y1514173D3*
X3212894Y1014173D3*
X500394Y2414173D3*
X825394Y2464173D3*
Y2364173D3*
X800394Y1414173D3*
Y1014173D3*
Y814173D3*
Y714173D3*
D19*
X2025394Y2589173D3*
Y2514370D3*
D31*
X2450394Y2589173D3*
X2525197D3*
X2450394Y2689173D3*
X2525197D3*
X2600394Y664173D3*
X2675197D3*
D19*
X2800394Y1914173D3*
Y1988976D3*
X2900394Y1364173D3*
Y1289370D3*
D36*
X950394Y2239173D3*
Y2039173D3*
X1375394Y2013976D3*
Y2213976D3*
D29*
X600394Y714173D3*
Y814173D3*
Y914173D3*
Y1014173D3*
Y1114173D3*
Y1214173D3*
Y1314173D3*
Y1414173D3*
Y1514173D3*
Y1614173D3*
Y1714173D3*
Y1814173D3*
Y1914173D3*
Y2014173D3*
Y2114173D3*
Y2214173D3*
Y2314173D3*
Y2414173D3*
Y2514173D3*
X700394Y714173D3*
Y814173D3*
Y914173D3*
Y1014173D3*
Y1114173D3*
Y1214173D3*
Y1314173D3*
Y1414173D3*
Y1514173D3*
Y1614173D3*
Y1714173D3*
Y1814173D3*
Y1914173D3*
Y2014173D3*
Y2114173D3*
Y2214173D3*
Y2314173D3*
Y2414173D3*
Y2514173D3*
X3000394Y714173D3*
Y814173D3*
Y914173D3*
Y1014173D3*
Y1114173D3*
Y1214173D3*
Y1314173D3*
Y1414173D3*
Y1514173D3*
Y1614173D3*
Y1714173D3*
Y1814173D3*
Y1914173D3*
Y2014173D3*
Y2114173D3*
Y2214173D3*
Y2314173D3*
Y2414173D3*
Y2514173D3*
X3100394Y714173D3*
Y814173D3*
Y914173D3*
Y1014173D3*
Y1114173D3*
Y1214173D3*
Y1314173D3*
Y1414173D3*
Y1514173D3*
Y1614173D3*
Y1714173D3*
Y1814173D3*
Y1914173D3*
Y2014173D3*
Y2114173D3*
Y2214173D3*
Y2314173D3*
Y2414173D3*
Y2514173D3*
X1675394Y1114173D3*
Y1214173D3*
Y1314173D3*
Y1414173D3*
Y1514175D3*
Y1614173D3*
Y1714173D3*
Y1814175D3*
Y1914175D3*
Y2014173D3*
X500394Y2514173D3*
M02*
