G04 DipTrace 3.0.0.1*
G04 TopPaste.gbr*
%MOIN*%
G04 #@! TF.FileFunction,Paste,Top*
G04 #@! TF.Part,Single*
%ADD52R,0.009843X0.025591*%
%ADD54R,0.025591X0.009843*%
%ADD56R,0.055118X0.051181*%
%ADD58R,0.03937X0.03937*%
%ADD64R,0.074803X0.110236*%
%ADD66R,0.023622X0.043307*%
%ADD68R,0.110236X0.074803*%
%ADD70R,0.043307X0.023622*%
%ADD74R,0.011811X0.055118*%
%ADD76R,0.055118X0.102362*%
%FSLAX26Y26*%
G04*
G70*
G90*
G75*
G01*
G04 TopPaste*
%LPD*%
D76*
X2675394Y714174D3*
Y883466D3*
D74*
X2250394Y2739173D3*
X2214961D3*
X2179528D3*
Y2623031D3*
X2214961D3*
X2250394D3*
D70*
X2750394Y2314173D3*
Y2363386D3*
Y2412598D3*
Y2461811D3*
Y2511024D3*
Y2560236D3*
D68*
X2858663Y2213780D3*
Y2660630D3*
D66*
X1750394Y2614173D3*
X1701181D3*
X1651969D3*
X1602756D3*
X1553543D3*
X1504331D3*
D64*
X1850787Y2722442D3*
X1403937D3*
D70*
X2700394Y1714173D3*
Y1763386D3*
Y1812598D3*
Y1861811D3*
D68*
X2808661Y1613780D3*
Y1962205D3*
D66*
X1125394Y2614173D3*
X1076181D3*
X1026969D3*
X977756D3*
X928543D3*
X879331D3*
D64*
X1225787Y2722442D3*
X778937D3*
D58*
X1350394Y1314173D3*
D56*
X1389764Y1442126D3*
D58*
X1429134Y1314173D3*
X1350394Y1689173D3*
D56*
X1389764Y1817126D3*
D58*
X1429134Y1689173D3*
D54*
X1050394Y614173D3*
Y645669D3*
Y677165D3*
Y708661D3*
X989370D3*
Y677165D3*
Y645669D3*
Y614173D3*
X2150394Y714173D3*
Y682677D3*
Y651181D3*
Y619685D3*
X2211417D3*
Y651181D3*
Y682677D3*
Y714173D3*
D52*
X1162894Y2426673D3*
X1131398D3*
X1099902D3*
X1068406D3*
Y2365650D3*
X1099902D3*
X1131398D3*
X1162894D3*
X2650394Y2139173D3*
X2618898D3*
X2587402D3*
X2555906D3*
Y2078150D3*
X2587402D3*
X2618898D3*
X2650394D3*
X1725394Y2339173D3*
X1693898D3*
X1662402D3*
X1630906D3*
Y2278150D3*
X1662402D3*
X1693898D3*
X1725394D3*
M02*
