G04 DipTrace 3.0.0.1*
G04 TopSilk.gbr*
%MOIN*%
G04 #@! TF.FileFunction,Legend,Top*
G04 #@! TF.Part,Single*
%ADD10C,0.009843*%
%ADD37C,0.031249*%
%ADD83C,0.00772*%
%ADD84C,0.009264*%
%ADD85C,0.010807*%
%ADD86C,0.010936*%
%ADD87C,0.006176*%
%ADD88C,0.012351*%
%ADD89C,0.004632*%
%FSLAX26Y26*%
G04*
G70*
G90*
G75*
G01*
G04 TopSilk*
%LPD*%
X2644150Y948806D2*
D10*
X2700407D1*
X2662894Y961320D2*
X2687903D1*
X2556643Y892585D2*
Y923809D1*
X2600396D1*
X2756640D2*
X2800394D1*
Y880071D1*
X2556643Y717574D2*
Y673807D1*
X2587892D1*
X2762905D2*
X2800394D1*
Y711318D1*
X2152458Y2612351D2*
X2133710D1*
Y2637358D1*
Y2718595D2*
Y2743602D1*
X2152458D1*
X2283712Y2612351D2*
X2302461D1*
Y2637358D1*
Y2718595D2*
Y2743602D1*
X2277469D1*
X2400389Y664192D2*
X2500394D1*
Y964154D1*
X2400389D1*
Y664192D1*
X1172059Y650119D2*
X1983377D1*
Y964418D1*
X1172059D1*
Y650119D1*
X1771998Y651902D2*
Y964418D1*
X1572051Y651902D2*
Y964418D1*
X1472029Y651902D2*
Y964418D1*
X1372007Y651902D2*
Y964418D1*
X1878688Y655310D2*
X1878212Y964418D1*
X1271986Y651902D2*
Y964418D1*
X1671977Y651902D2*
Y964418D1*
X2712894Y2299686D2*
Y2324680D1*
X1764881Y2576673D2*
X1739887D1*
X1000399Y1414173D2*
X906654D1*
X900394D2*
Y1814173D1*
X1000378D2*
X900394D1*
X1000399Y1414173D2*
X1000378Y1814173D1*
X2656643Y1693451D2*
Y1730957D1*
X2800394Y1464173D2*
X2700394D1*
X2800394Y1064173D2*
Y1464173D1*
X2700394Y1064173D2*
Y1464173D1*
X2800394Y1064173D2*
X2700394D1*
X1139881Y2576673D2*
X1114887D1*
X1092094Y1239173D2*
X900394D1*
X1200394D2*
X900394D1*
X1200394Y1039173D2*
X900394D1*
X1200394Y1239173D2*
Y1039173D1*
X900394Y1239173D2*
Y1039173D1*
X951132Y580168D2*
X1082383D1*
Y736417D1*
X951132D1*
Y580168D1*
X2249656Y748178D2*
X2118405D1*
Y591929D1*
X2249656D1*
Y748178D1*
X1196899Y2327411D2*
X1040650D1*
Y2458662D1*
X1196899D1*
Y2327411D1*
X2684399Y2039911D2*
X2528150D1*
Y2171162D1*
X2684399D1*
Y2039911D1*
X1759399Y2239911D2*
X1603150D1*
Y2371162D1*
X1759399D1*
Y2239911D1*
X906643Y2139173D2*
X906765Y2143969D1*
X907130Y2148741D1*
X907736Y2153466D1*
X908580Y2158122D1*
X909658Y2162686D1*
X910966Y2167135D1*
X912496Y2171447D1*
X914241Y2175603D1*
X916192Y2179581D1*
X918341Y2183362D1*
X920676Y2186928D1*
X923187Y2190261D1*
X925860Y2193346D1*
X928683Y2196166D1*
X931643Y2198709D1*
X934724Y2200961D1*
X937913Y2202913D1*
X941192Y2204554D1*
X944547Y2205877D1*
X947961Y2206874D1*
X951417Y2207542D1*
X954898Y2207877D1*
X958388D1*
X961869Y2207542D1*
X965325Y2206874D1*
X968739Y2205877D1*
X972094Y2204554D1*
X975373Y2202913D1*
X978562Y2200961D1*
X981643Y2198709D1*
X984603Y2196166D1*
X987426Y2193346D1*
X990100Y2190261D1*
X992610Y2186928D1*
X994945Y2183362D1*
X997094Y2179581D1*
X999045Y2175603D1*
X1000790Y2171447D1*
X1002320Y2167135D1*
X1003628Y2162686D1*
X1004706Y2158122D1*
X1005550Y2153466D1*
X1006156Y2148741D1*
X1006521Y2143969D1*
X1006643Y2139173D1*
X1006521Y2134378D1*
X1006156Y2129606D1*
X1005550Y2124880D1*
X1004706Y2120224D1*
X1003628Y2115661D1*
X1002320Y2111212D1*
X1000790Y2106899D1*
X999045Y2102744D1*
X997094Y2098766D1*
X994945Y2094984D1*
X992610Y2091419D1*
X990100Y2088085D1*
X987426Y2085001D1*
X984603Y2082181D1*
X981643Y2079638D1*
X978562Y2077385D1*
X975373Y2075433D1*
X972094Y2073792D1*
X968739Y2072470D1*
X965325Y2071472D1*
X961869Y2070804D1*
X958388Y2070470D1*
X954898D1*
X951417Y2070804D1*
X947961Y2071472D1*
X944547Y2072470D1*
X941192Y2073792D1*
X937913Y2075433D1*
X934724Y2077385D1*
X931643Y2079638D1*
X928683Y2082181D1*
X925860Y2085001D1*
X923187Y2088085D1*
X920676Y2091419D1*
X918341Y2094984D1*
X916192Y2098766D1*
X914241Y2102744D1*
X912496Y2106899D1*
X910966Y2111212D1*
X909658Y2115661D1*
X908580Y2120224D1*
X907736Y2124880D1*
X907130Y2129606D1*
X906765Y2134378D1*
X906643Y2139173D1*
X931643D2*
X931696Y2140917D1*
X931856Y2142652D1*
X932121Y2144371D1*
X932490Y2146064D1*
X932962Y2147723D1*
X933534Y2149341D1*
X934204Y2150909D1*
X934967Y2152420D1*
X935821Y2153867D1*
X936761Y2155242D1*
X937782Y2156539D1*
X938881Y2157751D1*
X940050Y2158872D1*
X941286Y2159898D1*
X942581Y2160822D1*
X943929Y2161642D1*
X945324Y2162351D1*
X946758Y2162948D1*
X948226Y2163429D1*
X949719Y2163792D1*
X951231Y2164035D1*
X952755Y2164156D1*
X954281D1*
X955805Y2164035D1*
X957317Y2163792D1*
X958810Y2163429D1*
X960278Y2162948D1*
X961713Y2162351D1*
X963107Y2161642D1*
X964456Y2160822D1*
X965750Y2159898D1*
X966986Y2158872D1*
X968155Y2157751D1*
X969254Y2156539D1*
X970275Y2155242D1*
X971215Y2153867D1*
X972069Y2152420D1*
X972833Y2150909D1*
X973502Y2149341D1*
X974074Y2147723D1*
X974546Y2146064D1*
X974915Y2144371D1*
X975180Y2142652D1*
X975340Y2140917D1*
X975393Y2139173D1*
X975340Y2137429D1*
X975180Y2135694D1*
X974915Y2133976D1*
X974546Y2132283D1*
X974074Y2130623D1*
X973502Y2129005D1*
X972833Y2127437D1*
X972069Y2125926D1*
X971215Y2124480D1*
X970275Y2123105D1*
X969254Y2121808D1*
X968155Y2120596D1*
X966986Y2119474D1*
X965750Y2118449D1*
X964456Y2117524D1*
X963107Y2116705D1*
X961713Y2115995D1*
X960278Y2115398D1*
X958810Y2114917D1*
X957317Y2114555D1*
X955805Y2114312D1*
X954281Y2114190D1*
X952755D1*
X951231Y2114312D1*
X949719Y2114555D1*
X948226Y2114917D1*
X946758Y2115398D1*
X945324Y2115995D1*
X943929Y2116705D1*
X942581Y2117524D1*
X941286Y2118449D1*
X940050Y2119474D1*
X938881Y2120596D1*
X937782Y2121808D1*
X936761Y2123105D1*
X935821Y2124480D1*
X934967Y2125926D1*
X934204Y2127437D1*
X933534Y2129005D1*
X932962Y2130623D1*
X932490Y2132283D1*
X932121Y2133976D1*
X931856Y2135694D1*
X931696Y2137429D1*
X931643Y2139173D1*
X1319144Y2113976D2*
X1319266Y2118772D1*
X1319631Y2123544D1*
X1320237Y2128269D1*
X1321081Y2132925D1*
X1322160Y2137489D1*
X1323467Y2141938D1*
X1324997Y2146250D1*
X1326742Y2150406D1*
X1328694Y2154384D1*
X1330842Y2158165D1*
X1333177Y2161731D1*
X1335688Y2165064D1*
X1338361Y2168149D1*
X1341185Y2170969D1*
X1344144Y2173512D1*
X1347226Y2175765D1*
X1350414Y2177716D1*
X1353694Y2179357D1*
X1357048Y2180680D1*
X1360462Y2181678D1*
X1363918Y2182345D1*
X1367399Y2182680D1*
X1370889D1*
X1374371Y2182345D1*
X1377827Y2181678D1*
X1381240Y2180680D1*
X1384595Y2179357D1*
X1387875Y2177716D1*
X1391063Y2175765D1*
X1394144Y2173512D1*
X1397104Y2170969D1*
X1399927Y2168149D1*
X1402601Y2165064D1*
X1405111Y2161731D1*
X1407447Y2158165D1*
X1409595Y2154384D1*
X1411547Y2150406D1*
X1413292Y2146250D1*
X1414822Y2141938D1*
X1416129Y2137489D1*
X1417207Y2132925D1*
X1418052Y2128269D1*
X1418658Y2123544D1*
X1419023Y2118772D1*
X1419144Y2113976D1*
X1419023Y2109181D1*
X1418658Y2104409D1*
X1418052Y2099683D1*
X1417207Y2095028D1*
X1416129Y2090464D1*
X1414822Y2086015D1*
X1413292Y2081702D1*
X1411547Y2077547D1*
X1409595Y2073569D1*
X1407447Y2069788D1*
X1405111Y2066222D1*
X1402601Y2062888D1*
X1399927Y2059804D1*
X1397104Y2056984D1*
X1394144Y2054441D1*
X1391063Y2052188D1*
X1387875Y2050237D1*
X1384595Y2048595D1*
X1381240Y2047273D1*
X1377827Y2046275D1*
X1374371Y2045607D1*
X1370889Y2045273D1*
X1367399D1*
X1363918Y2045607D1*
X1360462Y2046275D1*
X1357048Y2047273D1*
X1353694Y2048595D1*
X1350414Y2050237D1*
X1347226Y2052188D1*
X1344144Y2054441D1*
X1341185Y2056984D1*
X1338361Y2059804D1*
X1335688Y2062888D1*
X1333177Y2066222D1*
X1330842Y2069788D1*
X1328694Y2073569D1*
X1326742Y2077547D1*
X1324997Y2081702D1*
X1323467Y2086015D1*
X1322160Y2090464D1*
X1321081Y2095028D1*
X1320237Y2099683D1*
X1319631Y2104409D1*
X1319266Y2109181D1*
X1319144Y2113976D1*
X1350394D2*
X1350448Y2115720D1*
X1350607Y2117455D1*
X1350872Y2119174D1*
X1351242Y2120867D1*
X1351714Y2122526D1*
X1352286Y2124144D1*
X1352955Y2125712D1*
X1353718Y2127224D1*
X1354572Y2128670D1*
X1355512Y2130045D1*
X1356534Y2131342D1*
X1357632Y2132554D1*
X1358802Y2133675D1*
X1360037Y2134701D1*
X1361332Y2135626D1*
X1362680Y2136445D1*
X1364075Y2137154D1*
X1365510Y2137751D1*
X1366977Y2138232D1*
X1368471Y2138595D1*
X1369983Y2138838D1*
X1371506Y2138960D1*
X1373033D1*
X1374556Y2138838D1*
X1376068Y2138595D1*
X1377561Y2138232D1*
X1379029Y2137751D1*
X1380464Y2137154D1*
X1381859Y2136445D1*
X1383207Y2135626D1*
X1384502Y2134701D1*
X1385737Y2133675D1*
X1386907Y2132554D1*
X1388005Y2131342D1*
X1389027Y2130045D1*
X1389967Y2128670D1*
X1390820Y2127224D1*
X1391584Y2125712D1*
X1392253Y2124144D1*
X1392825Y2122526D1*
X1393297Y2120867D1*
X1393666Y2119174D1*
X1393931Y2117455D1*
X1394091Y2115720D1*
X1394144Y2113976D1*
X1394091Y2112233D1*
X1393931Y2110497D1*
X1393666Y2108779D1*
X1393297Y2107086D1*
X1392825Y2105426D1*
X1392253Y2103809D1*
X1391584Y2102240D1*
X1390820Y2100729D1*
X1389967Y2099283D1*
X1389027Y2097908D1*
X1388005Y2096611D1*
X1386907Y2095399D1*
X1385737Y2094277D1*
X1384502Y2093252D1*
X1383207Y2092327D1*
X1381859Y2091508D1*
X1380464Y2090798D1*
X1379029Y2090201D1*
X1377561Y2089721D1*
X1376068Y2089358D1*
X1374556Y2089115D1*
X1373033Y2088993D1*
X1371506D1*
X1369983Y2089115D1*
X1368471Y2089358D1*
X1366977Y2089721D1*
X1365510Y2090201D1*
X1364075Y2090798D1*
X1362680Y2091508D1*
X1361332Y2092327D1*
X1360037Y2093252D1*
X1358802Y2094277D1*
X1357632Y2095399D1*
X1356534Y2096611D1*
X1355512Y2097908D1*
X1354572Y2099283D1*
X1353718Y2100729D1*
X1352955Y2102240D1*
X1352286Y2103809D1*
X1351714Y2105426D1*
X1351242Y2107086D1*
X1350872Y2108779D1*
X1350607Y2110497D1*
X1350448Y2112233D1*
X1350394Y2113976D1*
X1616338Y2078731D2*
X2364370D1*
Y1055119D1*
X1616338D1*
Y2078731D1*
D37*
X1600714Y2102000D3*
G36*
X2675394Y1089173D2*
X2700394D1*
Y1064173D1*
X2675394D1*
Y1089173D1*
G37*
G36*
X2275394Y2789173D2*
X2300394D1*
Y2764173D1*
X2275394D1*
Y2789173D1*
G37*
X2671987Y1022605D2*
D83*
X2669610Y1027358D1*
X2664802Y1032166D1*
X2660049Y1034543D1*
X2650487D1*
X2645679Y1032166D1*
X2640926Y1027358D1*
X2638494Y1022605D1*
X2636117Y1015420D1*
Y1003426D1*
X2638494Y996296D1*
X2640926Y991488D1*
X2645679Y986735D1*
X2650487Y984303D1*
X2660049D1*
X2664802Y986735D1*
X2669610Y991488D1*
X2671987Y996296D1*
X2696988Y984303D2*
X2720920Y1034488D1*
X2687426D1*
X2187622Y2843892D2*
Y2793652D1*
X2204369D1*
X2211554Y2796084D1*
X2216362Y2800837D1*
X2218739Y2805646D1*
X2221116Y2812776D1*
Y2824769D1*
X2218739Y2831954D1*
X2216362Y2836707D1*
X2211554Y2841516D1*
X2204369Y2843892D1*
X2187622D1*
X2236555Y2834275D2*
X2241363Y2836707D1*
X2248548Y2843837D1*
Y2793652D1*
X2338925Y623302D2*
X2360425D1*
X2367610Y625734D1*
X2370042Y628110D1*
X2372418Y632863D1*
Y637672D1*
X2370042Y642425D1*
X2367610Y644857D1*
X2360425Y647234D1*
X2338925D1*
Y596994D1*
X2355672Y623302D2*
X2372418Y596994D1*
X2387858Y647234D2*
X2421351Y596994D1*
Y647234D2*
X2387858Y596994D1*
X2485391Y620925D2*
X2506946D1*
X2514076Y623302D1*
X2516508Y625734D1*
X2518884Y630487D1*
Y637672D1*
X2516508Y642425D1*
X2514076Y644857D1*
X2506946Y647234D1*
X2485391D1*
Y596994D1*
X2534324Y620925D2*
X2555879D1*
X2563009Y623302D1*
X2565440Y625734D1*
X2567817Y630487D1*
Y637672D1*
X2565440Y642425D1*
X2563009Y644857D1*
X2555879Y647234D1*
X2534324D1*
Y596994D1*
X2621503D2*
Y647234D1*
X2602380Y596994D1*
X2583256Y647234D1*
Y596994D1*
X1603094Y633161D2*
X1572032D1*
Y582921D1*
X1603094D1*
X1572032Y609229D2*
X1591155D1*
X1652026Y625976D2*
X1647273Y630784D1*
X1640088Y633161D1*
X1630526D1*
X1623341Y630784D1*
X1618533Y625976D1*
Y621223D1*
X1620965Y616414D1*
X1623341Y614037D1*
X1628094Y611661D1*
X1642465Y606852D1*
X1647273Y604476D1*
X1649650Y602044D1*
X1652026Y597291D1*
Y590106D1*
X1647273Y585353D1*
X1640088Y582921D1*
X1630526D1*
X1623341Y585353D1*
X1618533Y590106D1*
X1703335Y621223D2*
X1700959Y625976D1*
X1696150Y630784D1*
X1691397Y633161D1*
X1681835D1*
X1677027Y630784D1*
X1672274Y625976D1*
X1669842Y621223D1*
X1667465Y614037D1*
Y602044D1*
X1669842Y594914D1*
X1672274Y590106D1*
X1677027Y585353D1*
X1681835Y582921D1*
X1691397D1*
X1696150Y585353D1*
X1700959Y590106D1*
X1703335Y594914D1*
X2802805Y2775192D2*
Y2736945D1*
X2800429Y2729760D1*
X2797997Y2727383D1*
X2793244Y2724952D1*
X2788435D1*
X2783682Y2727383D1*
X2781305Y2729760D1*
X2778874Y2736945D1*
Y2741698D1*
X2823053Y2775136D2*
X2849306D1*
X2834991Y2756013D1*
X2842176D1*
X2846929Y2753636D1*
X2849306Y2751260D1*
X2851738Y2744075D1*
Y2739322D1*
X2849306Y2732137D1*
X2844553Y2727328D1*
X2837368Y2724952D1*
X2830183D1*
X2823053Y2727328D1*
X2820676Y2729760D1*
X2818245Y2734513D1*
X2658794Y2335839D2*
X2697096D1*
X2704225Y2333462D1*
X2706657Y2331085D1*
X2709034Y2326277D1*
Y2319092D1*
X2706657Y2314339D1*
X2665979Y2335839D2*
X2661226Y2331085D1*
X2658794Y2326277D1*
Y2319092D1*
X2661226Y2314339D1*
X2665979Y2309530D1*
X2673164Y2307154D1*
X2677972D1*
X2685102Y2309530D1*
X2689911Y2314339D1*
X2692287Y2319092D1*
Y2326277D1*
X2689911Y2331085D1*
X2685102Y2335839D1*
X2656417Y2351278D2*
X2706657D1*
X2663602D2*
X2658849Y2356086D1*
X2656417Y2360839D1*
Y2368025D1*
X2658849Y2372833D1*
X2663602Y2377586D1*
X2670787Y2380018D1*
X2675596D1*
X2682726Y2377586D1*
X2687534Y2372833D1*
X2689911Y2368024D1*
Y2360839D1*
X2687534Y2356086D1*
X2682726Y2351278D1*
X2663602Y2421765D2*
X2658794Y2419389D1*
X2656417Y2412204D1*
Y2405019D1*
X2658794Y2397834D1*
X2663602Y2395457D1*
X2668356Y2397834D1*
X2670787Y2402642D1*
X2673164Y2414580D1*
X2675541Y2419389D1*
X2680349Y2421765D1*
X2682726D1*
X2687479Y2419389D1*
X2689911Y2412204D1*
Y2405019D1*
X2687479Y2397834D1*
X2682726Y2395457D1*
X2626572Y2437205D2*
X2703065D1*
X2656417Y2452644D2*
X2680349D1*
X2687479Y2455021D1*
X2689911Y2459829D1*
Y2467014D1*
X2687479Y2471767D1*
X2680349Y2478952D1*
X2656417D2*
X2689911D1*
X2698201Y2494392D2*
Y2539823D1*
X2649288Y2555262D2*
X2646856Y2560071D1*
X2639726Y2567256D1*
X2689911D1*
X1613673Y2854720D2*
Y2816474D1*
X1611297Y2809289D1*
X1608865Y2806912D1*
X1604112Y2804480D1*
X1599303D1*
X1594550Y2806912D1*
X1592174Y2809289D1*
X1589742Y2816474D1*
Y2821227D1*
X1653044Y2804480D2*
Y2854665D1*
X1629113Y2821227D1*
X1664983D1*
X1491895Y2542968D2*
Y2519036D1*
X1494271Y2511906D1*
X1499080Y2509475D1*
X1506265D1*
X1511018Y2511906D1*
X1518203Y2519036D1*
Y2542968D2*
Y2509475D1*
X1559951Y2535783D2*
X1557574Y2540591D1*
X1550389Y2542968D1*
X1543204D1*
X1536019Y2540591D1*
X1533642Y2535783D1*
X1536019Y2531030D1*
X1540827Y2528598D1*
X1552766Y2526221D1*
X1557574Y2523845D1*
X1559951Y2519036D1*
Y2516660D1*
X1557574Y2511906D1*
X1550389Y2509475D1*
X1543204D1*
X1536019Y2511906D1*
X1533642Y2516660D1*
X1604075Y2542968D2*
Y2509475D1*
Y2535783D2*
X1599322Y2540591D1*
X1594513Y2542968D1*
X1587383D1*
X1582575Y2540591D1*
X1577822Y2535783D1*
X1575390Y2528598D1*
Y2523845D1*
X1577822Y2516660D1*
X1582575Y2511906D1*
X1587383Y2509475D1*
X1594513D1*
X1599322Y2511906D1*
X1604075Y2516660D1*
X1619514Y2542968D2*
Y2509475D1*
Y2528598D2*
X1621946Y2535783D1*
X1626699Y2540591D1*
X1631507Y2542968D1*
X1638692D1*
X1661317Y2559715D2*
Y2519036D1*
X1663693Y2511906D1*
X1668502Y2509475D1*
X1673255D1*
X1654132Y2542968D2*
X1670878D1*
X1688694Y2534567D2*
X1716329D1*
X1760453Y2552529D2*
X1758077Y2557283D1*
X1750891Y2559659D1*
X1746138D1*
X1738953Y2557283D1*
X1734145Y2550098D1*
X1731768Y2538159D1*
Y2526221D1*
X1734145Y2516660D1*
X1738953Y2511851D1*
X1746138Y2509475D1*
X1748515D1*
X1755645Y2511851D1*
X1760453Y2516660D1*
X1762830Y2523845D1*
Y2526221D1*
X1760453Y2533406D1*
X1755645Y2538159D1*
X1748515Y2540536D1*
X1746138D1*
X1738953Y2538159D1*
X1734145Y2533406D1*
X1731768Y2526221D1*
X991183Y1887396D2*
Y1849150D1*
X988807Y1841965D1*
X986375Y1839588D1*
X981622Y1837156D1*
X976813D1*
X972060Y1839588D1*
X969683Y1841965D1*
X967252Y1849150D1*
Y1853903D1*
X1035307Y1887341D2*
X1011431D1*
X1009054Y1865841D1*
X1011431Y1868218D1*
X1018616Y1870650D1*
X1025746D1*
X1032931Y1868218D1*
X1037739Y1863465D1*
X1040116Y1856280D1*
Y1851526D1*
X1037739Y1844341D1*
X1032931Y1839533D1*
X1025746Y1837156D1*
X1018616D1*
X1011431Y1839533D1*
X1009054Y1841965D1*
X1006623Y1846718D1*
X2750895Y2076766D2*
Y2038520D1*
X2748519Y2031335D1*
X2746087Y2028958D1*
X2741334Y2026526D1*
X2736525D1*
X2731772Y2028958D1*
X2729395Y2031335D1*
X2726964Y2038520D1*
Y2043273D1*
X2795019Y2069581D2*
X2792643Y2074335D1*
X2785458Y2076711D1*
X2780705D1*
X2773520Y2074335D1*
X2768711Y2067149D1*
X2766335Y2055211D1*
Y2043273D1*
X2768711Y2033711D1*
X2773520Y2028903D1*
X2780705Y2026526D1*
X2783081D1*
X2790211Y2028903D1*
X2795019Y2033711D1*
X2797396Y2040896D1*
Y2043273D1*
X2795019Y2050458D1*
X2790211Y2055211D1*
X2783081Y2057588D1*
X2780705D1*
X2773520Y2055211D1*
X2768711Y2050458D1*
X2766335Y2043273D1*
X2583420Y1693029D2*
X2585797Y1695405D1*
X2583420Y1697837D1*
X2580988Y1695405D1*
X2583420Y1693029D1*
X2600167Y1695405D2*
X2633660D1*
X2595414Y1715708D2*
X2593037D1*
X2588228Y1718085D1*
X2585852Y1720461D1*
X2583475Y1725270D1*
Y1734832D1*
X2585852Y1739585D1*
X2588228Y1741961D1*
X2593037Y1744393D1*
X2597790D1*
X2602599Y1741961D1*
X2609728Y1737208D1*
X2633660Y1713276D1*
Y1746770D1*
X2607352Y1790949D2*
X2602543Y1786141D1*
X2600167Y1781332D1*
Y1774202D1*
X2602543Y1769394D1*
X2607352Y1764641D1*
X2614537Y1762209D1*
X2619290D1*
X2626475Y1764641D1*
X2631228Y1769394D1*
X2633660Y1774202D1*
Y1781332D1*
X2631228Y1786141D1*
X2626475Y1790949D1*
X2608568Y1806388D2*
Y1834023D1*
X2583475Y1854271D2*
Y1880524D1*
X2602599Y1866209D1*
Y1873394D1*
X2604975Y1878147D1*
X2607352Y1880524D1*
X2614537Y1882956D1*
X2619290D1*
X2626475Y1880524D1*
X2631283Y1875771D1*
X2633660Y1868586D1*
Y1861401D1*
X2631283Y1854271D1*
X2628852Y1851894D1*
X2624098Y1849462D1*
X2737893Y1537396D2*
Y1499150D1*
X2735517Y1491965D1*
X2733085Y1489588D1*
X2728332Y1487156D1*
X2723523D1*
X2718770Y1489588D1*
X2716393Y1491965D1*
X2713962Y1499150D1*
Y1503903D1*
X2762894Y1487156D2*
X2786826Y1537341D1*
X2753333D1*
X2627171Y1169210D2*
X2629547Y1171586D1*
X2627171Y1174018D1*
X2624739Y1171586D1*
X2627171Y1169210D1*
X2643917Y1171586D2*
X2677411D1*
X2639164Y1191889D2*
X2636788D1*
X2631979Y1194266D1*
X2629603Y1196643D1*
X2627226Y1201451D1*
Y1211013D1*
X2629603Y1215766D1*
X2631979Y1218142D1*
X2636788Y1220574D1*
X2641541D1*
X2646349Y1218142D1*
X2653479Y1213389D1*
X2677411Y1189457D1*
Y1222951D1*
X2651102Y1267130D2*
X2646294Y1262322D1*
X2643917Y1257513D1*
Y1250384D1*
X2646294Y1245575D1*
X2651102Y1240822D1*
X2658287Y1238390D1*
X2663041D1*
X2670226Y1240822D1*
X2674979Y1245575D1*
X2677411Y1250383D1*
Y1257513D1*
X2674979Y1262322D1*
X2670226Y1267130D1*
X2652318Y1282569D2*
Y1310204D1*
X2627226Y1330452D2*
Y1356705D1*
X2646349Y1342390D1*
Y1349575D1*
X2648726Y1354328D1*
X2651102Y1356705D1*
X2658287Y1359137D1*
X2663041D1*
X2670226Y1356705D1*
X2675034Y1351952D1*
X2677411Y1344767D1*
Y1337582D1*
X2675034Y1330452D1*
X2672602Y1328075D1*
X2667849Y1325643D1*
X989889Y2854720D2*
Y2816474D1*
X987513Y2809289D1*
X985081Y2806912D1*
X980328Y2804480D1*
X975519D1*
X970766Y2806912D1*
X968390Y2809289D1*
X965958Y2816474D1*
Y2821227D1*
X1017267Y2854665D2*
X1010137Y2852289D1*
X1007705Y2847535D1*
Y2842727D1*
X1010137Y2837974D1*
X1014890Y2835542D1*
X1024452Y2833165D1*
X1031637Y2830789D1*
X1036390Y2825980D1*
X1038767Y2821227D1*
Y2814042D1*
X1036390Y2809289D1*
X1034014Y2806857D1*
X1026828Y2804480D1*
X1017267D1*
X1010137Y2806857D1*
X1007705Y2809289D1*
X1005329Y2814042D1*
Y2821227D1*
X1007705Y2825980D1*
X1012514Y2830789D1*
X1019643Y2833165D1*
X1029205Y2835542D1*
X1034014Y2837974D1*
X1036390Y2842727D1*
Y2847535D1*
X1034014Y2852289D1*
X1026828Y2854665D1*
X1017267D1*
X681122Y2563276D2*
X705054D1*
X712184Y2565652D1*
X714615Y2570461D1*
Y2577646D1*
X712184Y2582399D1*
X705054Y2589584D1*
X681122D2*
X714615D1*
X681122Y2633708D2*
X714615D1*
X688307D2*
X683499Y2628955D1*
X681122Y2624147D1*
Y2617017D1*
X683499Y2612208D1*
X688307Y2607455D1*
X695492Y2605023D1*
X700245D1*
X707430Y2607455D1*
X712184Y2612208D1*
X714615Y2617017D1*
Y2624146D1*
X712184Y2628955D1*
X707430Y2633708D1*
X681122Y2649147D2*
X714615D1*
X695492D2*
X688307Y2651579D1*
X683499Y2656332D1*
X681122Y2661141D1*
Y2668326D1*
X664375Y2690950D2*
X705054D1*
X712184Y2693327D1*
X714615Y2698135D1*
Y2702888D1*
X681122Y2683765D2*
Y2700512D1*
X689523Y2718328D2*
Y2745962D1*
X676369Y2763833D2*
X673992D1*
X669184Y2766210D1*
X666807Y2768587D1*
X664431Y2773395D1*
Y2782957D1*
X666807Y2787710D1*
X669184Y2790087D1*
X673992Y2792518D1*
X678745D1*
X683554Y2790087D1*
X690684Y2785333D1*
X714615Y2761402D1*
Y2794895D1*
X976433Y1288465D2*
X974056Y1293273D1*
X966871Y1295650D1*
X959686D1*
X952501Y1293273D1*
X950124Y1288465D1*
X952501Y1283711D1*
X957309Y1281280D1*
X969248Y1278903D1*
X974056Y1276526D1*
X976433Y1271718D1*
Y1269341D1*
X974056Y1264588D1*
X966871Y1262156D1*
X959686D1*
X952501Y1264588D1*
X950124Y1269341D1*
X991872Y1295650D2*
Y1245410D1*
Y1288465D2*
X996680Y1293218D1*
X1001433Y1295650D1*
X1008619D1*
X1013427Y1293218D1*
X1018180Y1288465D1*
X1020612Y1281280D1*
Y1276471D1*
X1018180Y1269341D1*
X1013427Y1264533D1*
X1008619Y1262156D1*
X1001433D1*
X996680Y1264533D1*
X991872Y1269341D1*
X1036051Y1312396D2*
X1038428Y1310020D1*
X1040860Y1312396D1*
X1038428Y1314828D1*
X1036051Y1312396D1*
X1038428Y1295650D2*
Y1262156D1*
X1056299Y1253866D2*
X1101731D1*
X1119602Y1300403D2*
Y1302779D1*
X1121978Y1307588D1*
X1124355Y1309964D1*
X1129163Y1312341D1*
X1138725D1*
X1143478Y1309964D1*
X1145855Y1307588D1*
X1148287Y1302779D1*
Y1298026D1*
X1145855Y1293218D1*
X1141101Y1286088D1*
X1117170Y1262156D1*
X1150663D1*
X1347363Y1520945D2*
X1368862D1*
X1376047Y1523377D1*
X1378479Y1525753D1*
X1380856Y1530507D1*
Y1535315D1*
X1378479Y1540068D1*
X1376047Y1542500D1*
X1368862Y1544877D1*
X1347363D1*
Y1494637D1*
X1364109Y1520945D2*
X1380856Y1494637D1*
X1420227D2*
Y1544821D1*
X1396295Y1511383D1*
X1432165D1*
X1290683Y1256846D2*
Y1206606D1*
Y1249661D2*
X1295491Y1254414D1*
X1300244Y1256846D1*
X1307429D1*
X1312238Y1254414D1*
X1316991Y1249661D1*
X1319423Y1242476D1*
Y1237667D1*
X1316991Y1230538D1*
X1312238Y1225729D1*
X1307429Y1223352D1*
X1300244D1*
X1295491Y1225729D1*
X1290683Y1230538D1*
X1346800Y1256846D2*
X1342047Y1254469D1*
X1337239Y1249661D1*
X1334862Y1242476D1*
Y1237723D1*
X1337239Y1230538D1*
X1342047Y1225784D1*
X1346800Y1223352D1*
X1353985D1*
X1358794Y1225784D1*
X1363547Y1230538D1*
X1365979Y1237723D1*
Y1242476D1*
X1363547Y1249661D1*
X1358794Y1254469D1*
X1353985Y1256846D1*
X1346800D1*
X1388603Y1273592D2*
Y1232914D1*
X1390980Y1225784D1*
X1395788Y1223352D1*
X1400541D1*
X1381418Y1256846D2*
X1398165D1*
X1415981Y1215062D2*
X1461412D1*
X1476851Y1263976D2*
X1481660Y1266407D1*
X1488845Y1273537D1*
Y1223352D1*
X1348551Y1895945D2*
X1370051D1*
X1377236Y1898377D1*
X1379668Y1900753D1*
X1382044Y1905507D1*
Y1910315D1*
X1379668Y1915068D1*
X1377236Y1917500D1*
X1370051Y1919877D1*
X1348551D1*
Y1869637D1*
X1365297Y1895945D2*
X1382044Y1869637D1*
X1426168Y1919821D2*
X1402292D1*
X1399915Y1898322D1*
X1402292Y1900698D1*
X1409477Y1903130D1*
X1416607D1*
X1423792Y1900698D1*
X1428600Y1895945D1*
X1430977Y1888760D1*
Y1884007D1*
X1428600Y1876822D1*
X1423792Y1872013D1*
X1416607Y1869637D1*
X1409477D1*
X1402292Y1872013D1*
X1399915Y1874445D1*
X1397483Y1879198D1*
X1279933Y1631846D2*
Y1581606D1*
Y1624661D2*
X1284741Y1629414D1*
X1289494Y1631846D1*
X1296679D1*
X1301488Y1629414D1*
X1306241Y1624661D1*
X1308673Y1617476D1*
Y1612667D1*
X1306241Y1605538D1*
X1301488Y1600729D1*
X1296679Y1598352D1*
X1289494D1*
X1284741Y1600729D1*
X1279933Y1605538D1*
X1336050Y1631846D2*
X1331297Y1629469D1*
X1326489Y1624661D1*
X1324112Y1617476D1*
Y1612723D1*
X1326489Y1605538D1*
X1331297Y1600784D1*
X1336050Y1598352D1*
X1343235D1*
X1348044Y1600784D1*
X1352797Y1605538D1*
X1355229Y1612723D1*
Y1617476D1*
X1352797Y1624661D1*
X1348044Y1629469D1*
X1343235Y1631846D1*
X1336050D1*
X1377853Y1648592D2*
Y1607914D1*
X1380230Y1600784D1*
X1385038Y1598352D1*
X1389791D1*
X1370668Y1631846D2*
X1387415D1*
X1405231Y1590062D2*
X1450662D1*
X1468533Y1636599D2*
Y1638976D1*
X1470910Y1643784D1*
X1473287Y1646161D1*
X1478095Y1648537D1*
X1487657D1*
X1492410Y1646161D1*
X1494786Y1643784D1*
X1497218Y1638976D1*
Y1634222D1*
X1494786Y1629414D1*
X1490033Y1622284D1*
X1466101Y1598352D1*
X1499595D1*
X976760Y785709D2*
X998260D1*
X1005445Y788141D1*
X1007877Y790517D1*
X1010254Y795270D1*
Y800079D1*
X1007877Y804832D1*
X1005445Y807264D1*
X998260Y809640D1*
X976760D1*
Y759400D1*
X993507Y785709D2*
X1010254Y759400D1*
X1054378Y802455D2*
X1052001Y807209D1*
X1044816Y809585D1*
X1040063D1*
X1032878Y807209D1*
X1028069Y800024D1*
X1025693Y788085D1*
Y776147D1*
X1028069Y766585D1*
X1032878Y761777D1*
X1040063Y759400D1*
X1042439D1*
X1049569Y761777D1*
X1054378Y766585D1*
X1056754Y773770D1*
Y776147D1*
X1054378Y783332D1*
X1049569Y788085D1*
X1042439Y790462D1*
X1040063D1*
X1032878Y788085D1*
X1028069Y783332D1*
X1025693Y776147D1*
X2142817Y797470D2*
X2164317D1*
X2171502Y799902D1*
X2173934Y802278D1*
X2176311Y807031D1*
Y811840D1*
X2173934Y816593D1*
X2171502Y819025D1*
X2164317Y821402D1*
X2142817D1*
Y771162D1*
X2159564Y797470D2*
X2176311Y771162D1*
X2201311D2*
X2225243Y821346D1*
X2191750D1*
X1065033Y2507953D2*
X1086533D1*
X1093718Y2510385D1*
X1096150Y2512762D1*
X1098527Y2517515D1*
Y2522324D1*
X1096150Y2527077D1*
X1093718Y2529509D1*
X1086533Y2531885D1*
X1065033D1*
Y2481645D1*
X1081780Y2507953D2*
X1098527Y2481645D1*
X1113966Y2522268D2*
X1118774Y2524700D1*
X1125959Y2531830D1*
Y2481645D1*
X1172515Y2515138D2*
X1170083Y2507953D1*
X1165330Y2503145D1*
X1158145Y2500768D1*
X1155769D1*
X1148584Y2503145D1*
X1143830Y2507953D1*
X1141399Y2515138D1*
Y2517515D1*
X1143830Y2524700D1*
X1148584Y2529453D1*
X1155769Y2531830D1*
X1158145D1*
X1165330Y2529453D1*
X1170083Y2524700D1*
X1172515Y2515138D1*
Y2503145D1*
X1170083Y2491207D1*
X1165330Y2484022D1*
X1158145Y2481645D1*
X1153392D1*
X1146207Y2484022D1*
X1143830Y2488830D1*
X2540595Y2220453D2*
X2562095D1*
X2569280Y2222885D1*
X2571712Y2225262D1*
X2574088Y2230015D1*
Y2234824D1*
X2571712Y2239577D1*
X2569280Y2242009D1*
X2562095Y2244385D1*
X2540595D1*
Y2194145D1*
X2557342Y2220453D2*
X2574088Y2194145D1*
X2591959Y2232392D2*
Y2234768D1*
X2594336Y2239577D1*
X2596713Y2241953D1*
X2601521Y2244330D1*
X2611083D1*
X2615836Y2241953D1*
X2618212Y2239577D1*
X2620644Y2234768D1*
Y2230015D1*
X2618212Y2225207D1*
X2613459Y2218077D1*
X2589528Y2194145D1*
X2623021D1*
X2652830Y2244330D2*
X2645645Y2241953D1*
X2640837Y2234768D1*
X2638460Y2222830D1*
Y2215645D1*
X2640837Y2203707D1*
X2645645Y2196522D1*
X2652830Y2194145D1*
X2657583D1*
X2664768Y2196522D1*
X2669522Y2203707D1*
X2671954Y2215645D1*
Y2222830D1*
X2669522Y2234768D1*
X2664768Y2241953D1*
X2657583Y2244330D1*
X2652830D1*
X2669522Y2234768D2*
X2640837Y2203707D1*
X1626345Y2420453D2*
X1647845D1*
X1655030Y2422885D1*
X1657462Y2425262D1*
X1659838Y2430015D1*
Y2434824D1*
X1657462Y2439577D1*
X1655030Y2442009D1*
X1647845Y2444385D1*
X1626345D1*
Y2394145D1*
X1643092Y2420453D2*
X1659838Y2394145D1*
X1677709Y2432392D2*
Y2434768D1*
X1680086Y2439577D1*
X1682463Y2441953D1*
X1687271Y2444330D1*
X1696833D1*
X1701586Y2441953D1*
X1703962Y2439577D1*
X1706394Y2434768D1*
Y2430015D1*
X1703962Y2425207D1*
X1699209Y2418077D1*
X1675278Y2394145D1*
X1708771D1*
X1724210Y2434768D2*
X1729019Y2437200D1*
X1736204Y2444330D1*
Y2394145D1*
X959673Y2329211D2*
X954920Y2334020D1*
X947735Y2336396D1*
X938173D1*
X930988Y2334020D1*
X926180Y2329211D1*
Y2324458D1*
X928612Y2319650D1*
X930988Y2317273D1*
X935742Y2314896D1*
X950112Y2310088D1*
X954920Y2307711D1*
X957297Y2305280D1*
X959673Y2300526D1*
Y2293341D1*
X954920Y2288588D1*
X947735Y2286156D1*
X938173D1*
X930988Y2288588D1*
X926180Y2293341D1*
X975113Y2326779D2*
X979921Y2329211D1*
X987106Y2336341D1*
Y2286156D1*
X864775Y1981468D2*
Y1947975D1*
Y1967098D2*
X867206Y1974283D1*
X871960Y1979091D1*
X876768Y1981468D1*
X883953D1*
X899392Y1967098D2*
X928077D1*
Y1971906D1*
X925701Y1976715D1*
X923324Y1979091D1*
X918516Y1981468D1*
X911331D1*
X906577Y1979091D1*
X901769Y1974283D1*
X899392Y1967098D1*
Y1962345D1*
X901769Y1955160D1*
X906577Y1950406D1*
X911331Y1947975D1*
X918516D1*
X923324Y1950406D1*
X928077Y1955160D1*
X969825Y1974283D2*
X967448Y1979091D1*
X960263Y1981468D1*
X953078D1*
X945893Y1979091D1*
X943517Y1974283D1*
X945893Y1969530D1*
X950702Y1967098D1*
X962640Y1964721D1*
X967448Y1962345D1*
X969825Y1957536D1*
Y1955160D1*
X967448Y1950406D1*
X960263Y1947975D1*
X953078D1*
X945893Y1950406D1*
X943517Y1955160D1*
X985264Y1967098D2*
X1013949D1*
Y1971906D1*
X1011572Y1976715D1*
X1009196Y1979091D1*
X1004387Y1981468D1*
X997202D1*
X992449Y1979091D1*
X987641Y1974283D1*
X985264Y1967098D1*
Y1962345D1*
X987641Y1955160D1*
X992449Y1950406D1*
X997202Y1947975D1*
X1004387D1*
X1009196Y1950406D1*
X1013949Y1955160D1*
X1036573Y1998215D2*
Y1957536D1*
X1038950Y1950406D1*
X1043758Y1947975D1*
X1048511D1*
X1029388Y1981468D2*
X1046135D1*
X1361425Y2304014D2*
X1356672Y2308823D1*
X1349487Y2311199D1*
X1339925D1*
X1332740Y2308823D1*
X1327931Y2304014D1*
Y2299261D1*
X1330363Y2294453D1*
X1332740Y2292076D1*
X1337493Y2289700D1*
X1351863Y2284891D1*
X1356672Y2282515D1*
X1359048Y2280083D1*
X1361425Y2275330D1*
Y2268144D1*
X1356672Y2263391D1*
X1349487Y2260959D1*
X1339925D1*
X1332740Y2263391D1*
X1327931Y2268144D1*
X1379296Y2299206D2*
Y2301583D1*
X1381672Y2306391D1*
X1384049Y2308768D1*
X1388857Y2311144D1*
X1398419D1*
X1403172Y2308768D1*
X1405549Y2306391D1*
X1407981Y2301583D1*
Y2296829D1*
X1405549Y2292021D1*
X1400796Y2284891D1*
X1376864Y2260959D1*
X1410357D1*
X1819931Y2636304D2*
Y2600435D1*
X1822307Y2593249D1*
X1827116Y2588496D1*
X1834301Y2586064D1*
X1839054D1*
X1846239Y2588496D1*
X1851047Y2593249D1*
X1853424Y2600435D1*
Y2636304D1*
X1868863Y2626688D2*
X1873672Y2629119D1*
X1880857Y2636249D1*
Y2586064D1*
X1933517Y2190842D2*
Y2154972D1*
X1935893Y2147787D1*
X1940702Y2143034D1*
X1947887Y2140602D1*
X1952640D1*
X1959825Y2143034D1*
X1964633Y2147787D1*
X1967010Y2154972D1*
Y2190842D1*
X1984881Y2178848D2*
Y2181225D1*
X1987258Y2186033D1*
X1989634Y2188410D1*
X1994443Y2190787D1*
X2004004D1*
X2008758Y2188410D1*
X2011134Y2186033D1*
X2013566Y2181225D1*
Y2176472D1*
X2011134Y2171663D1*
X2006381Y2164534D1*
X1982449Y2140602D1*
X2015943D1*
X497146Y593823D2*
D84*
X459806D1*
Y533535D1*
Y565105D2*
X482754D1*
X558717Y579497D2*
X555866Y585201D1*
X550095Y590971D1*
X544392Y593823D1*
X532918D1*
X527147Y590971D1*
X521444Y585201D1*
X518525Y579497D1*
X515674Y570875D1*
Y556483D1*
X518525Y547927D1*
X521444Y542157D1*
X527147Y536453D1*
X532918Y533535D1*
X544392D1*
X550095Y536453D1*
X555866Y542157D1*
X558717Y547927D1*
X577245Y593823D2*
Y533535D1*
X603111D1*
X611733Y536453D1*
X614585Y539305D1*
X617437Y545009D1*
Y553631D1*
X614585Y559401D1*
X611733Y562253D1*
X603111Y565105D1*
X611733Y568023D1*
X614585Y570875D1*
X617437Y576579D1*
Y582349D1*
X614585Y588053D1*
X611733Y590971D1*
X603111Y593823D1*
X577245D1*
Y565105D2*
X603111D1*
X635964Y563646D2*
X669125D1*
X690571Y579431D2*
Y582283D1*
X693423Y588053D1*
X696274Y590905D1*
X702045Y593756D1*
X713519D1*
X719222Y590905D1*
X722074Y588053D1*
X724993Y582283D1*
Y576579D1*
X722074Y570809D1*
X716370Y562253D1*
X687652Y533535D1*
X727844D1*
X749223Y539305D2*
X746372Y536387D1*
X749223Y533535D1*
X752142Y536387D1*
X749223Y539305D1*
X787913Y593756D2*
X779291Y590905D1*
X773521Y582283D1*
X770669Y567957D1*
Y559335D1*
X773521Y545009D1*
X779291Y536387D1*
X787913Y533535D1*
X793617D1*
X802239Y536387D1*
X807943Y545009D1*
X810861Y559335D1*
Y567957D1*
X807943Y582283D1*
X802239Y590905D1*
X793617Y593756D1*
X787913D1*
X807943Y582283D2*
X773521Y545009D1*
X610643Y520606D2*
D86*
X629766Y470366D1*
X648889Y520606D1*
X709008Y470366D2*
Y520606D1*
X689885Y470366D1*
X670761Y520606D1*
Y470366D1*
X730880Y495459D2*
X758515D1*
X782819Y508613D2*
Y510989D1*
X785196Y515798D1*
X787572Y518174D1*
X792381Y520551D1*
X801942D1*
X806696Y518174D1*
X809072Y515798D1*
X811504Y510989D1*
Y506236D1*
X809072Y501428D1*
X804319Y494298D1*
X780387Y470366D1*
X813881D1*
X850123Y520551D2*
X842938Y518174D1*
X838129Y510989D1*
X835753Y499051D1*
Y491866D1*
X838129Y479928D1*
X842938Y472743D1*
X850123Y470366D1*
X854876D1*
X862061Y472743D1*
X866814Y479928D1*
X869246Y491866D1*
Y499051D1*
X866814Y510989D1*
X862061Y518174D1*
X854876Y520551D1*
X850123D1*
X866814Y510989D2*
X838129Y479928D1*
X891118Y510989D2*
X895927Y513421D1*
X903112Y520551D1*
Y470366D1*
X934546D2*
X958478Y520551D1*
X924984D1*
X1772410Y1819427D2*
D85*
X1769083Y1826158D1*
X1759024Y1829486D1*
X1748965D1*
X1738906Y1826158D1*
X1735578Y1819427D1*
X1738906Y1812772D1*
X1745637Y1809368D1*
X1762351Y1806040D1*
X1769083Y1802713D1*
X1772410Y1795981D1*
Y1792654D1*
X1769083Y1786000D1*
X1759024Y1782595D1*
X1748965D1*
X1738906Y1786000D1*
X1735578Y1792654D1*
X1834261Y1819427D2*
X1827529Y1826158D1*
X1820797Y1829486D1*
X1810816D1*
X1804084Y1826158D1*
X1797429Y1819427D1*
X1794025Y1809368D1*
Y1802713D1*
X1797429Y1792654D1*
X1804084Y1786000D1*
X1810816Y1782595D1*
X1820797D1*
X1827529Y1786000D1*
X1834261Y1792654D1*
X1855876Y1852931D2*
Y1782595D1*
X1772410Y1719427D2*
X1769083Y1726158D1*
X1759024Y1729486D1*
X1748965D1*
X1738906Y1726158D1*
X1735578Y1719427D1*
X1738906Y1712772D1*
X1745637Y1709368D1*
X1762351Y1706040D1*
X1769083Y1702713D1*
X1772410Y1695981D1*
Y1692654D1*
X1769083Y1686000D1*
X1759024Y1682595D1*
X1748965D1*
X1738906Y1686000D1*
X1735578Y1692654D1*
X1834184Y1752931D2*
Y1682595D1*
Y1719427D2*
X1827529Y1726158D1*
X1820797Y1729486D1*
X1810738D1*
X1804084Y1726158D1*
X1797352Y1719427D1*
X1794025Y1709368D1*
Y1702713D1*
X1797352Y1692654D1*
X1804084Y1686000D1*
X1810738Y1682595D1*
X1820797D1*
X1827529Y1686000D1*
X1834184Y1692654D1*
X1895957Y1729486D2*
Y1682595D1*
Y1719427D2*
X1889303Y1726158D1*
X1882571Y1729486D1*
X1872590D1*
X1865858Y1726158D1*
X1859203Y1719427D1*
X1855799Y1709368D1*
Y1702713D1*
X1859203Y1692654D1*
X1865858Y1686000D1*
X1872590Y1682595D1*
X1882571D1*
X1889303Y1686000D1*
X1895957Y1692654D1*
X2504356Y815713D2*
D87*
X2538800D1*
X2521600Y798514D2*
Y832957D1*
X2514363Y719553D2*
X2510516Y717652D1*
X2508615Y711904D1*
Y706156D1*
X2510516Y700408D1*
X2514363Y698506D1*
X2518166Y700408D1*
X2520111Y704254D1*
X2522012Y713805D1*
X2523914Y717652D1*
X2527760Y719553D1*
X2529662D1*
X2533464Y717652D1*
X2535410Y711904D1*
Y706156D1*
X2533464Y700408D1*
X2529662Y698506D1*
X2521578Y910999D2*
Y933107D1*
X2015843Y734838D2*
D88*
X2008149Y731036D1*
X2004347Y719540D1*
Y708043D1*
X2008149Y696547D1*
X2015843Y692745D1*
X2023448Y696547D1*
X2027339Y704241D1*
X2031141Y723342D1*
X2034944Y731036D1*
X2042637Y734838D1*
X2046440D1*
X2054045Y731036D1*
X2057936Y719539D1*
Y708043D1*
X2054045Y696547D1*
X2046440Y692745D1*
X2037030Y897140D2*
Y941356D1*
X2002586Y808007D2*
X2071474D1*
X2037075Y773608D2*
Y842495D1*
X1203911Y990443D2*
X1200020Y998137D1*
X1188613Y1009633D1*
X1268908D1*
X1928749Y1036339D2*
X1921144Y1032537D1*
X1917342Y1021040D1*
Y1013435D1*
X1921144Y1001939D1*
X1932640Y994246D1*
X1951741Y990443D1*
X1970842D1*
X1986141Y994246D1*
X1993835Y1001939D1*
X1997637Y1013435D1*
Y1017238D1*
X1993835Y1028645D1*
X1986141Y1036339D1*
X1974645Y1040142D1*
X1970842D1*
X1959346Y1036339D1*
X1951741Y1028646D1*
X1947939Y1017238D1*
Y1013435D1*
X1951741Y1001939D1*
X1959346Y994246D1*
X1970842Y990443D1*
X1037487Y1783762D2*
D87*
X1018386D1*
X1016484Y1766562D1*
X1018386Y1768463D1*
X1024134Y1770409D1*
X1029838D1*
X1035586Y1768463D1*
X1039432Y1764661D1*
X1041334Y1758913D1*
Y1755110D1*
X1039432Y1749362D1*
X1035586Y1745516D1*
X1029838Y1743614D1*
X1024134D1*
X1018386Y1745516D1*
X1016484Y1747461D1*
X1014539Y1751264D1*
X1053685Y1770409D2*
X1065181Y1743614D1*
X1076633Y1770409D1*
X1022891Y1685245D2*
D89*
X1038643D1*
X1030054Y1673771D1*
X1034365D1*
X1037217Y1672345D1*
X1038643Y1670919D1*
X1040102Y1666608D1*
Y1663756D1*
X1038643Y1659445D1*
X1035791Y1656560D1*
X1031480Y1655134D1*
X1027169D1*
X1022891Y1656560D1*
X1021465Y1658019D1*
X1020006Y1660871D1*
X1049365Y1675230D2*
X1057987Y1655134D1*
X1066576Y1675230D1*
X1078725Y1685245D2*
X1094477D1*
X1085888Y1673771D1*
X1090199D1*
X1093051Y1672345D1*
X1094477Y1670919D1*
X1095936Y1666608D1*
Y1663756D1*
X1094477Y1659445D1*
X1091625Y1656560D1*
X1087314Y1655134D1*
X1083003D1*
X1078725Y1656560D1*
X1077299Y1658019D1*
X1075840Y1660871D1*
X1030978Y1473764D2*
Y1450783D1*
X1029552Y1446505D1*
X1028126Y1445046D1*
X1025241Y1443620D1*
X1020930D1*
X1018078Y1445046D1*
X1030978Y1469453D2*
X1028126Y1472305D1*
X1025241Y1473764D1*
X1020930D1*
X1018078Y1472305D1*
X1015193Y1469453D1*
X1013767Y1465142D1*
Y1462257D1*
X1015193Y1457979D1*
X1018078Y1455094D1*
X1020930Y1453668D1*
X1025241D1*
X1028126Y1455094D1*
X1030978Y1457979D1*
X1040241Y1475190D2*
Y1455094D1*
Y1469453D2*
X1044552Y1473764D1*
X1047438Y1475190D1*
X1051715D1*
X1054600Y1473764D1*
X1056026Y1469453D1*
Y1455094D1*
X1082501Y1485238D2*
Y1455094D1*
Y1470879D2*
X1079649Y1473764D1*
X1076764Y1475190D1*
X1072453D1*
X1069601Y1473764D1*
X1066716Y1470879D1*
X1065290Y1466568D1*
Y1463716D1*
X1066716Y1459405D1*
X1069601Y1456553D1*
X1072453Y1455094D1*
X1076764D1*
X1079649Y1456553D1*
X1082501Y1459405D1*
X1013767Y1575190D2*
X1022389Y1555094D1*
X1030978Y1575190D1*
X1040241Y1585238D2*
Y1555094D1*
Y1570879D2*
X1043127Y1573764D1*
X1045978Y1575190D1*
X1050289D1*
X1053141Y1573764D1*
X1056026Y1570879D1*
X1057452Y1566568D1*
Y1563716D1*
X1056026Y1559405D1*
X1053141Y1556553D1*
X1050289Y1555094D1*
X1045978D1*
X1043127Y1556553D1*
X1040241Y1559405D1*
X1083927Y1575190D2*
Y1555094D1*
Y1570879D2*
X1081075Y1573764D1*
X1078190Y1575190D1*
X1073912D1*
X1071027Y1573764D1*
X1068175Y1570879D1*
X1066716Y1566568D1*
Y1563716D1*
X1068175Y1559405D1*
X1071027Y1556553D1*
X1073912Y1555094D1*
X1078190D1*
X1081075Y1556553D1*
X1083927Y1559405D1*
X1097501Y1585238D2*
Y1560831D1*
X1098927Y1556553D1*
X1101812Y1555094D1*
X1104664D1*
X1093190Y1575190D2*
X1103238D1*
X2036193Y1652652D2*
D88*
X2032391Y1660258D1*
X2024697Y1667951D1*
X2017092Y1671754D1*
X2001793D1*
X1994100Y1667951D1*
X1986495Y1660258D1*
X1982604Y1652652D1*
X1978801Y1641156D1*
Y1621967D1*
X1982604Y1610559D1*
X1986495Y1602866D1*
X1994100Y1595261D1*
X2001793Y1591370D1*
X2017092D1*
X2024697Y1595261D1*
X2032391Y1602866D1*
X2036193Y1610559D1*
X2099187Y1671754D2*
Y1610559D1*
X2095384Y1599063D1*
X2091493Y1595261D1*
X2083888Y1591370D1*
X2076195D1*
X2068589Y1595261D1*
X2064787Y1599063D1*
X2060896Y1610559D1*
Y1618164D1*
X2185084Y1591370D2*
Y1671754D1*
X2154487Y1591370D1*
X2123890Y1671754D1*
Y1591370D1*
X1966255Y1506342D2*
X1973948Y1510233D1*
X1985444Y1521640D1*
Y1441345D1*
X2033139Y1521640D2*
X2021643Y1517838D1*
X2013950Y1506342D1*
X2010147Y1487240D1*
Y1475744D1*
X2013950Y1456643D1*
X2021643Y1445147D1*
X2033139Y1441345D1*
X2040744D1*
X2052241Y1445147D1*
X2059846Y1456643D1*
X2063737Y1475744D1*
Y1487240D1*
X2059846Y1506342D1*
X2052241Y1517838D1*
X2040744Y1521640D1*
X2033139D1*
X2059846Y1506342D2*
X2013950Y1456643D1*
X2088439Y1521729D2*
Y1441345D1*
X2115234D1*
X2126730Y1445236D1*
X2134424Y1452841D1*
X2138226Y1460534D1*
X2142029Y1471942D1*
Y1491131D1*
X2138226Y1502627D1*
X2134424Y1510233D1*
X2126730Y1517926D1*
X2115234Y1521729D1*
X2088439D1*
X2189724D2*
X2182030Y1517926D1*
X2174425Y1510233D1*
X2170534Y1502627D1*
X2166732Y1491131D1*
Y1471942D1*
X2170534Y1460534D1*
X2174425Y1452841D1*
X2182030Y1445236D1*
X2189724Y1441345D1*
X2205022D1*
X2212627Y1445236D1*
X2220321Y1452841D1*
X2224123Y1460534D1*
X2227926Y1471942D1*
Y1491131D1*
X2224123Y1502627D1*
X2220321Y1510233D1*
X2212627Y1517926D1*
X2205022Y1521729D1*
X2189724D1*
X2302416D2*
X2252629D1*
Y1441345D1*
Y1483438D2*
X2283226D1*
X1780389Y2047158D2*
D84*
X1751737D1*
X1748885Y2021358D1*
X1751737Y2024210D1*
X1760359Y2027129D1*
X1768915D1*
X1777537Y2024210D1*
X1783307Y2018507D1*
X1786159Y2009884D1*
Y2004181D1*
X1783307Y1995559D1*
X1777537Y1989788D1*
X1768915Y1986937D1*
X1760359D1*
X1751737Y1989788D1*
X1748885Y1992707D1*
X1745967Y1998411D1*
X1804686Y2027129D2*
X1821930Y1986937D1*
X1839108Y2027129D1*
X1761608Y1930564D2*
Y1884602D1*
X1758756Y1876046D1*
X1755904Y1873128D1*
X1750134Y1870276D1*
X1741512D1*
X1735808Y1873128D1*
X1761608Y1921942D2*
X1755904Y1927646D1*
X1750134Y1930564D1*
X1741512D1*
X1735808Y1927646D1*
X1730038Y1921942D1*
X1727186Y1913320D1*
Y1907550D1*
X1730038Y1898994D1*
X1735808Y1893224D1*
X1741512Y1890372D1*
X1750134D1*
X1755904Y1893224D1*
X1761608Y1898994D1*
X1780135Y1933416D2*
Y1893224D1*
Y1921942D2*
X1788757Y1930564D1*
X1794527Y1933416D1*
X1803083D1*
X1808853Y1930564D1*
X1811705Y1921942D1*
Y1893224D1*
X1864654Y1953512D2*
Y1893224D1*
Y1924794D2*
X1858950Y1930564D1*
X1853180Y1933416D1*
X1844558D1*
X1838854Y1930564D1*
X1833084Y1924794D1*
X1830232Y1916172D1*
Y1910468D1*
X1833084Y1901846D1*
X1838854Y1896142D1*
X1844558Y1893224D1*
X1853180D1*
X1858950Y1896142D1*
X1864654Y1901846D1*
M02*
